<svg xmlns="http://www.w3.org/2000/svg" viewBox="0 0 2600 710.23"><style>.A{isolation:isolate}.D,.F{mix-blend-mode:multiply}.E,.G,.I{mix-blend-mode:soft-light}</style><defs><radialGradient id="A" cx="341.79" cy="345.66" r="343.75" gradientUnits="userSpaceOnUse"><stop offset=".59" stop-color="#1622a0"/><stop offset="1" stop-color="#5757e8"/></radialGradient></defs><g class="A"><g><g opacity=".71"><path d="M548.77 186.93a176.81 176.81 0 0 1-20.72 78l-1.61 2.94A174 174 0 0 1 483 319.29a171.38 171.38 0 0 1-16.68 11.85A175.72 175.72 0 0 1 427 349.48h0l-2.92.93a176.06 176.06 0 0 1-226.5-153.67l-.26-3.25a175.58 175.58 0 0 1 11.05-73.55l2.66-6.61a178 178 0 0 1 17.67-31.94 163.69 163.69 0 0 1 10.6-13.65l1.86-2.18a174.2 174.2 0 0 1 37.34-31.8l2.94-1.81 8.2-4.72 2.6-1.35A175.84 175.84 0 0 1 506.71 68l2.86 3.45A174.77 174.77 0 0 1 522.68 90l2.18 3.68A176 176 0 0 1 542 133.76l.79 2.86a174.7 174.7 0 0 1 5.82 37.19c.22 4.36.27 8.71.16 13.12z" fill="url(#A)"/><path class="D" d="M544.82 219.31s-80.82 6.25-97.42-23.17-33.41-36.8-59.78-33.69-59.54 24.33-91.57 15.76-92.89-42.11-92.89-42.11c-5.24 16.18-6.17 46.44-6.17 46.44s14.28 50.73 54.42 53.82 130.51 17.09 189.91 34.54S517 283.14 517 283.14c22.78-31.86 27.82-63.83 27.82-63.83zm-289.07 1.55c-4.18-10.37 22.52-11.61 27.75-4.1s-18.93 26.08-27.75 4.1zm113.1-47.38c25-10.18 68.95 8.09 64.77 24.49s-84.09-16.62-64.77-24.49zm50.34 84c-.71-14.59 17.05-5.12 21.21 2.49s-20.65 9.3-21.21-2.49zm77.67-.34c.47-7.88 11.68-8.18 11.49.3s-11.71 3.73-11.49-.3z" fill="#974d8b" opacity=".3"/><g fill="#5fcccc"><path class="E" d="M548.76 186.93S490.81 150.61 445 141.32s-96.51 19.5-155.16 9.42c-30.36-5.23-58.62-22.23-78.78-37.4A177 177 0 0 1 228.7 81.4c10.7 10.72 40.3 38.6 67.93 48.68 34.54 12.54 66.38-1.11 124.56 2.24 49.8 2.87 110.92 32.93 127.42 41.5.23 4.35.27 8.71.15 13.11zm-281 88.07c-6.68 4.64-23.08-.41-21.67-3.66 2.71-6.11 28.35-.95 21.67 3.66zm12.68-9.56c2.48-3.59 17.37-.95 16.5 1.35s-18.76 1.93-16.5-1.33zm166.8 47c4.94-5.54 31.37 5 30 11.33s-34.93-5.77-30-11.32zm-122.48-42.31c-66.3-13.1-103.06-25.61-118.44-31.6a174.93 174.93 0 0 0 25.05 48c28.18.44 55.5-24.53 131.21-1.13a503.18 503.18 0 0 1 103.77 45.7A172.41 172.41 0 0 0 483 319.3c-27.81-11.64-90.17-35.73-158.24-49.17z" opacity=".51"/></g><g fill="#190024"><path class="F" d="M291 95.7c-1.33 6.38 24.27 18.24 29.16 11s-26.41-24.31-29.16-11zm8.74 20.93c1.06 5.06 7 5.15 7.68 2.9s-8.75-7.97-7.68-2.9zm147.46 63.81c7.1-7.21 10.38-3.12 12 .65s-14.2 1.6-12-.65zm2.8-59.17c7.1-7.22 10.38-3.13 12 .64s-14.21 1.6-12-.64zm-97.2 190.28c7.1-7.22 10.38-3.13 12 .64s-14.22 1.61-12-.64zm128.32-107.33c.84 3.66 7.23 4.34 6.82.18s-8.25-6.4-6.82-.18zM348.89 53.63c.85 3.66 7.23 4.34 6.83.18s-8.26-6.39-6.83-.18z" opacity=".1"/></g><g fill="#5fcccc"><path class="E" d="M471.85 292.5c2.78.77 12.68 7.44 12.19 13.3s-25 .75-24.1-4.58 8.06-9.78 11.91-8.72zM478 121.06c2.78.77 12.68 7.44 12.19 13.3s-25 .75-24.1-4.58 8.1-9.78 11.91-8.72zM409.57 50c.69 2.8-.29 14.69-5.64 17.13s-12.87-21.43-7.79-23.27 12.48 2.26 13.43 6.14z" opacity=".51"/></g><g class="G" fill="#e9e9a8"><path d="M448.09 93.41a18.63 18.63 0 0 0 .27-8.4 3.29 3.29 0 0 0-.46-1.27 2.63 2.63 0 0 0-2.37-.89 5.42 5.42 0 0 0-4.63 3.92 6.72 6.72 0 0 0 1.44 6 4.53 4.53 0 0 0 3 1.74 2.55 2.55 0 0 0 2.7-1.82.55.55 0 0 0-.91.17zm41.3 16.13a4.8 4.8 0 0 0-1.48-4.41 5.07 5.07 0 0 0-3.36 3.23 3.05 3.05 0 0 0 2.1 3.76c1.59.28 3.19-1.71 2.29-3.06zM484.6 95a5.43 5.43 0 0 0-.68-1.49.32.32 0 0 0-.14-.14.24.24 0 0 0-.2 0c-.5.28-.57 1.16-1.13 1.19a.5.5 0 0 0-.3 0c-.14.1 0 .32.06.44a1.49 1.49 0 0 0 2.28-.28c0 .08 0 .17.05.25zm-11.47-13.72a10.19 10.19 0 0 0-1.28-2.81.51.51 0 0 0-.26-.26.5.5 0 0 0-.39.07c-.93.52-1.05 2.19-2.12 2.24-.19 0-.41 0-.57.07s-.1.61.12.84a2.83 2.83 0 0 0 4.31-.52c0 .15.05.3.08.46zM501 74.45a10.46 10.46 0 0 0-1.27-2.81.59.59 0 0 0-.27-.25.46.46 0 0 0-.38.06c-.94.53-1.06 2.2-2.13 2.25-.19 0-.41 0-.56.07s-.1.6.12.84a2.82 2.82 0 0 0 4.3-.53c0 .16.05.31.08.46zm-13.27 11.29a2.49 2.49 0 0 0-.65-2.08 2.52 2.52 0 0 0-.68.74.86.86 0 0 0 0 .95c.3.34.85.27 1.3.16l-.2.33zm-4.99-2.16a1 1 0 0 0-.3-.54 1.08 1.08 0 0 0-.59-.11 9.36 9.36 0 0 1-1.67-.17l1.76 2.16a.55.55 0 0 1 .12.19c.07.25-.21.45-.28.69s.23.7.56.88c2.35 1.32.74-2 .4-3.1zm-26.49-9.91a1 1 0 0 0-.3-.54 1 1 0 0 0-.59-.12 9.16 9.16 0 0 1-1.66-.16l1.75 2.15a.47.47 0 0 1 .12.19c.07.24-.21.45-.28.69s.23.69.56.87c2.35 1.3.74-1.98.4-3.08zm34.13-6.38l-.48-.65a1.3 1.3 0 0 0-.45 1.44c.22.5 1 .65 1.3.18.17-.29.31-.81.6-.64zm-40.75-.6a1.11 1.11 0 1 1 0-.1zm9.71 8.04c.48.37 1 1 .71 1.5s-1 .4-1.59.22c-.24-.08-.52-.2-.57-.44-.13-.6 1.11-.7 1.1-1.32.15-.09.35.17.21.29zm38.75 42.83a2.83 2.83 0 0 0-1.42-2.16 1.45 1.45 0 0 0-2 1 1.14 1.14 0 0 0 .23.73 2 2 0 0 0 .34.31 2.33 2.33 0 0 0 1.67.58 1.16 1.16 0 0 0 1.06-1.22zm18.72 10.1a1.22 1.22 0 0 0-.71.32 3.43 3.43 0 0 0-.32.73c-.26.56-.93.79-1.33 1.27-.69.82-.38 2.06 0 3.08.08.24.2.51.45.57a1 1 0 0 0 .52-.12c1.21-.47 2 .68 3.1.54a3.31 3.31 0 1 0-1.68-6.39zm-28.58-32.8a1.16 1.16 0 0 1 .33.59 1.85 1.85 0 0 1-1.42-.92c-.2-.25-.4-.6-.23-.88s.36-.27.54-.41c.36-.28.53-.91 1-.86a.56.56 0 0 1 .44.55 1.62 1.62 0 0 1-.21.74l-.72 1.53zm-6.23 6.3c0-.48-.78-.55-1.05-.16a1.71 1.71 0 0 0-.08 1.37 1.65 1.65 0 0 0 1.42-1.17zm-1.47-6.9a1.75 1.75 0 0 0-.26-.63.56.56 0 0 0-.6-.24c-.37.11-.41.62-.68.88s-.77.3-.93.64a.65.65 0 0 0 .53.83 1.74 1.74 0 0 0 1.07-.29 1.9 1.9 0 0 0 .75-.65.72.72 0 0 0-.12-.92z"/><path d="M479.52 91.36a.43.43 0 0 1-.5.32.74.74 0 0 1-.51-.39.72.72 0 0 1-.13-.37.56.56 0 0 1 .58-.55.6.6 0 0 1 .53.62.66.66 0 0 1-.6.58zm-31.34 6.11a.44.44 0 0 1-.5.33.83.83 0 0 1-.52-.4.77.77 0 0 1-.16-.4.55.55 0 0 1 .58-.55.59.59 0 0 1 .52.62.63.63 0 0 1-.6.57zm34.12-7.22a.66.66 0 0 0 .33-1.08 1.18 1.18 0 0 0-.65.32.58.58 0 0 0-.07.68.37.37 0 0 0 .61 0zm-31.82-34.36a.67.67 0 0 0 .33-1.09 1.1 1.1 0 0 0-.65.33.56.56 0 0 0-.07.68.38.38 0 0 0 .61 0zM440.58 78a1.88 1.88 0 0 0 0-1.65l-1.21.7a1.15 1.15 0 0 0-.49.41.74.74 0 0 0 .46 1 1.05 1.05 0 0 0 1.11-.45zm12.87 4.71l1.43 2.08c-.22.37-.79.1-1.11-.18a2.26 2.26 0 0 1-.76-1c-.1-.41.16-1 .59-1zM512 103.19a.89.89 0 0 0-.44-1.44 1.32 1.32 0 0 0-1.45.86 1 1 0 0 0 0 .78.94.94 0 0 0 1.06.41 2.81 2.81 0 0 0 1.05-.62zm-55.18-31.04a1.43 1.43 0 0 0 .33-1.58 1.66 1.66 0 0 0-1.1.5 1.16 1.16 0 0 0-.21 1.48c.35.42 1.22.22 1.21-.33zm-1.6 5.65a.85.85 0 0 1-.69.81l-.73-1a1 1 0 0 1 1.53-.09zm46.71 31.55l-1.19 1.65a1.1 1.1 0 0 0-.26.5 1.14 1.14 0 0 0 .13.57c.26.67.71 1.45 1.42 1.4s1.08-1 1.41-1.69c.63-1.31 4-3.44 2.73-5.14s-3.52 1.72-4.24 2.71zm6.63-9.16l.37.35a2.68 2.68 0 0 1-1.12.33.93.93 0 0 1-.92-.61c-.1-.38.28-.84.65-.7a2.06 2.06 0 0 1 1 .67zm-31.27-2.59a.85.85 0 0 1-1.5.38c-.14-.18-.17-.49 0-.6a.64.64 0 0 1 .28 0l1.24.1a1.6 1.6 0 0 0 0 .21zm-6.19 1.85c-.39-.14-.78.18-1 .49s-.59.67-1 .62a.36.36 0 0 1-.27-.17c-.13-.26.2-.49.37-.72a2.72 2.72 0 0 0 .27-.63 1.37 1.37 0 0 1 1.31-.8.76.76 0 0 1 .36.75.75.75 0 0 1-.55.62zm-1.1-3.94l-.18-.43a.56.56 0 0 0-.58.41.47.47 0 0 0 .38.57.41.41 0 0 0 .42-.5zm-11-.9l-.18-.43a.56.56 0 0 0-.58.42.47.47 0 0 0 .38.56.41.41 0 0 0 .42-.5zm26.37-5.88c0 .3.37.48.67.39a9.05 9.05 0 0 0 .8-.45 1.14 1.14 0 0 1 .92 0 .52.52 0 0 1 .32.41.63.63 0 0 1-.11.35 3.35 3.35 0 0 1-1.22 1.31 1.54 1.54 0 0 1-1.71-.09 1.19 1.19 0 0 1-.39-1.14 1.22 1.22 0 0 1 .8-.9zm-41.15-49.87c0 .31.37.48.67.39a8.06 8.06 0 0 0 .8-.45 1.14 1.14 0 0 1 .92 0 .52.52 0 0 1 .32.42.56.56 0 0 1-.12.34 3.24 3.24 0 0 1-1.22 1.32 1.56 1.56 0 0 1-1.7-.09 1.19 1.19 0 0 1 .41-2zm44.28 42.29a.75.75 0 0 0-.43-.94 1.08 1.08 0 0 0-1.07.23c-.12.11-.24.3-.15.44a.44.44 0 0 0 .31.15l1.39.25zm-44.58-26.68a3.74 3.74 0 0 0 2.3-1.74.62.62 0 0 0 .11-.47c-.11-.37-.64-.28-1-.29-.64 0-1.18-.57-1.82-.59a2.32 2.32 0 0 0-1.41.64c-.6.47-1.27 1.25-.85 1.88a1.41 1.41 0 0 0 1 .49 7.64 7.64 0 0 0 2.48-.11zm27.82 10.98c.59.09.86-.71.89-1.31a1.21 1.21 0 0 0-.27-1c-.39-.31-1 0-1.39.24l-1.09.73a.71.71 0 0 0-.37.43.68.68 0 0 0 .21.46 6 6 0 0 0 2 1.58zm-6.51 18.36c5.16 1.37 6.21-4.8 2.2-7-4.21-2.27-6.7 5.8-2.2 7zm23.28 18.49a1.24 1.24 0 0 1-2 .1 3.14 3.14 0 0 1 1.37-1.14 1.08 1.08 0 0 1 1.42.72l-.59.88zm-14.34 9.85l-.51-.69a7.27 7.27 0 0 1-2.64 1.45 7.31 7.31 0 0 0-1.45.5 1.49 1.49 0 0 0-.83 1.2c0 1 1.19 1.43 2.14 1.37a4.13 4.13 0 0 0 3.11-1.57 2.87 2.87 0 0 0 0-3.36l-1 .66zm-5.66-6.49c.24-.33-.05-.49-.44-.38a5 5 0 0 0-1.19.68l-2.58 1.81c-.48.34-1.05.78-1.13 1.14s.28.39.7.27a5.2 5.2 0 0 0 1.32-.65c1.45-.87 3.14-2.08 3.47-3.13l-.84.18zm-2.78-5.1a.32.32 0 0 1-.36.29.79.79 0 0 1-.45-.26.92.92 0 0 1-.23-.36.63.63 0 0 1 .32-.71.79.79 0 0 1 .81.08.52.52 0 0 1 .23.33.29.29 0 0 1-.2.32zM475.89 75a11.74 11.74 0 0 0 1.45-1.84.69.69 0 0 0-.54-.28 2.1 2.1 0 0 0-2.25 2.07.73.73 0 0 0 .16.48.57.57 0 0 0 .64 0 1.6 1.6 0 0 0 .5-.47zm3.27 12.29l-.22-.44a1 1 0 0 0-.62.4c-.12.23 0 .59.28.54a.52.52 0 0 0 .25-.14l.68-.6zm-36.61-18.44a3 3 0 0 0-.23-1.18 1 1 0 0 0-.95-.61 1 1 0 0 0-.53.27 1.12 1.12 0 1 0 1.67 1.48zm13.95-15.26a.81.81 0 0 1-.49 1.3 2.37 2.37 0 0 1-.7-.64 1.48 1.48 0 0 1 .89-.52zm4.89 8.96c.19-.3-.42-.58-.63-.29s0 .71.25.94a.77.77 0 0 0 .37-.84zm29.75 50.59l-.49-.66a1.41 1.41 0 0 0-.51.35.77.77 0 0 0 .95.52zm69.62-5.5l-.49-.66a1.54 1.54 0 0 0-.52.35.78.78 0 0 0 1 .52zM525.27 102a2.86 2.86 0 0 1 1 2.58.58.58 0 0 1-.13.32.59.59 0 0 1-.52.07c-1.05-.2-2.32-.62-2.49-1.67a1.38 1.38 0 0 1 1.78-1.42l.25.86zm-16.03 85.74a4.8 4.8 0 0 0-1.48-4.41 5 5 0 0 0-3.35 3.23 3 3 0 0 0 2.1 3.76c1.59.28 3.18-1.71 2.29-3.06zm-4.79-14.56a5.43 5.43 0 0 0-.68-1.49.24.24 0 0 0-.14-.14.25.25 0 0 0-.2 0c-.49.28-.56 1.16-1.13 1.19a.51.51 0 0 0-.3 0c-.13.1-.05.33.07.45a1.49 1.49 0 0 0 2.28-.28v.25zm16.43-20.53a10.81 10.81 0 0 0-1.28-2.81.72.72 0 0 0-.26-.26.54.54 0 0 0-.39.07c-.93.53-1.06 2.2-2.13 2.24-.19 0-.4 0-.56.08s-.1.6.12.84a2.82 2.82 0 0 0 4.3-.53l.09.46zm-13.29 11.29a2.48 2.48 0 0 0-.65-2.08 2.66 2.66 0 0 0-.69.73.86.86 0 0 0 0 .95c.3.35.86.28 1.3.17l-.19.32zm-4.99-2.16a1 1 0 0 0-.31-.54 1.18 1.18 0 0 0-.59-.12 8.41 8.41 0 0 1-1.7-.12l1.76 2.16a.72.72 0 0 1 .11.19c.07.24-.21.45-.28.69s.23.7.56.88c2.39 1.24.78-2.04.45-3.14zm7.64-16.29l-.48-.66a1.3 1.3 0 0 0-.46 1.45c.22.5 1 .65 1.31.18.16-.29.31-.81.6-.64zm7.76 50.26a2.88 2.88 0 0 0-1.42-2.15 1.45 1.45 0 0 0-2 1 1.14 1.14 0 0 0 .24.73 1.45 1.45 0 0 0 .34.31 2.33 2.33 0 0 0 1.67.58 1.15 1.15 0 0 0 1-1.22zm-9.91-22.69a1.15 1.15 0 0 1 .32.59 1.88 1.88 0 0 1-1.41-.92c-.21-.26-.41-.61-.24-.89s.37-.26.54-.4c.36-.28.53-.91 1-.86a.55.55 0 0 1 .44.55 1.79 1.79 0 0 1-.21.74l-.72 1.52zm-5.94-4.61a.67.67 0 0 0 .33-1.09 1.23 1.23 0 0 0-.65.33.56.56 0 0 0-.06.68.37.37 0 0 0 .61 0zm29.74 12.94a.9.9 0 0 0-.44-1.44 1.31 1.31 0 0 0-1.45.86 1 1 0 0 0 0 .78.93.93 0 0 0 1.06.4 2.66 2.66 0 0 0 1.05-.61zm-10.11 6.16l-1.19 1.62a1.08 1.08 0 0 0-.25.5 1.15 1.15 0 0 0 .12.57c.27.67.71 1.45 1.43 1.4s1.07-1 1.41-1.69c.62-1.31 4-3.44 2.73-5.14s-3.52 1.75-4.25 2.74zm6.63-9.16l.38.35a2.88 2.88 0 0 1-1.13.33.93.93 0 0 1-.92-.61c-.1-.38.29-.84.66-.7a2 2 0 0 1 1 .67zm-23.19-11.46c0 .3.38.48.67.39a9.05 9.05 0 0 0 .8-.45 1.06 1.06 0 0 1 .92 0 .53.53 0 0 1 .33.41.77.77 0 0 1-.12.35 3.28 3.28 0 0 1-1.22 1.37 1.54 1.54 0 0 1-1.71-.09 1.19 1.19 0 0 1 .42-2zm3.13-7.58a.74.74 0 0 0-.43-.94 1.07 1.07 0 0 0-1.06.23c-.13.11-.24.3-.15.44a.42.42 0 0 0 .3.15l1.39.25zm.02 21.15a1.25 1.25 0 0 1-2 .1 3.08 3.08 0 0 1 1.37-1.14 1.07 1.07 0 0 1 1.41.72l-.58.88zm2.63 10.83l-.49-.65a1.5 1.5 0 0 0-.51.35.78.78 0 0 0 .95.52zm34.12-11.16a2.85 2.85 0 0 1 1 2.58.52.52 0 0 1-.14.32.59.59 0 0 1-.52.07c-1-.2-2.31-.62-2.48-1.67a1.38 1.38 0 0 1 1.78-1.42l.24.85zm-54.9-27.42a2.86 2.86 0 0 1 1 2.59.55.55 0 0 1-.14.32.62.62 0 0 1-.52.06c-1-.2-2.31-.61-2.48-1.66a1.37 1.37 0 0 1 1.78-1.42l.24.85z"/></g><g class="I" opacity=".51" fill="#5fcccc"><path d="M285.06 36.62l-6.56-2.86 2.94-1.81 4.75 2.07 3.45 1.52A548.17 548.17 0 0 0 444 77.57l17.53 1.92c14.13 1.47 28.77 3 43 5.85A182.31 182.31 0 0 1 522.68 90l2.18 3.68a182.61 182.61 0 0 0-20.95-5.52c-14.07-2.82-28.6-4.35-42.68-5.79l-17.58-1.92a550.82 550.82 0 0 1-155.14-42.34zm257.72 100c-13.94-.94-27.36-5.74-40.39-10.43l-7.8-2.77c-35.19-12.24-69.37-17.87-101.59-16.79-7 .25-14.13.82-21 1.35-10.68.88-21.7 1.76-32.61 1.45a153.53 153.53 0 0 1-90.06-32.68 90.66 90.66 0 0 1-10-9 42.05 42.05 0 0 1 1.86-2.18 86.7 86.7 0 0 0 9.87 9 150.6 150.6 0 0 0 88.38 32.05c10.74.31 21.71-.57 32.31-1.41 6.92-.57 14.1-1.13 21.17-1.36 32.56-1.13 67.1 4.58 102.63 16.9l7.83 2.8c12.55 4.49 25.44 9.13 38.64 10.23l.76 2.84z"/></g><g class="I" opacity=".51"><path d="M528.05 265l-1.61 2.94-5.65.37c-13.71.59-32-1.47-41.58-14.73a62.39 62.39 0 0 1-4.92-8.82c-2.57-5.34-5-10.37-9.69-13.09-3.82-2.17-8.37-2.23-11.51-1.86-7.66.87-14.44 4.49-21.62 8.31-5.79 3.08-11.76 6.27-18.23 7.88-9.72 2.41-20.07 1.13-29.23 0l-1-.14-62.5-7.83c-3.73-.48-8-1-11.53-3.22s-6.53-6.5-5.28-11.16c.67-2.52 2.37-4.33 4-6.08a19.49 19.49 0 0 0 2.74-3.34c2.54-4.29.68-10-2.37-13.22s-7.61-5.29-13.71-6.33c-13-2.21-26.4.76-39.35 3.61-11.33 2.52-23.06 5.12-34.85 4.38a62.33 62.33 0 0 1-22.55-5.9c-.12-1.08-.17-2.18-.26-3.25a60.1 60.1 0 0 0 23 6.33c11.36.73 22.9-1.84 34.06-4.3 13.2-2.94 26.85-6 40.39-3.64 6.73 1.13 11.87 3.56 15.29 7.15 3.87 4 6.05 11.05 2.77 16.62a22.76 22.76 0 0 1-3.11 3.81c-1.47 1.58-2.85 3-3.33 4.86-.85 3.14 1.41 6.42 4 8.06 3.05 1.89 6.95 2.4 10.37 2.83q31.24 4 62.52 7.82l1 .15c9.33 1.15 19 2.34 28.21 0 6.13-1.52 12-4.63 17.58-7.63 7.1-3.79 14.44-7.69 22.64-8.62 5.12-.59 9.67.17 13.23 2.23 5.45 3.14 8.2 8.79 10.85 14.28a56.15 56.15 0 0 0 4.64 8.39c8.82 12.27 26.17 14.13 39.15 13.57 2.49-.09 4.98-.26 7.44-.43z" fill="#5fcccc"/></g><g class="I" opacity=".51"><path d="M427 349.48l-2.92.93a79.57 79.57 0 0 1-7.08-11.19l-1.64-2.88c-10.85-18.86-24.73-32.68-40.16-40-17.78-8.42-38.22-9-57.66-8.31-22.93.8-49 3.59-68.38 18.26l-1.72-2.29c20-15.18 46.61-18 70-18.85 19.79-.68 40.65-.12 59 8.59 15.94 7.58 30.27 21.82 41.41 41.15l1.64 2.92a73.64 73.64 0 0 0 7.51 11.67z" fill="#5fcccc"/></g><g class="I" opacity=".51"><path d="M509.57 71.47l-4.7-.94a289.29 289.29 0 0 0-61.56-5.88 18.73 18.73 0 0 1-7.29-.87c-5.12-2-7-7.15-8.82-12.13a40.92 40.92 0 0 0-2.68-6.27c-4.5-7.92-14.22-10.63-21.77-10.52s-14.95 2.43-22.16 4.67l-3.59 1.1c-19.93 6-36 7.86-50.54 5.71-15-2.26-28.18-9.19-36.85-19.11.87-.45 1.72-.93 2.6-1.35 8.19 9.15 20.57 15.57 34.65 17.66s29.82.31 49.32-5.6l3.53-1.1c7.41-2.32 15-4.69 23-4.8 8.34-.12 19.17 3 24.26 11.92a48.46 48.46 0 0 1 2.88 6.7c1.67 4.61 3.28 8.94 7.21 10.49a16.11 16.11 0 0 0 6.1.68 290.61 290.61 0 0 1 62.27 5.93l1.27.26c1 1.13 1.96 2.29 2.87 3.45z" fill="#5fcccc"/></g></g></g></g></svg>