<svg xmlns="http://www.w3.org/2000/svg" viewBox="0 0 2600 710.23"><style>.A{isolation:isolate}.E{mix-blend-mode:multiply}</style><defs><linearGradient id="A" x1="906.87" y1="627.34" x2="906.87" y2="424.94" gradientUnits="userSpaceOnUse"><stop offset="0" stop-color="#1cb9ca"/><stop offset=".51" stop-color="#3767b5"/><stop offset="1" stop-color="#333cbe"/></linearGradient><linearGradient id="B" x1="1970.86" y1="627.34" x2="1970.86" y2="422.69" gradientUnits="userSpaceOnUse"><stop offset="0" stop-color="#1cb9ca"/><stop offset=".49" stop-color="#3767b5"/><stop offset="1" stop-color="#333cbe"/></linearGradient><linearGradient id="C" x1="1749.63" y1="444.39" x2="1749.63" y2="429.64" gradientUnits="userSpaceOnUse"><stop offset="0" stop-color="#003d9f"/><stop offset="1" stop-color="#1d2486"/></linearGradient></defs><g class="A"><g><path d="M1490.29 561.56l-15.37-.71-.43-6.25-1.8-6.78-3.46-1.39-1.25 14.1-55.05 8.19-90.79 8.14-95.46-22.68-81.48 12.21-88.46-9.9-166.46-6.98-14.23-23.1-15.13-6.95V510l-7.03 3.06v-18.77l-5.4 9.98v22.14h-30.25l-4.33-6.95-5.94-3.33-5.4-5.62h-32.96l-19.81-17.55-13.15-7.68-11.35-16.75-24.85-16.79-7.02-13.61-9.19-8v-5.19l-10.8 4.69-6.49 49.22-4.32-10.32-7.02-.23-6.49-14.67-8.43-4.33-9.83-6.57-.03-9.1-10.14 14h-7.25v3.5l-9.19 13v10l-6.75 4.25-2.97 6-5.95 2.82-4.05 12.18-2.16 2.25-9.19-17.25-5.94 4.75-6.75.75-7.84-2.68-12.15 5.93-18.14-14.28-11.87.11-5.11 11.92-19.18-16.25-11.35 4.5v4.75l-5.4 13.75-16.21 12.25-15.67 5-9.81 4.75-12.26 10.38-6.03 5.74-12.2-15.32-11.12-4.01-1.55 6.33-9.73 10.5-13.9 6.18-21.01 4.94-16.51 7.84v75.13h1166.84" fill="url(#A)"/><path d="M1591.2 627.34h860.23l-1.4-146-2.49-9.68h-6l-8.89 8.42v32.45l-3.21-.72-8.91-31.81-7.11-30-20.62-3.72-8.88 7.72v37.63h-3.56V480h-9.24l-9.24 15.36-2.49 9.42-5.39 4.12-10.56 28H2279l-6.16-12.31-33.5-15.18-12.59-45.5-9.32-2.84-8.9-33s-8.53-13.79-36.52 2.67l.72 9.46-3.37 2.35.42 28.2-23.9 5.45-14.31 19.44-35.92 8.05-27.06 3.79-7 20.38-8.4.79-4 12.64-3.73 4.11-3.73 11.37h-7.47l-7.15-28.75-5.6-1.26-7.78-36.34-20.53-13.9-6.2 9.48v10.43l-3 .47-5.44 32.7-2.18 1.27-21.46 8.53-140-10.11-43-36 .36-45-12.14-5.69-8.16 10-2.1 15.4-2.56.47v-9l-16.26 4-26.9 46-31.72-1-14.44-2.38v-6.4l-8.4-9.24-7.69-1.89-5.14 18.95-4.19 1.19-4.34 30.53-2 .58-2.29 16.9-31.1-3.56 2.13-46.42-4.53-2.25-.71-6.4-7.29-8.61h-16l-4.8 4-16 8.06L1542 553h-1.47l1.07-44.14-2.8-1.63-3.87 5-2.4.92-4.53 42.71-12.66-8-3 1-1.65 7.4h-8.8l-1.6-11.64-4.13-1-5.86-6.64v90.36z" fill-rule="evenodd" fill="url(#B)"/><path d="M1747.43 442.7v-4.33l-.9-4 3.55-4.73 2.38 2.04.28 6.69-1.7 6.02-3.61-1.69z" fill="url(#C)"/><path class="E" d="M1746.53 434.37l1.58 2.82.69 2.64h2.24l1.7-1.46-1.7 6.02-3.61-1.69v-4.33l-.9-4z" fill="#610051" opacity=".5"/></g></g></svg>