<svg xmlns="http://www.w3.org/2000/svg" xmlns:xlink="http://www.w3.org/1999/xlink" viewBox="0 0 2600 710.23"><style><![CDATA[.A{isolation:isolate}.R,.D{mix-blend-mode:soft-light}.G{mix-blend-mode:multiply}.i{opacity:.5}.j{fill:#ffb}.k{fill:#610051}.l{fill:#083982}.m{fill:#004d98}.n{fill:#062765}]]></style><defs><linearGradient id="A" x1="1301.01" y1="710.23" x2="1301.01" y2="549.83" xlink:href="#X"><stop offset="0" stop-color="#0e3d77"/><stop offset="1" stop-color="#128ec7"/></linearGradient><linearGradient id="B" x1="2540.97" y1="553.56" x2="2540.97" y2="538.75" xlink:href="#X"><stop offset="0" stop-color="#006da9"/><stop offset="1" stop-color="#0087bc"/></linearGradient><linearGradient id="C" x1="2002.91" y1="550.36" x2="2002.91" y2="535.55" xlink:href="#B"/><linearGradient id="D" x1="1840.71" y1="574.06" x2="1840.71" y2="365.68" xlink:href="#X"><stop offset="0" stop-color="#002c92"/><stop offset="1" stop-color="#1d0f6d"/></linearGradient><linearGradient id="E" x1="1817.9" y1="581.58" x2="1817.9" y2="506.32" xlink:href="#X"><stop offset="0" stop-color="#003d9f"/><stop offset="1" stop-color="#1d2486"/></linearGradient><linearGradient id="F" x1="1894.21" y1="586.15" x2="1894.21" y2="338.4" xlink:href="#X"><stop offset="0" stop-color="#003d9f"/><stop offset="1" stop-color="#1d0f6d"/></linearGradient><linearGradient id="G" x1="504.16" y1="583.98" x2="504.16" y2="563.18" xlink:href="#X"><stop offset="0" stop-color="#003b86"/><stop offset="1" stop-color="#0b4887"/></linearGradient><linearGradient id="H" x1="708.25" y1="591.06" x2="708.25" y2="582.72" xlink:href="#X"><stop offset="0" stop-color="#00297f"/><stop offset="1" stop-color="#0b3c75"/></linearGradient><linearGradient id="I" x1="603.48" y1="573.58" x2="603.48" y2="561.99" xlink:href="#G"/><linearGradient id="J" x1="740" y1="568.77" x2="740" y2="563.19" xlink:href="#G"/><linearGradient id="K" x1="1680.53" y1="583.19" x2="1680.53" y2="562.39" xlink:href="#G"/><linearGradient id="L" x1="1548.43" y1="590.26" x2="1548.43" y2="581.93" xlink:href="#H"/><linearGradient id="M" x1="1653.2" y1="572.79" x2="1653.2" y2="561.2" xlink:href="#G"/><linearGradient id="N" x1="1516.68" y1="567.98" x2="1516.68" y2="562.4" xlink:href="#G"/><linearGradient id="O" x1="2090.49" y1="613.53" x2="2090.49" y2="607.95" xlink:href="#G"/><linearGradient id="P" x1="1188.96" y1="553.76" x2="1188.96" y2="538.95" xlink:href="#B"/><linearGradient id="Q" x1="395.21" y1="550.56" x2="395.21" y2="535.75" xlink:href="#B"/><linearGradient id="R" x1="836.98" y1="480.913" x2="831.165" y2="440.156" xlink:href="#X"><stop offset="0" stop-color="#002974"/><stop offset="1" stop-color="#00093e"/></linearGradient><linearGradient id="S" x1="1694.409" y1="452.393" x2="1692.208" y2="423.397" xlink:href="#R"/><linearGradient id="T" x1="1078.87" y1="326.68" x2="1078.87" y2="285.51" gradientTransform="matrix(-0.64, -0.09, -0.04, 0.28, 1442.96, 387.52)" xlink:href="#R"/><linearGradient id="U" x1="-335.76" y1="-80.83" x2="-335.76" y2="-122" gradientTransform="matrix(-0.64, -0.09, -0.04, 0.28, 1442.96, 387.52)" xlink:href="#R"/><linearGradient id="V" x1="1324.881" y1="510.965" x2="1322.681" y2="481.969" xlink:href="#R"/><path id="W" d="M1690.73 423.45l.76 4.55.89 6.24 6.35 4.56-.22-9.87-7.78-5.48z"/><linearGradient id="X" gradientUnits="userSpaceOnUse"/></defs><g class="A"><g><path d="M0 549.83h2602.01v160.4H0z" fill="url(#A)"/><path d="M2269.04 553.56h483.44 60.43l-26.58-2.35-12.84-2.26-1.72-3.76-19.29-4.95-18.53 8.3-7.25 2.87h-16.72-10.14l-9.24-4-21.46 1.13-4.69 2.87-10.27-2.87-7.96-4.08-13.13 2.95v4h-9.4-23.7l-6.14-12.66-6.44 1.49-1.61 2.51-2.22.33-1.21 2-3.83 2.33-4.83 4h-27.2-7.85-6.95l-5.54-1.75-22.96-3.5-8.31 2.38-28.6 2.87-9.93-1.75h-6.8-11.78l-7.3 1.75h-10.68l-15.83-5.66-2.79 1.03-16.57.63-38.23 4.34-11.03-9.31-15.76.31-2.4 2.31-26.13 2.96-14.98-8.7-4.34.52-2.71 13.72z" fill="url(#B)"/><g class="j"><path class="D i" d="M2587.41 540.24l4.63 1.76 2.93-.95-1.12-2.3-6.44 1.49zm-3.83 2.84l2.52 2.25 2.21-1.13 1.41-.22-3.92-1.23-2.22.33zm-80.37 3.08l.7 4.93 10.79.88 2-1.83 9.47-.48-22.96-3.5z"/></g><path d="M1745.27 550.36h483.44l41.49-.84-1.21-2.58-12.85-2.26L2248 542l-19.29-4.95-18.53 8.29-7.25 2.88h-16.72-10.14l-9.24-4-21.46 1.12-4.69 2.88-10.27-2.88-7.96-4.08-13.13 2.96v4h-9.41-23.69l-6.14-12.67-6.45 1.5-1.6 2.5-2.22.33-1.21 2-3.84 2.34-4.82 4h-27.2-7.85-6.95l-5.54-1.76-22.97-3.49-8.3 2.37-28.6 2.88-9.93-1.76h-6.81-11.77l-7.3 1.76h-10.68l-15.83-5.67-2.8 1.03-16.56.64-38.23 4.33-11.03-9.31-15.76.31-2.41 2.31-26.13 2.97-14.97-5.94-7.05-2.05-9.66 12.78 9.66.74z" fill="url(#C)"/><g class="j"><path class="D i" d="M2111.7 545.91l10.75 1.38 3.91-3.07-3.91-2.96-13.13 2.96 2.38 1.69zm33.67-.57l10.22 1.95 8.96-1.38 2.28-1.69-21.46 1.12zm-81.74-8.29l4.64 1.75 2.93-.95-1.12-2.3-6.45 1.5zm-3.82 2.83l2.51 2.25 2.22-1.13 1.41-.22-3.92-1.23-2.22.33zm-80.38 3.09l.71 4.92 10.79.88 2-1.83 9.47-.48-22.97-3.49z"/></g><path d="M1876.76 572.08l-72.11 1.97 20.59-9.71 1.13-12.37 9.94-23.28.12-.97v-.01l2.8-23.6-2.92-57.83 1.43-17-1.43-26.91 2.28-36.69 1.68.46.34 38.65 2.54 3.73 5.02 45.92 2.49 6.04 7.61 50.92 2.04 13.68 8.1 42.41 8.35 4.59z" fill="url(#D)"/><path class="G i k" d="M1858.27 511.4l-26.36 52.01-5.69-6.25.15-5.19 10.06-24.25v-.01l7.98-7.53-1.53-11.66.9-5.05.63-38.95-1.26 1.07V440.5h1.26l-1.26-31.98 5.02 45.92 2.49 6.04 7.61 50.92z"/><path d="M1860.16 576.63l-22.34-6.72-11.6-12.75-12.19-14.69-2.49-1.63-7.22-25.82h-3.68l-4.85-8.7h-2l-.12 19.61-3.1 5.84v7.14l-1.29 8.83h-1.31l-3.84 9.42-1.71 10.51-5.46 8.96-1.33 1.54 23.68.67-1.38 2.48 41.8.26 2.64-.26 8.66-.67 9.13-4.02z" fill="url(#E)"/><path d="M1977.33 575.51l-18.29.14-.66.01-2.39.02h-.02l-10 4.39 3.97 2.75-20.25 1.91-31.66 1.42-24.91-.89 2.2-2.57 1.72-1.99-31.86 1.06-34.09-1.06 10.14-4.47 9.89-8.92.95-3.91 5.67-23.38 7.7-14.77 3.49-6.69 1.3-2.48.96-3.12 2.38-7.68-3.78-31.5 8.33-7.43V371.2l5.78-4.61 4.06-10.17 1.92-5.74L1880 338.4l10.87 57.71.03.12 7.13 37.82 7.9 32.3.74-42.88 2.9-2.32v-23.29l3.97 1.85 7.75 63.1 5.6 3.54 17.01 91.49 6.04 2.28 5.95 3.34 21.44 12.05z" fill="url(#F)"/><g class="k"><path class="G i" d="M1955.89 563.46l-6-3.34-6-2.28-17-91.49-5.6-3.54-7.75-63.1 1.87 33.8-2-1.24-.64 30.1 1.33-1.38v31.67l-4.44 6.32-3.72-32.63-7.91-32.3-7.12-37.82v-.12L1880 338.4l-3.24 5.88v30.41l-1.29 6.15-3.61 5 1 21.89 2-2.78 11 39.12 2.93 23-2.09 17.42-9.87 13.35v-11.41l-4.9 14.35-6.16 6.14-5.29-5.36-10.62-27.78 3.78 31.5-3.34 10.8-1.3 2.48-3.49 6.69h0l10.16-10.44 16.4 14-3.28 20.79-27.27 13.29-9.38.54h-.16L1814 542.47l-2.48-1.63-3-10.76v12.21l-2.47 13.71-1.9-3.22.5 7.75-3.89 5.54-5.09-20.07v-18.57l-1.14 19.63 2.14 13.62-1.14 4.51-6.18 13.26 10 .39 4.84-11.14 3.9-4.85 4 3.71-.21 9.94-1.94 4.69 65.38 1.5 11 .26.87-4.18 34.76-2.7 34.06-.39h2.41.66zm-37.8-50.16l-8.68 5.26-6.67 3.74-6.64 11.81.92-17.27 7.76-7.62 9.93-8.05 4.25-.39zm-46.63-101.77l-4.47 27.52-1.69 4.93-2.24 15.98-1.14-19.01 1.53-15.01 8.01-14.41z"/></g><g fill="#0856a4"><path d="M1808.05 562.85l-3.9 4.85-6.22 13.62 12.01-.13 1.94-4.69.21-9.94-4.04-3.71zm-7.41-47.83l-1.1 5.14-3.87 7.27 5.27-3.53 3.38-8.88h-3.68zm-12.67 32.72l.41 10.03-1.48 7.24-4.48 2.66 1.71-10.51 3.84-9.42z"/></g><g fill="#083e98"><path d="M1858.12 371.2l12.48 8.61 1.26 6.06 3.61-5.03 1.29-6.15-8.12-9.01-4.74.91-5.78 4.61zm11.76-20.52l6.65-1.45 4.8-4.82-1.33-6.01-10.12 12.28zm-29.27 54.11l-1.91 7.06 1.91 6.49.1-6.78 2.44-3.04-2.54-3.73zm66.06 18.68l6.73 8.8 2.01 1.24v-8.45l-5.84-3.91-2.9 2.32zm-9.65 93.37l5.72 5.46 15.35-9 .87-12.52-4.25.39-17.69 15.67zm-41.42-2.03l-10.82 11.71 14.36 7.59-7.37 1.68 16.95 13.78 3.28-20.79-16.4-13.97z"/></g><path d="M2028.92 598.72h0a1.27 1.27 0 0 1-.33.38c-2.83 2.55-18.2 6.34-24.39 7.21-6 .84-20.63-3.05-24.1-6.45h0c-.63-.62-.89-1.22-.66-1.77 1.54-3.68 20.33-5.08 23.67-4.75s24.39 2.37 25.86 4.75a.55.55 0 0 1-.05.63z" fill="#002456"/><path d="M2028.92 598.72h0l-.33.38s-17.19-4.4-27.19-3.34a153 153 0 0 0-21.3 4.1h0c-.63-.62-.89-1.22-.66-1.77 1.54-3.68 20.33-5.08 23.67-4.75s24.39 2.37 25.86 4.75a.55.55 0 0 1-.05.63z" fill="#000e40"/><path d="M341.2 563.18l198.25 2.4 9.76 5.55 26.31 5.85 85.94 6.27 15.35.73-79.9-2.27-30.14-2.39-27.72-5.74-197.85-1.79-9.71-7.37 9.71-1.24z" fill="url(#G)"/><path d="M654.23 582.72h15.28l40.15 2.09 20 1.93 32.66 1.66-50.59 2.66s-52.3-5.59-57.5-8.34z" fill="url(#H)"/><g class="j"><path class="D i" d="M1033.11 550.32H341.2c-.19 0-13-.19-13 0l11.33 5.86c0 .13 137.4.22 137.54.23l117.22 6.77h40.14l28.75-6.42h.05l11.31-.36h38.74l88.41 3.06h0l98.77-4.65h72.22l60.4-.94M667.19 582.6l49.02-4.15h15.71l9.6 3.26 39.61 1.01 6.72 2.47 12.55.93-38.13 2.28-52.61-3.6-42.47-2.2z"/></g><path d="M573.04 599.4l-35.09-1.83-24.6-.89-33.98 2.8 43.12 1.7 50.55-1.78z" class="n"/><path d="M913.18 566.91l-25.55.22-18.15-2.25-33.98 2.79 43.12 1.7 34.56-2.46z" class="m"/><path class="D i j" d="M869.48 564.88h25.93l16.23 2.04-24.01.21-18.15-2.25z"/><g class="R i j"><path d="M787.93 571.3a52.17 52.17 0 0 1 6.8-.95l1.74-.13h4c2.85.09 4 .35 3 .6a51.07 51.07 0 0 1-7.16.63l-5.63.09c-1.71-.03-2.84-.16-2.18-.3a3.49 3.49 0 0 1 1.12 0zm8.95 1.11a46 46 0 0 1 5.81-.44c1.66.11 2.65.29 1.89.48a39.85 39.85 0 0 1-6.13.34c-2.44 0-2.94-.3-.55-.42zm-21.31-1.69l2.22-.14h.56c.45 0-.22.15.54.17h.38c.11 0-.2 0-.46 0a12 12 0 0 1-2.92-.11h-.27zm-11.92-1.64l4.17-.27h.59.47c.84.09-.41.28 1 .33h.71c.2 0-.37.07-.88.09-2.64.1-5.62 0-5.51-.2l-.5.05z"/><path d="M819.53 569.81a21.83 21.83 0 0 1 2.68-.21c.17 0 .36.07.32.11a2.88 2.88 0 0 1-.87.1h-1.94 0zm-12.12-4.6l.88-.05h.92 2.44l-4.28.18h-.32c-.31 0-.1.06-.2.09a13.94 13.94 0 0 1-1.53.08c-4.32.12.68-.19 2.09-.3zm-33.75.36c-.61.09.3.18 1.54.16s2.2-.15 1.64-.21a21.62 21.62 0 0 0-3.1 0zm14.67 3.25a15.34 15.34 0 0 0-2.27.15 12.43 12.43 0 0 0 2 .08h1.16c.69-.07-.93-.12-.41-.19a2.06 2.06 0 0 0-.53 0zm22.67 1.99c-.36 0-.7 0-1 .06l2.75-.06a5.89 5.89 0 0 0 1.09-.09 2.88 2.88 0 0 0-.41-.06c-.25 0 0-.12-.62-.13a8.23 8.23 0 0 0-1.08.05.66.66 0 0 0-.34.08l-.32.2zm3.34.92a8 8 0 0 1 1.6 0 4 4 0 0 1-1.08.16c-.85 0-1.25-.11-1-.18zm-57.86 4.83c.26 0 .55 0 .9-.06s.79 0 1 0c.4 0 0 .08.18.12s.81.06.74.11a8.73 8.73 0 0 1-1.44.07 11.09 11.09 0 0 1-1.24-.07c-.26 0-.51-.06-.48-.1a3.55 3.55 0 0 1 1-.1zm107.75-4.08c-.15 0 .08 0 .41 0h1.05.49c.28 0 .1-.07-.33-.08a10.71 10.71 0 0 0-1.26.05c-.23 0-.07.07.34.08zm-41.04-1.98c-.59 0-.29-.11.47-.13a2.94 2.94 0 0 1 .62.06c.06 0-.12.06-.49.08a3.48 3.48 0 0 1-.82 0zm-6.47-3.5c-.59 0-.29-.11.47-.13a3.87 3.87 0 0 1 .62.06c.06 0-.12.06-.49.08a3 3 0 0 1-.82 0zm-5.19 2.83a4.55 4.55 0 0 1 1.35-.19l1.08.12c.17 0 .35 0 .33.07a8.63 8.63 0 0 1-1.51.09 3.72 3.72 0 0 1-1.15-.09zm-144.53.48l-3.76.18a11 11 0 0 0 1.69 0l1.92-.09c.5-.09.6-.11 0-.12zm26.73-.47c-.29-.06.89-.15 1.84-.14s1.46.07 1.27.14a2.59 2.59 0 0 1-.65.09h-1.81a7.65 7.65 0 0 1-.93-.1zM794 568.62c-.24-.06.14-.13.91-.19a6.73 6.73 0 0 1 1.1.1c.2.05-.15.13-1 .17s-1.88 0-1.39-.08zm-2.58.69c-.33 0-.22.09.25.11l1.9-.09a9 9 0 0 0-2-.06zm-13.07 1.4h-.82c.35 0 .73.06 1.28.07h1.79c.47 0 .32-.1-.31-.1l-1.91.05z"/><path d="M823.83 571.49c-.2 0-.09.08.28.1s1 0 1.48 0c.34 0 .65-.05.46-.07h-.36-1.79-.12zm12.64-.26c.26 0-.24.09-.73.13s-1.06.09-.94.14a1.26 1.26 0 0 0 .29 0c.42 0 .77 0 1.14-.06s.67 0 1-.06c.8 0 1.31-.11 1.22-.17a12.15 12.15 0 0 0-1.24 0 5.06 5.06 0 0 0-1 .08zm6.47-.01h.72s-.24.06-.64.08a5.47 5.47 0 0 1-.95 0 2.8 2.8 0 0 1 .8-.06zm2.13 1.2h.71a1.83 1.83 0 0 1-.64.08 5.39 5.39 0 0 1-.94 0 2.7 2.7 0 0 1 .79-.06zm-24.83-2.19a10.12 10.12 0 0 1-1.26 0c-.32 0-.43-.06-.72-.08s-.78 0-1.3 0a8 8 0 0 0-.8 0h-.14c-.01 0 .07.14.57.19a24.27 24.27 0 0 0 2.44.05 11.47 11.47 0 0 0 1.52-.12c.23-.05.1-.1-.35-.13zm19.76-4.89a10.16 10.16 0 0 1-1.26 0c-.33 0-.44-.06-.73-.08s-.78 0-1.29 0h-.81-.13s.07.14.56.19a21.64 21.64 0 0 0 2.44.05 11.47 11.47 0 0 0 1.52-.12c.24 0 .1-.1-.35-.12zm-17.6 3.93a9.28 9.28 0 0 1 1.39-.09 8.11 8.11 0 0 1 1.28.07c.08 0 .07 0-.17 0h-.55-2.14zm-43.29-1.91c-.9 0-.58-.11-.11-.17a7.77 7.77 0 0 1 1.27-.11 12.08 12.08 0 0 1 1.72.07l.89.12c.13 0 .27 0 .13.06s-.41 0-.67 0l-4.19.1z"/><path d="M772.43 569.63c-8.32 0-4.5-.74 2.92-.85 7.78-.11 4.32.88-2.92.85zm31.85 2a11.3 11.3 0 0 0 2.66.08 2.21 2.21 0 0 0-.92-.17 20.13 20.13 0 0 0-2.58 0l.06.12zm30.72.24h-.46a2.55 2.55 0 0 0 .46 0h.59a7.88 7.88 0 0 0 1.14-.06c.19 0 .1-.06-.18-.08H836a2.14 2.14 0 0 0-.5 0zm-4.93-1.59h.68c.26 0 .53 0 .51.06a3.49 3.49 0 0 1-.86.05.91.91 0 0 1-.21 0l-.43-.09zm30.43-3.07c.37 0 .76-.09 1.32-.12s1.33-.06 1.84 0a2.69 2.69 0 0 1 .5.05c.22.06-.49.15-1.46.18a11.41 11.41 0 0 1-2.11-.07zm-50.15-.65c-.91 0-1.19.14-.44.16h1.52a3.1 3.1 0 0 0-.79-.09zm-18.97 6.19h1.24a1.86 1.86 0 0 1 .4 0 14.78 14.78 0 0 1-1.75 0z"/></g><g class="R i j"><path d="M644.32 591.56a52.62 52.62 0 0 1 6.8-.94c.51 0 1-.1 1.73-.13h4c2.85.09 4 .35 3.05.6a50 50 0 0 1-7.16.62l-5.63.09c-1.71-.04-2.84-.15-2.18-.29a3.15 3.15 0 0 1 1.12 0zm8.95 1.12a46 46 0 0 1 5.81-.44c1.66.11 2.65.28 1.89.47a39.6 39.6 0 0 1-6.13.35c-2.44 0-2.94-.3-.55-.42zm-63.99.72c.66 0 1.4-.1 2.21-.14h.56c.45 0-.22.15.55.17h.38c.1 0-.2 0-.47 0a11 11 0 0 1-2.92-.11h-.27zm-11.93-1.64l4.17-.27h.59.48c.84.1-.42.29 1 .33h.72c.12 0-.38.07-.88.09-2.65.09-5.63 0-5.51-.21h-.51zm55.89.73a26.32 26.32 0 0 1 2.67-.21c.18 0 .36.07.32.11a2.81 2.81 0 0 1-.87.1h-1.94 0zm30.56-7.01c.26 0 .54-.05.88-.05h.92 2.44l-4.28.18h-.32c-.31 0-.1.06-.2.09a13.94 13.94 0 0 1-1.53.08c-4.35.12.68-.19 2.09-.3zm-76.44 2.77c-.61.09.3.18 1.54.16s2.21-.14 1.64-.21a21.47 21.47 0 0 0-3.09 0zm57.36.84a15.34 15.34 0 0 0-2.27.15 13 13 0 0 0 2 .07h1.16c.69-.06-.93-.11-.41-.18a2.27 2.27 0 0 0-.53 0zm22.7 1.99c-.36 0-.7 0-1 .06l2.75-.06a5.89 5.89 0 0 0 1.09-.09 1.89 1.89 0 0 0-.41-.06c-.25 0 .05-.12-.62-.13a8.47 8.47 0 0 0-1.08 0 .73.73 0 0 0-.34.09l-.32.2zM628 594.41a8 8 0 0 1 1.6 0 3.76 3.76 0 0 1-1.07.16c-.86 0-1.25-.11-1-.18zm-57.82 4.83c.27 0 .55 0 .9-.06s.8 0 1 0c.41 0 0 .09.19.13s.8.05.73.1a12.69 12.69 0 0 1-2.67 0c-.27 0-.51-.06-.49-.1a3.9 3.9 0 0 1 1-.09zm107.75-4.08c-.15 0 .08.05.42.05h1a4.82 4.82 0 0 0 .49 0c.28 0 .11-.07-.33-.08a10.82 10.82 0 0 0-1.26 0c-.23 0-.06.07.34.09zm-41.04-1.98c-.59 0-.28-.11.48-.13a3.56 3.56 0 0 1 .61.06c.07 0-.11.06-.49.08a3 3 0 0 1-.82 0zm-6.47-3.47c-.59 0-.28-.11.48-.14a5.13 5.13 0 0 1 .61.06c.07 0-.11.06-.49.08a3.19 3.19 0 0 1-.82 0zm37.5.39a4.55 4.55 0 0 1 1.35-.19l1.08.12a1 1 0 0 1 .33.06 7.32 7.32 0 0 1-1.51.1 3.72 3.72 0 0 1-1.15-.09zM480.7 593l-3.76.19a10.24 10.24 0 0 0 1.69 0l1.92-.08c.5-.08.61-.11 0-.13z"/><path d="M507.43 592.53c-.29-.07.89-.15 1.85-.15s1.45.07 1.26.15a2.79 2.79 0 0 1-.64.08 15.88 15.88 0 0 1-1.82 0 5.85 5.85 0 0 1-.92-.1zm142.98-3.64c-.24-.06.14-.14.91-.19a5.82 5.82 0 0 1 1.1.1c.2.05-.15.13-1 .17s-1.88 0-1.39-.08zm-2.6.69c-.33 0-.22.09.25.11l1.9-.09a9 9 0 0 0-2-.06zm-55.76 3.81h-.82c.36 0 .73.06 1.28.07a17.36 17.36 0 0 0 1.79 0c.47 0 .32-.11-.3-.1h-1.92zm45.49.79c-.21 0-.09.07.28.09s1 0 1.47 0 .65 0 .46-.07h-.35-1.8-.11zm12.63-.27c.26 0-.24.1-.73.14s-1.05.09-.94.13a1.33 1.33 0 0 0 .29 0c.43 0 .78 0 1.14-.06h1c.8 0 1.32-.12 1.22-.18a12.1 12.1 0 0 0-1.24 0 6.07 6.07 0 0 0-1 .08zm6.47-.01h.72s-.23.06-.64.08a5.27 5.27 0 0 1-.94 0 3.12 3.12 0 0 1 .79-.06zm2.13 1.2h.72s-.24.06-.64.08a5.47 5.47 0 0 1-1 0 2.8 2.8 0 0 1 .8-.06z"/><path d="M634 592.91a10.16 10.16 0 0 1-1.26 0c-.33 0-.44-.06-.73-.08s-.78 0-1.29 0h-.81-.13s.07.14.56.19a21.64 21.64 0 0 0 2.44 0 11.47 11.47 0 0 0 1.52-.12c.24 0 .1-.1-.35-.12zm19.65-4.91a8.49 8.49 0 0 1-1.26 0c-.33 0-.44 0-.73-.08s-.78 0-1.29 0h-.81-.13c-.01 0 .07.14.56.19a21.71 21.71 0 0 0 2.44 0 11.82 11.82 0 0 0 1.52-.11c.24 0 .1-.1-.34-.13zm-17.55 4a8.46 8.46 0 0 1 1.39-.08 7.27 7.27 0 0 1 1.28.06c.08 0 .08 0-.17.05h-.54-2.14zm-43.28-2c-.9 0-.59-.1-.12-.17a9.26 9.26 0 0 1 1.27-.11 11.91 11.91 0 0 1 1.72.07l.89.12c.14 0 .27 0 .13.06s-.4 0-.67 0l-4.18.1zm-6.69 2.32c-8.32 0-4.5-.75 2.92-.86 7.78-.11 4.32.88-2.92.86zm74.54-.42a11.93 11.93 0 0 0 2.66.08 2 2 0 0 0-.92-.17 20.13 20.13 0 0 0-2.58 0l.06.12zm-11.97 2.65c-.29 0-.49 0-.45.05a2.4 2.4 0 0 0 .45 0h.6a9.62 9.62 0 0 0 1.13-.06c.2 0 .11-.07-.18-.09h-.55a3.08 3.08 0 0 0-.5 0zm-4.93-1.55h.68c.26 0 .54 0 .51.07a4.82 4.82 0 0 1-.85 0h-.22l-.42-.09zm30.43-3.11c.38 0 .77-.09 1.32-.12s1.33 0 1.85 0a2.17 2.17 0 0 1 .49 0c.23.07-.48.15-1.45.18a10.7 10.7 0 0 1-2.12-.07zm-7.46-3.06c-.91 0-1.19.14-.44.16h1.52a3.33 3.33 0 0 0-.79-.08zM647.77 593H649a2.46 2.46 0 0 1 .4.06 17.27 17.27 0 0 1-1.75 0zm-82.7 12.07a54.2 54.2 0 0 1 6.8-.94c.5 0 1-.1 1.73-.13h4c2.84.09 4 .35 3.05.6a51.27 51.27 0 0 1-7.17.63l-5.62.09c-1.7-.03-2.85-.16-2.18-.3a3.44 3.44 0 0 1 1.11 0zm-35.45-15.19a46.06 46.06 0 0 1 5.82-.44c1.66.11 2.64.28 1.88.47a39.35 39.35 0 0 1-6.12.35c-2.45 0-3-.3-.56-.42zm87.87-18.64a45.5 45.5 0 0 1 5.81-.45c1.66.12 2.65.29 1.89.48a39.6 39.6 0 0 1-6.13.35c-2.44 0-2.94-.3-.55-.42zm-49.74 17.37a45.53 45.53 0 0 1 5.82-.45c1.65.12 2.64.29 1.88.48a39.41 39.41 0 0 1-6.13.35c-2.44 0-2.94-.3-.55-.42zm17.47 12.6a46.06 46.06 0 0 1 5.82-.44c1.66.11 2.65.28 1.88.47a39.35 39.35 0 0 1-6.12.35c-2.45 0-2.94-.3-.56-.42zm21.06-10.06a46 46 0 0 1 5.81-.44c1.66.11 2.65.28 1.89.47a39.5 39.5 0 0 1-6.13.35c-2.44 0-2.94-.3-.55-.42zm-60.34-6.08l.89-.05h.91 2.44l-4.28.18h-.31c-.31 0-.1.05-.21.08a11.75 11.75 0 0 1-1.53.08c-4.35.14.69-.18 2.09-.29zm-19.08 3.62a14.21 14.21 0 0 0-2.26.14 11.06 11.06 0 0 0 2 .08h1.16c.7-.06-.93-.11-.4-.18a1.88 1.88 0 0 0-.54 0zm22.7 1.99l-.95.05 2.75-.05a7 7 0 0 0 1.08-.09 2.5 2.5 0 0 0-.41-.07c-.25 0 .05-.12-.62-.13a10.45 10.45 0 0 0-1.08.05.73.73 0 0 0-.34.09l-.31.2zm.5-.99a5.18 5.18 0 0 1 1.35-.18l1.08.12a1.09 1.09 0 0 1 .34.06 7.53 7.53 0 0 1-1.52.1 3.72 3.72 0 0 1-1.15-.09zm-17.5-1.2c-.25-.06.13-.14.9-.19a7.18 7.18 0 0 1 1.1.09c.2.06-.15.14-1 .18s-1.88 0-1.39-.08zm-2.56.68c-.33.05-.22.1.25.12l1.91-.09a8.87 8.87 0 0 0-2-.07zm9.31-.32a12 12 0 0 0 2.67.08 2 2 0 0 0-.93-.18 20 20 0 0 0-2.57 0l.06.11zm9.58-2.42c-.91 0-1.2.13-.45.16l1.52-.05a3.1 3.1 0 0 0-.79-.09zm-18.98 6.19l1.24-.06.41.06a14.9 14.9 0 0 1-1.76 0z"/></g><path d="M573.71 561.99l26.4 9.49 21.09 2.1h12.04l-1.72-10.4-34.61.64-23.2-1.83z" fill="url(#I)"/><g class="m"><path d="M663.2 556.75l-3.37 8.4-26.59 8.43-1.72-10.4 14.3-2.55 2.97-3.88h14.41z"/><path d="M659.83 565.15l37.1-3.16 11.59 1.2 14.79-3.63 25.8-.63.58-1.28-15.98-.55-20.43-.71-24.43.36H663.2l-3.37 8.4z"/></g><path class="D i j" d="M708.52 563.19l27.65 2.54 37.57-.17-14.67-3.09-16.03-3.39-19.73.48-14.79 3.63z"/><path d="M773.74 565.56l1.49 1.73-19.05 1.48-15.12-.2h-14.2l-22.1-1.44 3.76-3.94 27.35 3.37 13.82-1.31 24.05.31z" fill="url(#J)"/><path class="D i j" d="M510.58 596.57l34.89-4.99 32.44 1.84 29.94.65 11.13 3.5-49.1 1.73-59.3-2.73z"/><path d="M1781.2 562.39l-63.98 2.39-9.76 5.55-26.3 5.86-85.95 6.26-15.35.74 79.91-2.28 30.13-2.38 27.73-5.74 62.21-1.79 1.36-8.61z" fill="url(#K)"/><path d="M1602.45 581.93h-15.28L1547 584l-20 1.94-32.66 1.66 50.58 2.65s52.33-5.57 57.53-8.32z" fill="url(#L)"/><g class="j"><path class="D i" d="M1223.57 549.52h557.25a.3.3 0 0 1 .3.36l-1.23 5.5a.32.32 0 0 1-.28.24l-117.23 6.77h-40.13L1593.5 556h-.06l-11.31-.36h-38.73l-88.4 3.02h0l-98.82-4.66H1284l-60.39-.93m365.87 28.73l-49.02-4.14h-15.7l-9.61 3.25-39.6 1.02-6.72 2.46-12.55.94 38.13 2.28 52.61-3.6 42.46-2.21z"/></g><path d="M1683.63 598.61l35.1-1.84 24.59-.88 33.98 2.8-43.12 1.7-50.55-1.78z" class="n"/><path d="M1343.49 566.12l25.56.21 18.14-2.24 33.98 2.79-43.12 1.7-34.56-2.46z" class="m"/><path class="D i j" d="M1387.19 564.09h-25.92l-16.23 2.04 24.01.2 18.14-2.24z"/><g class="R i j"><path d="M1468.74 570.5a52.07 52.07 0 0 0-6.8-.94c-.5 0-1-.1-1.73-.13-1.32-.06-2.87-.06-4 0-2.84.09-4 .35-3 .6a49.85 49.85 0 0 0 7.16.62l5.62.09c1.7-.04 2.85-.15 2.18-.29a3.11 3.11 0 0 0-1.11.05zm-8.94 1.12a46.06 46.06 0 0 0-5.82-.44c-1.66.11-2.65.28-1.88.47a39.35 39.35 0 0 0 6.12.35c2.45 0 3-.3.56-.42zm21.3-1.69l-2.21-.15h-.31-.26c-.44 0 .22.14-.54.17h-.38c-.1 0 .2 0 .47 0a12 12 0 0 0 2.92-.11h.27zm11.9-1.64l-4.17-.27h-.59-.48c-.84.09.42.28-1 .32h-.72c-.12 0 .38.07.88.09 2.65.1 5.63 0 5.51-.21h.51z"/><path d="M1437.14 569a21.43 21.43 0 0 0-2.67-.21c-.18 0-.36.07-.32.1a2.63 2.63 0 0 0 .87.11h1.94 0zm12.13-4.58h-.89-.92-2.43l4.27.18h.32c.31 0 .1.06.21.09a12.12 12.12 0 0 0 1.52.07c4.35.08-.68-.23-2.08-.34zm33.73.36c.61.09-.3.18-1.54.16s-2.21-.15-1.64-.21a20.12 20.12 0 0 1 3.09 0zm-14.65 3.22a17.4 17.4 0 0 1 2.26.14 11.13 11.13 0 0 1-2 .08h-1.17c-.69-.06.94-.11.41-.18a2.37 2.37 0 0 1 .54 0zm-22.71 2l1 .05c-.79 0-1.85 0-2.75-.05a5.74 5.74 0 0 1-1.08-.09s.28 0 .4-.06 0-.12.63-.13a8.55 8.55 0 0 1 1.08 0 .78.78 0 0 1 .34.09l.31.2zm-3.3.94a7.27 7.27 0 0 0-1.6 0 3.57 3.57 0 0 0 1.07.15c.86 0 1.25-.1 1-.18zm57.86 4.83l-.9-.07h-1c-.41 0 0 .08-.19.12s-.8.06-.73.1a8.27 8.27 0 0 0 1.44.08c.57 0 .94 0 1.23-.07s.51-.06.48-.1a3.48 3.48 0 0 0-1-.1zm-107.75-4.08c.15 0-.08 0-.42 0h-1-.5c-.27 0-.1-.08.34-.08a9 9 0 0 1 1.26 0c.23 0 .06.07-.34.08zm41.04-1.98c.59 0 .28-.11-.48-.13a2.73 2.73 0 0 0-.61.06c-.07 0 .11.06.49.07a3.19 3.19 0 0 0 .82 0zm6.51-3.48c.59 0 .28-.11-.48-.13a2.73 2.73 0 0 0-.61.06c-.07 0 .11.06.49.08a3.32 3.32 0 0 0 .81 0zm5.14 2.77a4.37 4.37 0 0 0-1.34-.19l-1.09.12a1 1 0 0 0-.33.06 7.4 7.4 0 0 0 1.51.1 3.81 3.81 0 0 0 1.16-.09zm144.54.52l3.76.18a11 11 0 0 1-1.69 0c-.69 0-1.42-.05-1.92-.09s-.61-.11 0-.13zm-26.68-.47c.29-.06-.89-.15-1.85-.14s-1.45.07-1.26.14a2.57 2.57 0 0 0 .64.09h1.82a6.94 6.94 0 0 0 .92-.11zm-100.35-1.22c.24-.06-.14-.14-.9-.19a5.72 5.72 0 0 0-1.1.1c-.2 0 .15.13 1 .17s1.87 0 1.39-.08zm2.61.69c.33 0 .22.09-.25.11l-1.91-.09a9.11 9.11 0 0 1 2-.06zm13.07 1.4h.82c-.36 0-.73.07-1.28.08h-1.79c-.46 0-.33-.1.3-.1h1.92z"/><path d="M1432.84 570.7c.21 0 .09.08-.28.1s-1 0-1.47 0-.65 0-.46-.07h.35 1.8.11zm-12.63-.26c-.26 0 .24.09.73.13s1 .09.94.13a.77.77 0 0 1-.29 0c-.43 0-.78 0-1.14-.07h-1c-.81 0-1.32-.11-1.22-.17a11.64 11.64 0 0 1 1.24 0 5.67 5.67 0 0 1 1 .09zm-6.47-.01h-.74s.23.07.64.08a4.71 4.71 0 0 0 .94 0 2.3 2.3 0 0 0-.79-.06zm-2.13 1.2h-.72s.24.07.64.08a4.71 4.71 0 0 0 .94 0 2.44 2.44 0 0 0-.79-.07zm24.82-2.2a8.52 8.52 0 0 0 1.26 0c.33 0 .44-.05.73-.07a12.11 12.11 0 0 1 1.29 0h.81.13s-.07.13-.56.18a19.54 19.54 0 0 1-2.44 0 12 12 0 0 1-1.52-.11c-.24 0-.1-.1.34-.13zm-19.7-4.88a10.12 10.12 0 0 0 1.26 0c.33 0 .44-.06.72-.08s.79 0 1.3 0h.81.13c.01 0-.07.14-.56.19s-1.47.07-2.45 0a11.27 11.27 0 0 1-1.51-.12c-.24 0-.1-.1.34-.13zm17.55 3.93a8 8 0 0 0-1.39-.09 8.46 8.46 0 0 0-1.28.06c-.08 0-.08 0 .17.06h.54 2.14zm43.28-1.91c.9 0 .59-.11.12-.18a9.66 9.66 0 0 0-1.27-.1 9.52 9.52 0 0 0-1.72.07l-.89.12c-.14 0-.27 0-.13.06s.4 0 .67 0l4.18.11z"/><path d="M1484.25 568.84c8.32 0 4.5-.75-2.92-.85-7.78-.11-4.33.87 2.92.85zm-31.85 2a11.93 11.93 0 0 1-2.66.08 2 2 0 0 1 .92-.17 20 20 0 0 1 2.57 0l-.06.12zm-30.72.24h.45a2.4 2.4 0 0 1-.45 0h-.6a10 10 0 0 1-1.14-.06c-.19 0-.1-.07.18-.09h.56a3.61 3.61 0 0 1 .5 0zm4.93-1.59h-.68c-.26 0-.54 0-.51.07a3.39 3.39 0 0 0 .85 0 .78.78 0 0 0 .21 0l.43-.09zm-30.43-3.07c-.38 0-.77-.09-1.32-.12s-1.34-.06-1.85 0a2.66 2.66 0 0 0-.49 0c-.23.06.48.15 1.45.18a11.6 11.6 0 0 0 2.12-.07zm50.14-.65c.91 0 1.2.13.45.16h-1.52a3.25 3.25 0 0 1 .79-.08zm18.98 6.23l-1.24-.06-.41.06a17.51 17.51 0 0 0 1.76 0z"/></g><g class="R i j"><path d="M1612.36 590.77a52.12 52.12 0 0 0-6.81-.95c-.5 0-1-.09-1.73-.12-1.32-.06-2.87-.06-4 0-2.84.09-4 .35-3 .6a49.85 49.85 0 0 0 7.16.62l5.62.09c1.7-.03 2.85-.15 2.19-.29s-1.27 0-1.12 0zm-8.95 1.12a46.06 46.06 0 0 0-5.82-.44c-1.65.11-2.64.28-1.88.47a39.41 39.41 0 0 0 6.13.35c2.44 0 2.94-.3.55-.42zm63.99.72l-2.21-.14h-.57c-.44 0 .22.15-.54.17h-.38c-.11 0 .2 0 .47.05a12 12 0 0 0 2.92-.11h.27zm11.93-1.61l-4.18-.27h-.58-.48c-.84.09.41.28-1 .33h-.72c-.2 0 .38.07.88.09 2.64.1 5.62 0 5.51-.2h.51zm-55.89.7a21.8 21.8 0 0 0-2.67-.21c-.18 0-.36.07-.33.11a2.91 2.91 0 0 0 .88.1h1.94 0zm-30.56-7.02h-.89-.92-2.43l4.27.18h.32c.31 0 .1 0 .21.08a11.57 11.57 0 0 0 1.52.08c4.35.09-.68-.23-2.08-.34zm76.43 2.78c.61.09-.3.18-1.54.16s-2.2-.15-1.63-.21a21.47 21.47 0 0 1 3.09 0zm-57.31.84a14.21 14.21 0 0 1 2.26.14 11.13 11.13 0 0 1-2 .08h-1.16c-.7-.06.93-.11.4-.18a1.88 1.88 0 0 1 .54 0zm-22.75 1.99l1 .05c-.79 0-1.85 0-2.75-.05a6.86 6.86 0 0 1-1.08-.09s.28 0 .4-.07 0-.12.63-.13a10.6 10.6 0 0 1 1.08 0 .78.78 0 0 1 .34.09l.31.2zm39.39 3.33a7.94 7.94 0 0 0-1.6 0 3.76 3.76 0 0 0 1.07.16c.85 0 1.25-.11 1-.18zm57.86 4.83c-.27 0-.55-.05-.9-.06s-.8 0-1 0 0 .08-.18.12-.8.06-.74.11a8.73 8.73 0 0 0 1.44.07 10.94 10.94 0 0 0 1.24-.07c.26 0 .51-.06.48-.1a3.55 3.55 0 0 0-1-.1zm-107.76-4.08c.16 0-.08 0-.41 0h-1-.49c-.27 0-.1-.07.33-.08a11 11 0 0 1 1.27.05c.22 0 .06.07-.34.08zm41.04-1.98c.6 0 .29-.11-.47-.13a2.94 2.94 0 0 0-.62.06c-.06 0 .12.06.49.08a3.43 3.43 0 0 0 .82 0zm6.47-3.48c.59 0 .29-.1-.47-.13a3.87 3.87 0 0 0-.62.06c-.06 0 .12.06.49.08a2.91 2.91 0 0 0 .82 0zm-37.5.39a5 5 0 0 0-1.34-.18l-1.08.12a1.09 1.09 0 0 0-.34.06 7.4 7.4 0 0 0 1.51.1 3.76 3.76 0 0 0 1.16-.09zm187.25 2.9l3.76.18a10.86 10.86 0 0 1-1.68 0c-.69 0-1.43 0-1.93-.09s-.6-.11 0-.12z"/><path d="M1749.24 591.73c.3-.06-.88-.15-1.84-.14s-1.45.07-1.27.14a2.59 2.59 0 0 0 .65.09h1.81a7.65 7.65 0 0 0 .93-.1zm-142.98-3.63c.24-.06-.14-.14-.9-.19a7.18 7.18 0 0 0-1.1.09c-.2.06.15.14 1 .18s1.87 0 1.39-.08zm2.61.68c.33.05.22.1-.25.12l-1.91-.09a8.83 8.83 0 0 1 2-.07zm55.75 3.82h.82c-.35 0-.73.06-1.27.07h-1.8c-.47 0-.32-.1.31-.1l1.91.05zm-45.48.78c.21 0 .09.08-.28.1s-1 0-1.48 0c-.34 0-.64-.05-.46-.07h.36 1.8.11zm-12.64-.26c-.26 0 .24.09.73.13s1.06.09.94.14a1.26 1.26 0 0 1-.29 0c-.42 0-.77 0-1.14-.06s-.67 0-1-.06c-.8 0-1.31-.11-1.21-.17a11.94 11.94 0 0 1 1.23 0 5.19 5.19 0 0 1 1 .08zm-6.5-.01h-.71s.23.06.64.08a5.39 5.39 0 0 0 .94 0 2.75 2.75 0 0 0-.8-.06zm-2.1 1.2h-.71a1.83 1.83 0 0 0 .64.08 5.27 5.27 0 0 0 .94 0 2.7 2.7 0 0 0-.79-.06z"/><path d="M1622.73 592.12a10.12 10.12 0 0 0 1.26 0c.33 0 .44-.06.72-.08s.79 0 1.3 0h.81.13c.01 0-.07.14-.57.19a24.27 24.27 0 0 1-2.44.05 11.27 11.27 0 0 1-1.51-.12c-.24-.05-.1-.1.34-.13zm-19.73-4.89a10.12 10.12 0 0 0 1.26 0c.32 0 .43 0 .72-.08s.78 0 1.3 0h.8.13s-.06.14-.56.19a21.58 21.58 0 0 1-2.44.05 11.47 11.47 0 0 1-1.52-.12c-.24 0-.1-.1.35-.12zm17.57 3.93a9.16 9.16 0 0 0-1.39-.09 8.21 8.21 0 0 0-1.28.07c-.08 0-.07 0 .17.05h.55 2.14zm43.29-1.91c.9 0 .58-.11.12-.17a7.92 7.92 0 0 0-1.28-.11 12.08 12.08 0 0 0-1.72.07l-.89.12c-.13 0-.26 0-.13.06s.41 0 .67 0l4.19.1zm6.69 2.27c8.32 0 4.49-.74-2.93-.85-7.77-.11-4.32.88 2.93.85zm-74.55-.41a11.93 11.93 0 0 1-2.66.08 1.93 1.93 0 0 1 .92-.18 20 20 0 0 1 2.57 0l-.06.11zm12 2.65h.45a2.55 2.55 0 0 1-.46 0h-.59a7.88 7.88 0 0 1-1.14-.06c-.19 0-.1-.06.18-.08h.55a2.25 2.25 0 0 1 .51 0zm4.9-1.59h-.68c-.26 0-.53 0-.51.06a3.54 3.54 0 0 0 .86 0 .78.78 0 0 0 .21 0l.43-.09zm-30.42-3.07c-.38 0-.77-.09-1.33-.12s-1.33-.06-1.84 0a2.81 2.81 0 0 0-.5 0c-.22.06.49.15 1.46.18a11.41 11.41 0 0 0 2.11-.07zm7.45-3.1c.91 0 1.2.13.45.16l-1.52-.05a3 3 0 0 1 .79-.09zm18.98 6.23l-1.24-.06-.41.06a14.9 14.9 0 0 0 1.76 0zm82.7 12.05a52.62 52.62 0 0 0-6.8-.94l-1.73-.13c-1.33-.06-2.88-.06-4 0-2.85.09-4 .35-3 .6a50 50 0 0 0 7.16.62l5.63.09c1.71-.04 2.84-.15 2.18-.29s-1.27 0-1.12 0zm35.44-15.19a44.16 44.16 0 0 0-5.81-.44c-1.66.11-2.65.28-1.89.47a39.6 39.6 0 0 0 6.13.35c2.44 0 2.94-.3.55-.42zm-87.86-18.65a48.06 48.06 0 0 0-5.81-.44c-1.66.11-2.65.29-1.89.48a39.41 39.41 0 0 0 6.13.35c2.44 0 2.94-.3.55-.42zm49.73 17.37a46 46 0 0 0-5.81-.44c-1.66.11-2.65.29-1.89.48a39.6 39.6 0 0 0 6.13.35c2.44 0 2.94-.3.56-.42zm-17.47 12.61a45.5 45.5 0 0 0-5.81-.45c-1.66.12-2.65.29-1.89.48a39.5 39.5 0 0 0 6.13.35c2.44 0 2.94-.3.55-.42zm-21.05-10.06a45.53 45.53 0 0 0-5.82-.45c-1.66.12-2.65.29-1.88.48a39.35 39.35 0 0 0 6.12.35c2.45 0 2.94-.3.56-.42zm60.33-6.08h-.88-.92-2.44l4.28.18h.32c.31 0 .1.06.21.09a11.45 11.45 0 0 0 1.52.08c4.35.07-.68-.24-2.09-.35zm19.08 3.62a14.27 14.27 0 0 1 2.27.14 11.13 11.13 0 0 1-2 .08h-1.17c-.69-.06.94-.12.41-.19a2.16 2.16 0 0 1 .54 0zm-22.7 1.99l1 .05c-.79 0-1.85 0-2.75-.05a8.32 8.32 0 0 1-1.08-.09s.28 0 .4-.07 0-.12.62-.13a10.82 10.82 0 0 1 1.09 0 .67.67 0 0 1 .33.09l.32.19zm-.5-.99a5.09 5.09 0 0 0-1.35-.18l-1.08.12c-.17 0-.34 0-.33.06a7.4 7.4 0 0 0 1.51.1 3.86 3.86 0 0 0 1.16-.09zm17.51-1.2c.24-.06-.14-.14-.91-.19a6 6 0 0 0-1.09.09c-.2.06.14.14 1 .17s1.88 0 1.4-.07zm2.61.68c.33 0 .22.1-.25.12l-1.91-.1a9.77 9.77 0 0 1 2-.06zm-9.37-.32a11.93 11.93 0 0 1-2.66.08 2 2 0 0 1 .92-.18 22 22 0 0 1 2.57 0l-.06.12zm-9.57-2.43c.91 0 1.19.14.45.17h-1.52a3 3 0 0 1 .79-.09zm18.97 6.2l-1.24-.06a1.27 1.27 0 0 0-.4.06 14.9 14.9 0 0 0 1.76 0z"/></g><path d="M1682.96 561.2l-26.39 9.48-21.09 2.11h-12.04l1.71-10.4 34.62.64 23.19-1.83z" fill="url(#M)"/><path d="M1593.47 555.96l3.37 8.4 26.6 8.43 1.71-10.4-14.29-2.55-2.97-3.88h-14.42z" class="m"/><path class="D i j" d="M1548.16 562.4l-27.65 2.54-37.58-.17 14.68-3.09 16.02-3.4 19.73.49 14.8 3.63z"/><path d="M1482.93 564.77l-1.49 1.73 19.06 1.48 15.12-.2h14.19l22.11-1.45-3.76-3.93-27.35 3.37-13.82-1.31-24.06.31z" fill="url(#N)"/><path class="D i j" d="M1746.09 595.77l-34.88-4.99-32.44 1.85-29.95.64-11.12 3.5 49.09 1.74 59.3-2.74z"/><path d="M2297.39 568.38l35.93-1.84 25.19-.88 34.79 2.8-44.15 1.69-51.76-1.77z" class="n"/><g class="R i j"><path d="M2041.41 616.05a54.6 54.6 0 0 0-7-.95c-.52 0-1.07-.09-1.77-.12-1.36-.07-3-.06-4.14 0-2.91.09-4.1.34-3.12.6a52.51 52.51 0 0 0 7.34.62l5.76.09c1.76-.03 2.91-.16 2.23-.29s-1.3 0-1.14 0zm-9.16 1.12a46.5 46.5 0 0 0-6-.44c-1.7.11-2.71.28-1.93.47a41.3 41.3 0 0 0 6.27.35c2.51 0 3-.3.57-.42zm21.81-1.69l-2.27-.15h-.57c-.46 0 .22.15-.56.17h-.39c-.11 0 .21 0 .48.05a12.61 12.61 0 0 0 3-.11h.28zm12.21-1.64l-4.27-.27h-.6-.49c-.86.09.43.28-1 .32h-.73c-.12 0 .38.07.9.09 2.71.09 5.76 0 5.64-.21l.52.05zm-44.81-3.84l-.9-.05h-.94-2.5l4.38.18h.33c.31 0 .1.05.21.08a12.08 12.08 0 0 0 1.56.08c4.45.09-.7-.22-2.14-.29zm34.54.33c.62.08-.31.18-1.58.16s-2.25-.15-1.67-.22a22.53 22.53 0 0 1 3.16.05zm-15 3.25a15.15 15.15 0 0 1 2.32.14 11.79 11.79 0 0 1-2.08.08h-1.19c-.71-.06 1-.12.42-.18a1.93 1.93 0 0 1 .55 0zm32.61 7.73l-.92-.06h-1.06c-.42 0 0 .08-.19.12a6.52 6.52 0 0 0-.76.1 8.76 8.76 0 0 0 1.48.08c.58 0 1 0 1.26-.07s.52-.06.5-.1a3.37 3.37 0 0 0-1-.1z"/><path d="M2137.86 614.6c.3-.06-.91-.15-1.89-.15s-1.48.08-1.29.15a3.25 3.25 0 0 0 .66.09h1.86a6 6 0 0 0 .94-.1zm-102.69-1.22c.25-.06-.14-.14-.93-.19a7.4 7.4 0 0 0-1.12.09c-.21.06.15.14 1 .17s1.92 0 1.42-.07zm2.67.68c.34.05.22.1-.26.12l-1.95-.1a10.19 10.19 0 0 1 2.08-.06zm13.38 1.4h.84c-.37 0-.75.06-1.31.08h-1.84c-.48 0-.33-.1.32-.1h2zm-.78-3.34c.92 0 .59-.11.12-.18a11.94 11.94 0 0 0-1.31-.11 10.84 10.84 0 0 0-1.76.08l-.91.12c-.14 0-.28 0-.14.06s.42 0 .69 0l4.29.11zm6.84 2.27c8.52 0 4.61-.75-3-.86-7.95-.11-4.41.88 3 .86zm-32.61 2a12.57 12.57 0 0 1-2.73.08 2.08 2.08 0 0 1 1-.18 23 23 0 0 1 2.63 0l-.06.12zm-6.22-5.07c.93 0 1.22.13.45.16l-1.55-.05a3.17 3.17 0 0 1 .81-.09zm19.43 6.19l-1.28-.06-.41.06a15.58 15.58 0 0 0 1.8 0z"/></g><g class="R i j"><path d="M2224.41 560.54a54.6 54.6 0 0 0-7-.95c-.51 0-1.07-.09-1.77-.12-1.36-.07-2.94-.06-4.14 0-2.91.09-4.1.34-3.12.6a52.51 52.51 0 0 0 7.34.62l5.76.09c1.76-.03 2.91-.16 2.23-.29s-1.3 0-1.14 0zm-9.16 1.12a47.91 47.91 0 0 0-6-.45c-1.7.12-2.71.29-1.93.48a41.3 41.3 0 0 0 6.27.35c2.51 0 3-.3.57-.42zm65.52.72c-.68 0-1.44-.1-2.27-.14h-.58c-.45 0 .23.15-.55.17h-.37c-.11 0 .2 0 .48.05a12.61 12.61 0 0 0 3-.11h.27zm12.23-1.64l-4.27-.27h-.61-.48c-.86.09.42.28-1 .32h-.73c-.12 0 .38.07.9.09 2.7.1 5.76 0 5.64-.2h.52zm-57.24.73a22.92 22.92 0 0 0-2.74-.21c-.18 0-.37.07-.33.11a3.47 3.47 0 0 0 .89.1h2 0zm-31.3-7.02l-.9-.05h-.94-2.5l4.38.18h.33c.31 0 .1.05.21.08a12.08 12.08 0 0 0 1.56.08c4.45.13-.7-.18-2.14-.29zm78.27 2.78c.62.09-.31.18-1.58.16s-2.26-.15-1.68-.21a22.59 22.59 0 0 1 3.17 0zm-58.73.84a15 15 0 0 1 2.32.14 11.71 11.71 0 0 1-2.07.08h-1.19c-.72-.06 1-.12.41-.18a1.93 1.93 0 0 1 .55 0zm-23.25 1.99l1 .05c-.8 0-1.9 0-2.81-.05a7.3 7.3 0 0 1-1.11-.09s.29 0 .41-.07 0-.12.64-.13a11.1 11.1 0 0 1 1.11.05c.24 0 .3.06.34.09l.33.19zm40.33 3.33a8.36 8.36 0 0 0-1.64 0 3.74 3.74 0 0 0 1.1.15c.87 0 1.28-.1 1-.18zm59.24 4.83c-.27 0-.56-.05-.92-.06a9.74 9.74 0 0 0-1.07 0c-.41 0 0 .08-.19.12s-.82.06-.75.11a10.5 10.5 0 0 0 1.47.07c.59 0 1 0 1.27-.07s.52-.06.49-.1a3.63 3.63 0 0 0-1-.1zM2190 564.14c.16 0-.08.05-.42.05h-1.08-.5c-.28 0-.1-.07.34-.08a9.36 9.36 0 0 1 1.29.05c.24 0 .07.07-.34.08zm42-1.98c.61 0 .29-.11-.48-.13a2.89 2.89 0 0 0-.63.06c-.07 0 .12.06.5.07a3.35 3.35 0 0 0 .84 0zm6.64-3.48c.6 0 .29-.11-.49-.13a3 3 0 0 0-.63.06c-.07 0 .12.06.5.08a3.6 3.6 0 0 0 .84 0zm-38.4.39a5.28 5.28 0 0 0-1.38-.18l-1.11.12a1.09 1.09 0 0 0-.34.06 7.85 7.85 0 0 0 1.55.1 3.89 3.89 0 0 0 1.18-.09zm191.7 2.93l3.85.18a11.52 11.52 0 0 1-1.73 0c-.7 0-1.45 0-2-.09s-.61-.11 0-.12z"/><path d="M2364.57 561.5c.3-.06-.91-.15-1.89-.14s-1.49.07-1.3.14a2.83 2.83 0 0 0 .67.09h1.85a7.12 7.12 0 0 0 .95-.11zm-146.4-3.63c.25-.06-.14-.14-.93-.19a7.4 7.4 0 0 0-1.12.09c-.21.06.15.14 1 .17s1.92 0 1.42-.07zm2.67.68c.34.05.22.1-.26.12l-1.95-.1a10.19 10.19 0 0 1 2.08-.06zm57.09 3.82h.84c-.37 0-.75.07-1.31.08h-1.84c-.48 0-.33-.1.32-.1h1.95zm-46.58.78c.21 0 .1.08-.29.1s-1 0-1.51 0c-.35 0-.66 0-.47-.07h.37 1.84.11zm-12.93-.26c-.27 0 .24.09.74.13s1.08.09 1 .14a1.45 1.45 0 0 1-.3 0 10.37 10.37 0 0 1-1.17-.07l-1-.05c-.83 0-1.35-.11-1.25-.17h1.27a5.87 5.87 0 0 1 1 .09zm-6.63-.01h-.73a1.94 1.94 0 0 0 .65.08 5.68 5.68 0 0 0 1 0 3 3 0 0 0-.82-.06zm-2.18 1.2h-.73a1.83 1.83 0 0 0 .65.07 5.06 5.06 0 0 0 1 0 2.51 2.51 0 0 0-.82-.06z"/><path d="M2235 561.88a8.77 8.77 0 0 0 1.29 0c.33 0 .45-.06.74-.08a12.85 12.85 0 0 1 1.33 0h.82.14c.01 0-.07.14-.58.19a23.17 23.17 0 0 1-2.5 0 12.43 12.43 0 0 1-1.55-.11c-.25 0-.11-.1.35-.13zm-20.14-4.88a10.45 10.45 0 0 0 1.28 0c.34 0 .45-.06.75-.08s.8 0 1.32 0h.83.13s-.07.14-.57.19a22.73 22.73 0 0 1-2.5.05 12.1 12.1 0 0 1-1.56-.12c-.24-.05-.1-.1.36-.12zm17.96 3.93a9.57 9.57 0 0 0-1.42-.09 10.6 10.6 0 0 0-1.31.06c-.09 0-.08.05.17.06h.56 2.19zm44.32-1.93c.92 0 .6-.11.12-.18a10.07 10.07 0 0 0-1.3-.1 11.09 11.09 0 0 0-1.76.07l-.91.12c-.14 0-.28 0-.14.06s.42 0 .69 0l4.29.11zm6.86 2.29c8.52 0 4.6-.75-3-.85-8-.11-4.43.87 3 .85zm-76.33-.41a12.51 12.51 0 0 1-2.72.08 2 2 0 0 1 .94-.18 23 23 0 0 1 2.63 0l-.06.12zm12.25 2.65c.3 0 .51 0 .47.05a2.71 2.71 0 0 1-.47 0h-.61a8.11 8.11 0 0 1-1.16-.06c-.2 0-.11-.06.18-.08h.57a3.67 3.67 0 0 1 .51 0zm5.08-1.59h-.7c-.26 0-.55 0-.52.06a3.64 3.64 0 0 0 .88 0 .78.78 0 0 0 .21 0l.44-.09zm-31.19-3.07c-.38 0-.78-.09-1.35-.12s-1.37-.06-1.89 0a3 3 0 0 0-.51 0c-.23.06.5.15 1.49.18a12.09 12.09 0 0 0 2.17-.07zm7.64-3.06c.93 0 1.22.13.45.16l-1.55-.05a3.17 3.17 0 0 1 .81-.09zm19.43 6.19l-1.27-.06-.42.06a15.58 15.58 0 0 0 1.8 0zm84.68 12.05a56.52 56.52 0 0 0-7-.95c-.51 0-1.07-.09-1.77-.12-1.35-.06-2.94-.06-4.14 0-2.91.09-4.1.35-3.12.6a52.51 52.51 0 0 0 7.34.62l5.76.09c1.76-.03 2.91-.15 2.23-.29s-1.3 0-1.14 0zm36.29-15.19a47.7 47.7 0 0 0-5.95-.45c-1.7.12-2.72.29-1.93.48a41.3 41.3 0 0 0 6.27.35c2.5 0 3-.3.57-.42zm-39.04-1.28a48.46 48.46 0 0 0-6-.44c-1.69.11-2.71.29-1.93.48a41.82 41.82 0 0 0 6.28.34c2.5 0 3-.3.56-.42zm-17.89 12.6a50.61 50.61 0 0 0-6-.44c-1.7.11-2.71.29-1.93.48a41.36 41.36 0 0 0 6.28.35c2.5 0 3-.3.56-.42zm-21.56-10.06a50.41 50.41 0 0 0-6-.44c-1.69.11-2.71.29-1.93.48a41.46 41.46 0 0 0 6.28.35c2.5 0 3-.3.56-.42zm61.78-6.07h-.91-.94-2.49l4.38.18h.32c.32 0 .11.06.22.09a14.3 14.3 0 0 0 1.56.08c4.45.07-.7-.24-2.14-.35zm19.54 3.62a15.15 15.15 0 0 1 2.32.14 11.79 11.79 0 0 1-2.08.08h-1.19c-.71-.06 1-.12.42-.19a2.26 2.26 0 0 1 .55 0zm-23.25 1.98l1 .06c-.81 0-1.9 0-2.81-.05a6.58 6.58 0 0 1-1.11-.1 2.65 2.65 0 0 1 .41-.06c.26 0-.05-.12.64-.13a8.83 8.83 0 0 1 1.11 0 .73.73 0 0 1 .34.09l.32.19zm-.51-.98a4.52 4.52 0 0 0-1.38-.18l-1.11.11c-.17 0-.35 0-.34.07a7.77 7.77 0 0 0 1.55.1 4.31 4.31 0 0 0 1.18-.09zm17.92-1.21c.25-.05-.14-.13-.92-.18a6.48 6.48 0 0 0-1.13.09c-.2.06.16.14 1 .17s1.93 0 1.43-.08zm2.67.69c.34 0 .23.09-.25.11l-2-.09a9.45 9.45 0 0 1 2.08-.06zm-9.59-.32a12.41 12.41 0 0 1-2.72.08 2 2 0 0 1 .94-.18 23.17 23.17 0 0 1 2.64 0l-.06.12zm-9.8-2.43c.94 0 1.23.14.46.17l-1.56-.05a3.28 3.28 0 0 1 .82-.09zm19.43 6.19l-1.27-.05a1.41 1.41 0 0 0-.41.06 15.58 15.58 0 0 0 1.8 0z"/></g><path class="D i j" d="M2122.72 607.95l-28.31 2.54-38.48-.17 15.03-3.1 16.41-3.39 20.2.49 15.15 3.63z"/><path d="M2055.93 610.32l-1.52 1.73 19.51 1.48 15.48-.2h14.53l22.64-1.45-3.85-3.93-28 3.37-14.15-1.31-24.64.31z" fill="url(#O)"/><path class="D i j" d="M2361.34 565.54l-35.72-4.99-33.21 1.84-30.66.65-11.4 3.5 50.27 1.74 60.72-2.74z"/><path d="M787.8 553.76h713.17 89.15l-39.22-2.35-18.94-2.25-2.53-3.76-28.46-4.95-27.34 8.29-10.69 2.88h-24.67-14.95l-13.63-4-31.66 1.12-6.91 2.88-15.16-2.88-11.74-4.08-19.37 2.96v4h-13.87-34.95l-9.07-12.67-9.5 1.5-2.38 2.5-3.27.33-1.78 2-5.66 2.34-7.12 4h-40.12-11.59-10.25l-8.17-1.75-33.87-3.5-12.26 2.37-42.18 2.88-14.65-1.75h-10.04-17.37l-10.78 1.75h-15.75l-23.35-5.67-4.12 1.03-24.44.64-56.39 4.33-16.28-9.31-23.25.31-3.54 2.31-38.55 2.97-22.09-8.7-6.41.51-4 13.72z" fill="url(#P)"/><g class="j"><path class="D i" d="M1328.36 549.32l15.86 1.38 5.76-3.08-5.76-2.96-19.37 2.96 3.51 1.7zm49.67-.58l15.08 1.96 13.22-1.38 3.36-1.7-31.66 1.12zm-120.57-8.29l6.83 1.75 4.32-.94-1.65-2.31-9.5 1.5zm-5.65 2.83l3.71 2.25 3.27-1.12 2.08-.22-5.79-1.24-3.27.33zm-118.56 3.09l1.04 4.92 15.91.89 2.95-1.83 13.97-.48-33.87-3.5z"/></g><path d="M15.15 550.57h713.16l61.21-.84-1.79-2.59-18.94-2.25-12.02-2.69-28.46-4.95-27.33 8.29-10.7 2.88h-24.67-14.95l-13.63-4-31.66 1.12-6.91 2.88-15.16-2.88-11.74-4.08-19.37 2.96v4h-13.87-34.95l-9.06-12.67-9.51 1.5-2.38 2.5-3.27.34-1.78 2-5.66 2.33-7.12 4h-40.12-11.59-10.25l-8.17-1.75-33.87-3.5-12.26 2.37-42.18 2.88-14.65-1.75h-10.04-17.37l-10.78 1.75h-15.75l-23.35-5.67-4.12 1.03-24.44.64-56.39 4.33-16.28-9.3-23.25.3-3.54 2.32-38.55 2.96-22.09-5.93-10.4-2.06L.91 549.83l14.24.74z" fill="url(#Q)"/><g class="j"><path class="D i" d="M555.7 546.12l15.86 1.38 5.76-3.08-5.76-2.96-19.37 2.96 3.51 1.7zm49.67-.58l15.08 1.96 13.22-1.38 3.36-1.7-31.66 1.12zm-120.57-8.29l6.83 1.75 4.32-.94-1.64-2.31-9.51 1.5zm-5.65 2.84l3.72 2.24 3.26-1.12 2.08-.22-5.79-1.24-3.27.34zm-118.56 3.08l1.04 4.93 15.92.88 2.95-1.83 13.96-.48-33.87-3.5z"/></g><path d="M820.31 471.25l-.03-5.73 2.32-7.62 6.64-8.44 13.92-11.04 4.13 7-5.84 19.26-1.25 10.01-11.62 7.4-3.69-8.14-4.58-2.7z" fill="url(#R)"/><path class="G i k" d="M820.31 471.25l7.4-3.05 7.37-7.83 6.78-13.73.57 3.99 4.86-5.21-6.31 20.89-.78 8.38-11.62 7.4-3.69-8.14-4.58-2.7z"/><path d="M843.16 438.42l-1.3 8.22.57 3.99 4.86-5.21-4.13-7z" class="l"/><path d="M1690.97 449.49l-3.39-8.66 2.07-8.82-.46-6 1.54-2.56 7.78 5.48.6 7.89.2 9.6-6.38 6.03-1.96-2.96z" fill="url(#S)"/><path class="G i k" d="M1689.65 432.01l.59 7.85 2.37 2.92 2.95 3.24 3.75.4-6.38 6.03-1.96-2.96-3.39-8.66 2.07-8.82z"/><use xlink:href="#W" class="l"/><path d="M749.27 379.79l-.27-1.68-1.86-2.36-4.67-2.82-9.46-3.95-2.29 1.85 4.7 5.96 1.31 3.01 7.8 2.76 1.95-2.2 2.79-.57z" fill="url(#T)"/><path class="G i k" d="M749.27 379.79l-4.88-1.27-5.11-2.67-5.02-4.38-.17 1.14-3.37-1.78 5.09 6.47.92 2.5 7.8 2.76 1.95-2.2 2.79-.57z"/><path d="M733.01 368.98l1.25 2.49-.17 1.14-3.37-1.78 2.29-1.85z" class="l"/><path d="M1671.37 393.23l-.26-1.69-1.87-2.35-4.67-2.82-9.45-3.95-2.3 1.85 4.71 5.96 1.3 3.01 7.8 2.76 1.95-2.21 2.79-.56z" fill="url(#U)"/><path class="G i k" d="M1671.37 393.23l-4.88-1.27-5.1-2.68-5.03-4.38-.16 1.15-3.38-1.78 5.09 6.46.92 2.51 7.8 2.76 1.95-2.21 2.79-.56z"/><path d="M1655.12 382.42l1.24 2.48-.16 1.15-3.38-1.78 2.3-1.85z" class="l"/><path d="M1321.46 508.07l-3.39-8.66 2.07-8.82-.46-5.99 1.54-2.57 7.78 5.48.6 7.89.2 9.6-6.38 6.03-1.96-2.96z" fill="url(#V)"/><path class="G i k" d="M1320.14 490.59l.59 7.85 2.37 2.92 2.95 3.24 3.75.4-6.38 6.03-1.96-2.96-3.39-8.66 2.07-8.82z"/><use xlink:href="#W" x="-369.51" y="58.58" class="l"/></g></g></svg>