<svg xmlns="http://www.w3.org/2000/svg" xmlns:xlink="http://www.w3.org/1999/xlink" viewBox="0 0 2600 710.23"><style>.A{isolation:isolate}.C{mix-blend-mode:multiply}.F{mix-blend-mode:screen}</style><defs><linearGradient id="A" x1="813.45" y1="446.85" x2="813.45" y2="314.53" gradientUnits="userSpaceOnUse"><stop offset="0" stop-color="#002974"/><stop offset="1" stop-color="#00093e"/></linearGradient><radialGradient id="B" cx="534.75" cy="454.77" r="9.81" gradientTransform="matrix(0.38, 0.52, -0.81, 0.59, 974.78, -169.02)" gradientUnits="userSpaceOnUse"><stop offset="0" stop-color="#ffae00"/><stop offset=".12" stop-color="#d18e00"/><stop offset=".3" stop-color="#926400"/><stop offset=".48" stop-color="#5e4000"/><stop offset=".64" stop-color="#352400"/><stop offset=".78" stop-color="#181000"/><stop offset=".91" stop-color="#060400"/><stop offset="1"/></radialGradient><linearGradient id="C" x1="1738.68" y1="435.579" x2="1725.9" y2="352.547" gradientUnits="userSpaceOnUse"><stop offset="0" stop-color="#003d9f"/><stop offset="1" stop-color="#1d0f6d"/></linearGradient><linearGradient id="D" x1="862.412" y1="483.736" x2="884.202" y2="510.264" xlink:href="#A"/><linearGradient id="E" x1="1419.301" y1="449.945" x2="1417.24" y2="435.734" gradientUnits="userSpaceOnUse"><stop offset="0" stop-color="#003d9f"/><stop offset="1" stop-color="#1d2486"/></linearGradient></defs><g class="A"><g><path d="M771.94 390.15l1.08-16.57 4.66-2.86-3.58-3.55-4.72-22.22 8.3-14.45 6.98-5.79 11.02-1.43 5.06 4.03 4.15-4.33 15.62-8.45 18.99 1.76 18.01 7.94-.71 23.24-.13 5.83-5.73 38.84.9 1.07-9.2 11.32 1.89 4.07-20.14 21.54-10.53 16.71-27.11-27.62-14.81-29.08z" fill="url(#A)"/><path class="C" d="M784.66 324.71l-8.42 11.17 2.5 8.61.79-3.75 11.48 22.76 6.79-7.76 1.87-23.94 4.96 31.7 1.18 15.74-4.21 4.78-8.01 13.09 5.17 11.49 16.31 3.48 9.81-4.57-2.97-13.84 13.39-32.5 4.6-2.1-3.36-24.03 7.06 19.26 13.07-1-6.11 37.18 1.28 2.73-.9 1.24-4.87 4.62-9.35 4 .33 4.4 7.48 1.13-6.87 7.57-13.27 13.97-4.22 7.94-6.31 8.77h0l-29.5-31.16-12.42-25.54 1.08-16.57 4.66-2.86-3.58-3.55-4.72-22.22 8.3-14.45 6.98-5.79z" fill="#610051" opacity=".5"/><g fill="#083982"><path d="M800.74 327.31l10.12-4.8 12.87 1.04 4.15 2.34 8.98 9.99-.76-6.23 3.43-2.47 9.33-.13 8.65-2.82-18.01-7.94-18.99-1.76-15.62 8.45-4.15 4.33zm-16.08-2.6l-6.98 5.79-1.44 5.38 11.42-.81 7.71-4.46.31-7.33-11.02 1.43zm3.97 71.6l10.13 12.29 16.31 3.48 10.42-1.63 2.48 1.63-3.09-4.57-3.2-13.08-15.63-6.72-7.29-.43-10.13 9.03z"/></g><g fill="#ff8337"><path d="M781.51 409.83l7.12-13.52 11.26-9.23 5.92-7.84 18.08-14.01 11.41-4.06 4.6-2.1h8.18l8.22-3.52-.73 4.42-2.83-.03-3.34-.52-3.16.52-6.44.51-4.43 1.73-10.98 3.31-17.4 16.23-4.32 3.76-1.05 2.22-1.73.42-10.97 8.55-6.16 11.98.31 4.39-1.56-3.21zM857 341l-5.41-.03-4.65.05-3.28.03-5.7-.6-5.52 2.45-7.65 6.43-7.03 4.78-14.14 2.99 15.28-2.32 5.56-4.58 1.64-1.27 7.55-6.08 3.6.1 2.7.2 1.34-1.75 7.8.2 3.4.65 4.42 1.5.09-2.75z"/></g><path class="F" d="M813.72 383.13c-4.39 3.18-9.61 3.46-11.67.63s-.17-7.72 4.21-10.9 9.61-3.47 11.67-.63.17 7.71-4.21 10.9z" opacity=".61" fill="url(#B)"/><path d="M1717.63 428.1l-8.88-23.32 4.97-4.68-1.57-33.25 5.4-8.9 14.48-6.28 20.43 9.27-5.5 21.84-7.49 17.27 1.57 2.59-5.16 33.23-7.28 1.32-5.76-8.09-5.21-1z" fill="url(#C)"/><g fill="#610051"><path class="C" d="M1751.24 361.43l-6.18 19.35-7.92 13.65-2.46-9.54.4-18.55-2.75 9.9-4.09 15.97 2.36-3.51v11.03l-3.78 4.59-11.4 3.76-6.67-3.3 8.88 23.32 5.21 1 5.76 8.09 7.28-1.32 5.16-33.23-1.57-2.59 7.49-17.27 5.5-21.84-1.22.49zm-35.82 8.32l2.8 14.52-1.4 3.83 5.1-4.68-1.85-10.72-1.4.47-3.25-3.42z" opacity=".5"/></g><path d="M1708.75 404.78l4.97-4.68 4.95 2.34 8.15.07v1.81l-11.4 3.76-6.67-3.3z" fill="#083e98"/><path d="M1712.15 366.85l10.86.44 8.48-.85 4.96-4.27-2.02-5.66 7.97.99 4.16 5.66 5.9-2.22-20.43-9.27-14.48 6.28-5.4 8.9z" fill="#082d91"/><path class="C" d="M1734.43 356.51l2.02 5.66-1.37 4.17 5.77-2.55 5.71-.63-4.16-5.66-7.97-.99z" fill="#610051" opacity=".5"/><path d="M1739.47 400.05l-8.17-5.76-2.7-1.3-11.24-.6 10.88-.18 3.31.18 2.88 2.42 4.46 3.95.58 1.29h0z" fill="#ff8337"/><path d="M878.56 483.33l2.5 4.07 1.64 6.43-1.07 8.89-5.14 13.9-5.98-3.2-4.18-16.26-3.43-7.67 5.07-10.31 6.15 4.2 4.44-.05z" fill="url(#D)"/><path class="C" d="M878.56 483.33l-3.96 5.37-1.85 8.78 1.1 12.71-2.13-2.6-1.21 5.83-4.54-17.62-3.07-6.31 5.07-10.31 6.15 4.2 4.44-.05z" fill="#610051" opacity=".5"/><g fill="#903982"><path d="M876.49 516.62l-2.64-6.43-.57-10.1-2.77 13.33 5.98 3.2z"/><path d="M862.9 489.49l3.95 6.81 4.28 14.12-.62 3-4.7-16.38-2.91-7.55z"/></g><path d="M1417.63 450.21l-3.33-5.7 2.45-7.43 2.54-1.62 3.68 9.75-.88 4.35-4.46.65z" fill="url(#E)"/><path class="C" d="M1414.3 444.51l3.73 1.42 3.96-.57.98-.15-.88 4.35-4.46.65-3.33-5.7z" fill="#610051" opacity=".5"/></g></g></svg>