<svg xmlns="http://www.w3.org/2000/svg" xmlns:xlink="http://www.w3.org/1999/xlink" viewBox="0 0 2600 710.23"><style>.A{isolation:isolate}.Y,.F{mix-blend-mode:multiply}.K{mix-blend-mode:screen}.Z,.f,.g,.h{mix-blend-mode:color-dodge}</style><defs><linearGradient id="A" x1="2487.86" y1="624.21" x2="2487.86" y2="360.48" xlink:href="#T"><stop offset="0" stop-color="#0b1347"/><stop offset="1" stop-color="#001060"/></linearGradient><radialGradient id="B" cx="3490.39" cy="474.99" r="8.7" gradientTransform="translate(846.13) scale(0.49 1)" xlink:href="#T"><stop offset="0" stop-color="#ffae00"/><stop offset=".12" stop-color="#d18e00"/><stop offset=".3" stop-color="#926400"/><stop offset=".48" stop-color="#5e4000"/><stop offset=".64" stop-color="#352400"/><stop offset=".78" stop-color="#181000"/><stop offset=".91" stop-color="#060400"/><stop offset="1"/></radialGradient><linearGradient id="C" x1="991.33" y1="572.27" x2="991.33" y2="655.6" xlink:href="#T"><stop offset="0" stop-color="#0d0e51"/><stop offset="1" stop-color="#002"/></linearGradient><linearGradient id="D" x1="1803.61" y1="377.08" x2="1803.61" y2="351.67" xlink:href="#T"><stop offset="0" stop-color="#003d9f"/><stop offset="1" stop-color="#1d0f6d"/></linearGradient><linearGradient id="E" x1="1725.069" y1="471.785" x2="1723.008" y2="457.574" xlink:href="#T"><stop offset="0" stop-color="#003d9f"/><stop offset="1" stop-color="#1d2486"/></linearGradient><linearGradient id="F" x1="774.327" y1="485.124" x2="772.126" y2="456.128" xlink:href="#T"><stop offset="0" stop-color="#002974"/><stop offset="1" stop-color="#00093e"/></linearGradient><linearGradient id="G" x1="881.47" y1="330.919" x2="884.893" y2="314.451" xlink:href="#E"/><linearGradient id="H" x1="1393.46" y1="-115.98" x2="1393.46" y2="-150.31" gradientTransform="matrix(0.77, 0.63, 0.63, -0.77, 360.7, -448.11)" xlink:href="#F"/><linearGradient id="I" x1="1096.225" y1="655.775" x2="1089.857" y2="582.993" xlink:href="#T"><stop offset="0" stop-color="#1572ff"/><stop offset="1" stop-color="#00e5f6"/></linearGradient><linearGradient id="J" x1="1109.331" y1="656.425" x2="1104.736" y2="603.896" xlink:href="#I"/><linearGradient id="K" x1="1075.515" y1="655.991" x2="1072.044" y2="616.323" xlink:href="#I"/><radialGradient id="L" cx="1095.89" cy="623.83" r="18.89" gradientTransform="translate(218.79 79.42) rotate(-5) scale(0.76 1)" xlink:href="#T"><stop offset="0" stop-color="#005eff"/><stop offset=".12" stop-color="#004dd1"/><stop offset=".3" stop-color="#003692"/><stop offset=".48" stop-color="#00235e"/><stop offset=".64" stop-color="#001435"/><stop offset=".78" stop-color="#000918"/><stop offset=".91" stop-color="#000206"/><stop offset="1"/></radialGradient><linearGradient id="M" x1="2198.39" y1="636.19" x2="2198.39" y2="560.48" xlink:href="#T"><stop offset="0" stop-color="#1550ff"/><stop offset="1" stop-color="#00c8f6"/></linearGradient><linearGradient id="N" x1="2181.3" y1="639.42" x2="2181.3" y2="541.66" xlink:href="#I"/><linearGradient id="O" x1="2161" y1="641.56" x2="2161" y2="582.63" xlink:href="#I"/><linearGradient id="P" x1="2172.63" y1="641.11" x2="2172.63" y2="602.08" xlink:href="#I"/><radialGradient id="Q" cx="46.97" cy="579.76" r="14.95" gradientTransform="matrix(-0.76, 0, 0, 1.1, 2225.74, -56.26)" xlink:href="#L"/><radialGradient id="R" cx="-120.47" cy="605.75" r="13.21" gradientTransform="matrix(-0.5, 0, 0, 1.1, 2102.59, -56.26)" xlink:href="#L"/><radialGradient id="S" cx="1198.53" cy="1192.58" r="13.21" gradientTransform="matrix(-1.26, -0.09, -0.12, 1, 3825.32, -462.7)" xlink:href="#L"/><linearGradient id="T" gradientUnits="userSpaceOnUse"/></defs><g class="A"><g><path d="M2382.3 586.15l45.88-30.15 6.64-18.42c5.74-9.1 12.59-14.6 22.19-21.12l13.67-1.76 7.32 2.12 14.52.58 14.59-7.52 17-19.29 15.36-4 13.24 12.72V457.7l4.58-8.44V421.9l2.31-12.9 2.28-33.25 3.37-15.23 3.69 22.54.52 20.9 13 71.16 18.54 15.33-.07 94.66v39.1l-226.23-9.48z" fill="url(#A)"/><path d="M2434.82 537.57l-2.8 7.76 16.15 2.69 17.56-1.16 14.14-10.75 1.59-15.53-3.46-3.77-7.32-2.12-13.67 1.76-17.92 15.23-4.27 5.89z" fill="#082264"/><path d="M2435.85 540.91l14 4 15.87-1.38 8.6-4.2c3.18-6.68 4.92-11.85 4.37-19.3l-10.34-1.6-10 1.25c-9.69 4.22-14.25 7.89-22.5 21.23z" fill="#ff8337"/><path d="M2439.88,541.76s17.3-12.16,38.38-13.35l-3.93,10.93-8.6,4.2-15.87,1.38Z" fill="#fc0"/><path class="F" d="M2478 516.81l3.46 3.77-1.59 15.53-14.14 10.75 4.43 13.43-27.79 9.09-34 19 46.32-2.45 22.82 4.65 35.21 29.55-19.25-61.13-1.58-2.85c8.49-9.69 18.06-15.36 28.89-19.45l8.86-1.63 3.2 8.11 6 20.85.62 2.57 8.63 44.59 6.75-41.44 17.26-4.71 19-1.25-12.19 54.67 22.1-33.31.07-94.66-18.51-15.37-13-71.16-.52-20.9-2 6.62v16.17l-2.05 2.25v59.59l-4.2 1.87-3.15 29-4.93.73-13.24-12.72 4 9.27-1.27 5.67-4.79 16.37-21.55.53-8.76-8.57-14.59 7.52z" fill="#610051" opacity=".5"/><path d="M2491.89 556.11c-1.22 3.32 20 15.86 26.66 17.75s19.89-6.36 20.25-9.87-6.67-27-9.16-29-32.23 6.06-37.75 21.12z" fill="#081a64"/><path d="M2524.13 490.58l7.48 5.29h9.8 2.07l-3.99-9.27-15.36 3.98z" fill="#082264"/><path d="M2552.73 457.7h6.22l6.06 3.83-1.91-7.7-5.79-4.57-4.58 8.44z" fill="#222264"/><path d="M2557.31 421.9l5.77-7.69 1.93 16.82V408.1l-3.85-8.68 1.94-19.31 4.32-6.36-2.17-13.27-3.37 15.23-2.76 35.93-1.81 10.26z" fill="#08227d"/><path d="M2533.8 564c-.35 3.74-9.51 5.49-15.13 5.62-3.92.09-11.52-4.77-16.18-9.42h0c-2-2-3.46-3.94-3.86-5.44-1.39-5.12 10.12-12.15 15.71-13.68s12.85-.09 15.32 3.85c1.2 1.91 2.3 5.55 3.07 9.23a40.84 40.84 0 0 1 1.07 9.84z" fill="#ff8337"/><path d="M2533.8 564c-.35 3.74-9.51 5.49-15.13 5.62-3.92.09-11.52-4.77-16.18-9.42.35-.32 15.15-12.91 30.14-6.21l.08.17a40.84 40.84 0 0 1 1.09 9.84z" fill="#fc0"/><path d="M2428.18 555.99l5.36 9.01 10.98 3.66-33.84 20.05-16.18 2.44-8.03-8.04 41.71-27.12z" fill="#222264"/><g fill="#ff8337"><path d="M2557.31 449.26l5.79 4.57 1.91 7.7 1.93 5.64.48 13.48 2.44 5.98 8.01 11.33-7.41-11.32-2.22-6.65v-12.86l-2.14-5.6-1.79-7.63-7-6.44v1.8z"/><path d="M2567.42 480.65l-2.41 10.59 1.72 1.55-1.72 12.15 2.58-12.15-1.44-2.41 2.02-7.9-.75-1.83zm1.01 44.86l4.02 1.5 3.14-.75h0l-2.07 1.82h-2l-3.35-1.35.26-1.22z"/></g><path d="M2554.8 569.71l20.79 2.55 6.86-1.28 7.32-1.6 1.26-5.63-18.97 1.25-17.26 4.71z" fill="#152264"/><g fill="#082264"><path d="M2550.06 536.81l21.82-4.01 12.28-1.65 8.77 2.66-9.86 1.52-13.07 2.17-19.94-.69zm-124.3 53.76l14.12-7.46 20.97-11.96 9.37-1.94-5.21 3.44-5.71 2.63-3.69 3.73-8.21 17.79-21.64-6.23z"/></g><ellipse class="K" cx="2567.59" cy="474.99" rx="4.29" ry="8.7" opacity=".61" fill="url(#B)"/><path d="M956.9 655.26l12.62-37.24 2-2.53.92-12.98 5.94-9.57.67-12.36 4.45-7.46 3.26-.84 7.86 10.36.99 4.09 1.98.8 6.93 24.34 1.28.97 8.2 28.17 8.65 3.11 3.09 11.48-68.84-.34z" fill="url(#C)"/><path class="F" d="M958.06 652.74l12.66-4.28 2.73-13.09.46 1.18 1.08-12.38 6.13-3.1 3.54-14.19 1.84 15.69 2.17 26.13H993v-7.88l1.4.28 1.36-21.02 1.62-1.01 5.36 2.58 7.62 19.17 12.29 3.3-8.65-3.11-8.2-28.17-1.28-.97-5.66-19.89-1.48 5.34-1.77-10.59-.99-4.09-7.86-10.36-4.31 13.22-2.15-3.61-1.28-.66-.64 11.71-5.94 9.57-.92 12.98-2 2.53-11.46 34.72z" fill="#610051" opacity=".5"/><g fill="#ff8337"><path d="M969.52 618.02l4.88-1.39 5.08 1.31 1.87 2.21 5.59 7.7 7.69 4.64.56-1.31 7.55 3.91-7.44-4.95-.9 1.74-7.46-4.03-5.4-8.47-1.93-2.34-5.7-2.27-2.39.72-2 2.53zm8.86-25.08l4.51-.29 2.37-.67-2.81-6.48-2.15-3.61-1.28-.66 1.75.43 2.55 2.91-.39.93 2.04 5.06 1.24 1.78-1.75.6h-1.26l-5.65 1.34.83-1.34z"/></g><path d="M1799.81 374.16v-7.46l-1.55-6.88 6.13-8.15 4.1 3.51.47 11.52-2.93 10.38-6.22-2.92z" fill="url(#D)"/><path class="F" d="M1798.26 359.82l2.73 4.86 1.19 4.54h3.85l2.93-2.52-2.93 10.38-6.22-2.92v-7.46l-1.55-6.88z" fill="#610051" opacity=".5"/><path d="M1723.4 472.05l-3.32-5.7 2.45-7.43 2.54-1.62 3.68 9.76-.88 4.35-4.47.64z" fill="url(#E)"/><path class="F" d="M1720.08 466.35l3.73 1.42 3.96-.57.98-.14-.88 4.35-4.47.64-3.32-5.7z" fill="#610051" opacity=".5"/><path d="M770.93 482.24l-3.4-8.66 2.07-8.81-.46-6 1.54-2.56 7.78 5.48.6 7.88.2 9.6-6.38 6.03-1.95-2.96z" fill="url(#F)"/><path class="F" d="M769.6 464.77l.6 7.85 2.36 2.92 2.95 3.24 3.75.39-6.38 6.03-1.95-2.96-3.4-8.66 2.07-8.81z" fill="#610051" opacity=".5"/><path d="M770.68 456.21l.76 4.54.89 6.25 6.35 4.56-.22-9.87-7.78-5.48z" fill="#083982"/><path d="M879.45 330.53l-1.38-7.61 5.68-7.2 3.45-.76.13 12.21-2.71 4.44-5.17-1.08z" fill="url(#G)"/><path class="F" d="M878.07 322.92l3.54 3.06 4.6.95 1.12.24-2.71 4.44-5.17-1.08-1.38-7.61z" fill="#610051" opacity=".5"/><path d="M1347.73 525.57l-2.51 4.07-1.64 6.43 1.07 8.89 5.14 13.9 5.98-3.2 4.18-16.26 3.44-7.67-5.08-10.31-6.15 4.2-4.43-.05z" fill="url(#H)"/><path class="F" d="M1347.73 525.57l3.95 5.37 1.86 8.78-1.11 12.71 2.13-2.59 1.21 5.82 4.55-17.62 3.07-6.31-5.08-10.31-6.15 4.2-4.43-.05z" fill="#610051" opacity=".5"/><g fill="#903982"><path d="M1349.79 558.86l2.64-6.43.57-10.1 2.77 13.33-5.98 3.2z"/><path d="M1363.39 531.73l-3.96 6.81-4.28 14.12.62 3 4.7-16.38 2.92-7.55z"/></g><path d="M1076.85 655.1l7.98-45.17 16.48-27.54 1.88-.57 6.99 12.81-6.19 60.47h-27.14z" fill="url(#I)"/><path d="M1121.99 655.32l-5.24-45.69.58-4.28-1.94-2.39-15.11 7.09-2.89 6.87-.93 38.18 25.53.22z" fill="url(#J)"/><path d="M1089.17 614.83l-7.34.64-13.65 9.4-2.22 3.46-7 10.65-.78 16.12h27.56l3.43-40.27z" fill="url(#K)"/><g fill="#5bebf3"><path d="M1084.83 609.93l9.78-1.85 5.01-5.6 10.56-7.85-6.99-12.81-1.88.57-16.48 27.54zm-16.65 14.94l5.41 1.1 7.01-3.07 1-2.83 7.57-5.24-7.34.64-13.65 9.4zm-2.22 3.46l3.47 1.14-3.16 2.43-3.08 4.91-4.23 2.17 7-10.65zm34.32-18.28l-2.89 6.87 6.82-1.33 4.78-4.32 8.34-5.92-1.94-2.39-15.11 7.09z"/></g><g fill="#24d2f3"><path d="M1074.34 633.42l-.24-.43 5.46-3.06 2.83-.25 5.63-2.79 8.94-3.21 6.62-3.85 3.45-.3 10.11-6.27.26.42-10.27 6.34-3.45.3-6.51 3.81-2.84 1.01-6.12 2.21-5.72 2.82-2.84.25-5.31 3zm17.29-1.81l-.34-.36 2.76-2.59 2.68-.24 7.53-5.42 4.23 1.33 9.18-6.94.31.39-9.39 7.11-4.24-1.33-7.44 5.35-2.64.23-2.64 2.47z"/></g><g fill="#833bc7"><path class="Y" d="M1104.21 615.59l.16 13.33 1.26-4.28 3 5.55 12.75 19.85-4.48-39.34.43-5.35-8.34 5.92-4.78 4.32zm-9.6-7.51l-3.07 41.96h4.51l1.34-33.12 2.89-6.87 8.07-3.33 1.83-12.09-10.56 7.85-5.01 5.6zm-5.44 6.75l-7.57 5.24.27 29.97h4.3l3-35.21zm-15.58 11.14l.68 9.87 4.25-.37 2.08-12.57-7.01 3.07z" opacity=".3"/></g><path class="Z" d="M1101.61,625.22l-11.12,8.44a21.88,21.88,0,0,1-1.92-7.3c-.83-9.43,4.38-17.7,11.53-18.32s13.72,6.61,14.55,16c.22,2.51-17.45,22.91-18.05,25.25Z" fill="url(#L)"/><g fill="#02fffc"><path d="M1085.88 595.74a4.49 4.49 0 0 0-.09-2.06.88.88 0 0 0-.13-.3.68.68 0 0 0-.6-.17 1.32 1.32 0 0 0-1 1 1.64 1.64 0 0 0 .46 1.45 1.09 1.09 0 0 0 .76.37.64.64 0 0 0 .63-.5.14.14 0 0 0-.22.06zm-12.29 18.19a4.44 4.44 0 0 0-.09-2 .85.85 0 0 0-.13-.31.67.67 0 0 0-.6-.17 1.32 1.32 0 0 0-1 1 1.63 1.63 0 0 0 .46 1.45 1.09 1.09 0 0 0 .76.37.64.64 0 0 0 .63-.5.14.14 0 0 0-.22.06zm9.82-16.35a1.15 1.15 0 0 0-.44-1.05 1.26 1.26 0 0 0-.76.85.75.75 0 0 0 .59.88c.39 0 .74-.48.5-.79zm-1.41-3.47a1.75 1.75 0 0 0-.2-.35h0 0c-.12.08-.12.3-.26.32s0 0-.07 0 0 .08 0 .11a.37.37 0 0 0 .56-.11v.06zm9.77-1.8a2.86 2.86 0 0 0-.37-.66l-.07-.06h-.09c-.22.14-.22.55-.48.58h-.13c-.03 0 0 .15 0 .21a.7.7 0 0 0 1-.21v.11zm3.29-24.15a2.86 2.86 0 0 0-.37-.66l-.07-.06c-.07-.06-.06 0-.09 0-.22.14-.22.55-.48.58h-.13c-.03 0 0 .15 0 .2a.69.69 0 0 0 1-.2v.11zm-12.49 23.64a.61.61 0 0 0-.2-.49.47.47 0 0 0-.15.19.2.2 0 0 0 0 .23c.08.08.21 0 .32 0v.08zm-1.26-.43a.29.29 0 0 0-.08-.13.39.39 0 0 0-.15 0h-.41l.47.49h0c0 .06 0 .12-.05.18s.07.16.15.2c.63.29.17-.48.07-.74zm7.69-8a.24.24 0 0 0-.09-.13.32.32 0 0 0-.14 0h-.41l.47.49h0c0 .06 0 .12-.06.18s.07.16.16.2c.61.29.16-.48.07-.74zm-6.13 3.88l-.13-.15a.33.33 0 0 0-.08.36.19.19 0 0 0 .32 0c0-.07.06-.2.13-.17zm2.89 1.94a.29.29 0 0 1-.39.26.29.29 0 0 1 0-.47.28.28 0 0 1 .43.19zm2.52 1.81c.12.09.26.22.2.36s-.25.11-.38.08-.13 0-.15-.1.26-.19.24-.34.09 0 .06.07zm-21.01 41.31a.69.69 0 0 0-.39-.5c-.2-.07-.48.07-.47.29a.23.23 0 0 0 .07.17.22.22 0 0 0 .09.07.57.57 0 0 0 .42.11.29.29 0 0 0 .23-.32zm-1.77-16.06a.35.35 0 0 0-.17.09.55.55 0 0 0-.06.18c-.06.14-.22.21-.3.34s-.06.51 0 .75c0 .06 0 .12.11.13a.2.2 0 0 0 .13 0c.29-.14.49.13.77.07a.83.83 0 0 0 .53-.52.86.86 0 0 0-1.01-1.04zm41.26-32.13a.27.27 0 0 0-.17.1s0 .12-.07.18-.21.21-.3.33a.83.83 0 0 0 0 .76s.06.12.12.13a.28.28 0 0 0 .13 0c.28-.14.49.13.76.07a.84.84 0 0 0 .54-.53.87.87 0 0 0-1.01-1.04zm-23.9 9.88a.23.23 0 0 1 .09.14.49.49 0 0 1-.36-.2c-.06-.06-.11-.14-.08-.21s.09-.07.13-.11.11-.23.22-.23.11.06.12.13a.39.39 0 0 1 0 .18l-.14.38zm-1.41 1.67c0-.12-.21-.12-.27 0a.45.45 0 0 0 0 .34.43.43 0 0 0 .33-.32zM1081 594a1 1 0 0 0-.07-.15.16.16 0 0 0-.16 0c-.08 0-.09.16-.15.23s-.18.08-.21.17a.16.16 0 0 0 .14.19.41.41 0 0 0 .26-.09.46.46 0 0 0 .17-.17.17.17 0 0 0 0-.22zm-.33-.68a.1.1 0 0 1-.12.09.18.18 0 0 1-.13-.08.36.36 0 0 1 0-.09.14.14 0 0 1 .13-.15.15.15 0 0 1 .14.15.16.16 0 0 1-.13.15zm-7.53 2.08c0 .05-.06.09-.12.09a.24.24 0 0 1-.13-.09.36.36 0 0 1 0-.09.13.13 0 0 1 .13-.14.14.14 0 0 1 .14.14.16.16 0 0 1-.13.15zm8.19-2.4a.16.16 0 0 0 .06-.27.32.32 0 0 0-.15.09.14.14 0 0 0 0 .17.09.09 0 0 0 .15 0zm4.44-6.46a.16.16 0 0 0 .06-.27.26.26 0 0 0-.15.09.14.14 0 0 0 0 .17h.15zm-2.01 5.57a.43.43 0 0 0 0-.4l-.28.19a.29.29 0 0 0-.11.11.18.18 0 0 0 .13.24.26.26 0 0 0 .26-.13zm3.24.89l.39.48c-.05.09-.19 0-.28 0a.58.58 0 0 1-.2-.24.2.2 0 0 1 .12-.25zm1.82 2.61c.11-.11 0-.32-.13-.35a.33.33 0 0 0-.34.24.25.25 0 0 0 0 .19.23.23 0 0 0 .27.08.66.66 0 0 0 .24-.17zm-1.2-5.22a.37.37 0 0 0 .05-.39.38.38 0 0 0-.26.14.28.28 0 0 0 0 .37c.09.09.3 0 .28-.11zm-.29 1.41a.2.2 0 0 1-.15.21l-.2-.24a.24.24 0 0 1 .37 0zm-17.52 26.84l-.26.41a.31.31 0 0 0-.06.13.33.33 0 0 0 0 .14c.08.16.2.34.38.31s.24-.26.31-.44c.13-.33.91-.91.57-1.3s-.75.49-.94.75z"/><path d="M1087.92 594.94l.09.08a.64.64 0 0 1-.26.1.23.23 0 0 1-.24-.13.15.15 0 0 1 .15-.19.64.64 0 0 1 .25.15zm-7.68-.05a.2.2 0 0 1-.14.18.23.23 0 0 1-.22-.06s-.05-.12 0-.15h.37 0zm-1.47.57c-.1 0-.19 0-.25.13s-.13.18-.23.17a.08.08 0 0 1-.07 0c0-.06 0-.13.08-.19a.66.66 0 0 0 0-.15.32.32 0 0 1 .31-.22.19.19 0 0 1 .1.17.24.24 0 0 1-.12.17zm-.34-.95l-.06-.1a.14.14 0 0 0-.13.11.12.12 0 0 0 .1.14.11.11 0 0 0 .1-.14zm-2.7-.01l-.06-.1a.14.14 0 0 0-.13.11.12.12 0 0 0 .11.13.1.1 0 0 0 .09-.13zm6.32-1.93c0 .08.1.12.17.09a1.18 1.18 0 0 0 .18-.13.31.31 0 0 1 .23 0 .15.15 0 0 1 .09.1.11.11 0 0 1 0 .08.72.72 0 0 1-.27.35.38.38 0 0 1-.42 0 .3.3 0 0 1 .07-.51zm1.88-10.07c0 .08.09.12.16.09a1.27 1.27 0 0 0 .19-.13.31.31 0 0 1 .23 0 .12.12 0 0 1 .08.1.08.08 0 0 1 0 .08.79.79 0 0 1-.27.35.38.38 0 0 1-.42 0 .31.31 0 0 1-.12-.27.32.32 0 0 1 .18-.24zm-1.26 8.17a.18.18 0 0 0-.12-.22.28.28 0 0 0-.26.07v.11a.08.08 0 0 0 .08 0h.34zm1.47-4.35a.91.91 0 0 0 .53-.47.17.17 0 0 0 0-.12c0-.08-.16-.05-.25-.05s-.3-.12-.46-.11a.6.6 0 0 0-.33.18c-.14.13-.29.33-.17.48a.34.34 0 0 0 .26.1 1.74 1.74 0 0 0 .6-.08zm6.99 2.16c.15 0 .2-.19.2-.34a.37.37 0 0 0-.09-.25c-.1-.07-.24 0-.33.09l-.26.19a.16.16 0 0 0-.08.12.17.17 0 0 0 .06.11 1.42 1.42 0 0 0 .53.34zm-6.01-19.18c1.28.24 1.42-1.28.41-1.74s-1.53 1.54-.41 1.74zm-2.05 26.53a.31.31 0 0 1-.48.06.77.77 0 0 1 .31-.31.27.27 0 0 1 .36.15l-.13.23zm-22.59 20.59l-.14-.16a1.94 1.94 0 0 1-.62.4 1.75 1.75 0 0 0-.34.15.38.38 0 0 0-.19.31c0 .23.32.32.55.29a1 1 0 0 0 .73-.44.69.69 0 0 0 0-.82l-.23.18zm9.11-61.14c.05-.08 0-.12-.11-.08a1.1 1.1 0 0 0-.28.18l-.59.49c-.12.1-.25.21-.26.3s.08.09.18.06a1.53 1.53 0 0 0 .31-.19c.33-.24.72-.56.78-.83l-.2.06zm7.89 40.55a.08.08 0 0 1-.09.07.16.16 0 0 1-.11 0 .18.18 0 0 1-.06-.09.15.15 0 0 1 .06-.18.2.2 0 0 1 .2 0s.06 0 .06.08a.07.07 0 0 1 0 .08zM1097.7 583a3 3 0 0 0 .32-.47.15.15 0 0 0-.14-.06.52.52 0 0 0-.51.55.22.22 0 0 0 .05.11.15.15 0 0 0 .16 0 .41.41 0 0 0 .11-.12zm-17.19 9.34l-.07-.1a.25.25 0 0 0-.14.11s0 .14.08.12 0 0 .06 0l.15-.16zm3.57-2.49a.83.83 0 0 0-.08-.28.24.24 0 0 0-.25-.13.21.21 0 0 0-.12.07.29.29 0 0 0 0 .4.28.28 0 0 0 .39-.07zm3.11-3.98a.2.2 0 0 1-.09.33.65.65 0 0 1-.18-.15.32.32 0 0 1 .2-.14zm17.69 15.07c0-.08-.11-.14-.16-.06s0 .17.08.22a.19.19 0 0 0 .08-.21zm-20.97-2.52l-.13-.15a.29.29 0 0 0-.12.1.18.18 0 0 0 .24.1zm16.88-2.63l-.13-.15a.27.27 0 0 0-.12.09.18.18 0 0 0 .24.11zm-8.79-.73a.69.69 0 0 1 .29.62.11.11 0 0 1 0 .08.13.13 0 0 1-.12 0c-.26 0-.58-.1-.64-.36a.34.34 0 0 1 .41-.38l.07.21zm-32.52 27.8a.7.7 0 0 1 .28.61.15.15 0 0 1 0 .09.15.15 0 0 1-.13 0c-.26 0-.58-.11-.64-.36a.34.34 0 0 1 .41-.38l.08.21z"/></g><path d="M2199.79 633.49l3.85-47.63.93-17.73-1.65-7.65h-1.83l-6.82 11.82-2.06 25.26v38.63l5.13-.68 2.45-2.02z" fill="url(#M)"/><path d="M2197.34 635.51l2.62-44.77-6.95-29.54-2.92-.72-2.62-14.52-4.01-4.3-7.54 26.35-.93 20.44-6.88 4.53-5.48 43.97 5.24 2.47 29.47-3.91h0z" fill="url(#N)"/><g fill="#5bebf3"><path d="M2193.01 561.2l-3.29 6.45-4.66 7.06-1.45 5.41.05-6.9 1.73-2.56 4.7-10.18 2.92.72zm-5.54-15.24l-3.81 9.36-1.43 8.25-3.09 2.6-3.22 1.84 7.54-26.35 4.01 4.3zm15.45 14.52l1.23 5.69-2.32 3.26-5.18 1.33-1.23-.46 5.67-9.82h1.83z"/></g><path class="Y" d="M2199.96 590.74l-5.58 7.6-3.44 9.64-3.47 17.5-4.25 3.88 1.41-27.28-4.12-3.74-1.92 11.12 1.99 28.97 16.76-2.92 2.62-44.77z" fill="#833bc7" opacity=".3"/><path d="M2167.87 639.42l2.73-34.76-7.97-22.03-2 1.09-4.62 20.76-4.61 37.08 9.6-.44 6.87-1.7z" fill="url(#O)"/><path d="M2180.43 640.26l1.8-21.86-.82-3.41-5.67-11.12-.68-1.79-4.46.53-5.53 19.59-2.04 18.92 4.84-1.7 5.92 1.7 6.64-.86z" fill="url(#P)"/><g fill="#5bebf3"><path d="M2175.74 603.87l5.67 11.12-7.18 6.28-1.6-.78-8.41 2.25 6.38-20.13 4.46-.53.68 1.79zm-13.11-21.24l2.58 7.13-1.07 6.79-.22 1.34-5.4 7.45-2.51-.86 4.62-20.76 2-1.09zm12.36 5.82l2.44 5.39 3.98 3.72 3.22 4.52-4.12-3.74-7.7-1.89-4.7-3.47 6.88-4.53z"/></g><g fill="#833bc7"><path class="Y" d="M2190.09 560.48l-2.62-14.52-3.81 9.36 3.11 12.33 3.32-7.17zm-26.17 37.41l-3.29 21.53-2.11-3.47 2.48 25.17 2.15-1.09 1.07-17.29 6.03-19.04-5.04-13.94-1.29 8.13z" opacity=".3"/><path class="Y" d="M2174.23 621.27v17.65l2.98-8.2 3.22 9.54 1.8-21.86-.82-3.41-7.18 6.28zm8-57.7l.28 11.14.31 16.03.79-10.62.05-6.9 3.11-5.57-3.11-12.33-1.43 8.25z" opacity=".3"/></g><g fill="#24d2f3"><path d="M2189.74 592.65a7.54 7.54 0 0 0 5.13-1.87c2.5-2.17 3.79-4.57 3.74-6.94h0c.46-.38 3.52-2.31 5.44-3.49l-.22-.42-5.65 3.75a1 1 0 0 0 0 .19c.07 2.8-1.9 5.11-3.57 6.56-3.58 3.12-8.36 1.41-10.89.11a12.34 12.34 0 0 1-2.51-2.58 12.22 12.22 0 0 0-2.88-2.9c-1.47-.72-3-1.3-3.06-1.3l-.14.45s1.57.58 3 1.28a12.43 12.43 0 0 1 2.74 2.79 12.49 12.49 0 0 0 2.64 2.7 14.19 14.19 0 0 0 6.23 1.67z"/><path d="M2182.12 589.69l.4-.19c-.09-.23-2.14-5.68-4.13-8.06a14.31 14.31 0 0 1-2.65-5l-.42.14a14.84 14.84 0 0 0 2.75 5.18c1.93 2.32 4.03 7.87 4.05 7.93zm-3.4 19.95c1.86-1.62 5-4.17 5.73-4.17h0a11.12 11.12 0 0 1 1.49.32c2.25.55 6 1.48 8.35.66 3.11-1.08 4.28-1.08 4.73-.89a20.37 20.37 0 0 0 2.77.59l.06-.47a21.61 21.61 0 0 1-2.68-.57c-.75-.32-2.39 0-5 .89-2.23.77-5.92-.14-8.13-.68a10.48 10.48 0 0 0-1.57-.33h0c-1 0-5.18 3.56-6 4.28zm-25.78 23.19a48.55 48.55 0 0 0 7.14-1.27l3.48-1.5h10.67c.59 0 6.33-3.16 7.47-3.79l-.2-.43a79 79 0 0 1-7.28 3.74h-10.78l-3.49 1.5c-3.26.76-6.91 1.44-7.31 1.25l-.25.38a1 1 0 0 0 .55.12zm2.16-21.22l3.29-1.38c.84-.28 4.4-4.37 4.8-4.84l-.32-.33c-1.47 1.72-4 4.52-4.61 4.71-.85.29-3.22 1.35-3.32 1.4z"/></g><g fill="#02fffc"><path d="M2174.18 563.9a3.47 3.47 0 0 1 1.78-.11.56.56 0 0 1 .27.1.65.65 0 0 1 .2.55 1.24 1.24 0 0 1-.81 1.1 1.32 1.32 0 0 1-1.29-.3 1.11 1.11 0 0 1-.38-.69.6.6 0 0 1 .37-.64.13.13 0 0 1 0 .21zm-14.62 13.45a3.59 3.59 0 0 1 1.78-.12.56.56 0 0 1 .48.65 1.28 1.28 0 0 1-.82 1.12 1.34 1.34 0 0 1-1.29-.3 1.07 1.07 0 0 1-.38-.69.58.58 0 0 1 .37-.64.14.14 0 0 1 0 .21zm13.25-10.93a1 1 0 0 1 .94.32 1.16 1.16 0 0 1-.67.81.64.64 0 0 1-.8-.47c-.07-.37.34-.76.63-.55zm3.11 1.04a1 1 0 0 1 .32.15h0a.07.07 0 0 1 0 .05c-.05.12-.24.14-.24.27a.15.15 0 0 1 0 .07h-.1a.38.38 0 0 1 .05-.54h0zm.7-9.46a2 2 0 0 1 .6.28s.05 0 .06.06a.1.1 0 0 1 0 .09c-.1.22-.46.26-.46.51a.32.32 0 0 1 0 .14c0 .06-.13 0-.18 0a.7.7 0 0 1 .09-1h-.1zm20.54-5.49a2.08 2.08 0 0 1 .6.29.12.12 0 0 1 .06.06.1.1 0 0 1 0 .09c-.1.22-.46.26-.46.51a.29.29 0 0 1 0 .13c0 .06-.13 0-.18 0a.7.7 0 0 1 .09-1h-.1zm-19.3 14.16a.51.51 0 0 1 .45.14.52.52 0 0 1-.16.17.17.17 0 0 1-.2 0c-.07-.06-.06-.19 0-.3l-.07.05zm.48 1.16a.19.19 0 0 1 .12.07.21.21 0 0 1 0 .13 2.45 2.45 0 0 0 0 .39l-.46-.4h0c-.06 0-.1 0-.15.07s-.15-.05-.19-.13c-.25-.56.45-.2.68-.13z"/><path d="M2184.57 559.75a.24.24 0 0 1 .12.07.22.22 0 0 1 0 .14 2.58 2.58 0 0 0 0 .39l-.47-.4h0c-.05 0-.09.05-.14.07s-.15 0-.19-.12c-.25-.58.45-.22.68-.15zm-2.81 6.25l.14.11a.28.28 0 0 1-.31.11c-.1 0-.14-.24 0-.3s.17-.08.13-.15zm-1.93-2.62a.28.28 0 0 0-.18.4.23.23 0 0 0 .4 0 .27.27 0 0 0-.2-.39zm-1.75-2.22c-.08-.11-.21-.23-.32-.16s-.08.25 0 .37 0 .12.1.13.14-.26.27-.26 0-.08-.06 0zm-33.82 23.97a.61.61 0 0 1 .47.32c.08.19 0 .47-.21.49a.22.22 0 0 1-.15-.06l-.07-.07a.56.56 0 0 1-.13-.39c0-.14.13-.28.25-.26zm14.01.14a.24.24 0 0 1-.07.17.71.71 0 0 1-.15.08c-.11.07-.16.23-.26.32s-.44.1-.65 0a.2.2 0 0 1-.13-.11.18.18 0 0 1 0-.12c.09-.28-.16-.46-.13-.72a.78.78 0 0 1 .41-.56c.55-.17 1.08.39.98.94zm24.1-42.36a.32.32 0 0 1-.06.17.71.71 0 0 1-.15.08c-.12.06-.17.22-.27.32a.63.63 0 0 1-.65 0s-.11 0-.12-.1a.25.25 0 0 1 0-.12c.09-.29-.15-.46-.13-.72a.82.82 0 0 1 .41-.57c.6-.18 1.07.39.97.94zm-6.45 23.7a.19.19 0 0 0-.12-.07.45.45 0 0 0 .2.32c.06 0 .13.09.19 0s0-.08.08-.13.19-.13.18-.23a.12.12 0 0 0-.12-.1.38.38 0 0 0-.15 0l-.32.18zm-1.3 1.51c.1 0 .12.18 0 .24a.33.33 0 0 1-.29 0 .38.38 0 0 1 .24-.34zm1.47.29a.34.34 0 0 1 .14.05.13.13 0 0 1 .05.14c0 .09-.13.1-.18.17s-.06.18-.13.22-.16 0-.18-.12a.37.37 0 0 1 .06-.25.4.4 0 0 1 .13-.18.15.15 0 0 1 .2 0z"/><path d="M2176.71 568.63a.11.11 0 0 0-.06.12.15.15 0 0 0 .08.11.12.12 0 0 0 .2-.11.15.15 0 0 0-.14-.12.16.16 0 0 0-.12.15zm-1.13 7.37s-.07.06-.06.12a.15.15 0 0 0 .08.11.13.13 0 0 0 .08 0 .13.13 0 0 0 .11-.14.13.13 0 0 0-.13-.12.16.16 0 0 0-.12.15zm1.35-8a.14.14 0 0 1 .23-.08.39.39 0 0 1-.06.15.12.12 0 0 1-.15 0v-.14zm5.19-4.88a.14.14 0 0 1 .23-.08.26.26 0 0 1-.07.15.11.11 0 0 1-.14 0v-.14zm-4.63 2.45a.34.34 0 0 1 .35 0l-.14.28a.23.23 0 0 1-.09.12c-.07 0-.18 0-.21-.1a.24.24 0 0 1 .09-.26zm-1.07-2.99l-.45-.32c-.08 0 0 .18 0 .26a.57.57 0 0 0 .22.17.17.17 0 0 0 .21-.14zm-2.42-1.49c.08-.11.27 0 .3.09a.32.32 0 0 1-.17.35.25.25 0 0 1-.17 0 .23.23 0 0 1-.09-.25.67.67 0 0 1 .13-.25zm4.64.64a.28.28 0 0 1 .33-.08.42.42 0 0 1-.1.26.23.23 0 0 1-.31.05c-.09-.08 0-.28.06-.28z"/><path d="M2177.45 562.14a.19.19 0 0 0-.17.17l.23.16a.25.25 0 0 0 0-.36zm-21.62 19.26l-.33.29a.34.34 0 0 1-.11.07h-.12c-.14-.06-.31-.16-.31-.33s.21-.25.36-.34.7-.95 1.07-.66-.39.8-.56.97zm18.86-19.51l-.08-.09a.76.76 0 0 0-.06.26.22.22 0 0 0 .13.22c.08 0 .18-.08.15-.16a.44.44 0 0 0-.15-.22zm.71 7.3a.18.18 0 0 0-.14.15.22.22 0 0 0 .07.2.09.09 0 0 0 .13 0v-.07-.29h0zm-.4 1.46c0 .08 0 .18-.1.24a.33.33 0 0 0-.12.24.08.08 0 0 0 0 .06s.1-.05.15-.09a.76.76 0 0 1 .13-.07.33.33 0 0 0 .16-.31.15.15 0 0 0-.16-.08.19.19 0 0 0-.13.13zm.88.23h.1a.16.16 0 0 1-.09.14.11.11 0 0 1-.12-.09c0-.06.05-.12.1-.1zm.25 2.57h.09a.11.11 0 0 1-.08.13.09.09 0 0 1-.12-.08c0-.06.05-.12.1-.1zm1.11-6.21c-.06 0-.1-.08-.09-.15s.07-.12.09-.19a.24.24 0 0 0 0-.22.11.11 0 0 0-.09-.07h-.07a.75.75 0 0 0-.27.29.38.38 0 0 0 0 .4.23.23 0 0 0 .24.09.28.28 0 0 0 .19-.2zm8.52-2.75c-.06 0-.1-.09-.09-.16s.07-.12.09-.19a.22.22 0 0 0 0-.21.12.12 0 0 0-.09-.08h-.07a.78.78 0 0 0-.27.3.38.38 0 0 0 0 .4.24.24 0 0 0 .24.08.28.28 0 0 0 .19-.19zm-6.93 1.98a.15.15 0 0 1 .2.09.28.28 0 0 1 0 .25s-.06.06-.09 0 0 0 0-.07l-.06-.32zm3.62-1.82a.88.88 0 0 1 .36-.55.13.13 0 0 1 .1 0c.08 0 .06.15.07.24s.12.27.13.42a.53.53 0 0 1-.13.33c-.09.15-.26.31-.39.21a.34.34 0 0 1-.11-.24 1.88 1.88 0 0 1 0-.58zm-2.45-6.45c0-.14.15-.2.27-.21a.27.27 0 0 1 .23 0c.07.09 0 .23-.05.33l-.15.26s0 .08-.09.09a.12.12 0 0 1-.09-.05 1.26 1.26 0 0 1-.35-.47zm17 3.88c-.32-1.2 1-1.48 1.47-.55s-1.15 1.6-1.47.55zm-22.65 4.51a.3.3 0 0 0 0 .46.71.71 0 0 0 .23-.33c0-.13 0-.31-.16-.32l-.18.14zm-15.79 23.48l.15.12a1.73 1.73 0 0 0-.29.63 2.19 2.19 0 0 1-.1.34.34.34 0 0 1-.25.2c-.2 0-.31-.27-.3-.49a1 1 0 0 1 .31-.74.57.57 0 0 1 .72 0l-.14.24zm51.93-14.56c.06-.06.1 0 .08.1a.92.92 0 0 1-.14.28l-.37.62c-.07.11-.16.25-.23.27s-.09-.06-.07-.16a2.69 2.69 0 0 1 .13-.32 2 2 0 0 1 .65-.83v.2zm-35.65-3.6a.06.06 0 0 0-.06.08.19.19 0 0 0 0 .11h.08a.13.13 0 0 0 .15-.08.19.19 0 0 0 0-.19h-.07a.08.08 0 0 0-.07 0zm9.3-20.49a2.5 2.5 0 0 1 .38-.35.16.16 0 0 1 .06.13.46.46 0 0 1-.42.53h-.1a.14.14 0 0 1 0-.15.38.38 0 0 1 .1-.12zm-6.56 17.27h.09s0 .12-.08.14a.08.08 0 0 1-.12-.06v-.06l.13-.16zm1.83-3.64a.51.51 0 0 1 .25.05.23.23 0 0 1 .14.22.27.27 0 0 1-.06.12.23.23 0 0 1-.34 0 .29.29 0 0 1 0-.38zm3.16-3.35a.17.17 0 0 0-.27.12.54.54 0 0 0 .14.16.28.28 0 0 0 .1-.21zM2168 546.32c.06-.05.12.09.06.14s-.15 0-.2-.05a.17.17 0 0 1 .18-.1zm4 19.68l.14.11a.75.75 0 0 1-.07.12.19.19 0 0 1-.12-.22zm.84-16.28l.14.11a.75.75 0 0 1-.07.12.19.19 0 0 1-.12-.22zm1.38 8.28a.57.57 0 0 0-.55-.22h-.07v.12c0 .24.15.54.37.57a.31.31 0 0 0 .29-.42l-.18-.06zm-21.13 33.64a.57.57 0 0 0-.55-.21h-.07c-.02 0 0 .08 0 .13.05.24.14.53.37.57s.36-.23.29-.43l-.19-.05z"/></g><ellipse class="f" cx="2190.09" cy="583.72" rx="11.35" ry="16.5" fill="url(#Q)"/><ellipse class="g" cx="2162.28" cy="612.41" rx="6.55" ry="14.58" fill="url(#R)"/><ellipse class="h" cx="2171.99" cy="615.96" rx="16.74" ry="13.25" transform="matrix(.134159 -.99096 .99096 .134159 1270.18 2685.66)" fill="url(#S)"/><path d="M2206.13 643.22l-4.46-6.98-2.04-4.24-2.46 2.02-16.75 2.92-12.72.99-16.46 2.14-3.29 3.15 7.26 2.34 27.85-3.79 9.42 1.45h13.65z" fill="#060d3f"/></g></g></svg>