<svg xmlns="http://www.w3.org/2000/svg" viewBox="0 0 2600 710.23"><style>.A{isolation:isolate}.B{mix-blend-mode:hard-light}</style><g class="A"><g><g class="B" fill="#43c5f7"><path d="M2365.81 432.91a9.8 9.8 0 0 0-3.56-1.66 1.84 1.84 0 0 0-.66-.07 1.26 1.26 0 0 0-.93.65 1.86 1.86 0 0 0 .63 2.34 3.87 3.87 0 0 0 2.94.62 2.3 2.3 0 0 0 1.43-.71.87.87 0 0 0-.16-1.28.21.21 0 0 0-.13.35zm-93.13-23.47a10.9 10.9 0 0 0-4 .78 1.59 1.59 0 0 0-.54.31.86.86 0 0 0-.11 1 2.71 2.71 0 0 0 2.45 1.35 3.58 3.58 0 0 0 2.66-1.18 1.57 1.57 0 0 0 .43-1.32 1.21 1.21 0 0 0-1.21-.84c-.11.12 0 .33.2.33zm93.58 28.41a2.86 2.86 0 0 0-2.24-.31 1.74 1.74 0 0 0 .61 1.77 1.77 1.77 0 0 0 2.11 0 .85.85 0 0 0-.79-1.36zm1.02-8.85a3.55 3.55 0 0 0-.8-.05h-.09a.11.11 0 0 0 0 .08c0 .22.37.41.25.61 0 0-.06.07-.05.11s.13.08.21.06a.55.55 0 0 0 .4-.84h.12zm-.93-7a6.83 6.83 0 0 0-1.5-.08.37.37 0 0 0-.18.05.18.18 0 0 0-.06.14c0 .43.71.78.48 1.16 0 .07-.11.13-.1.21s.24.15.39.11a1.05 1.05 0 0 0 .77-1.59l.21.06zm12.83-5a5.79 5.79 0 0 0-1.5-.08.31.31 0 0 0-.17 0 .18.18 0 0 0-.06.15c0 .42.7.77.47 1.15 0 .07-.11.14-.1.21s.24.15.39.12a1.06 1.06 0 0 0 .77-1.6l.22.06zm-23.56 17a1.47 1.47 0 0 0-1-.16.91.91 0 0 0 .16.38.46.46 0 0 0 .42.16c.22 0 .31-.25.37-.42l.09.13zm-74.45-9.2a.62.62 0 0 0-.29.07.35.35 0 0 0-.12.22 2.85 2.85 0 0 1-.25.63l1.21-.5a.45.45 0 0 1 .11 0c.12 0 .19.12.3.17a.48.48 0 0 0 .47-.15c.86-.83-.87-.48-1.43-.44zm67.12-6.8a.61.61 0 0 0-.3 0 .5.5 0 0 0-.19.19 3.79 3.79 0 0 1-.45.54l1.33-.21h.11c.12 0 .15.15.24.23a.5.5 0 0 0 .5 0c1.1-.62-.69-.67-1.24-.75zm-56.19-15.09h-.39a.57.57 0 0 0 .51.43c.27 0 .52-.24.38-.42s-.28-.26-.14-.33zm64.42 10.23a.41.41 0 0 1 0 .75c-.32.15-.81-.05-.82-.36s.43-.54.77-.41zm3.83 12.38c.27-.09.65-.16.81 0s-.07.43-.27.59a.41.41 0 0 1-.32.12c-.29-.07-.05-.52-.32-.63 0-.07.16-.09.18 0zm-.69 10a.74.74 0 0 1 .33 0c-.12.21-.44.28-.72.32s-.35 0-.44-.08 0-.18 0-.26-.28-.36-.15-.51a.34.34 0 0 1 .34-.05.93.93 0 0 1 .27.21l.49.54zm1.27 3.36c-.2-.09-.42.17-.31.33a.82.82 0 0 0 .57.28.56.56 0 0 0-.18-.71zm23.24 4.35a1.23 1.23 0 0 0-.33 0c-.11 0-.22.08-.24.17s.17.26.22.4-.05.32.07.44a.35.35 0 0 0 .47 0 .5.5 0 0 0 .12-.42.59.59 0 0 0-.1-.39.4.4 0 0 0-.43-.12zm-61.89-.99a.16.16 0 0 1 0 .24.41.41 0 0 1-.29.1.62.62 0 0 1-.19 0 .2.2 0 0 1-.1-.31.33.33 0 0 1 .39-.06.23.23 0 0 1 .11.31z"/><path d="M2351.55 449.93a.14.14 0 0 1 0 .23.57.57 0 0 1-.48.08.2.2 0 0 1-.1-.3.35.35 0 0 1 .39-.07.23.23 0 0 1 .11.31zm4.76-13.2c.08-.18-.18-.38-.39-.32a.37.37 0 0 0 0 .29.29.29 0 0 0 .28.15c.11 0 .2-.14.12-.22zm-6.13-11.62c.08-.18-.17-.38-.39-.32a.39.39 0 0 0 0 .28.27.27 0 0 0 .28.15c.12 0 .2-.14.13-.21zm7.24 7.53a1.07 1.07 0 0 0-.7-.32v.55a.36.36 0 0 0 .06.25.42.42 0 0 0 .55 0 .35.35 0 0 0 .06-.47zm32.91-24.01l1.23-.11c.11.14-.14.29-.33.35a1.45 1.45 0 0 1-.62.07c-.2 0-.37-.23-.28-.38zm-6.91 3.3c-.07-.24-.52-.3-.72-.12a.45.45 0 0 0 0 .67.48.48 0 0 0 .33.14.43.43 0 0 0 .42-.29 1 1 0 0 0 0-.48zm-24.76 13.99a.67.67 0 0 0-.61-.4.55.55 0 0 0 0 .47.57.57 0 0 0 .59.35c.26 0 .38-.39.14-.48zm2.06 1.61a.31.31 0 0 1 .19.39l-.62.06a.38.38 0 0 1 .32-.55z"/><path d="M2366.65 429.45l.23-.06a.91.91 0 0 1-.11.45.51.51 0 0 1-.48.21c-.19 0-.29-.26-.15-.36a1 1 0 0 1 .51-.21zm-8.33 10.38a.31.31 0 0 1 .15.35.4.4 0 0 1-.33.25c-.11 0-.25 0-.25-.13a.24.24 0 0 1 .05-.1l.33-.41.08.06zm-3.32 1.44c0 .16.25.24.44.27s.43.08.5.23a.12.12 0 0 1 0 .13c-.08.09-.26 0-.4 0a1.84 1.84 0 0 0-.33 0 .74.74 0 0 1-.65-.31.33.33 0 0 1 .25-.27.42.42 0 0 1 .39.08zm-1.48 1.11l-.15.14a.28.28 0 0 0 .31.13c.13 0 .21-.15.16-.24a.22.22 0 0 0-.31-.05zm2.13 3.99l-.14.14a.28.28 0 0 0 .31.13c.12 0 .2-.15.15-.24a.22.22 0 0 0-.31 0zm.71-10.99a.24.24 0 0 0 .32-.16 2.17 2.17 0 0 0 0-.36.46.46 0 0 1 .23-.32.31.31 0 0 1 .25 0 .24.24 0 0 1 .12.1 1.15 1.15 0 0 1 .29.67.62.62 0 0 1-.43.58.71.71 0 0 1-.59-.08.45.45 0 0 1-.2-.44zm-88.82-50.27a.24.24 0 0 0 .32-.16 2.17 2.17 0 0 0 0-.36.44.44 0 0 1 .23-.32.28.28 0 0 1 .25 0 .29.29 0 0 1 .12.1 1.12 1.12 0 0 1 .29.67.62.62 0 0 1-.44.58.69.69 0 0 1-.58-.08.42.42 0 0 1-.2-.45zm-5.24 50.34c.12.08.29 0 .32-.15a2.29 2.29 0 0 0 0-.37.42.42 0 0 1 .23-.31.24.24 0 0 1 .37.07 1.12 1.12 0 0 1 .29.67.6.6 0 0 1-.44.57.73.73 0 0 1-.58-.07.44.44 0 0 1-.2-.45zm79.1-11.33a.24.24 0 0 0 .32-.16 2.17 2.17 0 0 0 0-.36.44.44 0 0 1 .23-.32.32.32 0 0 1 .25 0 .32.32 0 0 1 .12.11 1.12 1.12 0 0 1 .29.67.62.62 0 0 1-.43.58.69.69 0 0 1-.58-.08.45.45 0 0 1-.21-.45zm-20.3-7.65a.25.25 0 0 0 .33-.16 2.17 2.17 0 0 0 0-.36.43.43 0 0 1 .22-.32.3.3 0 0 1 .26 0 .29.29 0 0 1 .12.1 1.17 1.17 0 0 1 .28.67.61.61 0 0 1-.43.58.69.69 0 0 1-.58-.08.43.43 0 0 1-.2-.45zm32.71 16.41a.42.42 0 0 0-.5 0 .38.38 0 0 0-.15.41.18.18 0 0 0 .16.14.24.24 0 0 0 .13-.08l.43-.44zm71.19-11.69a1.21 1.21 0 0 0-.22-1.12.35.35 0 0 0-.18-.13c-.18 0-.26.18-.36.31s-.52.3-.67.52a.76.76 0 0 0-.05.61c.06.29.25.67.62.64a.64.64 0 0 0 .44-.27 2.69 2.69 0 0 0 .53-.88zM2333.4 402a1.21 1.21 0 0 0-.22-1.12.27.27 0 0 0-.18-.13c-.18 0-.26.17-.36.3s-.51.31-.67.53a.74.74 0 0 0 0 .6c.06.3.25.68.62.65a.78.78 0 0 0 .45-.27 2.84 2.84 0 0 0 .52-.88zm25.81 17.49c.17-.18-.11-.43-.36-.55a.68.68 0 0 0-.51-.1c-.23.08-.25.33-.22.53l.06.51c0 .08 0 .17.1.21a.42.42 0 0 0 .25 0 3.68 3.68 0 0 0 1.15-.42zm6.41 5.68c1.78-1.54-.64-3.05-2.5-2.06s.95 3.4 2.5 2.06zm-.38-10.69c1.79-1.53-.63-3.05-2.5-2.06s.95 3.4 2.5 2.06zm-2.3 22.33c.19.26 0 .66-.42.71a1.11 1.11 0 0 1-.18-.69.53.53 0 0 1 .64-.36l.25.37zm-5.8-50.32c-.08-.14-.22-.07-.26.08a1.42 1.42 0 0 0 0 .54l.18 1.24a1.07 1.07 0 0 0 .23.6c.12.09.24 0 .28-.19a1.84 1.84 0 0 0 0-.58 2.77 2.77 0 0 0-.56-1.79l-.11.33zm-.47 56.44a.18.18 0 0 1 .21.07.22.22 0 0 1 0 .21.36.36 0 0 1-.1.15.37.37 0 0 1-.38 0 .28.28 0 0 1-.15-.29.22.22 0 0 1 .09-.14.17.17 0 0 1 .18 0zm-2.36-5.66h-.24a.33.33 0 0 0 0 .29c.07.09.26.1.3 0a.2.2 0 0 0 0-.11c0-.12-.07-.24-.1-.35zm-13.37-3.88a1.59 1.59 0 0 0-.56-.14.53.53 0 0 0-.49.22.3.3 0 0 0 0 .23.61.61 0 0 0 .71.28.43.43 0 0 0 .31-.59zm-32.49-11.84a1.59 1.59 0 0 0-.56-.14.53.53 0 0 0-.49.22.3.3 0 0 0 0 .23.59.59 0 0 0 .71.28.42.42 0 0 0 .31-.58zm42.13 1.04c.27-.07.56.2.45.41a1.24 1.24 0 0 1-.44.12.47.47 0 0 1 0-.4zm-254.28-50.51c.27-.06.56.2.45.41a1.25 1.25 0 0 1-.44.13.49.49 0 0 1 0-.41zm271.91 65.83h-.4a.51.51 0 0 0 0 .24.38.38 0 0 0 .44-.23zm-102.71-21.85a10 10 0 0 0-3.56-1.66 2 2 0 0 0-.65-.07 1.21 1.21 0 0 0-.93.66 1.84 1.84 0 0 0 .62 2.33 3.92 3.92 0 0 0 2.94.63 2.39 2.39 0 0 0 1.44-.72.87.87 0 0 0-.16-1.28.21.21 0 0 0-.14.35zm-76.28-17.56a9.92 9.92 0 0 0-3.55-1.66 2.12 2.12 0 0 0-.66-.07 1.23 1.23 0 0 0-.93.66 1.85 1.85 0 0 0 .62 2.33 3.92 3.92 0 0 0 2.94.63 2.37 2.37 0 0 0 1.44-.72.87.87 0 0 0-.16-1.28c-.18 0-.27.24-.14.35zm50.14 43.62a2.82 2.82 0 0 0-2.24-.3 1.73 1.73 0 0 0 .61 1.76 1.77 1.77 0 0 0 2.11 0 .85.85 0 0 0-.79-1.36zm-10.65-3.85a1.44 1.44 0 0 0-1-.16.91.91 0 0 0 .16.38.46.46 0 0 0 .42.16c.22 0 .31-.25.37-.42l.09.13zm-2.07 1.34a.65.65 0 0 0-.31 0 .41.41 0 0 0-.18.19 4.69 4.69 0 0 1-.46.54l1.34-.21h.1c.13 0 .15.15.24.23s.35 0 .51 0c1.12-.62-.69-.67-1.24-.75zm6.12.19a.74.74 0 0 1 .33 0c-.12.21-.44.28-.72.32a.47.47 0 0 1-.44-.08v-.26c0-.08-.27-.36-.14-.51a.34.34 0 0 1 .34-.05.93.93 0 0 1 .27.21l.49.54zm1.24 3.35c-.2-.09-.42.17-.31.33a.87.87 0 0 0 .57.29.57.57 0 0 0-.18-.72zm23.27 4.36a.74.74 0 0 0-.33 0 .26.26 0 0 0-.24.16c0 .15.17.26.22.4s-.05.32.06.44a.37.37 0 0 0 .48 0 .49.49 0 0 0 .12-.42.6.6 0 0 0-.1-.39.4.4 0 0 0-.43-.12zm-28.03-5.34a.16.16 0 0 1 0 .24.53.53 0 0 1-.29.1.62.62 0 0 1-.19 0 .2.2 0 0 1-.1-.31.33.33 0 0 1 .39-.06.23.23 0 0 1 .11.31zm-4.59 12.03a.15.15 0 0 1 0 .23.47.47 0 0 1-.29.11.63.63 0 0 1-.19 0 .2.2 0 0 1-.1-.3.35.35 0 0 1 .39-.07.24.24 0 0 1 .11.32zm4.76-13.2c.08-.17-.18-.38-.39-.32a.33.33 0 0 0 0 .29.28.28 0 0 0 .27.15c.12 0 .21-.14.13-.22z"/><path d="M2230.51 436.92a.94.94 0 0 0-.69-.32v.54a.36.36 0 0 0 .06.25.42.42 0 0 0 .55 0 .35.35 0 0 0 .06-.47zm.91 7.19a.29.29 0 0 1 .15.34.4.4 0 0 1-.33.25c-.11 0-.25 0-.25-.12s0-.07.05-.11l.33-.41.08.06zm-3.36 1.43c0 .16.26.24.45.27s.43.08.5.24a.1.1 0 0 1 0 .12c-.08.1-.26 0-.4 0a1.84 1.84 0 0 0-.33 0 .74.74 0 0 1-.65-.31.31.31 0 0 1 .24-.26.46.46 0 0 1 .4.07zm-1.44 1.11l-.15.15a.29.29 0 0 0 .31.12c.13 0 .21-.14.16-.24a.23.23 0 0 0-.31-.05z"/><path d="M2228.75 450.64l-.14.15a.29.29 0 0 0 .31.12c.12 0 .2-.15.15-.24a.22.22 0 0 0-.31-.05zm.71-10.99a.24.24 0 0 0 .32-.16 2.17 2.17 0 0 0 0-.36.48.48 0 0 1 .23-.32.31.31 0 0 1 .25 0 .29.29 0 0 1 .12.1 1.15 1.15 0 0 1 .29.67.62.62 0 0 1-.43.58.71.71 0 0 1-.59-.08.41.41 0 0 1-.2-.44zm-2.55-2.49a.42.42 0 0 0-.5 0 .38.38 0 0 0-.15.41.18.18 0 0 0 .16.14.2.2 0 0 0 .13-.08l.43-.44zm9.09 3.92c.19.26 0 .66-.42.71a1.11 1.11 0 0 1-.18-.69.53.53 0 0 1 .64-.36l.24.37zm-6.23 6.12a.17.17 0 0 1 .21.08.21.21 0 0 1 0 .2.36.36 0 0 1-.1.15.37.37 0 0 1-.38 0 .3.3 0 0 1-.15-.3.18.18 0 0 1 .09-.14.17.17 0 0 1 .18 0zm-2.36-5.66h-.24a.35.35 0 0 0 0 .3c.07.08.26.09.3 0a.2.2 0 0 0 0-.11c0-.12-.07-.24-.1-.35zm33.03-33.54a2.82 2.82 0 0 0-2.24-.3 1.73 1.73 0 0 0 .61 1.76 1.75 1.75 0 0 0 2.11 0 .85.85 0 0 0-.79-1.36zm-14.52 18.81a.65.65 0 0 0-.31 0 .45.45 0 0 0-.18.18 3 3 0 0 1-.46.55l1.34-.21h.11c.12 0 .14.16.23.23s.35.05.51 0c1.09-.56-.69-.66-1.24-.75zm7.39 3.54a.25.25 0 0 0-.31.34c.1.17.35.23.57.28a.55.55 0 0 0-.18-.71zm-4.78-.97a.15.15 0 0 1 0 .23.47.47 0 0 1-.29.11.36.36 0 0 1-.18 0 .19.19 0 0 1-.11-.3.35.35 0 0 1 .39-.07.23.23 0 0 1 .11.32zm-4.59 12.02a.16.16 0 0 1 0 .24.41.41 0 0 1-.29.1.52.52 0 0 1-.18 0 .2.2 0 0 1-.11-.31.33.33 0 0 1 .39-.06.22.22 0 0 1 .11.31zm4.75-13.19c.08-.18-.18-.38-.39-.32a.37.37 0 0 0 0 .29.29.29 0 0 0 .28.15c.12 0 .2-.15.12-.22zm2.01 3.1a.31.31 0 0 1 .15.35.39.39 0 0 1-.33.24c-.11 0-.25 0-.25-.12a.19.19 0 0 1 .05-.1l.33-.41.08.05zm-3.35 1.44c0 .16.25.23.45.27s.42.08.49.23a.12.12 0 0 1 0 .13c-.08.09-.26 0-.39 0h-.34a.68.68 0 0 1-.64-.31.3.3 0 0 1 .24-.26.42.42 0 0 1 .39.08zm-1.45 1.11l-.15.14a.33.33 0 0 0 .32.13c.12 0 .2-.15.15-.24a.21.21 0 0 0-.31-.05zm2.1 3.99l-.14.14a.32.32 0 0 0 .31.13c.12 0 .2-.15.15-.24a.21.21 0 0 0-.31-.05z"/><path d="M2248.74 426.86a.24.24 0 0 0 .32-.16 2.17 2.17 0 0 0 0-.36.44.44 0 0 1 .23-.32.32.32 0 0 1 .25 0 .32.32 0 0 1 .12.11 1.12 1.12 0 0 1 .29.67.6.6 0 0 1-.43.57.69.69 0 0 1-.58-.07.45.45 0 0 1-.21-.45zm.32 7.55a.18.18 0 0 1 .21.07.26.26 0 0 1 0 .21.33.33 0 0 1-.1.14.35.35 0 0 1-.38 0 .28.28 0 0 1-.15-.29.19.19 0 0 1 .09-.14.14.14 0 0 1 .18 0zm-2.37-5.66h-.24a.33.33 0 0 0 0 .29c.07.09.26.1.3 0a.22.22 0 0 0 0-.11c0-.11-.07-.23-.1-.35zm3.21-35.62a2.81 2.81 0 0 0-2.24-.3 1.7 1.7 0 0 0 2.72 1.73.85.85 0 0 0-.79-1.36zm-46.37 24.59a2.82 2.82 0 0 0-2.24-.3 1.71 1.71 0 0 0 .61 1.76 1.77 1.77 0 0 0 2.11 0 .85.85 0 0 0-.79-1.36zm33.65-27.1a.61.61 0 0 0-.3 0 .5.5 0 0 0-.19.19 3.79 3.79 0 0 1-.45.54l1.33-.21h.11c.12 0 .15.15.23.23a.52.52 0 0 0 .51 0c1.1-.61-.69-.66-1.24-.75zm47.93-2.99c-.21-.09-.42.17-.31.33a.82.82 0 0 0 .57.28.56.56 0 0 0-.18-.71zm-45.32 5.55a.15.15 0 0 1 0 .24.39.39 0 0 1-.28.1.58.58 0 0 1-.19 0 .21.21 0 0 1-.11-.31.33.33 0 0 1 .39-.06.21.21 0 0 1 .11.31zm-4.59 12.03a.14.14 0 0 1 0 .23.44.44 0 0 1-.28.11.4.4 0 0 1-.19 0 .2.2 0 0 1-.11-.3.35.35 0 0 1 .39-.07.23.23 0 0 1 .11.32zM2240 392c.08-.17-.17-.38-.39-.31a.39.39 0 0 0 0 .28.29.29 0 0 0 .28.15c.12 0 .2-.14.13-.22zm2 3.12a.31.31 0 0 1 .15.34.4.4 0 0 1-.34.25c-.11 0-.25 0-.25-.12v-.11l.33-.41.08.06zm-3.39 1.43c0 .16.25.24.45.27s.42.08.49.24a.1.1 0 0 1 0 .12c-.08.1-.25 0-.39 0a1.32 1.32 0 0 0-.34 0 .69.69 0 0 1-.64-.31.32.32 0 0 1 .24-.26.44.44 0 0 1 .39.07zm-1.45 1.11l-.14.15a.29.29 0 0 0 .31.12c.12 0 .2-.14.15-.24a.23.23 0 0 0-.31-.05zm2.13 3.99l-.14.15a.29.29 0 0 0 .31.12c.12 0 .21-.14.16-.24a.24.24 0 0 0-.32-.05zm46.62-7.96a.24.24 0 0 0 .32-.16 2.17 2.17 0 0 0 0-.36.44.44 0 0 1 .23-.32.28.28 0 0 1 .25 0 .24.24 0 0 1 .12.1 1.12 1.12 0 0 1 .29.67.62.62 0 0 1-.43.58.71.71 0 0 1-.59-.08.46.46 0 0 1-.2-.45zm-45.59 4.52a.18.18 0 0 1 .21.08.28.28 0 0 1 0 .2.49.49 0 0 1-.1.15.39.39 0 0 1-.39 0 .32.32 0 0 1-.15-.3.22.22 0 0 1 .09-.14.18.18 0 0 1 .19 0zm-75.05-26.76a.18.18 0 0 1 .21.07.3.3 0 0 1 0 .21.49.49 0 0 1-.11.14.35.35 0 0 1-.38 0 .28.28 0 0 1-.15-.29.19.19 0 0 1 .09-.14.15.15 0 0 1 .19 0zm72.73 21.1h-.24a.33.33 0 0 0 0 .29c.07.08.26.09.3 0a.14.14 0 0 0 0-.11l-.11-.35zm-11 41.99a1.54 1.54 0 0 0-.56-.14.51.51 0 0 0-.48.22.26.26 0 0 0 0 .23.59.59 0 0 0 .71.28.44.44 0 0 0 .31-.58zm14.31 7.64l-.4.05a.49.49 0 0 0 0 .24.38.38 0 0 0 .44-.23zm159.42 32.41a2.82 2.82 0 0 0-2.24-.3 1.73 1.73 0 0 0 .61 1.76 1.75 1.75 0 0 0 2.11 0 .85.85 0 0 0-.79-1.36zm-10.64-3.84a1.47 1.47 0 0 0-1.05-.17.86.86 0 0 0 .16.38.46.46 0 0 0 .42.16c.22 0 .31-.24.37-.42l.09.13zm-46.97-23.37a1.44 1.44 0 0 0-1-.16.76.76 0 0 0 .16.37.45.45 0 0 0 .42.16c.22 0 .31-.24.37-.42l.09.13zm44.88 24.7a.65.65 0 0 0-.31 0 .41.41 0 0 0-.18.19 3.87 3.87 0 0 1-.46.54l1.34-.21a.4.4 0 0 1 .11 0c.12 0 .14.15.23.23s.35 0 .51 0c1.1-.61-.68-.66-1.24-.75zm6.13.19a.74.74 0 0 1 .33 0c-.12.21-.44.28-.72.32a.47.47 0 0 1-.44-.08c-.05-.08 0-.17 0-.26s-.27-.36-.15-.5a.3.3 0 0 1 .34-.05.68.68 0 0 1 .27.21l.49.53zm1.27 3.35a.25.25 0 0 0-.31.34.91.91 0 0 0 .57.28.56.56 0 0 0-.18-.71zm-4.79-.98a.15.15 0 0 1 0 .24.41.41 0 0 1-.29.1.62.62 0 0 1-.19 0 .2.2 0 0 1-.1-.31.33.33 0 0 1 .39-.06.22.22 0 0 1 .11.31zm.17-1.17c.08-.17-.18-.38-.39-.31a.34.34 0 0 0 0 .28.29.29 0 0 0 .28.15c.11 0 .2-.14.12-.22z"/><path d="M2326.61 446.58c.08-.18-.17-.38-.39-.32a.37.37 0 0 0 0 .29.29.29 0 0 0 .28.15c.12 0 .2-.14.13-.22zm65.28 22.81a1 1 0 0 0-.7-.32v.55a.46.46 0 0 0 .06.25.43.43 0 0 0 .55 0 .34.34 0 0 0 .06-.47zm.9 7.19a.29.29 0 0 1 .15.34.39.39 0 0 1-.33.25c-.11 0-.25 0-.25-.12v-.11l.33-.41.08.06zm-3.35 1.42c0 .16.25.24.44.27s.43.08.5.24a.1.1 0 0 1 0 .12c-.08.1-.26 0-.39 0a1.27 1.27 0 0 0-.34 0 .7.7 0 0 1-.65-.31.32.32 0 0 1 .25-.26.45.45 0 0 1 .39.07zm-1.44 1.12l-.15.15a.3.3 0 0 0 .31.12c.13 0 .21-.14.16-.24a.23.23 0 0 0-.31 0zm2.12 3.99l-.14.15a.29.29 0 0 0 .31.12c.12 0 .2-.14.15-.24a.23.23 0 0 0-.31-.05zm.71-10.99a.24.24 0 0 0 .32-.16 2.17 2.17 0 0 0 0-.36.44.44 0 0 1 .23-.31.28.28 0 0 1 .25 0 .24.24 0 0 1 .12.1 1.15 1.15 0 0 1 .29.67.62.62 0 0 1-.43.58.71.71 0 0 1-.59-.08.45.45 0 0 1-.2-.44zm-2.55-2.49a.42.42 0 0 0-.5 0 .36.36 0 0 0-.14.41.16.16 0 0 0 .15.14.2.2 0 0 0 .13-.08l.43-.44zm9.13 3.92c.19.26 0 .66-.42.71a1 1 0 0 1-.17-.69.52.52 0 0 1 .63-.36l.25.37zm-6.27 6.12a.17.17 0 0 1 .21.08.21.21 0 0 1 0 .2.36.36 0 0 1-.1.15.37.37 0 0 1-.38 0 .3.3 0 0 1-.15-.3.22.22 0 0 1 .09-.14.17.17 0 0 1 .18 0zm-2.36-5.67h-.24a.33.33 0 0 0 0 .29c.07.08.26.09.3 0a.2.2 0 0 0 0-.11c0-.12-.07-.24-.1-.35zm-.37-7a1.49 1.49 0 0 0-.56-.14.51.51 0 0 0-.48.22.31.31 0 0 0 0 .23.59.59 0 0 0 .71.28.43.43 0 0 0 .31-.58zm14.27 7.65l-.4.05a.49.49 0 0 0 0 .24.37.37 0 0 0 .44-.23zm-126.85-26.09a9.6 9.6 0 0 0-3.55-1.66 1.86 1.86 0 0 0-.66-.07 1.2 1.2 0 0 0-.93.65 1.86 1.86 0 0 0 .62 2.34 3.87 3.87 0 0 0 2.94.62 2.31 2.31 0 0 0 1.44-.72.86.86 0 0 0-.16-1.27c-.18 0-.27.24-.14.35zm7.27-33.21a2.78 2.78 0 0 0-2.24-.31 1.75 1.75 0 0 0 .61 1.77 1.77 1.77 0 0 0 2.11 0 .86.86 0 0 0-.79-1.37zm26.16-23.47a2.78 2.78 0 0 0-2.24-.31 1.7 1.7 0 0 0 2.72 1.74.86.86 0 0 0-.79-1.37zm-36.8 19.62a1.47 1.47 0 0 0-1.05-.16.87.87 0 0 0 .16.37.49.49 0 0 0 .42.17c.22 0 .31-.25.37-.43l.09.13zm-2.08 1.33a.64.64 0 0 0-.31 0 .35.35 0 0 0-.18.18 4 4 0 0 1-.46.55l1.34-.21h.11c.12 0 .14.16.23.23s.35.05.51 0c1.09-.58-.69-.66-1.24-.75zm-5.26-5.68l-.4.05a.6.6 0 0 0 .52.42c.26 0 .52-.24.38-.42s-.28-.26-.14-.33zm11.38 5.85a.62.62 0 0 1 .33 0 1 1 0 0 1-.72.32c-.16 0-.35 0-.44-.09s0-.17 0-.26-.28-.35-.15-.5a.3.3 0 0 1 .34-.05.79.79 0 0 1 .27.21l.49.53zm1.27 3.37c-.2-.09-.42.17-.31.34s.35.23.57.28a.56.56 0 0 0-.18-.71zm-4.77-.97a.14.14 0 0 1 0 .23.57.57 0 0 1-.48.08.2.2 0 0 1-.1-.3.35.35 0 0 1 .39-.07.23.23 0 0 1 .11.31zm.15-1.17c.08-.18-.18-.38-.39-.32a.34.34 0 0 0 0 .28.25.25 0 0 0 .27.15c.12 0 .21-.14.13-.21zM2267 402.6c.08-.17-.17-.38-.39-.31a.39.39 0 0 0 0 .28.3.3 0 0 0 .28.15c.12 0 .2-.14.13-.22z"/><path d="M2274.26 410.14a1 1 0 0 0-.7-.32v.55a.36.36 0 0 0 .06.25.44.44 0 0 0 .55 0 .35.35 0 0 0 .06-.47zm.9 7.19a.31.31 0 0 1 .15.35.39.39 0 0 1-.33.24c-.11 0-.25 0-.25-.12a.19.19 0 0 1 .05-.1l.33-.41h.08zm-.63 2.5c-.15.1-.1.3 0 .45s.16.33 0 .46a.2.2 0 0 1-.14.06c-.14 0-.16-.16-.22-.26a1.39 1.39 0 0 0-.21-.21.46.46 0 0 1 0-.61.47.47 0 0 1 .4 0 .27.27 0 0 1 .15.3zm35.72-2.5c-.15.1-.1.3 0 .45s.15.33 0 .46a.2.2 0 0 1-.13.06c-.15 0-.17-.16-.23-.26s-.14-.14-.21-.21a.47.47 0 0 1 0-.61.46.46 0 0 1 .41 0 .28.28 0 0 1 .14.3zm-37.67 2.14h-.23a.2.2 0 0 0 .05.28.29.29 0 0 0 .33 0 .16.16 0 0 0-.12-.24zm-2.92 3.66h-.23a.19.19 0 0 0 .05.28.27.27 0 0 0 .33 0 .16.16 0 0 0-.12-.24zm3.54-10.26a.23.23 0 0 0 .32-.15 2.29 2.29 0 0 0 0-.37.44.44 0 0 1 .23-.31.32.32 0 0 1 .25 0 .26.26 0 0 1 .12.11 1.12 1.12 0 0 1 .29.67.6.6 0 0 1-.43.57.75.75 0 0 1-.59-.07.45.45 0 0 1-.2-.45zm-2.55-2.49a.44.44 0 0 0-.5 0 .39.39 0 0 0-.15.42c0 .06.08.14.16.13a.17.17 0 0 0 .13-.08l.43-.43z"/><path d="M2279.78 414.3a.49.49 0 0 1-.42.71 1.09 1.09 0 0 1-.18-.69.55.55 0 0 1 .64-.36l.25.37zm-6.01 7.6a.11.11 0 0 1 0 .18.41.41 0 0 1-.21.1.5.5 0 0 1-.21 0 .26.26 0 0 1-.23-.25.3.3 0 0 1 .22-.26.25.25 0 0 1 .19 0c.07 0 .11.08.09.13zm-2.62-7.13h-.24a.33.33 0 0 0 0 .29c.07.08.26.1.3 0a.22.22 0 0 0 0-.11c0-.12-.07-.23-.1-.35zm-.37-7.01a2 2 0 0 0-.56-.14.53.53 0 0 0-.48.22.26.26 0 0 0 0 .23.61.61 0 0 0 .71.29.44.44 0 0 0 .31-.59zm14.27 7.65h-.4a.53.53 0 0 0 0 .25.39.39 0 0 0 .44-.24zm-9.89 9.71a2.78 2.78 0 0 0-2.24-.31 1.7 1.7 0 0 0 2.72 1.74.86.86 0 0 0-.79-1.37zm-50.49-22.82a.74.74 0 0 1 .33 0c-.12.21-.44.28-.72.32a.47.47 0 0 1-.44-.08c-.05-.08 0-.18-.05-.26s-.27-.36-.14-.51a.34.34 0 0 1 .34-.05.93.93 0 0 1 .27.21l.49.54zM2151.8 372a.61.61 0 0 0-.3 0 .47.47 0 0 0-.19.18 3.38 3.38 0 0 1-.45.55l1.33-.21h.11c.12 0 .14.16.23.23s.36.05.51 0c1.09-.66-.69-.75-1.24-.75zm2.61 2.52a.14.14 0 0 1 0 .23.45.45 0 0 1-.29.11.36.36 0 0 1-.18 0 .19.19 0 0 1-.11-.3.35.35 0 0 1 .39-.07.23.23 0 0 1 .11.32zm-4.59 12.02a.15.15 0 0 1 0 .24.39.39 0 0 1-.29.1.52.52 0 0 1-.18 0 .2.2 0 0 1-.11-.31.33.33 0 0 1 .39-.06.22.22 0 0 1 .11.31zm4.75-13.19c.08-.18-.17-.38-.39-.32a.37.37 0 0 0 0 .29.29.29 0 0 0 .28.15c.12 0 .2-.15.13-.22zm-1.34 4.54c0 .16.25.23.45.27s.42.08.49.23a.12.12 0 0 1 0 .13c-.08.09-.25 0-.39 0h-.34a.69.69 0 0 1-.64-.31.3.3 0 0 1 .24-.26.42.42 0 0 1 .39.08zm-1.45 1.11l-.15.14a.33.33 0 0 0 .32.13c.12 0 .2-.15.15-.24a.21.21 0 0 0-.31 0zm2.13 4l-.14.14a.32.32 0 0 0 .31.13c.12 0 .2-.15.16-.24a.22.22 0 0 0-.32 0zm1.03-3.45a.18.18 0 0 1 .21.07.3.3 0 0 1 0 .21.49.49 0 0 1-.11.14.35.35 0 0 1-.38 0 .28.28 0 0 1-.15-.29.19.19 0 0 1 .09-.14.15.15 0 0 1 .19 0zm-2.37-5.66h-.24a.33.33 0 0 0 0 .29c.07.09.26.1.3 0a.22.22 0 0 0 0-.11l-.1-.35zm-13.28 9.74a.62.62 0 0 1 .33 0 1 1 0 0 1-.72.32c-.16 0-.36 0-.44-.09s0-.17-.05-.26-.27-.35-.14-.5a.34.34 0 0 1 .34-.05.79.79 0 0 1 .27.21l.49.53zm114.82 28.95a.25.25 0 0 0-.31.34c.1.17.35.23.58.28a.57.57 0 0 0-.18-.71zm10.94 12.59a.14.14 0 0 1 0 .23.47.47 0 0 1-.29.11.36.36 0 0 1-.18 0 .19.19 0 0 1-.11-.3.35.35 0 0 1 .39-.07.23.23 0 0 1 .11.32zm2.17 1.93a.31.31 0 0 1 .15.35.39.39 0 0 1-.33.24c-.11 0-.25 0-.25-.12a.24.24 0 0 1 .05-.1l.33-.41.08.05zm40.31-6.45c-.15.11-.1.3 0 .45s.16.33 0 .46a.17.17 0 0 1-.14.07c-.14 0-.16-.16-.22-.26a1 1 0 0 0-.21-.21.46.46 0 0 1 0-.61.43.43 0 0 1 .4 0 .27.27 0 0 1 .15.3zm-42.89 8.6h-.23a.2.2 0 0 0 .05.28.27.27 0 0 0 .33 0 .15.15 0 0 0-.12-.24zm-2.92 3.65h-.23a.2.2 0 0 0 .05.28.26.26 0 0 0 .33 0c.07-.08 0-.22-.12-.24zm10.12-8.82c.2.26 0 .66-.42.7a1 1 0 0 1-.17-.69.52.52 0 0 1 .63-.35l.25.36zm-6.01 7.59a.12.12 0 0 1 .05.18.42.42 0 0 1-.22.11.74.74 0 0 1-.21 0 .27.27 0 0 1-.23-.25.32.32 0 0 1 .22-.26.34.34 0 0 1 .2 0c.06 0 .11.08.09.13zm11.28-6.49l-.39.05a.5.5 0 0 0 0 .24.38.38 0 0 0 .44-.23zm-18.01.48h-.4a.55.55 0 0 0 0 .25.39.39 0 0 0 .44-.24zm49.37 141.81a11.31 11.31 0 0 0 4.1.21 1.83 1.83 0 0 0 .63-.17.94.94 0 0 0 .47-.92 2.29 2.29 0 0 0-1.85-1.87 3.89 3.89 0 0 0-3 .5 1.78 1.78 0 0 0-.89 1.16 1 1 0 0 0 .85 1.08.2.2 0 0 0-.07-.36zm-2.47-16.69a.51.51 0 0 0 .3 0 .44.44 0 0 0 .2-.18 3.87 3.87 0 0 1 .46-.54l-1.34.19h-.11c-.12 0-.14-.15-.23-.23a.5.5 0 0 0-.5 0c-1.14.59.64.67 1.22.76zm-33-26.41a.15.15 0 0 1 .06-.23.47.47 0 0 1 .31 0 .54.54 0 0 1 .17.07.2.2 0 0 1 0 .32.36.36 0 0 1-.4 0 .23.23 0 0 1 0-.33zm54.89 20.7c-.09-.09-.29 0-.36.08a3.62 3.62 0 0 0-.13.35.49.49 0 0 1-.33.24.27.27 0 0 1-.25 0c-.05 0-.06-.08-.08-.13a1.08 1.08 0 0 1 0-.71.73.73 0 0 1 .62-.45.68.68 0 0 1 .53.21.39.39 0 0 1 0 .48zm-63.13 4.21c-.09-.1-.3 0-.37.08a2 2 0 0 0-.12.34.51.51 0 0 1-.33.25.33.33 0 0 1-.26 0 .28.28 0 0 1-.07-.13 1 1 0 0 1 0-.71.71.71 0 0 1 .62-.45.65.65 0 0 1 .53.21.42.42 0 0 1 0 .48zm13.95-1.86a1.47 1.47 0 0 0 .49.27.6.6 0 0 0 .54-.09.35.35 0 0 0 .09-.22.53.53 0 0 0-.58-.44c-.29 0-.54.25-.51.48zm39.05 15.43a8.18 8.18 0 0 0 2.79 2.43 1.73 1.73 0 0 0 .6.22 1.45 1.45 0 0 0 1.13-.4 1.82 1.82 0 0 0 .25-2.39 3.48 3.48 0 0 0-2.58-1.29 2.64 2.64 0 0 0-1.63.35.88.88 0 0 0-.32 1.23c.18 0 .34-.17.25-.3zM1926.3 400.5a8.28 8.28 0 0 0 2.8 2.42 1.74 1.74 0 0 0 .6.23 1.46 1.46 0 0 0 1.13-.41 1.81 1.81 0 0 0 .25-2.38 3.45 3.45 0 0 0-2.58-1.29 2.62 2.62 0 0 0-1.63.34.89.89 0 0 0-.32 1.26c.19 0 .35-.17.26-.3zm410.79 134.25a1.12 1.12 0 0 0 .31.1.3.3 0 0 0 .29-.1c.09-.13-.07-.29-.07-.44s.17-.29.11-.43-.32-.17-.47-.08a.62.62 0 0 0-.27.37.54.54 0 0 0 0 .39.35.35 0 0 0 .36.23z"/><path d="M2319.65 571.76a2.58 2.58 0 0 0 2 .82 1.63 1.63 0 0 0 .05-1.83 1.69 1.69 0 0 0-2-.47.8.8 0 0 0 .26 1.49zm-49.17-52.57c-.14.15 0 .41.26.4a.42.42 0 0 0 .12-.27.24.24 0 0 0-.21-.21c-.12 0-.25.09-.21.18zm49.26 10.15a8.16 8.16 0 0 0 2.79 2.43 2.07 2.07 0 0 0 .6.23 1.47 1.47 0 0 0 1.13-.41 1.8 1.8 0 0 0 .26-2.38 3.46 3.46 0 0 0-2.58-1.3 2.66 2.66 0 0 0-1.64.35.88.88 0 0 0-.31 1.26c.18 0 .34-.17.26-.3zm69.46-145.99a8.14 8.14 0 0 0 2.79 2.42 1.82 1.82 0 0 0 .6.23 1.4 1.4 0 0 0 1.13-.41 1.81 1.81 0 0 0 .26-2.38 3.45 3.45 0 0 0-2.58-1.29 2.59 2.59 0 0 0-1.64.35.87.87 0 0 0-.31 1.25c.18 0 .34-.16.26-.3zm-88.53 176.01a2.54 2.54 0 0 0 2 .82 1.65 1.65 0 0 0 .06-1.83 1.71 1.71 0 0 0-2-.47.8.8 0 0 0 .26 1.49zm8.77 6.2a1.3 1.3 0 0 0 .94.4.74.74 0 0 0 0-.39.41.41 0 0 0-.34-.26.63.63 0 0 0-.51.32l-.05-.15zm2.48-.78a.59.59 0 0 0 .29.07.62.62 0 0 0 .24-.13 3.92 3.92 0 0 1 .64-.42l-1.36-.12a.18.18 0 0 1-.1 0c-.11 0-.08-.18-.14-.27s-.32-.13-.5-.09c-1.26.27.43.75.93.96zm-5.79-1.63a.69.69 0 0 1-.32-.08 1.11 1.11 0 0 1 .81-.13c.16 0 .35.06.39.18s0 .17-.05.26.13.41-.05.52a.32.32 0 0 1-.34 0 .53.53 0 0 1-.18-.26l-.28-.63zm.01-3.51c.16.14.46-.06.42-.25s-.25-.3-.45-.4a.55.55 0 0 0-.08.72zm4.22 2.07a.15.15 0 0 1 .06-.23.47.47 0 0 1 .31 0 .29.29 0 0 1 .17.07.19.19 0 0 1 0 .31.33.33 0 0 1-.39 0 .21.21 0 0 1 0-.32zm-.59 1.08c-.14.15 0 .41.26.4a.44.44 0 0 0 .12-.27.24.24 0 0 0-.21-.21c-.12 0-.25.08-.21.17zm-2.54 3.64a.8.8 0 0 0 .55.47l.18-.52a.48.48 0 0 0 0-.26.41.41 0 0 0-.51-.16.4.4 0 0 0-.24.44zm1.77-7.08a.29.29 0 0 1 0-.37.48.48 0 0 1 .41-.16c.1 0 .22.09.19.18a.24.24 0 0 1-.09.08l-.46.32-.06-.07zm1.5-2.24c.18-.07.2-.26.19-.42s0-.36.13-.45a.18.18 0 0 1 .16 0c.13 0 .09.19.11.3a1.19 1.19 0 0 0 .13.25.48.48 0 0 1-.19.59.44.44 0 0 1-.38-.11.27.27 0 0 1 0-.33zm-35.06-6.11a.36.36 0 0 0 .19-.42c0-.16 0-.35.14-.45a.2.2 0 0 1 .15 0c.13 0 .1.19.12.3a.82.82 0 0 0 .12.25.47.47 0 0 1-.18.59.42.42 0 0 1-.38-.11.24.24 0 0 1 0-.32zm36.79 6.91l.22.07a.2.2 0 0 0 .05-.28.26.26 0 0 0-.32-.05.15.15 0 0 0 0 .26zm4.13-2.8l.21.07a.19.19 0 0 0 .06-.28.29.29 0 0 0-.33 0 .15.15 0 0 0 0 .26zm-7.13 8.96c-.09-.1-.29 0-.36.07s-.07.24-.13.35a.51.51 0 0 1-.33.25.35.35 0 0 1-.25 0 .31.31 0 0 1-.08-.13 1.09 1.09 0 0 1 0-.71.74.74 0 0 1 .63-.45.64.64 0 0 1 .52.21.39.39 0 0 1 0 .48zm1.53 2.99a.39.39 0 0 0 .47.14.44.44 0 0 0 .29-.36c0-.07 0-.15-.1-.16a.23.23 0 0 0-.16 0l-.57.31zm-7.29-5.92c-.09-.3.28-.62.65-.57a1 1 0 0 1-.08.7.59.59 0 0 1-.74.19c0-.14-.06-.27-.1-.41zm8.53-5.83a.11.11 0 0 1 0-.18.42.42 0 0 1 .25 0 .64.64 0 0 1 .2 0 .23.23 0 0 1 .14.29.38.38 0 0 1-.31.2.34.34 0 0 1-.2 0 .1.1 0 0 1 0-.15zm-.12 7.44l.23.06a.34.34 0 0 0 .08-.28.2.2 0 0 0-.29-.08.2.2 0 0 0 0 .11v.36zm-13.05-3.91h.4a.52.52 0 0 0 .05-.24.44.44 0 0 0-.51.12zm13-6.94a2.58 2.58 0 0 0 2 .83 1.65 1.65 0 0 0 0-1.84 1.69 1.69 0 0 0-2-.47.8.8 0 0 0 .26 1.49zm9.68 2.35a.16.16 0 0 1 .06-.23.49.49 0 0 1 .32 0 .36.36 0 0 1 .17.07.19.19 0 0 1 0 .31.34.34 0 0 1-.4 0 .21.21 0 0 1 0-.32zm-1.37-2.36a.29.29 0 0 1 0-.37.45.45 0 0 1 .41-.15c.11 0 .22.09.19.17s0 .06-.08.09l-.47.31-.05-.07zm-40.88-3.39c.18-.07.2-.27.19-.43s0-.35.13-.45a.23.23 0 0 1 .16 0c.13 0 .09.19.11.3a1.19 1.19 0 0 0 .13.25.49.49 0 0 1-.18.59.45.45 0 0 1-.39-.11.27.27 0 0 1 0-.33zm44.13 1.95l.21.07a.21.21 0 0 0 .06-.28.29.29 0 0 0-.33 0 .14.14 0 0 0 0 .26zm4.12-2.8l.21.07a.19.19 0 0 0 .06-.28.28.28 0 0 0-.33-.05.15.15 0 0 0 0 .26zm-12.89 6.04c-.09-.3.28-.63.66-.58a1 1 0 0 1-.09.7.58.58 0 0 1-.73.19l-.1-.41zm8.51-5.84c-.06 0 0-.14 0-.18a.47.47 0 0 1 .24 0 .49.49 0 0 1 .21 0 .23.23 0 0 1 .13.29.39.39 0 0 1-.31.2.38.38 0 0 1-.19 0c-.06 0-.08-.1 0-.15zm-13.13 3.53h.4a.26.26 0 1 0-.45-.12zm17.37 3.82h.4a.43.43 0 0 0 .05-.25.42.42 0 0 0-.5.12zm67.88-162.4a1.68 1.68 0 0 1 1.34.14.23.23 0 0 1 .11.11c0 .07 0 .13-.1.19a1.4 1.4 0 0 1-1.29.55.5.5 0 0 1-.2-.88l.43.07zm-805.68 41.76a9.91 9.91 0 0 0 3.62-1.56 1.28 1.28 0 0 0 .43-.4.89.89 0 0 0-.2-1 3 3 0 0 0-2.79-.81 3.09 3.09 0 0 0-2.21 1.68 1.45 1.45 0 0 0 0 1.36 1.37 1.37 0 0 0 1.43.57c.07-.14-.11-.31-.29-.28zm74.06-51.2a6.43 6.43 0 0 0 1.3-3.13 1 1 0 0 0 0-.54 1.26 1.26 0 0 0-1-.6 2.93 2.93 0 0 0-2.72 1 2.21 2.21 0 0 0-.17 2.44 2 2 0 0 0 1.16 1 1.42 1.42 0 0 0 1.52-.38.31.31 0 0 0-.45 0zm-79.5 48.88a2.08 2.08 0 0 0 1.51-1.37 3 3 0 0 0-2.19-.51c-.76.16-1.35.86-1.08 1.46a1.21 1.21 0 0 0 1.85.18zm8.77 5.4a2.35 2.35 0 0 0 .47-.53v-.07a.09.09 0 0 0-.06-.06c-.24-.12-.63 0-.78-.16 0 0 0-.07-.09-.09s-.15 0-.18.11c-.12.33.24.73.68.72l-.1.07zm7.9 3.1a4.32 4.32 0 0 0 .88-1 .19.19 0 0 0 0-.14c0-.05-.07-.09-.12-.12-.45-.22-1.19.07-1.47-.29-.05-.06-.08-.14-.17-.18s-.28.09-.33.21c-.24.63.45 1.37 1.27 1.37l-.17.12zm-1.58 11.4a4.32 4.32 0 0 0 .88-1 .19.19 0 0 0 .05-.14c0-.05-.07-.09-.12-.12-.45-.21-1.19.07-1.47-.29 0-.06-.08-.14-.17-.17s-.28.08-.33.2c-.24.64.45 1.38 1.27 1.37l-.17.12zm-5.4-25.14a1.07 1.07 0 0 0 .72-.63 1.51 1.51 0 0 0-.48-.09.46.46 0 0 0-.39.2c-.07.17.09.35.25.48h-.19zm49.18-46a.33.33 0 0 0 .08-.24.39.39 0 0 0-.17-.19 5.13 5.13 0 0 1-.53-.51l-.11 1.1v.08c0 .02-.22.07-.33.12s-.15.26-.1.4c.33 1.03.88-.34 1.16-.76zm-28.45 49.5a.38.38 0 0 0 .15-.21.35.35 0 0 0-.09-.23 3.51 3.51 0 0 1-.33-.6l-.49 1v.07c-.09.08-.24 0-.37 0a.34.34 0 0 0-.23.37c-.02 1.1.98-.07 1.36-.4zm45.66-30.4l.16-.3a.77.77 0 0 0-.73.13.3.3 0 0 0 .24.48c.17 0 .43-.05.42.08zm-44.92 38.6c-.33.13-.8-.1-.79-.4s.48-.52.8-.37a.41.41 0 0 1 0 .75zm-15.06-3.96c0 .24-.17.54-.47.54s-.42-.28-.48-.51 0-.21 0-.28.57.25.83.12c.07 0 0 .16-.07.13zm-10.16-5.74a.48.48 0 0 1-.17.23.63.63 0 0 1 0-.67.38.38 0 0 1 .31-.25.89.89 0 0 1 .31.11c.2.06.51 0 .6.16a.2.2 0 0 1-.13.26.7.7 0 0 1-.36.07l-.82.06zm.51-3c.14.15.5.08.54-.1a.64.64 0 0 0-.29-.16.31.31 0 0 0-.31.11.15.15 0 0 0 .16.2z"/><path d="M1606.06 428c.14.14.49.08.54-.1a.55.55 0 0 0-.3-.16.3.3 0 0 0-.3.11c0 .09 0 .21.16.2zm-11.77 1a1 1 0 0 0 .71-.31l-.59-.27a.62.62 0 0 0-.3-.09.31.31 0 0 0-.31.36.51.51 0 0 0 .46.29zm7.82 35.19l-.54.9c-.21 0-.23-.25-.19-.42a.87.87 0 0 1 .25-.46.45.45 0 0 1 .55 0zm.19-6.47c.28.08.58-.2.5-.43a.67.67 0 0 0-.72-.33.51.51 0 0 0-.33.15.32.32 0 0 0 .09.44 1.41 1.41 0 0 0 .51.24zm-1.59-24.35a.78.78 0 0 0 .75-.2.92.92 0 0 0-.48-.27.63.63 0 0 0-.68.22c-.09.2.2.46.43.35zm-2.79.56a.49.49 0 0 1-.51-.07l.27-.46c.29 0 .51.29.4.51zm-5.16 3.07l-.06.2a1.37 1.37 0 0 1-.42-.32.31.31 0 0 1 0-.43c.14-.11.42-.07.46.08a.66.66 0 0 1 0 .46zm-.76-10.21c-.14 0-.12.22 0 .3a2.81 2.81 0 0 0 .39.19.45.45 0 0 1 .21.32.2.2 0 0 1-.1.19.32.32 0 0 1-.17 0 1.89 1.89 0 0 1-.86-.16.57.57 0 0 1-.37-.6.52.52 0 0 1 .38-.36.73.73 0 0 1 .58.1zm49.77-64.31c-.14 0-.11.22 0 .3s.26.11.38.19a.37.37 0 0 1 .21.32.19.19 0 0 1-.09.19.52.52 0 0 1-.18 0 2.18 2.18 0 0 1-.85-.16.6.6 0 0 1-.38-.6.51.51 0 0 1 .39-.36.7.7 0 0 1 .58.1zm-30.01 60.06c-.14 0-.12.22 0 .3a2.81 2.81 0 0 0 .39.19.45.45 0 0 1 .21.32.2.2 0 0 1-.1.19.32.32 0 0 1-.17 0 1.89 1.89 0 0 1-.86-.16.57.57 0 0 1-.37-.6.52.52 0 0 1 .38-.36.73.73 0 0 1 .58.1zm18.8-9.81c-.13 0-.11.22 0 .3s.27.11.39.19a.41.41 0 0 1 .21.32.2.2 0 0 1-.1.19.32.32 0 0 1-.17 0 2 2 0 0 1-.86-.16.6.6 0 0 1-.38-.6.53.53 0 0 1 .39-.36.73.73 0 0 1 .58.1zM1596 426.37a.3.3 0 0 0 .29-.33.46.46 0 0 0-.35-.32h-.23a.2.2 0 0 0 0 .13l.24.53zm-25.47 54.81a2.11 2.11 0 0 0 1.3.45.36.36 0 0 0 .23-.06c.12-.11 0-.27-.13-.4s0-.52-.19-.74a1.17 1.17 0 0 0-.62-.36c-.34-.11-.84-.19-1 .08a.46.46 0 0 0 0 .45 3.18 3.18 0 0 0 .65.83zm68.76-52.36a2.08 2.08 0 0 0 1.3.44.34.34 0 0 0 .23-.05c.13-.11 0-.27-.12-.41s0-.51-.2-.74a1.19 1.19 0 0 0-.61-.35c-.35-.12-.84-.19-1 .08a.49.49 0 0 0 0 .45 3 3 0 0 0 .65.82zm-32.11 8.34c.1.22.51.15.77 0s.35-.16.38-.3-.22-.34-.44-.43l-.58-.23a.42.42 0 0 0-.27 0 .29.29 0 0 0-.15.16 2.08 2.08 0 0 0-.17 1zm-9.37 1.37c.67 2 3.54 1.18 3.49-.61s-4.08-1.16-3.49.61zm11.44 5.41c.67 2 3.54 1.18 3.49-.62s-4.08-1.15-3.49.62zM1587 430.53c-.38 0-.67-.38-.52-.66a1.83 1.83 0 0 1 .82.24.38.38 0 0 1 0 .63h-.52zm4.07-6.14l.14-.17a.61.61 0 0 0-.32-.13c-.13 0-.24.13-.16.2a.23.23 0 0 0 .12.06l.42.11zm11.18-7.08a1.33 1.33 0 0 0 .44-.31.34.34 0 0 0 0-.45.5.5 0 0 0-.24-.12.59.59 0 0 0-.68.33.48.48 0 0 0 .46.53zm29.68-15.93a1.1 1.1 0 0 0 .44-.31.33.33 0 0 0 0-.44.44.44 0 0 0-.24-.13.59.59 0 0 0-.68.34c-.06.23.16.49.46.52zm-23.43 28.24a.44.44 0 0 1-.67.09.68.68 0 0 1 .1-.36.69.69 0 0 1 .43.2zm-25.5 3.93l.16-.3a.67.67 0 0 0-.28-.1.26.26 0 0 0 0 .42zm77.48-58.55a9.91 9.91 0 0 0 3.62-1.56 1.28 1.28 0 0 0 .43-.4.89.89 0 0 0-.2-1 3 3 0 0 0-2.79-.81 3.11 3.11 0 0 0-2.21 1.68 1.45 1.45 0 0 0 0 1.36 1.38 1.38 0 0 0 1.43.57c.07-.14-.11-.31-.29-.28zm11.17.76a2.06 2.06 0 0 0 1.5-1.36 2.89 2.89 0 0 0-2.18-.52c-.76.17-1.35.86-1.08 1.46a1.2 1.2 0 0 0 1.85.18zm1.54 25c-.14 0-.12.22 0 .3s.27.11.39.19a.41.41 0 0 1 .21.32.19.19 0 0 1-.09.19.36.36 0 0 1-.18 0 2 2 0 0 1-.85-.16.58.58 0 0 1-.38-.6.51.51 0 0 1 .39-.36.71.71 0 0 1 .57.1zm-21.29-13.41a2.1 2.1 0 0 0 1.51-1.37 2.86 2.86 0 0 0-2.19-.51c-.76.16-1.35.85-1.08 1.45a1.21 1.21 0 0 0 1.85.19zm10.82 30.32a2.05 2.05 0 0 0 1.5-1.37 2.88 2.88 0 0 0-2.18-.51c-.76.16-1.35.86-1.09 1.45a1.21 1.21 0 0 0 1.86.19zm-1.13-35.55a1.12 1.12 0 0 0 .72-.63 1.32 1.32 0 0 0-.48-.09.42.42 0 0 0-.39.2c-.08.17.09.34.25.48h-.19zm-.3-2.12a.38.38 0 0 0 .15-.21.33.33 0 0 0-.09-.22 3.65 3.65 0 0 1-.34-.6l-.49 1a.18.18 0 0 1 0 .08c-.08.07-.24 0-.36 0a.31.31 0 0 0-.23.36c-.03 1.1.97-.09 1.36-.41zm8.76-.59l.16-.29a.73.73 0 0 0-.72.12.3.3 0 0 0 .24.48c.17 0 .42-.05.42.08zm-12.21 4.67a.48.48 0 0 1-.17.23.65.65 0 0 1 0-.67c.06-.12.16-.26.32-.25a1.24 1.24 0 0 1 .31.1c.2.07.51 0 .6.17s0 .21-.13.26a1 1 0 0 1-.36.07l-.82.06z"/><path d="M1653.64 383.17c.2-.1 0-.38-.19-.4a1 1 0 0 0-.6.25.9.9 0 0 0 .84.25zm3.57-2.76a.21.21 0 0 1-.26-.1.27.27 0 0 1 0-.26.43.43 0 0 1 .12-.11.3.3 0 0 1 .38.09.22.22 0 0 1-.14.3.37.37 0 0 1-.39-.09zm1.14.74c.14.14.49.08.54-.1a.55.55 0 0 0-.3-.16.3.3 0 0 0-.3.11c0 .09 0 .21.16.2zm15.48 1.97a.35.35 0 0 0 .54-.1.61.61 0 0 0-.3-.15.28.28 0 0 0-.3.11c0 .09 0 .21.16.2zm-11.77.95a1 1 0 0 0 .71-.31l-.59-.28a.74.74 0 0 0-.3-.08.31.31 0 0 0-.32.35.53.53 0 0 0 .47.3zm-8.06-3.19a.54.54 0 0 1-.45-.08.3.3 0 0 1-.08-.36.21.21 0 0 1 .26-.11.23.23 0 0 1 .08.09l.26.44h-.1zm-2.28-1.76c0-.16-.26-.23-.45-.26s-.43-.07-.51-.22a.1.1 0 0 1 0-.12c.07-.1.25 0 .39 0a1.84 1.84 0 0 0 .33 0 .72.72 0 0 1 .66.29.31.31 0 0 1-.23.27.44.44 0 0 1-.4-.06zm-16.31 25.74c0-.16-.26-.23-.46-.26s-.42-.07-.5-.22a.12.12 0 0 1 0-.13c.07-.09.25 0 .39 0a1.84 1.84 0 0 0 .33 0 .71.71 0 0 1 .66.29.31.31 0 0 1-.23.27.44.44 0 0 1-.4-.07zm17.72-26.86l.14-.15a.32.32 0 0 0-.32-.12c-.12 0-.2.15-.14.24a.22.22 0 0 0 .31.05zm-2.29-4l.13-.15a.29.29 0 0 0-.31-.11c-.12 0-.2.15-.15.24a.23.23 0 0 0 .32 0zm8.9 7.9c-.13 0-.11.22 0 .3s.27.12.39.19a.41.41 0 0 1 .21.32.2.2 0 0 1-.1.19.32.32 0 0 1-.17 0 2 2 0 0 1-.86-.16.6.6 0 0 1-.38-.6.53.53 0 0 1 .39-.36.73.73 0 0 1 .58.1zm3.98-.42a.3.3 0 0 0 .29-.33.46.46 0 0 0-.36-.32h-.22a.12.12 0 0 0 0 .13l.23.52zm-8.97 4.15c-.38 0-.67-.37-.52-.66a1.84 1.84 0 0 1 .82.25.38.38 0 0 1 0 .62h-.52zm-4.75-8.13a.17.17 0 0 1-.21-.06.26.26 0 0 1 0-.21.36.36 0 0 1 .1-.15.35.35 0 0 1 .38 0 .31.31 0 0 1 .16.29.18.18 0 0 1-.09.14.17.17 0 0 1-.18 0zm8.84 1.99l.14-.16a.64.64 0 0 0-.33-.13c-.12 0-.23.12-.16.2a.45.45 0 0 0 .12.06l.43.11zm7.56 3.51a1.5 1.5 0 0 0 .45-.31.34.34 0 0 0 0-.45.46.46 0 0 0-.24-.12.57.57 0 0 0-.67.33.47.47 0 0 0 .45.52zm-15.6 5.65l.16-.29a.86.86 0 0 0-.28-.11.27.27 0 0 0 0 .43zm-4.98-11.91a2.07 2.07 0 0 0 1.51-1.36 2.89 2.89 0 0 0-2.18-.52c-.76.17-1.35.86-1.09 1.46a1.21 1.21 0 0 0 1.86.18zm5.31-6.93a.24.24 0 0 1-.26-.11.28.28 0 0 1 .05-.25.34.34 0 0 1 .12-.12.33.33 0 0 1 .38.09.22.22 0 0 1-.14.3.35.35 0 0 1-.39-.09zm-3.19.46a.49.49 0 0 1-.44-.08.3.3 0 0 1-.08-.36.21.21 0 0 1 .26-.1.2.2 0 0 1 .08.08l.26.45h-.1zm-14.58 30.96c0-.16-.27-.23-.46-.26s-.43-.07-.5-.22a.09.09 0 0 1 0-.12c.08-.1.25 0 .39 0a1.86 1.86 0 0 0 .34 0 .73.73 0 0 1 .66.3.34.34 0 0 1-.24.27.45.45 0 0 1-.39-.07zm13.7-33.86l.14-.15a.32.32 0 0 0-.32-.12c-.12 0-.2.16-.15.25a.23.23 0 0 0 .32 0zm-2.3-3.93l.14-.15a.29.29 0 0 0-.31-.12.18.18 0 0 0-.15.25.23.23 0 0 0 .32 0zm3.92 11.56c-.38 0-.68-.38-.52-.66a1.83 1.83 0 0 1 .82.24.38.38 0 0 1 0 .63h-.51zm-4.8-8.1a.16.16 0 0 1-.21-.07.2.2 0 0 1 0-.2.38.38 0 0 1 .09-.15.39.39 0 0 1 .39 0 .31.31 0 0 1 .16.29.17.17 0 0 1-.09.14.15.15 0 0 1-.18 0zm.85 11.15l.16-.3a.73.73 0 0 0-.28-.1.26.26 0 0 0 0 .42zm9.04-12.56l.16-.3a.63.63 0 0 0-.27-.1.26.26 0 0 0 0 .42zM1616.15 476a1.2 1.2 0 0 1-.86.83.32.32 0 0 1-.17 0c-.08 0-.12-.1-.15-.17-.17-.39-.31-.91.1-1.17s1 0 1 .33l-.3.25z"/></g><g fill="#43bde6"><path d="M1274.22 547.26a7.94 7.94 0 0 0 1.83-4 1.31 1.31 0 0 0 0-.68 1.77 1.77 0 0 0-1.32-.77A4.15 4.15 0 0 0 1271 543a2.74 2.74 0 0 0 1.27 4.36 2 2 0 0 0 2-.46.42.42 0 0 0-.6-.06zM1160.8 419.48a15.55 15.55 0 0 0-5.38 1 2.13 2.13 0 0 0-.73.39 1.06 1.06 0 0 0-.16 1.26 3.73 3.73 0 0 0 3.31 1.7 4.9 4.9 0 0 0 3.59-1.49 1.88 1.88 0 0 0 .58-1.67 1.63 1.63 0 0 0-1.63-1.06c-.14.16 0 .41.27.42zm105.41 129.4a1.91 1.91 0 0 0-.06-2.32 3.81 3.81 0 0 0-2.75 1 1.32 1.32 0 0 0 .58 2.1c1 .37 2.34-.34 2-1.11zm14.79-1.07a2.22 2.22 0 0 0-.13-.81.15.15 0 0 0-.06-.09.22.22 0 0 0-.14 0c-.37.06-.58.47-.94.4a.36.36 0 0 0-.2 0c-.11 0-.1.14 0 .22a1.19 1.19 0 0 0 1.49.21v.12zm11.38-2.61a4 4 0 0 0-.25-1.52.28.28 0 0 0-.12-.17.36.36 0 0 0-.25 0c-.69.11-1.1.89-1.78.75a1 1 0 0 0-.37 0c-.2 0-.19.27-.09.42a2.23 2.23 0 0 0 2.81.39v.23zm-22.53-7.9a1 1 0 0 0 0-1.08 1.79 1.79 0 0 0-.58.25.36.36 0 0 0-.16.46c.12.21.48.25.79.27l-.19.12zm-188.07-87a.81.81 0 0 0-.39.1.45.45 0 0 0-.16.27 3.66 3.66 0 0 1-.33.8l1.63-.64a.7.7 0 0 1 .14 0c.17 0 .26.14.41.21a.65.65 0 0 0 .64-.19c1.15-1.04-1.18-.6-1.94-.55zm212.55 75.87a.39.39 0 0 0-.09-.31.74.74 0 0 0-.34-.14 7.1 7.1 0 0 1-1-.32l.68 1.28a.25.25 0 0 1 0 .11c0 .13-.22.18-.31.29s0 .36.18.5c1.25.96.88-.84.88-1.41zM1096.54 422.6l-.54.06a.8.8 0 0 0 .7.54c.36 0 .7-.31.51-.53s-.37-.33-.18-.42zm207.85 110.66a.91.91 0 0 1-1.23.19c-.34-.29-.12-.82.37-.91s1 .31.88.68zM1285 540c.22.25.44.61.14.82s-.73 0-1-.14c-.14-.07-.29-.17-.27-.29 0-.3.83-.17 1-.46.11 0 .18.13.08.17zm-16.63 1.72a.5.5 0 0 1 .09.33 1 1 0 0 1-.71-.65c-.08-.15-.14-.35 0-.45a1.86 1.86 0 0 1 .42-.12c.28-.08.52-.35.79-.26a.25.25 0 0 1 .17.33.83.83 0 0 1-.28.32l-.75.62zm-5.19 2.07c.09-.23-.39-.38-.64-.24a.75.75 0 0 0-.31.65 1.27 1.27 0 0 0 1.12-.35zm-1.29 24.32a.56.56 0 0 0 0-.34.37.37 0 0 0-.33-.21c-.25 0-.38.24-.61.32s-.53 0-.7.17 0 .38.17.47a1.39 1.39 0 0 0 .73 0 1.3 1.3 0 0 0 .6-.2.3.3 0 0 0 .1-.45zm-124.63-95.73a.18.18 0 0 1 0 .3.64.64 0 0 1-.38.13.74.74 0 0 1-.26 0 .25.25 0 0 1-.14-.39.5.5 0 0 1 .53-.08.29.29 0 0 1 .15.4zM1242.63 537a.32.32 0 0 1-.37.08.4.4 0 0 1-.25-.26.31.31 0 0 1 0-.19.41.41 0 0 1 .48-.18.28.28 0 0 1 .2.38.46.46 0 0 1-.49.18z"/><path d="M1265.54 538.65c.31 0 .58-.27.42-.47a.93.93 0 0 0-.47.06c-.14.06-.23.19-.18.31a.29.29 0 0 0 .39.08zm17.56-8.9c.31 0 .59-.26.42-.47a1.05 1.05 0 0 0-.47.06c-.14.07-.23.2-.17.32a.29.29 0 0 0 .39.07zm-10.56 9.04a.85.85 0 0 0 .35-.78l-.9.15a1 1 0 0 0-.4.12.33.33 0 0 0 .09.56.88.88 0 0 0 .79-.05zm47.82 27.28l.49 1.2c-.21.14-.51-.06-.66-.25a.92.92 0 0 1-.27-.6.46.46 0 0 1 .55-.37zm-7.17-6.14a.4.4 0 0 0 0-.75 1.05 1.05 0 0 0-1.08.19.42.42 0 0 0-.16.37c0 .2.32.34.58.35a2.38 2.38 0 0 0 .79-.13zm-29.29-21.49a.72.72 0 0 0 .52-.71 1.5 1.5 0 0 0-.79.07c-.32.13-.55.43-.42.68s.72.29.82 0zm-2.12 2.44a.57.57 0 0 1-.59.29l-.25-.61a.77.77 0 0 1 1 .19zm-1.66 6.4l.17.22a2.27 2.27 0 0 1-.78 0c-.25-.06-.47-.23-.46-.43s.35-.35.56-.23a1 1 0 0 1 .47.46zm-19.18-5.88a.61.61 0 0 1-.53.23.58.58 0 0 1-.49-.27.19.19 0 0 1 .14-.28.38.38 0 0 1 .18 0l.76.22-.07.1zm-3.21-3.02a.48.48 0 0 0-.33.51c0 .21 0 .45-.26.55a.26.26 0 0 1-.21 0c-.17-.06-.1-.25-.1-.39a1.33 1.33 0 0 0-.13-.33.61.61 0 0 1 .35-.72.56.56 0 0 1 .49.18.31.31 0 0 1 0 .41zm-2.19-1.19l-.28-.11a.24.24 0 0 0-.12.34.36.36 0 0 0 .43.1.18.18 0 0 0 0-.33zm-6.02 3.08l-.28-.11a.25.25 0 0 0-.12.35.36.36 0 0 0 .43.09.17.17 0 0 0 0-.32zm18.25-1.89c-.08.14.14.28.34.28s.4-.08.6-.09a.85.85 0 0 1 .57.15c.09.06.16.15.13.24a.43.43 0 0 1-.15.15 2.49 2.49 0 0 1-1 .45 1.25 1.25 0 0 1-1.06-.3.47.47 0 0 1 0-.6.83.83 0 0 1 .68-.31zm-204.38-138.31a.34.34 0 0 0 .44-.2v-.46a.54.54 0 0 1 .3-.4.45.45 0 0 1 .34 0 .37.37 0 0 1 .17.13 1.4 1.4 0 0 1 .38.84.77.77 0 0 1-.58.73 1 1 0 0 1-.79-.09.55.55 0 0 1-.27-.57zm-7.07 63.72a.34.34 0 0 0 .44-.2v-.46a.52.52 0 0 1 .3-.4.45.45 0 0 1 .34-.05.58.58 0 0 1 .17.14 1.38 1.38 0 0 1 .38.84.78.78 0 0 1-.58.73 1 1 0 0 1-.79-.09.55.55 0 0 1-.27-.57zm226.19 56.93c-.09.14.14.28.34.28s.39-.08.6-.09a.86.86 0 0 1 .57.15.22.22 0 0 1 .12.24.33.33 0 0 1-.14.15 2.47 2.47 0 0 1-1 .45 1.24 1.24 0 0 1-1-.3.48.48 0 0 1 0-.6.87.87 0 0 1 .69-.31zm-11.28 14.51a.3.3 0 0 0-.09-.5.83.83 0 0 0-.71-.05c-.1 0-.21.1-.18.18s.09.09.16.12l.83.32zm37.22 68.51a3.07 3.07 0 0 0 1.79-.49c.08-.06.16-.13.16-.21s-.35-.23-.58-.29c-.4-.11-.63-.45-1-.55a2 2 0 0 0-1 .1c-.47.13-1 .4-.9.77.07.18.32.3.56.38a5.91 5.91 0 0 0 1.58.31zm-13.84-66.28c.36.13.69-.21.82-.49s.17-.38 0-.54-.6-.16-.92-.09l-.84.18c-.12 0-.26.07-.31.16s0 .17 0 .24a3.17 3.17 0 0 0 1 1.06zm-7.71 7.77c3 1.42 4.86-1.36 2.76-3s-5.35 1.77-2.76 3zm-19.82.08a1 1 0 0 1-1.26-.25 2.41 2.41 0 0 1 1.09-.34c.39 0 .82.25.74.55l-.54.33zm81.29-17.75c.21-.12.06-.24-.2-.24a4.2 4.2 0 0 0-.89.14l-2 .48a2.34 2.34 0 0 0-.94.37c-.11.14.11.24.39.24a4.79 4.79 0 0 0 1-.11 6.33 6.33 0 0 0 2.8-1h-.56zm-92.94 12.92c.08.07 0 .18-.07.23a.63.63 0 0 1-.34 0 .77.77 0 0 1-.26-.07.27.27 0 0 1-.13-.38.56.56 0 0 1 .45-.22.41.41 0 0 1 .25.06.12.12 0 0 1 0 .19zm8.71-3.71l-.05-.24a.82.82 0 0 0-.47.1.16.16 0 0 0 .07.3.58.58 0 0 0 .19 0l.55-.18zm3.01-14.32a1.2 1.2 0 0 0 .09-.59.58.58 0 0 0-.49-.43.71.71 0 0 0-.38.05.51.51 0 0 0-.29.77.93.93 0 0 0 1.05.18zm20.2 7.1c.17.26-.19.61-.56.55a1 1 0 0 1-.32-.41 1.13 1.13 0 0 1 .66-.11zm-20.74 21.3l-.18-.38a1 1 0 0 0-.39.09c0 .2.23.39.49.39zM977 448.93a13.71 13.71 0 0 0-4.8-2.09 2.68 2.68 0 0 0-.89-.1 1.7 1.7 0 0 0-1.25.83 2.26 2.26 0 0 0 .84 3 5.53 5.53 0 0 0 4 .79 3.22 3.22 0 0 0 1.93-.91 1 1 0 0 0-.21-1.61c-.25 0-.36.3-.19.44zm48.37 23.29a4 4 0 0 0-3-.38 2.12 2.12 0 0 0 .83 2.23 2.48 2.48 0 0 0 2.84 0c.66-.63 0-1.8-1.07-1.72zm-14.37-4.86a2.06 2.06 0 0 0-1.41-.21 1.09 1.09 0 0 0 .21.48.65.65 0 0 0 .57.2c.3-.05.42-.31.5-.53l.13.16zm-2.8 1.64a.81.81 0 0 0-.41 0 .62.62 0 0 0-.25.23 4.44 4.44 0 0 1-.61.7l1.8-.27h.15c.16 0 .19.2.31.29a.74.74 0 0 0 .69 0c1.47-.73-.88-.8-1.68-.95zm8.27.28a1 1 0 0 1 .45 0 1.41 1.41 0 0 1-1 .4c-.21 0-.48 0-.59-.1s0-.22-.06-.33-.37-.45-.2-.64a.44.44 0 0 1 .46-.06 1 1 0 0 1 .36.26l.67.68zm1.71 4.24c-.27-.11-.56.22-.42.43a1.27 1.27 0 0 0 .78.36.7.7 0 0 0-.25-.9zm31.36 5.48a1.35 1.35 0 0 0-.45 0c-.15 0-.3.1-.32.21s.23.33.3.51-.07.41.08.56a.53.53 0 0 0 .65 0 .67.67 0 0 0 .16-.54.7.7 0 0 0-.14-.48.54.54 0 0 0-.58-.16zm-37.82-6.71a.18.18 0 0 1 0 .3.7.7 0 0 1-.39.13.66.66 0 0 1-.25 0 .25.25 0 0 1-.14-.39.48.48 0 0 1 .52-.08.29.29 0 0 1 .15.4zm-6.19 15.22a.17.17 0 0 1 0 .29.62.62 0 0 1-.39.14.72.72 0 0 1-.25 0 .25.25 0 0 1-.14-.39.5.5 0 0 1 .53-.08.28.28 0 0 1 .14.4zm6.41-16.7c.11-.22-.23-.48-.53-.4a.5.5 0 0 0 0 .36.4.4 0 0 0 .38.19c.16 0 .27-.18.17-.28zm1.5-5.17a1.37 1.37 0 0 0-.94-.41v.7a.49.49 0 0 0 .09.31.61.61 0 0 0 .74 0 .44.44 0 0 0 .08-.6zm1.22 9.1a.37.37 0 0 1 .2.43.53.53 0 0 1-.45.32c-.14 0-.33-.05-.33-.16a.21.21 0 0 1 .07-.13l.44-.52.1.07zm-4.53 1.81c0 .21.34.3.61.35s.57.1.66.29a.13.13 0 0 1 0 .16c-.11.12-.34 0-.53 0a2.27 2.27 0 0 0-.45 0 1 1 0 0 1-.87-.4.41.41 0 0 1 .32-.33.65.65 0 0 1 .53.09z"/><path d="M1008.18 478l-.2.18a.42.42 0 0 0 .42.16c.17 0 .28-.18.21-.3a.32.32 0 0 0-.42-.07zm2.88 5l-.2.18a.42.42 0 0 0 .42.16c.17 0 .28-.19.21-.3a.32.32 0 0 0-.42-.07zm.94-13.9a.34.34 0 0 0 .44-.2v-.46a.52.52 0 0 1 .3-.4.45.45 0 0 1 .34-.05.58.58 0 0 1 .17.14 1.4 1.4 0 0 1 .38.84.78.78 0 0 1-.58.73 1 1 0 0 1-.79-.09.55.55 0 0 1-.27-.57zm-3.42-3.16a.62.62 0 0 0-.68 0 .47.47 0 0 0-.2.52c0 .08.1.18.21.17a.25.25 0 0 0 .18-.1l.58-.55zm12.31 4.97c.26.33 0 .84-.56.89a1.24 1.24 0 0 1-.24-.87.72.72 0 0 1 .86-.45l.33.46zm-8.45 7.75a.23.23 0 0 1 .28.09.3.3 0 0 1 0 .26.4.4 0 0 1-.14.18.53.53 0 0 1-.52 0 .38.38 0 0 1-.2-.38.25.25 0 0 1 .12-.17.23.23 0 0 1 .25 0zm-3.2-7.17h-.32a.4.4 0 0 0 0 .37c.09.11.35.12.41 0s0-.09 0-.14l-.14-.44zm44.57-42.49a4 4 0 0 0-3-.38 2.12 2.12 0 0 0 .83 2.23 2.49 2.49 0 0 0 2.85 0c.65-.63 0-1.8-1.07-1.72zm-19.59 23.85a.81.81 0 0 0-.41 0 .56.56 0 0 0-.25.23 4.94 4.94 0 0 1-.61.69l1.8-.26a.34.34 0 0 1 .14 0c.17 0 .2.2.32.29a.72.72 0 0 0 .68 0c1.48-.8-.89-.8-1.67-.95zm9.98 4.48c-.28-.11-.56.22-.42.43a1.21 1.21 0 0 0 .77.35.69.69 0 0 0-.24-.9zm-6.46-1.23a.17.17 0 0 1 0 .29.61.61 0 0 1-.38.14 1.09 1.09 0 0 1-.26 0 .25.25 0 0 1-.14-.39.48.48 0 0 1 .53-.08.27.27 0 0 1 .14.39zm-6.19 15.22a.17.17 0 0 1 0 .29.56.56 0 0 1-.39.13.71.71 0 0 1-.25 0 .25.25 0 0 1-.14-.39.46.46 0 0 1 .53-.08.27.27 0 0 1 .14.39zm6.45-16.71c.11-.22-.23-.48-.53-.4a.48.48 0 0 0 0 .37.41.41 0 0 0 .38.19c.16 0 .27-.18.17-.28zm2.68 3.93a.39.39 0 0 1 .2.44.52.52 0 0 1-.45.31c-.15 0-.34 0-.33-.15a.22.22 0 0 1 .06-.13l.44-.52.11.07zm-4.53 1.82c0 .2.34.3.6.34s.58.11.67.3a.14.14 0 0 1 0 .16c-.11.12-.35 0-.53 0a3.4 3.4 0 0 0-.45 0 1 1 0 0 1-.88-.39.41.41 0 0 1 .33-.33.65.65 0 0 1 .53.09zm-1.96 1.41l-.19.18a.42.42 0 0 0 .42.16c.17 0 .28-.19.21-.31a.32.32 0 0 0-.42-.06zm2.88 5.05l-.19.18a.42.42 0 0 0 .42.16c.17 0 .28-.19.21-.31a.31.31 0 0 0-.42-.06zm.93-13.91a.34.34 0 0 0 .44-.21 3.39 3.39 0 0 0 0-.45.56.56 0 0 1 .31-.4.45.45 0 0 1 .34-.05.36.36 0 0 1 .16.14 1.39 1.39 0 0 1 .39.84.78.78 0 0 1-.58.73 1 1 0 0 1-.79-.09.55.55 0 0 1-.27-.57zm.46 9.56a.23.23 0 0 1 .28.09.3.3 0 0 1 0 .26.55.55 0 0 1-.13.18.51.51 0 0 1-.52 0 .35.35 0 0 1-.2-.37.25.25 0 0 1 .12-.18.23.23 0 0 1 .25 0zm-3.2-7.17h-.32a.4.4 0 0 0 0 .37c.09.1.35.12.4 0a.17.17 0 0 0 0-.14l-.13-.44zm4.34-45.08a4 4 0 0 0-3-.38 2.14 2.14 0 0 0 .84 2.23 2.48 2.48 0 0 0 2.84 0c.66-.63 0-1.8-1.07-1.72zm-17.17-3.22a.81.81 0 0 0-.41 0 .56.56 0 0 0-.25.23 4.43 4.43 0 0 1-.61.69l1.8-.26a.38.38 0 0 1 .15 0c.16 0 .19.2.31.29a.74.74 0 0 0 .69 0c1.47-.73-.93-.8-1.68-.95zm64.67-3.75c-.28-.11-.56.22-.42.43a1.22 1.22 0 0 0 .77.36.69.69 0 0 0-.24-.9zm-61.1 7.04a.17.17 0 0 1 0 .29.61.61 0 0 1-.38.14.74.74 0 0 1-.26 0 .25.25 0 0 1-.14-.39.48.48 0 0 1 .53-.08.28.28 0 0 1 .15.39zm-6.24 15.22a.17.17 0 0 1 0 .29.62.62 0 0 1-.39.14 1.07 1.07 0 0 1-.25 0 .25.25 0 0 1-.14-.39.48.48 0 0 1 .53-.08.27.27 0 0 1 .14.39zm6.41-16.7c.11-.23-.23-.49-.53-.4a.45.45 0 0 0 0 .36.42.42 0 0 0 .38.19c.16 0 .27-.18.17-.28zm2.72 3.93a.37.37 0 0 1 .2.43.52.52 0 0 1-.45.31c-.15 0-.33 0-.33-.15a.22.22 0 0 1 .06-.13l.45-.52.1.07zm-4.53 1.81c0 .21.34.3.61.35s.57.1.66.29a.14.14 0 0 1 0 .16c-.11.12-.34 0-.53 0a3.4 3.4 0 0 0-.45 0 1 1 0 0 1-.88-.39.43.43 0 0 1 .33-.33.65.65 0 0 1 .53.09zm-1.96 1.45l-.19.18a.42.42 0 0 0 .42.16c.17 0 .28-.19.21-.31a.33.33 0 0 0-.42-.06zm2.89 5l-.2.18a.42.42 0 0 0 .42.16c.17 0 .28-.19.21-.31a.32.32 0 0 0-.42-.06zm62.89-10.07a.34.34 0 0 0 .44-.2v-.46a.54.54 0 0 1 .3-.4.45.45 0 0 1 .34-.05.47.47 0 0 1 .17.14 1.38 1.38 0 0 1 .38.84.78.78 0 0 1-.58.73 1 1 0 0 1-.79-.09.55.55 0 0 1-.27-.57zm-61.51 5.73a.23.23 0 0 1 .28.09.3.3 0 0 1 0 .26.44.44 0 0 1-.13.18.53.53 0 0 1-.52 0 .39.39 0 0 1-.2-.38.25.25 0 0 1 .12-.18.23.23 0 0 1 .25 0zm-3.2-7.17h-.32a.4.4 0 0 0 0 .37c.09.11.35.12.4 0a.22.22 0 0 0 0-.14l-.14-.44zm-14.72 53.14a2.42 2.42 0 0 0-.75-.18.72.72 0 0 0-.65.28.33.33 0 0 0 0 .29.84.84 0 0 0 1 .36.54.54 0 0 0 .42-.74zm19.25 9.67l-.54.06a.55.55 0 0 0 0 .31.51.51 0 0 0 .59-.3zm147.68 20.7a13.46 13.46 0 0 0-4.8-2.09 2.59 2.59 0 0 0-.88-.1 1.7 1.7 0 0 0-1.26.83 2.26 2.26 0 0 0 .85 3 5.5 5.5 0 0 0 4 .79 3.27 3.27 0 0 0 1.94-.91 1 1 0 0 0-.22-1.61c-.24 0-.36.3-.18.44zm-91.29-54.66a4 4 0 0 0-3-.39 2.13 2.13 0 0 0 .83 2.24 2.51 2.51 0 0 0 2.84 0c.66-.64 0-1.8-1.07-1.73zm-14.39-4.87a2 2 0 0 0-1.41-.2 1.1 1.1 0 0 0 .21.47.68.68 0 0 0 .57.21.72.72 0 0 0 .5-.54l.13.17z"/><path d="M1067.22 435.16a1 1 0 0 0-.41 0 .64.64 0 0 0-.25.24 4.87 4.87 0 0 1-.61.69l1.8-.27h.15c.16 0 .19.19.31.28a.71.71 0 0 0 .69 0c1.47-.77-.9-.83-1.68-.94zm-7.09-7.16h-.54a.78.78 0 0 0 .7.54c.36 0 .7-.3.51-.53s-.37-.33-.18-.41zm15.36 7.4a1 1 0 0 1 .45 0 1.41 1.41 0 0 1-1 .41c-.21 0-.48 0-.59-.11s0-.22-.06-.33-.37-.45-.2-.64a.46.46 0 0 1 .46-.06 1 1 0 0 1 .36.27l.67.67zm1.71 4.24c-.28-.11-.56.21-.42.42a1.22 1.22 0 0 0 .77.36.69.69 0 0 0-.24-.9zm-6.46-1.24a.18.18 0 0 1 0 .3.63.63 0 0 1-.39.13.74.74 0 0 1-.26 0 .25.25 0 0 1-.14-.38.48.48 0 0 1 .53-.09.29.29 0 0 1 .15.4zm.26-1.48c.11-.22-.23-.48-.53-.4a.5.5 0 0 0 0 .36.39.39 0 0 0 .38.19c.16 0 .27-.18.17-.28zm-8.3-14.71c.11-.22-.24-.48-.53-.4a.41.41 0 0 0 0 .36.39.39 0 0 0 .37.19c.16 0 .27-.18.17-.28zm9.76 9.54a1.37 1.37 0 0 0-.94-.41v.7a.54.54 0 0 0 .09.32.61.61 0 0 0 .74 0 .43.43 0 0 0 .08-.59z"/><path d="M1073.68 440.85a.38.38 0 0 1 .2.44.56.56 0 0 1-.45.31c-.15 0-.33 0-.33-.15a.19.19 0 0 1 .07-.13l.44-.53.1.07zm-.85 3.15c-.2.13-.14.38 0 .57s.21.42 0 .58a.23.23 0 0 1-.18.08c-.19 0-.22-.2-.3-.33a1.84 1.84 0 0 0-.29-.26.56.56 0 0 1 0-.77.6.6 0 0 1 .54 0 .34.34 0 0 1 .2.39zm-2.63-.44h-.31a.24.24 0 0 0 .06.36.39.39 0 0 0 .45 0 .2.2 0 0 0-.16-.3zm-3.94 4.63h-.31a.24.24 0 0 0 .06.36.39.39 0 0 0 .45 0c.09-.11 0-.28-.17-.3zm4.74-12.98a.34.34 0 0 0 .44-.2v-.46a.52.52 0 0 1 .3-.4.45.45 0 0 1 .34 0 .43.43 0 0 1 .17.13 1.4 1.4 0 0 1 .38.85.78.78 0 0 1-.58.73 1.08 1.08 0 0 1-.79-.1.54.54 0 0 1-.27-.56zm39.4-11.7a.6.6 0 0 0-.68 0 .46.46 0 0 0-.2.52.24.24 0 0 0 .21.17.32.32 0 0 0 .18-.1l.58-.55zM1079.91 437c.26.33-.05.84-.56.89a1.18 1.18 0 0 1-.24-.87.73.73 0 0 1 .86-.45l.33.47zm-8.1 9.63a.14.14 0 0 1 0 .23.52.52 0 0 1-.29.13.88.88 0 0 1-.28 0 .34.34 0 0 1-.31-.31.43.43 0 0 1 .29-.34.5.5 0 0 1 .27 0c.08 0 .15.1.12.16zm-3.55-9.03h-.32a.38.38 0 0 0 0 .36c.09.11.35.13.41 0a.22.22 0 0 0 0-.14l-.14-.45zm-.49-8.86a2.74 2.74 0 0 0-.75-.18.74.74 0 0 0-.65.28.35.35 0 0 0 0 .3.85.85 0 0 0 1 .35.54.54 0 0 0 .42-.74zm19.23 9.67l-.53.06a.55.55 0 0 0 0 .31.52.52 0 0 0 .59-.29zm-13.32 12.3a4 4 0 0 0-3-.39 2.14 2.14 0 0 0 .84 2.23 2.5 2.5 0 0 0 2.84 0c.66-.64 0-1.81-1.07-1.73zm-68.12-28.89a.94.94 0 0 1 .44 0 1.38 1.38 0 0 1-1 .4c-.22 0-.48 0-.59-.1s0-.22-.07-.34-.36-.44-.2-.63a.44.44 0 0 1 .46-.06 1 1 0 0 1 .37.26l.66.68zm39.72 13.02c-.28-.11-.56.22-.42.43a1.21 1.21 0 0 0 .77.35.69.69 0 0 0-.24-.9zm14.72 15.93a.18.18 0 0 1 0 .3.64.64 0 0 1-.38.13.74.74 0 0 1-.26 0 .25.25 0 0 1-.14-.39.5.5 0 0 1 .53-.08.29.29 0 0 1 .15.4zm3 2.45a.37.37 0 0 1 .2.43.55.55 0 0 1-.45.32c-.15 0-.33 0-.33-.16a.21.21 0 0 1 .07-.13l.44-.52.1.07zm54.36-8.17c-.21.14-.14.39 0 .58s.21.41 0 .58a.3.3 0 0 1-.19.08c-.19 0-.22-.2-.3-.33s-.19-.18-.28-.27a.55.55 0 0 1 0-.77.68.68 0 0 1 .54 0 .35.35 0 0 1 .2.39zm-57.87 10.88h-.31a.23.23 0 0 0 .06.35.39.39 0 0 0 .45 0c.09-.11 0-.28-.17-.3zm-3.94 4.62h-.31a.24.24 0 0 0 .06.36.39.39 0 0 0 .45 0c.09-.11 0-.28-.17-.3zm13.65-11.16c.26.33 0 .84-.56.89a1.19 1.19 0 0 1-.24-.87.73.73 0 0 1 .86-.45l.33.46zm-8.11 9.61a.14.14 0 0 1 .06.23.52.52 0 0 1-.29.13.88.88 0 0 1-.28 0 .33.33 0 0 1-.31-.31.41.41 0 0 1 .29-.34.49.49 0 0 1 .27 0c.08 0 .15.1.12.16zm15.22-8.22l-.53.06a.48.48 0 0 0 0 .31.51.51 0 0 0 .59-.3zm-24.31.61l-.54.06a.67.67 0 0 0 0 .31.54.54 0 0 0 .6-.3zm295.64 115.85a1.15 1.15 0 0 1 .1 1.38.32.32 0 0 1-.15.13.51.51 0 0 1-.34 0c-.62-.25-1.34-.63-1.24-1.16s.93-.7 1.4-.41v.44zm-275.39-15.88a9.21 9.21 0 0 0-2.92-3.56 2.19 2.19 0 0 0-.72-.4 2.17 2.17 0 0 0-1.63.28 2.33 2.33 0 0 0-1.1 2.91 4.16 4.16 0 0 0 3 2.11 3.92 3.92 0 0 0 2.28-.11c.68-.29 1.11-1 .81-1.5-.23-.06-.5.14-.43.32zm-3.37 5.73a3.17 3.17 0 0 0-2.43-1.42 2.08 2.08 0 0 0-.66 2.26 2.2 2.2 0 0 0 2.53 1 1 1 0 0 0 .14-1.91zm8.22-9.38a3.69 3.69 0 0 0-.92-.43.19.19 0 0 0-.13 0 .16.16 0 0 0-.09.07c-.17.25.11.64-.19.8 0 0-.13.06-.15.1s.09.15.2.17c.57.1 1.19-.3 1.15-.75l.11.09zm4.47-8.31a7.62 7.62 0 0 0-1.73-.81.4.4 0 0 0-.24 0 .27.27 0 0 0-.19.13c-.32.48.22 1.2-.35 1.52-.1.06-.23.09-.28.18s.17.28.37.32c1.08.19 2.26-.57 2.17-1.41l.22.17zm-22.31 8.27a1.64 1.64 0 0 0-1.11-.69 1 1 0 0 0-.11.5.45.45 0 0 0 .37.38 1 1 0 0 0 .78-.29v.19zm3.97-21.4a.92.92 0 0 0-.37-.14.85.85 0 0 0-.37.12 7 7 0 0 1-1 .39l1.76.41a.35.35 0 0 1 .13.05c.13.08 0 .24.1.36s.38.23.63.21c1.79-.12-.3-1.03-.88-1.4zm13.62-1.44c.27.33-.08.82-.58.84s-.92-.44-.7-.79a.92.92 0 0 1 1.25-.09zm-5.25 15.66c.4 0 .91.13.94.43s-.43.45-.8.53a.63.63 0 0 1-.47 0c-.29-.21.35-.6.13-.85 0-.08.25 0 .22.06z"/><path d="M1062.88 551.32a.88.88 0 0 1 .39.15 1.62 1.62 0 0 1-1.11 0c-.21-.05-.45-.14-.46-.3s.11-.21.15-.32 0-.52.23-.63a.42.42 0 0 1 .44.11.64.64 0 0 1 .15.36l.17.83zm-1.15 4.34c-.17-.19-.63 0-.64.23s.24.43.46.59a.71.71 0 0 0 .35-.88zm24.19 16.07a1 1 0 0 0-.37-.19.46.46 0 0 0-.42.07c-.16.14 0 .37-.05.55s-.31.34-.28.52.36.27.59.2a1 1 0 0 0 .49-.42.74.74 0 0 0 .17-.48.42.42 0 0 0-.4-.34zm-44.08-8.26c.06.1 0 .23-.16.27a.61.61 0 0 1-.42 0 .48.48 0 0 1-.21-.12c-.12-.12 0-.31.12-.39a.49.49 0 0 1 .52.12.28.28 0 0 1-.12.4zm16.09-12.47c.23-.15.09-.51-.22-.54a.55.55 0 0 0-.23.32.28.28 0 0 0 .21.3c.15 0 .35-.07.32-.19zm1.92-15.88c.23-.15.09-.5-.22-.54a.56.56 0 0 0-.24.32.28.28 0 0 0 .21.3c.16 0 .36-.06.33-.18zm2.63 11.88a.94.94 0 0 0-.58-.69l-.41.62a.55.55 0 0 0-.12.31c0 .21.36.36.63.29a.53.53 0 0 0 .44-.49zm58.15-10.9l1.54.47c0 .21-.39.26-.67.23a1.69 1.69 0 0 1-.79-.22.32.32 0 0 1 0-.56zm-10.83.35c.11-.3-.39-.58-.77-.48a.63.63 0 0 0-.48.76.53.53 0 0 0 .28.33.77.77 0 0 0 .73-.13 1.26 1.26 0 0 0 .35-.54zm-40.52 3.67a.65.65 0 0 0-.41-.74.84.84 0 0 0-.42.51.56.56 0 0 0 .43.67c.35.08.75-.25.55-.47zm1.18 2.79a.36.36 0 0 1-.08.53l-.78-.24c0-.29.43-.54.8-.46zm5.54 5h.34a1.56 1.56 0 0 1-.5.45.78.78 0 0 1-.73 0 .26.26 0 0 1 .1-.47 1.71 1.71 0 0 1 .78 0zm-18.13 7.57a.34.34 0 0 1-.1.45.71.71 0 0 1-.59.12c-.14 0-.27-.16-.2-.26a.48.48 0 0 1 .14-.09l.72-.3.05.1zm-5.13-.02c-.1.19.12.39.32.52s.44.29.4.5a.16.16 0 0 1-.11.13c-.17.07-.32-.1-.47-.18a2.83 2.83 0 0 0-.41-.14.7.7 0 0 1-.53-.66.6.6 0 0 1 .5-.17.48.48 0 0 1 .41.27zm-2.6.54l-.29.09a.31.31 0 0 0 .28.29c.16 0 .35-.06.37-.19s-.17-.25-.33-.21zm-.62 5.48l-.28.09a.3.3 0 0 0 .27.29c.16 0 .36-.06.37-.19s-.17-.25-.33-.21zm9.54-11.92c.09.14.38.1.51 0s.17-.28.28-.41a.77.77 0 0 1 .51-.24.44.44 0 0 1 .33.08.23.23 0 0 1 .06.18 1.26 1.26 0 0 1-.19.88 1.07 1.07 0 0 1-1 .43.81.81 0 0 1-.63-.36.51.51 0 0 1 .11-.6zm-8.88-19.77c.09.14.39.1.51 0s.17-.28.28-.41a.75.75 0 0 1 .52-.24.38.38 0 0 1 .33.08.35.35 0 0 1 .06.17 1.33 1.33 0 0 1-.19.89 1.12 1.12 0 0 1-1 .43.78.78 0 0 1-.63-.36.49.49 0 0 1 .11-.6zm7.82 15.76c0-.19-.33-.31-.58-.27a.63.63 0 0 0-.5.39.16.16 0 0 0 .08.22.28.28 0 0 0 .22 0l.85-.28zm93.85 21.26a1.65 1.65 0 0 0 .62-1.36.25.25 0 0 0-.11-.23c-.19-.12-.45.06-.66.16-.37.17-.86.09-1.22.26a1.16 1.16 0 0 0-.54.66c-.16.36-.24.87.22 1a1.21 1.21 0 0 0 .75-.08 5.41 5.41 0 0 0 1.32-.73zM1075 533.22c.36-.13.21-.54 0-.79a.8.8 0 0 0-.53-.36.75.75 0 0 0-.68.48l-.33.61c0 .09-.1.19 0 .28a.49.49 0 0 0 .28.13 5.44 5.44 0 0 0 1.71.09zm3.15 9.42c3.34-.86 1.66-3.71-1.34-3.51s-1.57 4.25 1.34 3.51zm62.11-20.64c3.34-.85 1.66-3.71-1.34-3.5-3.15.17-1.56 4.21 1.34 3.5zm-74.51 32.33c0 .39-.57.72-1 .58a1.25 1.25 0 0 1 .33-.85.88.88 0 0 1 1-.09v.53zm32.93-58.92c0-.2-.21-.19-.38 0a2 2 0 0 0-.41.61l-.75 1.46c-.14.28-.3.61-.21.79s.3.08.49-.08a3.19 3.19 0 0 0 .49-.64c.47-.76 1-1.73.75-2.26l-.39.31zm-45.22 62.73a.18.18 0 0 1 .19.18.36.36 0 0 1-.17.22.68.68 0 0 1-.24.12.46.46 0 0 1-.47-.17.32.32 0 0 1 .06-.4.36.36 0 0 1 .21-.11c.1 0 .2 0 .21.1zm1.66-7.46l-.28-.12a.48.48 0 0 0-.19.34.25.25 0 0 0 .35.14.18.18 0 0 0 .08-.12l.16-.44zm-12.82-10.78a1.83 1.83 0 0 0-.56-.42.84.84 0 0 0-.74 0 .38.38 0 0 0-.19.26c-.08.29.22.61.62.65a.73.73 0 0 0 .83-.5zm20.01-7.39c.37.06.51.49.21.67a1.85 1.85 0 0 1-.62-.07.68.68 0 0 1 .3-.46zm8.84 25.59l-.51-.14a.62.62 0 0 0-.15.29.63.63 0 0 0 .71 0zm7.35-63.82a16.1 16.1 0 0 0 5.54 0 2.76 2.76 0 0 0 .83-.24 1.15 1.15 0 0 0 .55-1.19 3.09 3.09 0 0 0-2.66-2.26 5.45 5.45 0 0 0-4 .79 2.17 2.17 0 0 0-1.1 1.51 1.35 1.35 0 0 0 1.24 1.32.25.25 0 0 0-.12-.45zm-4.61-5.22a3.73 3.73 0 0 0 2.88-.79 3 3 0 0 0-2.17-1.63c-1-.19-2.29.29-2.45 1.09s1.17 1.56 2 1.1zm6.11 10.27a4.5 4.5 0 0 0 1-.36s.08 0 .09-.07a.1.1 0 0 0 0-.1c-.19-.25-.77-.27-.8-.55v-.15c0-.04-.21 0-.29 0a.65.65 0 0 0 .22 1.13h-.16zm6.89 7.29a8.3 8.3 0 0 0 1.83-.67.4.4 0 0 0 .17-.14c0-.06 0-.13-.05-.19-.36-.46-1.47-.5-1.51-1 0-.1 0-.21-.06-.28s-.4-.05-.55.07a1.22 1.22 0 0 0 .41 2.14h-.3zm2.67-18.62a2 2 0 0 0 1.36-.35 1.41 1.41 0 0 0-.49-.33.73.73 0 0 0-.63 0c-.23.16-.17.43-.09.65l-.22-.09zm21.81 13.91a.67.67 0 0 0 .35-.16.42.42 0 0 0 .07-.29 3.29 3.29 0 0 1 .08-.83l-1.4.9a.34.34 0 0 1-.12.06c-.16 0-.3-.1-.46-.13a.59.59 0 0 0-.57.29c-.81 1.18 1.33.34 2.05.16zm-5.67 9.48c-.5 0-.87-.49-.62-.82a.91.91 0 0 1 1.25 0c.27.32-.06.82-.56.85zm-14.7-11.72c-.24.24-.63.51-1 .37s-.28-.52-.16-.8a.38.38 0 0 1 .28-.28c.39-.08.48.54.88.53.06.07-.11.18-.19.11zm-7.45-11.36a.89.89 0 0 1-.38.17c0-.29.28-.53.58-.72a.69.69 0 0 1 .58-.13c.13.06.18.18.28.27s.61.25.58.48-.19.22-.36.23a1.52 1.52 0 0 1-.48-.1l-1-.34zm-4.25-3.06c.31 0 .35-.39.09-.53a1.56 1.56 0 0 0-.91 0 1 1 0 0 0 .8.7z"/><path d="M1081.2 468.37a.22.22 0 0 1-.22-.24.42.42 0 0 1 .25-.26.48.48 0 0 1 .24-.07c.2 0 .38.13.37.28a.37.37 0 0 1-.4.27.4.4 0 0 1-.39-.29zm5.3 16.93c0 .23.52.33.72.15a.55.55 0 0 0-.23-.32.46.46 0 0 0-.44 0 .17.17 0 0 0 0 .31zm16.78 9.7c0 .23.52.33.72.15a.55.55 0 0 0-.23-.32.48.48 0 0 0-.45 0 .16.16 0 0 0 0 .3zm-14.71-4.65a1.54 1.54 0 0 0 1.08 0l-.47-.59a.68.68 0 0 0-.29-.24.52.52 0 0 0-.66.24c-.08.2.08.43.31.55zm4.08 8.03a1.21 1.21 0 0 0 1 .14.78.78 0 0 0-.35-.54.92.92 0 0 0-1-.08.33.33 0 0 0 .23.59zm-3.75-.73a.57.57 0 0 1-.55-.34l.69-.37a.43.43 0 0 1 .08.76zm-8.54.85l-.23.2a1.18 1.18 0 0 1-.23-.56.47.47 0 0 1 .39-.47c.25-.05.55.13.47.32a1 1 0 0 1-.43.49zm1.21-15.61a.55.55 0 0 1-.46-.31.38.38 0 0 1 .19-.44c.12-.07.32-.09.39 0a.22.22 0 0 1 0 .14v.62h-.14zm2.76-3.27c-.16-.16-.49-.13-.75-.07a1.07 1.07 0 0 1-.77 0c-.06 0-.1-.09-.09-.15s.28-.15.46-.2a2.58 2.58 0 0 0 .37-.19 1.12 1.12 0 0 1 1 0 .31.31 0 0 1-.06.41.61.61 0 0 1-.53.11zm.79-1.95c0-.08 0-.16.05-.23a.46.46 0 0 0-.47 0 .2.2 0 0 0 0 .34c.13.08.37 0 .4-.1zm-5.8-3.32v-.24a.49.49 0 0 0-.47 0 .21.21 0 0 0 0 .35c.13.07.37 0 .41-.1zm8.23 12.46a.25.25 0 0 0-.25.34c.07.14.23.25.31.39a.43.43 0 0 1 0 .46.37.37 0 0 1-.27.17.6.6 0 0 1-.23-.06 2 2 0 0 1-.88-.59.61.61 0 0 1 0-.85.9.9 0 0 1 .74-.21.75.75 0 0 1 .61.39zm26.86 4.89a.24.24 0 0 0-.25.34c.06.14.22.25.31.39a.45.45 0 0 1 0 .46.35.35 0 0 1-.26.17.56.56 0 0 1-.23-.06 2 2 0 0 1-.89-.59.62.62 0 0 1 0-.85.92.92 0 0 1 .75-.21.75.75 0 0 1 .6.39zm-21.81-3.42a.55.55 0 0 0 .61-.23.45.45 0 0 0-.17-.53.28.28 0 0 0-.29-.06.19.19 0 0 0-.09.15l-.15.69zm-22.39 27.18a.55.55 0 0 0 .61-.23.44.44 0 0 0-.17-.52.27.27 0 0 0-.29-.07.19.19 0 0 0-.09.15l-.15.7zm27.1-9.72c-.06.29.48.42.87.43a1 1 0 0 0 .69-.15c.2-.2 0-.49-.18-.69l-.5-.54a.44.44 0 0 0-.29-.18.55.55 0 0 0-.3.11 3.22 3.22 0 0 0-1 1z"/><path d="M1085.1 502.71c-.83 2.59 3.26 3 4.64 1s-3.92-3.26-4.64-1zm44.3 41.18c-.83 2.59 3.26 3 4.64 1s-3.92-3.26-4.64-1zm-50.75-55.35a.54.54 0 0 1-.09-1 1.9 1.9 0 0 1 .77.67.52.52 0 0 1-.45.71l-.59-.28zm2.35-9.89a.25.25 0 0 1-.3 0 .38.38 0 0 1-.16-.23.3.3 0 0 1 0-.21.42.42 0 0 1 .43-.21.51.51 0 0 1 .42.25.18.18 0 0 1 0 .2.21.21 0 0 1-.22.08zm7.4 5.04l.29-.11a.52.52 0 0 0-.28-.3c-.15-.06-.38 0-.35.14a.23.23 0 0 0 .1.12l.41.34zm18.91-2.43a2.76 2.76 0 0 0 .77-.13c.23-.1.42-.29.39-.49a.42.42 0 0 0-.19-.25 1 1 0 0 0-1.07 0 .48.48 0 0 0 .12.8zm-2.42 16.74c-.27.2-.82.06-.87-.23a1.31 1.31 0 0 1 .41-.36.73.73 0 0 1 .36.44zm-33.34-8l.42-.25a.71.71 0 0 0-.24-.25c-.25.06-.41.29-.32.48zm-24.74-19.24a15 15 0 0 0 5.27-1.29 2 2 0 0 0 .68-.43 1 1 0 0 0 0-1.26 3.92 3.92 0 0 0-3.48-1.51 4.71 4.71 0 0 0-3.42 1.7 1.82 1.82 0 0 0-.41 1.7 1.71 1.71 0 0 0 1.73 1c.14-.16 0-.41-.3-.4zm-6.56-3.84a3.12 3.12 0 0 0 2.4-1.44 3.81 3.81 0 0 0-2.75-1c-1.06.07-2 .83-1.86 1.63a1.63 1.63 0 0 0 2.41.55zm10.09 8.28a3.75 3.75 0 0 0 .77-.57s.06-.06.06-.09 0-.07-.07-.09c-.28-.19-.85-.07-1-.33 0-.05 0-.1-.09-.13s-.21 0-.26.1c-.27.4.1 1 .68 1l-.14.06zm9.6 5.26a6.43 6.43 0 0 0 1.46-1.08c0-.05.1-.1.1-.16a.22.22 0 0 0-.13-.17c-.53-.35-1.6-.13-1.87-.62 0-.09-.06-.2-.17-.25s-.39.05-.49.19c-.5.75.2 1.8 1.29 1.93l-.27.12zm-5.29-18.35a1.64 1.64 0 0 0 1.14-.65 1.82 1.82 0 0 0-.61-.2.66.66 0 0 0-.58.18c-.15.2 0 .45.19.64h-.25zm26.53 8.02a.59.59 0 0 0 .27-.24.35.35 0 0 0-.06-.29 4.28 4.28 0 0 1-.27-.81l-.94 1.19a.39.39 0 0 1-.1.08c-.13.08-.32 0-.49 0a.48.48 0 0 0-.42.41c-.27 1.31 1.41 0 2.01-.34zm-1.4 10.35c-.48.11-1-.26-.93-.63s.79-.57 1.18-.33a.52.52 0 0 1-.18.94zm-18.86-7.6c-.13.29-.38.64-.78.59s-.48-.42-.49-.71c0-.13 0-.28.15-.34.34-.17.68.4 1.06.29.09.06 0 .19-.13.15z"/><path d="M1049.1 463.89a.67.67 0 0 1-.29.26c-.15-.27 0-.58.25-.82a.57.57 0 0 1 .5-.26 1.41 1.41 0 0 1 .37.18c.25.12.68.1.75.32s-.08.25-.24.3a1.4 1.4 0 0 1-.5 0l-1.11-.07zm-5.31-1.89c.29-.09.16-.47-.14-.53a1.4 1.4 0 0 0-.87.2 1.19 1.19 0 0 0 1 .47zm-26.42 13.94a1.07 1.07 0 0 0 .34-.23.22.22 0 0 0 0-.32c-.15-.15-.47-.09-.7-.17s-.35-.31-.6-.33a.35.35 0 0 0-.39.39.88.88 0 0 0 .41.45 1.44 1.44 0 0 0 .58.25.55.55 0 0 0 .54-.22zm21.14-30.39a.29.29 0 0 1-.32-.18.36.36 0 0 1 .13-.31.51.51 0 0 1 .2-.12.39.39 0 0 1 .47.18c.06.14-.07.31-.27.35a.45.45 0 0 1-.48-.18zm12.12 14.78a.52.52 0 0 0 .75 0 .83.83 0 0 0-.35-.25.45.45 0 0 0-.44.09c-.09.1 0 .27.16.28zm19.99 5.2a.52.52 0 0 0 .75 0 .73.73 0 0 0-.35-.24.45.45 0 0 0-.44.08.18.18 0 0 0 .16.28zm-15.91-.9a1.51 1.51 0 0 0 1-.26l-.7-.45a1 1 0 0 0-.37-.16.45.45 0 0 0-.53.39c0 .21.26.39.53.44zm7.29 6.63a1.23 1.23 0 0 0 1.06-.11 1 1 0 0 0-.56-.43.92.92 0 0 0-1 .15c-.19.24.13.61.47.51zm-3.91.21a.66.66 0 0 1-.66-.19l.49-.52c.38.07.6.45.39.7zm-7.75 2.86l-.13.23a1.34 1.34 0 0 1-.45-.47.39.39 0 0 1 .17-.53c.21-.11.58 0 .58.19a.81.81 0 0 1-.2.56zm-5.34-15.1a.7.7 0 0 1-.57-.18.35.35 0 0 1 0-.47.31.31 0 0 1 .37-.08.18.18 0 0 1 .08.12l.22.6h-.1zm1.19-3.76a.83.83 0 0 0-.74.11 1 1 0 0 1-.73.17c-.07 0-.14-.06-.15-.11s.2-.21.35-.3a1.2 1.2 0 0 0 .27-.28 1.09 1.09 0 0 1 1-.22.31.31 0 0 1 .11.4.51.51 0 0 1-.45.24zm-.07-2.04v-.23a.41.41 0 0 0-.43.13.22.22 0 0 0 .15.32c.16 0 .37-.07.35-.2zm-6.89-1.76v-.24a.48.48 0 0 0-.44.13.22.22 0 0 0 .16.32c.16.05.36-.06.35-.19zm13.03 9.84a.22.22 0 0 0-.09.38 5.21 5.21 0 0 0 .46.3.5.5 0 0 1 .19.44.27.27 0 0 1-.19.22.65.65 0 0 1-.24 0 2.46 2.46 0 0 1-1.09-.35.65.65 0 0 1-.32-.81.76.76 0 0 1 .62-.38.92.92 0 0 1 .73.23zm27.52-1.79c-.2 0-.21.25-.09.37a3.64 3.64 0 0 0 .46.3.5.5 0 0 1 .19.44.28.28 0 0 1-.19.22.48.48 0 0 1-.24 0 2.74 2.74 0 0 1-1.09-.35.68.68 0 0 1-.33-.82.8.8 0 0 1 .62-.38.94.94 0 0 1 .74.23zm-22.11 1.98a.45.45 0 0 0 .48-.36.53.53 0 0 0-.38-.46.29.29 0 0 0-.31 0 .2.2 0 0 0 0 .17c0 .23.1.46.16.69zm11.78 15.43c.08.29.63.28 1 .19s.51-.13.59-.3-.19-.46-.46-.61l-.69-.39a.58.58 0 0 0-.36-.1.37.37 0 0 0-.23.17 2.63 2.63 0 0 0-.53 1.23zm-12.85.05c.31 2.65 4.37 2.1 4.83-.15s-5.09-2.16-4.83.15zm-12.05-11.89c-.51-.08-.8-.59-.51-.92a2.27 2.27 0 0 1 1 .45.47.47 0 0 1-.13.79l-.68-.13zm67.82 38.23c.26.05.3-.11.14-.27a2.84 2.84 0 0 0-.69-.45l-1.7-.9a2.27 2.27 0 0 0-1-.34c-.21 0-.18.2 0 .38a3.63 3.63 0 0 0 .69.51 6.2 6.2 0 0 0 2.73 1.09l-.31-.36zm-69.79-48.17c0 .09-.17.13-.28.1a.44.44 0 0 1-.24-.18.33.33 0 0 1-.09-.2c0-.14.14-.28.32-.31a.62.62 0 0 1 .5.14.23.23 0 0 1 .1.19.18.18 0 0 1-.18.13zm9.18 3.01l.23-.18a.67.67 0 0 0-.39-.22c-.17 0-.36.11-.27.22a.34.34 0 0 0 .14.09l.53.22zm16.91-6.85a2.34 2.34 0 0 0 .68-.3.44.44 0 0 0 .16-.56.6.6 0 0 0-.28-.2.9.9 0 0 0-1 .3.57.57 0 0 0 .45.74zm4.73 16.49a.64.64 0 0 1-.92 0 1.06 1.06 0 0 1 .24-.44 1 1 0 0 1 .52.33zm-12.91 21.5a.14.14 0 0 1 .06.23.52.52 0 0 1-.29.13.88.88 0 0 1-.28 0 .34.34 0 0 1-.31-.31.43.43 0 0 1 .29-.34.5.5 0 0 1 .27 0c.08 0 .15.1.12.16zm20.11 9.37a.22.22 0 0 1-.22-.24.42.42 0 0 1 .25-.26.48.48 0 0 1 .24-.07c.2 0 .38.13.37.28a.37.37 0 0 1-.4.27.39.39 0 0 1-.39-.29zm-1.88 5.98v-.23a.44.44 0 0 0-.47 0 .2.2 0 0 0 0 .34.31.31 0 0 0 .41-.1z"/><path d="M1080.58 500.63a.5.5 0 0 0 .27-.24.35.35 0 0 0-.06-.29 3.85 3.85 0 0 1-.27-.81l-.94 1.19-.09.09c-.14.07-.33 0-.5 0a.48.48 0 0 0-.42.41c-.27 1.3 1.43.02 2.01-.35zm-20.26 2.75c-.13.29-.38.64-.78.59s-.47-.42-.49-.71c0-.13 0-.28.15-.34.34-.17.68.4 1.06.29.09.06 0 .19-.13.15zM1070 496a.52.52 0 0 0 .75 0 .73.73 0 0 0-.35-.24.43.43 0 0 0-.43.08.18.18 0 0 0 .15.28zm-8.65 5.76a1.19 1.19 0 0 0 1.06-.11 1 1 0 0 0-.56-.43.92.92 0 0 0-1 .15c-.19.24.13.61.47.51zm17.83-11.54c-.19 0-.21.25-.09.38s.32.18.46.3a.47.47 0 0 1 .19.43.27.27 0 0 1-.19.22.48.48 0 0 1-.24 0 2.74 2.74 0 0 1-1.09-.35.67.67 0 0 1-.33-.82.85.85 0 0 1 .62-.38.94.94 0 0 1 .74.23zm-10.33 17.41c.08.29.63.28 1 .19s.51-.12.59-.3-.19-.46-.46-.61l-.69-.39a.57.57 0 0 0-.35-.1.4.4 0 0 0-.24.17 2.63 2.63 0 0 0-.53 1.23zm-12.85.05c.31 2.65 4.37 2.1 4.83-.15s-5.09-2.16-4.83.15zm16.8-9.21a.64.64 0 0 1-.92 0 1 1 0 0 1 .24-.43.86.86 0 0 1 .52.33zm89.85 27.01a.14.14 0 0 1 0 .23.61.61 0 0 1-.29.14.88.88 0 0 1-.28 0 .33.33 0 0 1-.31-.31.4.4 0 0 1 .29-.33.5.5 0 0 1 .27 0c.08 0 .15.1.12.17zm20.1 9.38a.23.23 0 0 1-.22-.25.42.42 0 0 1 .25-.26.84.84 0 0 1 .24-.07c.2 0 .38.14.37.29s-.2.27-.4.27a.39.39 0 0 1-.39-.3z"/><path d="M1180.87 540.83l.05-.23a.49.49 0 0 0-.47 0 .2.2 0 0 0 0 .34c.13.08.37 0 .41-.1zm1.87-4.22c.11-.06.23-.13.26-.23a.37.37 0 0 0-.06-.3 4 4 0 0 1-.27-.8l-.94 1.18a.26.26 0 0 1-.09.09c-.14.08-.33 0-.5 0a.45.45 0 0 0-.41.41c-.27 1.31 1.4.04 2.01-.35zm-20.27 2.76c-.13.29-.38.64-.78.59s-.47-.43-.49-.72a.34.34 0 0 1 .15-.34c.34-.16.68.4 1.06.3.09 0 0 .19-.13.15zm9.7-7.37a.52.52 0 0 0 .75 0 .75.75 0 0 0-.35-.25.43.43 0 0 0-.43.09.18.18 0 0 0 .15.28zm-8.67 5.75a1.2 1.2 0 0 0 1.06-.12 1 1 0 0 0-.56-.43.92.92 0 0 0-1 .16c-.18.23.13.61.47.51zm17.83-11.55a.22.22 0 0 0-.09.38 5.21 5.21 0 0 0 .46.3.5.5 0 0 1 .19.44.28.28 0 0 1-.19.22.65.65 0 0 1-.24 0 2.6 2.6 0 0 1-1.09-.35.66.66 0 0 1-.32-.81.76.76 0 0 1 .62-.38 1 1 0 0 1 .73.22zM1171 543.61c.08.3.64.28 1 .2s.51-.13.59-.31-.19-.46-.46-.61l-.69-.39a.5.5 0 0 0-.35-.09.36.36 0 0 0-.24.17 2.48 2.48 0 0 0-.52 1.23zm-12.84.05c.3 2.66 4.36 2.11 4.82-.14s-5.09-2.17-4.82.14zm16.84-9.21a.64.64 0 0 1-.92 0 1 1 0 0 1 .24-.44 1 1 0 0 1 .52.33zm-136.59-66.1l.3-.34a1 1 0 0 0-.33-.18.32.32 0 0 0-.11.53zM1139 520.82a1.92 1.92 0 0 1 1.48.8.21.21 0 0 1 0 .17c0 .09-.15.14-.26.17-.65.21-1.49.39-2 0s-.14-1 .46-1.08l.44.28zm-380.45 84.26a8.25 8.25 0 0 0 1.65-4 1.41 1.41 0 0 0 0-.68 1.57 1.57 0 0 0-1.2-.78 3.54 3.54 0 0 0-3.34 1.18 2.92 2.92 0 0 0-.25 3.11 2.51 2.51 0 0 0 1.4 1.27 1.68 1.68 0 0 0 1.86-.46.37.37 0 0 0-.55-.06zM588.81 408.09a12.82 12.82 0 0 0-4.89 1 2 2 0 0 0-.66.39 1.13 1.13 0 0 0-.13 1.26 3.26 3.26 0 0 0 3 1.71 4.27 4.27 0 0 0 3.26-1.49 2 2 0 0 0 .52-1.68 1.47 1.47 0 0 0-1.47-1.06c-.14.15 0 .41.24.42zm162.48 198.62a2.07 2.07 0 0 0-.06-2.33 3.29 3.29 0 0 0-2.49 1 1.4 1.4 0 0 0 .53 2.12c.86.37 2.12-.35 1.85-1.12zm13.43-1.08a2.25 2.25 0 0 0-.12-.81.15.15 0 0 0-.06-.09.16.16 0 0 0-.12 0c-.33.06-.53.47-.86.4h-.17c-.05 0-.09.15 0 .22a1 1 0 0 0 1.36.21v.12zM775 603a4.27 4.27 0 0 0-.23-1.54.27.27 0 0 0-.1-.16.31.31 0 0 0-.23 0c-.63.11-1 .89-1.62.75a.76.76 0 0 0-.33 0c-.18 0-.17.27-.08.42a1.88 1.88 0 0 0 2.55.39 2.23 2.23 0 0 0 0 .23zm-20.42-7.91a1 1 0 0 0 0-1.09 1.57 1.57 0 0 0-.52.25.38.38 0 0 0-.14.46c.11.21.44.25.71.27l-.17.12zM517.21 439a.63.63 0 0 0-.36.1.47.47 0 0 0-.14.27 3.86 3.86 0 0 1-.3.8l1.48-.64h.12c.16 0 .24.15.38.21a.56.56 0 0 0 .58-.19c1.03-1-1.08-.55-1.76-.55zm259.56 144.9a.41.41 0 0 0-.08-.3.75.75 0 0 0-.31-.15 5.55 5.55 0 0 1-.92-.32l.61 1.29a.25.25 0 0 1 0 .11c0 .13-.2.18-.29.29s0 .37.17.5c1.15.97.82-.84.82-1.42zM530.58 411.22l-.49.06a.73.73 0 0 0 .64.55c.32 0 .63-.31.46-.54s-.34-.33-.17-.42z"/><path d="M785.88 591a.76.76 0 0 1-1.11.18.55.55 0 0 1 .33-.91c.45-.09.92.31.8.68zm-17.58 6.83c.21.25.4.62.14.83s-.67 0-1-.14c-.12-.07-.26-.17-.25-.3 0-.3.76-.17.87-.46.1 0 .16.13.07.17zm-15.05 1.69a.56.56 0 0 1 .08.33 1 1 0 0 1-.65-.65c-.07-.15-.12-.35 0-.46a1.41 1.41 0 0 1 .38-.11c.25-.08.46-.36.71-.27a.27.27 0 0 1 .15.34.83.83 0 0 1-.25.32l-.68.62zm-4.71 2.07c.09-.22-.35-.37-.57-.23a.77.77 0 0 0-.29.65 1.1 1.1 0 0 0 1-.35zM747.38 626a.82.82 0 0 0 0-.35.33.33 0 0 0-.3-.2c-.23 0-.35.23-.55.32s-.49 0-.64.17 0 .38.16.47a1.14 1.14 0 0 0 .66 0 1.07 1.07 0 0 0 .54-.2.31.31 0 0 0 .09-.45zM567.47 461.21a.19.19 0 0 1 0 .29.55.55 0 0 1-.36.14.58.58 0 0 1-.23 0 .26.26 0 0 1-.12-.39.38.38 0 0 1 .47-.08.3.3 0 0 1 .14.4zm162.46 133.58a.26.26 0 0 1-.34.08.42.42 0 0 1-.23-.26.25.25 0 0 1 0-.19.34.34 0 0 1 .43-.18.29.29 0 0 1 .18.38.39.39 0 0 1-.44.18zm20.75 1.64c.28 0 .53-.26.38-.47a.85.85 0 0 0-.42.06.27.27 0 0 0-.16.32.24.24 0 0 0 .35.07zm15.92-8.93c.28 0 .52-.26.38-.47a.88.88 0 0 0-.43.06.28.28 0 0 0-.16.32.25.25 0 0 0 .36.07zm-9.6 9.07a.86.86 0 0 0 .32-.78l-.81.16a.81.81 0 0 0-.36.12.34.34 0 0 0 .08.56.74.74 0 0 0 .72 0zM800.35 624l.45 1.21c-.19.14-.47-.07-.6-.26a.94.94 0 0 1-.25-.6.44.44 0 0 1 .5-.37zm-6.5-6.2a.41.41 0 0 0 0-.75.88.88 0 0 0-1 .19.47.47 0 0 0-.15.37c0 .21.29.34.53.36a2.14 2.14 0 0 0 .71-.14zm-26.53-21.58a.7.7 0 0 0 .47-.71 1.18 1.18 0 0 0-.72.08c-.29.13-.5.42-.38.67s.66.29.75 0zm-1.92 2.46a.53.53 0 0 1-.54.29l-.22-.61a.65.65 0 0 1 .88.18zm-1.51 6.42l.16.22a1.88 1.88 0 0 1-.71 0c-.22-.06-.42-.23-.41-.42a.35.35 0 0 1 .5-.24 1.05 1.05 0 0 1 .43.46zm-17.37-5.9a.54.54 0 0 1-.48.23.51.51 0 0 1-.45-.28.19.19 0 0 1 .13-.27.44.44 0 0 1 .16 0l.69.23-.07.1zm-2.91-3.04a.49.49 0 0 0-.3.52c0 .2 0 .45-.24.55a.21.21 0 0 1-.19 0c-.16-.06-.09-.25-.09-.39a1.83 1.83 0 0 0-.11-.33.63.63 0 0 1 .31-.73.52.52 0 0 1 .45.18.35.35 0 0 1 0 .42zm-1.99-1.16l-.25-.11a.26.26 0 0 0-.11.34.31.31 0 0 0 .39.1.18.18 0 0 0 0-.32zm-5.45 3.07l-.25-.11a.26.26 0 0 0-.12.34.32.32 0 0 0 .4.1.19.19 0 0 0 0-.33zm16.54-1.91c-.08.14.12.29.31.29a4.94 4.94 0 0 0 .53-.1.77.77 0 0 1 .52.16.25.25 0 0 1 .12.24.37.37 0 0 1-.13.15 2.24 2.24 0 0 1-.93.45 1 1 0 0 1-1-.3.53.53 0 0 1 0-.61.75.75 0 0 1 .62-.3zM500.55 388.6a.29.29 0 0 0 .39-.2v-.46a.56.56 0 0 1 .27-.4.38.38 0 0 1 .31 0 .32.32 0 0 1 .15.13 1.51 1.51 0 0 1 .35.85.77.77 0 0 1-.53.73.84.84 0 0 1-.71-.09.56.56 0 0 1-.24-.57zm-6.41 63.98a.29.29 0 0 0 .39-.2 2.36 2.36 0 0 0 0-.46.54.54 0 0 1 .28-.4.38.38 0 0 1 .31 0 .4.4 0 0 1 .15.14 1.48 1.48 0 0 1 .35.85.79.79 0 0 1-.53.73.8.8 0 0 1-.71-.1.54.54 0 0 1-.25-.56zm271.92 125.85c-.08.14.12.29.31.29s.35-.08.54-.1a.8.8 0 0 1 .52.15.25.25 0 0 1 .11.25.37.37 0 0 1-.13.15 2.11 2.11 0 0 1-.93.44 1 1 0 0 1-1-.29.54.54 0 0 1 0-.61.8.8 0 0 1 .62-.31zM755.84 593a.33.33 0 0 0-.08-.51.74.74 0 0 0-.65 0c-.09 0-.19.1-.16.19s.08.08.14.11l.75.33zm33.72 68.79a2.57 2.57 0 0 0 1.62-.49c.08-.06.15-.13.15-.21s-.31-.23-.53-.29-.57-.45-.94-.56a1.68 1.68 0 0 0-.91.1c-.43.13-1 .41-.82.77a.8.8 0 0 0 .51.39 5.22 5.22 0 0 0 1.43.32zM777 595.24c.32.14.61-.21.74-.49a.53.53 0 0 0 0-.54c-.17-.21-.55-.16-.83-.09l-.76.18c-.11 0-.24.07-.28.16s0 .17 0 .25a3.08 3.08 0 0 0 .89 1.06zm-7 7.81c2.7 1.42 4.4-1.37 2.5-3s-4.81 1.75-2.5 3zm-17.92.07a.83.83 0 0 1-1.15-.25 2.06 2.06 0 0 1 1-.34c.36 0 .74.26.68.55l-.49.34zm73.65-17.82c.19-.11.06-.24-.18-.24a3.28 3.28 0 0 0-.8.14l-1.8.49a1.83 1.83 0 0 0-.85.37c-.1.14.09.23.36.24a3.86 3.86 0 0 0 .86-.12 5.3 5.3 0 0 0 2.54-1h-.51zm-84.21 12.98a.15.15 0 0 1-.06.23.44.44 0 0 1-.3 0 .51.51 0 0 1-.25-.06.28.28 0 0 1-.11-.38.46.46 0 0 1 .4-.22.34.34 0 0 1 .23 0 .13.13 0 0 1 0 .19zm7.9-3.73v-.24a.69.69 0 0 0-.43.1.17.17 0 0 0 .07.3.76.76 0 0 0 .16 0l.5-.19zm2.72-14.38a1.2 1.2 0 0 0 .08-.59.55.55 0 0 0-.44-.44.64.64 0 0 0-.34.05.54.54 0 0 0-.26.79.78.78 0 0 0 .94.17zm18.3 7.13c.16.26-.17.61-.51.55a1 1 0 0 1-.28-.41.94.94 0 0 1 .6-.11zm-18.79 21.39l-.16-.39a1.06 1.06 0 0 0-.36.09.42.42 0 0 0 .45.39zM422.3 437.67a11.71 11.71 0 0 0-4.34-2.11 2.49 2.49 0 0 0-.81-.09 1.49 1.49 0 0 0-1.13.83 2.4 2.4 0 0 0 .76 3 4.57 4.57 0 0 0 3.59.79 2.81 2.81 0 0 0 1.76-.91 1.12 1.12 0 0 0-.2-1.62c-.22 0-.33.31-.17.44zm43.79 23.38a3.36 3.36 0 0 0-2.74-.39 2.27 2.27 0 0 0 .76 2.25 2.08 2.08 0 0 0 2.57 0 1.08 1.08 0 0 0-1-1.73zm-13.01-4.89a1.74 1.74 0 0 0-1.27-.2 1.06 1.06 0 0 0 .19.48.55.55 0 0 0 .51.2.65.65 0 0 0 .45-.53l.12.16zm-2.54 1.7a.66.66 0 0 0-.37 0 .51.51 0 0 0-.23.23 4.5 4.5 0 0 1-.55.69l1.63-.26a.29.29 0 0 1 .13 0c.15 0 .18.2.29.29a.61.61 0 0 0 .62 0c1.34-.81-.85-.81-1.52-.95zm7.46.24a.81.81 0 0 1 .41 0 1.19 1.19 0 0 1-.89.41c-.19 0-.43 0-.53-.1s0-.23-.06-.34-.33-.45-.18-.64a.39.39 0 0 1 .42-.06.84.84 0 0 1 .32.27l.61.67zm1.58 4.26c-.25-.12-.51.21-.38.43a1.07 1.07 0 0 0 .7.35.73.73 0 0 0-.22-.9zm28.42 5.53a1.42 1.42 0 0 0-.41 0 .33.33 0 0 0-.3.21c0 .19.21.33.28.51s-.06.41.07.56a.45.45 0 0 0 .59 0 .75.75 0 0 0 .15-.54.92.92 0 0 0-.13-.49.49.49 0 0 0-.52-.16zm-34.27-6.77a.18.18 0 0 1 0 .29.53.53 0 0 1-.35.14.58.58 0 0 1-.23 0 .27.27 0 0 1-.13-.39.39.39 0 0 1 .48-.08.29.29 0 0 1 .13.4zm-5.61 15.28a.19.19 0 0 1 0 .3.57.57 0 0 1-.35.13.58.58 0 0 1-.23 0 .26.26 0 0 1-.13-.39.41.41 0 0 1 .48-.08.29.29 0 0 1 .13.4zm5.81-16.77c.1-.22-.21-.48-.48-.4a.5.5 0 0 0 0 .36.33.33 0 0 0 .34.19c.14 0 .25-.18.16-.28zm1.35-5.19a1.18 1.18 0 0 0-.85-.41v.7a.61.61 0 0 0 .08.32.51.51 0 0 0 .67 0 .47.47 0 0 0 .08-.6zm1.11 9.13a.41.41 0 0 1 .19.44.51.51 0 0 1-.41.32c-.14 0-.31-.05-.31-.16a.28.28 0 0 1 .07-.13l.4-.52.09.07zm-4.1 1.83c0 .2.31.3.55.34s.52.11.6.3a.15.15 0 0 1 0 .16c-.1.12-.31 0-.48 0a2.83 2.83 0 0 0-.41 0 .84.84 0 0 1-.79-.39.39.39 0 0 1 .29-.33.5.5 0 0 1 .49.09zm-1.77 1.41l-.18.18a.35.35 0 0 0 .38.16.23.23 0 0 0 .19-.3.27.27 0 0 0-.38-.07zm2.61 5.07l-.18.18a.35.35 0 0 0 .38.16.23.23 0 0 0 .19-.3.27.27 0 0 0-.38-.07zm.87-13.97c.15.09.36-.05.4-.2s0-.31 0-.46a.53.53 0 0 1 .27-.4.34.34 0 0 1 .31 0 .32.32 0 0 1 .15.13 1.48 1.48 0 0 1 .35.85.77.77 0 0 1-.53.73.81.81 0 0 1-.71-.1.55.55 0 0 1-.25-.56zm-3.12-3.17a.51.51 0 0 0-.61 0 .48.48 0 0 0-.18.53.21.21 0 0 0 .19.17.29.29 0 0 0 .16-.1l.52-.56zm11.12 4.99a.61.61 0 0 1-.5.9 1.35 1.35 0 0 1-.22-.88.64.64 0 0 1 .78-.45l.3.46zm-7.62 7.78a.21.21 0 0 1 .25.09.33.33 0 0 1 0 .26.47.47 0 0 1-.12.19.44.44 0 0 1-.47 0 .35.35 0 0 1-.18-.37.23.23 0 0 1 .11-.18.2.2 0 0 1 .22 0zm-2.9-7.19h-.29a.48.48 0 0 0 0 .37c.08.1.32.12.36 0a.22.22 0 0 0 0-.14l-.13-.45zm40.39-42.63a3.29 3.29 0 0 0-2.74-.39 2.25 2.25 0 0 0 .75 2.24 2.08 2.08 0 0 0 2.58 0 1.09 1.09 0 0 0-1-1.73zm-17.76 23.91a.67.67 0 0 0-.37 0 .51.51 0 0 0-.23.23 4 4 0 0 1-.55.7l1.63-.27h.13c.15 0 .18.2.29.29a.61.61 0 0 0 .62 0c1.37-.78-.84-.84-1.52-.95zm9.04 4.5c-.25-.11-.5.22-.38.43a1.07 1.07 0 0 0 .71.35.74.74 0 0 0-.22-.9zm-5.85-1.24a.19.19 0 0 1 0 .3.57.57 0 0 1-.35.13.58.58 0 0 1-.23 0 .26.26 0 0 1-.12-.39.4.4 0 0 1 .47-.08.29.29 0 0 1 .13.4zm-5.61 15.28a.19.19 0 0 1 0 .3.52.52 0 0 1-.35.13.58.58 0 0 1-.23 0 .27.27 0 0 1-.13-.39.42.42 0 0 1 .48-.08.29.29 0 0 1 .13.4zm5.81-16.77c.1-.22-.21-.48-.48-.4a.5.5 0 0 0 0 .36.34.34 0 0 0 .34.19c.15 0 .25-.18.16-.28zm2.5 3.95a.39.39 0 0 1 .19.43.51.51 0 0 1-.41.32c-.13 0-.3 0-.3-.16a.25.25 0 0 1 .06-.13l.4-.52.1.07zm-4.14 1.82c0 .2.31.3.55.35s.52.1.6.29a.13.13 0 0 1 0 .16c-.1.12-.31 0-.48 0a1.93 1.93 0 0 0-.41 0 .86.86 0 0 1-.79-.4.39.39 0 0 1 .3-.33.54.54 0 0 1 .48.09zm-1.77 1.41l-.18.18a.37.37 0 0 0 .39.16.23.23 0 0 0 .18-.3.27.27 0 0 0-.38-.07zm2.61 5.07l-.18.19a.38.38 0 0 0 .39.15.23.23 0 0 0 .18-.3.27.27 0 0 0-.38-.07zm.87-13.97c.14.09.36 0 .39-.2s0-.3 0-.46a.56.56 0 0 1 .27-.4.38.38 0 0 1 .31 0 .32.32 0 0 1 .15.13 1.51 1.51 0 0 1 .35.85.77.77 0 0 1-.53.73.84.84 0 0 1-.71-.09.56.56 0 0 1-.24-.57zm.43 9.6a.21.21 0 0 1 .26.1.28.28 0 0 1 0 .25.39.39 0 0 1-.12.19.42.42 0 0 1-.47 0 .36.36 0 0 1-.18-.37.23.23 0 0 1 .11-.18.18.18 0 0 1 .22 0zm-2.94-7.19h-.3a.48.48 0 0 0 0 .37c.09.11.32.12.37 0s0-.09 0-.14l-.13-.44zM479 398.8a3.33 3.33 0 0 0-2.74-.39 2.23 2.23 0 0 0 .75 2.24 2.09 2.09 0 0 0 2.58 0 1.1 1.1 0 0 0-1-1.74zm-15.57-3.19a.77.77 0 0 0-.37 0 .59.59 0 0 0-.23.24 5 5 0 0 1-.55.69l1.63-.27h.09c.15 0 .18.2.29.29a.59.59 0 0 0 .62-.05c1.38-.73-.8-.79-1.48-.9zM522 391.8c-.25-.11-.51.22-.39.43a1.08 1.08 0 0 0 .71.36.74.74 0 0 0-.22-.9zm-55.38 7.06a.19.19 0 0 1 0 .3.48.48 0 0 1-.35.13.45.45 0 0 1-.23 0 .26.26 0 0 1-.13-.38.41.41 0 0 1 .48-.09.3.3 0 0 1 .13.4zM461 414.14a.19.19 0 0 1 0 .3.53.53 0 0 1-.35.14.85.85 0 0 1-.23 0 .27.27 0 0 1-.13-.39.41.41 0 0 1 .48-.09.3.3 0 0 1 .13.4z"/><path d="M466.82 397.38c.1-.23-.21-.49-.48-.41a.52.52 0 0 0 0 .37.35.35 0 0 0 .34.19c.15 0 .25-.18.16-.28zm2.46 3.94a.41.41 0 0 1 .19.44.49.49 0 0 1-.41.31c-.14 0-.31 0-.3-.15a.22.22 0 0 1 .06-.13l.4-.53.09.08zm-4.1 1.83c0 .2.31.3.55.34s.52.1.6.3a.14.14 0 0 1 0 .16c-.1.12-.31 0-.48 0a1.89 1.89 0 0 0-.41 0 .84.84 0 0 1-.79-.39.4.4 0 0 1 .3-.34.52.52 0 0 1 .48.1zm-1.77 1.41l-.18.18a.37.37 0 0 0 .38.16.23.23 0 0 0 .19-.31.26.26 0 0 0-.38-.06zm2.59 5.07l-.18.18a.37.37 0 0 0 .38.16.23.23 0 0 0 .19-.31.26.26 0 0 0-.38-.06zm57-10.12a.29.29 0 0 0 .39-.21 2.37 2.37 0 0 0 0-.46.54.54 0 0 1 .28-.39.35.35 0 0 1 .31-.05.35.35 0 0 1 .14.13 1.51 1.51 0 0 1 .35.85.76.76 0 0 1-.53.73.84.84 0 0 1-.71-.09.56.56 0 0 1-.24-.57zm-55.73 5.75a.21.21 0 0 1 .26.09.34.34 0 0 1 0 .26.47.47 0 0 1-.12.19.44.44 0 0 1-.47 0 .37.37 0 0 1-.18-.38.23.23 0 0 1 .11-.17.19.19 0 0 1 .22 0zm-2.89-7.2h-.3a.47.47 0 0 0 0 .37c.08.11.32.13.37 0a.32.32 0 0 0 0-.14l-.13-.45zM451 451.42a1.81 1.81 0 0 0-.69-.18.62.62 0 0 0-.59.28.37.37 0 0 0 0 .29.73.73 0 0 0 .87.36.55.55 0 0 0 .38-.74zm17.48 9.71l-.48.06a.56.56 0 0 0 0 .31.46.46 0 0 0 .54-.3zm133.81 20.79a12 12 0 0 0-4.35-2.1 2.18 2.18 0 0 0-.8-.1 1.53 1.53 0 0 0-1.14.84 2.42 2.42 0 0 0 .76 3 4.57 4.57 0 0 0 3.59.79 2.84 2.84 0 0 0 1.76-.91 1.13 1.13 0 0 0-.19-1.62.26.26 0 0 0-.17.44zM519.57 427a3.32 3.32 0 0 0-2.74-.39 2.27 2.27 0 0 0 .75 2.24 2.08 2.08 0 0 0 2.58 0 1.09 1.09 0 0 0-1-1.73zm-13.01-4.86a1.68 1.68 0 0 0-1.28-.2 1.2 1.2 0 0 0 .19.47.59.59 0 0 0 .52.21c.27-.05.38-.31.45-.54l.12.17zm-2.56 1.69a.66.66 0 0 0-.37 0 .51.51 0 0 0-.23.23 4.65 4.65 0 0 1-.56.7l1.64-.27h.13c.15 0 .18.19.28.28a.56.56 0 0 0 .62 0c1.36-.77-.82-.77-1.51-.94zm-6.41-7.22l-.49.06a.72.72 0 0 0 .64.54c.32 0 .63-.3.46-.53s-.34-.33-.17-.42zm13.92 7.46a.78.78 0 0 1 .4 0 1.21 1.21 0 0 1-.88.41c-.2 0-.44 0-.54-.11s0-.22-.06-.33-.33-.45-.17-.64a.37.37 0 0 1 .41-.07 1 1 0 0 1 .33.27l.6.68zm1.55 4.26c-.25-.11-.51.22-.39.43a1.08 1.08 0 0 0 .71.36.75.75 0 0 0-.22-.91zm-5.86-1.24a.2.2 0 0 1 0 .3.5.5 0 0 1-.36.13.46.46 0 0 1-.23 0 .25.25 0 0 1-.12-.38.39.39 0 0 1 .51-.14.3.3 0 0 1 .14.4zm.21-1.49c.09-.22-.22-.48-.48-.4a.44.44 0 0 0 0 .37.35.35 0 0 0 .33.19c.15 0 .25-.18.16-.28zm-7.49-14.77c.09-.22-.22-.48-.48-.4a.5.5 0 0 0 0 .36.33.33 0 0 0 .34.19c.14 0 .24-.18.15-.27zm8.84 9.58a1.19 1.19 0 0 0-.86-.4v.69a.44.44 0 0 0 .75.36.46.46 0 0 0 .07-.6zm1.11 9.14a.4.4 0 0 1 .18.44.49.49 0 0 1-.41.31c-.13 0-.3 0-.3-.15a.22.22 0 0 1 .06-.13l.4-.53.1.07zm-.77 3.17c-.19.14-.13.38 0 .58s.19.41 0 .58a.18.18 0 0 1-.16.08c-.17 0-.2-.2-.27-.33s-.18-.18-.26-.27a.61.61 0 0 1-.05-.77.55.55 0 0 1 .5 0 .36.36 0 0 1 .17.39zm-2.39-.45h-.28a.26.26 0 0 0 .06.36.32.32 0 0 0 .4 0 .19.19 0 0 0-.14-.3zm-3.57 4.65h-.28a.26.26 0 0 0 .06.36.32.32 0 0 0 .4 0 .19.19 0 0 0-.15-.3zm4.33-13.03a.29.29 0 0 0 .39-.2 2.36 2.36 0 0 0 0-.46.54.54 0 0 1 .28-.4.35.35 0 0 1 .31-.05.35.35 0 0 1 .14.13 1.51 1.51 0 0 1 .35.85.78.78 0 0 1-.52.74.9.9 0 0 1-.72-.1.55.55 0 0 1-.24-.57zm35.66-11.75a.49.49 0 0 0-.61 0 .48.48 0 0 0-.18.52c0 .08.09.18.19.17a.21.21 0 0 0 .16-.1l.53-.55zm-27.62 13.57a.61.61 0 0 1-.51.89 1.33 1.33 0 0 1-.21-.87.64.64 0 0 1 .77-.46l.3.47zm-7.34 9.64a.15.15 0 0 1 .05.23.47.47 0 0 1-.27.14.71.71 0 0 1-.25 0 .33.33 0 0 1-.28-.32.38.38 0 0 1 .27-.33.39.39 0 0 1 .24 0c.07 0 .13.1.11.17zm-3.17-9.06h-.29a.43.43 0 0 0 0 .37c.09.11.32.13.37 0a.26.26 0 0 0 0-.15l-.12-.44zm-.49-8.9a2.2 2.2 0 0 0-.68-.18.67.67 0 0 0-.59.28.44.44 0 0 0 0 .3.74.74 0 0 0 .87.36.55.55 0 0 0 .38-.75zM522 427.1l-.49.07a.57.57 0 0 0 0 .31.48.48 0 0 0 .54-.3z"/><path d="M509.86 439.45a3.28 3.28 0 0 0-2.74-.39 2.25 2.25 0 0 0 .76 2.24 2.07 2.07 0 0 0 2.57 0 1.08 1.08 0 0 0-1-1.73zm-61.72-29.01a1 1 0 0 1 .41 0 1.23 1.23 0 0 1-.89.41c-.19 0-.43 0-.53-.11s0-.22-.06-.33-.33-.45-.18-.64a.37.37 0 0 1 .42-.06.82.82 0 0 1 .32.26l.61.68zm35.99 13.07c-.25-.11-.5.22-.38.43a1 1 0 0 0 .71.36.73.73 0 0 0-.23-.9zm13.37 16a.19.19 0 0 1 0 .3.52.52 0 0 1-.35.13.45.45 0 0 1-.23 0 .27.27 0 0 1-.13-.39.42.42 0 0 1 .48-.08.29.29 0 0 1 .13.4zm2.66 2.49a.41.41 0 0 1 .19.44.5.5 0 0 1-.41.31c-.14 0-.31 0-.31-.15s0-.09.07-.13l.4-.53.09.07zm49.28-8.23c-.18.14-.12.38 0 .57s.18.42 0 .59a.21.21 0 0 1-.17.08c-.17 0-.2-.2-.27-.33a1.33 1.33 0 0 0-.26-.27.59.59 0 0 1 0-.77.53.53 0 0 1 .49 0 .38.38 0 0 1 .18.39zM497 444.69h-.28a.27.27 0 0 0 0 .36.33.33 0 0 0 .41 0 .2.2 0 0 0-.15-.3zm-3.56 4.64h-.28a.26.26 0 0 0 0 .36.33.33 0 0 0 .41 0 .2.2 0 0 0-.15-.3zm12.36-11.21a.61.61 0 0 1-.5.9 1.34 1.34 0 0 1-.22-.87.65.65 0 0 1 .78-.46l.3.47zm-7.34 9.65a.14.14 0 0 1 .05.23.43.43 0 0 1-.26.13.53.53 0 0 1-.25 0 .33.33 0 0 1-.29-.31.44.44 0 0 1 .27-.34.4.4 0 0 1 .24 0c.08 0 .14.1.11.17zm13.79-8.25l-.48.06a.55.55 0 0 0 0 .31.46.46 0 0 0 .54-.29zm-22.02.61l-.48.06a.56.56 0 0 0 0 .31.47.47 0 0 0 .54-.3zm334.84 185.02a1.22 1.22 0 0 1 .09 1.38.33.33 0 0 1-.13.13.42.42 0 0 1-.31 0c-.56-.25-1.21-.64-1.12-1.16a.88.88 0 0 1 1.27-.42v.45zm-316.5-84.64a9.23 9.23 0 0 0-2.64-3.58 2 2 0 0 0-.66-.4 1.83 1.83 0 0 0-1.47.28 2.46 2.46 0 0 0-1 2.93 3.8 3.8 0 0 0 2.72 2.11 3.15 3.15 0 0 0 2.06-.1 1.2 1.2 0 0 0 .74-1.51c-.21-.06-.46.14-.4.32zm-3.06 5.75a2.84 2.84 0 0 0-2.19-1.43 2.22 2.22 0 0 0-.6 2.28 1.91 1.91 0 0 0 2.29 1 1 1 0 0 0 .13-1.9zm7.49-9.42a3.44 3.44 0 0 0-.83-.43.14.14 0 0 0-.11 0 .16.16 0 0 0-.09.07c-.16.25.1.64-.17.81-.05 0-.11.05-.13.1s.07.15.17.17c.52.1 1.09-.31 1.05-.75l.1.09zm4-8.34a6.6 6.6 0 0 0-1.56-.81.43.43 0 0 0-.22 0 .3.3 0 0 0-.17.14c-.29.47.2 1.21-.32 1.52-.09.06-.21.1-.25.19s.15.28.33.31c1 .2 2-.57 2-1.41l.2.17zm-20.2 8.3a1.43 1.43 0 0 0-1-.68 1.18 1.18 0 0 0-.09.49.46.46 0 0 0 .33.39.83.83 0 0 0 .7-.3v.19zm3.6-21.48a.61.61 0 0 0-.34-.14.76.76 0 0 0-.33.11 5.39 5.39 0 0 1-.88.4l1.59.41a.26.26 0 0 1 .12 0c.12.08.05.24.09.36s.35.23.57.21c1.59-.07-.29-.98-.82-1.35zm12.34-1.45c.24.33-.07.83-.53.84s-.83-.44-.63-.79a.78.78 0 0 1 1.13-.09zM508 529.6c.37 0 .83.13.85.43s-.38.45-.72.53a.57.57 0 0 1-.43 0c-.26-.22.32-.6.12-.86 0-.08.22 0 .2.06zm-7.92 10.87a.68.68 0 0 1 .36.15 1.38 1.38 0 0 1-1 0c-.18 0-.4-.14-.41-.31s.1-.21.14-.31 0-.53.2-.64a.39.39 0 0 1 .41.11.72.72 0 0 1 .13.37l.15.83zm-1.08 4.36c-.16-.2-.57 0-.58.23s.21.43.42.59a.75.75 0 0 0 .31-.88zM521 561a1 1 0 0 0-.34-.19.39.39 0 0 0-.38.07c-.15.14 0 .37 0 .55s-.28.34-.25.53.33.27.54.19a.88.88 0 0 0 .44-.41.8.8 0 0 0 .15-.48.39.39 0 0 0-.36-.35zm-40-8.33c.06.1 0 .22-.14.27a.55.55 0 0 1-.38 0 .62.62 0 0 1-.19-.12.26.26 0 0 1 .11-.39.41.41 0 0 1 .47.11.3.3 0 0 1-.11.41zm14.6-12.48a.31.31 0 0 0-.2-.54.54.54 0 0 0-.21.31.27.27 0 0 0 .19.3c.14 0 .32-.06.29-.18zm1.73-15.98a.32.32 0 0 0-.2-.55.6.6 0 0 0-.21.32.27.27 0 0 0 .19.3c.14 0 .32-.06.3-.18zm2.39 11.94a1 1 0 0 0-.52-.7l-.38.63a.53.53 0 0 0-.11.31c0 .21.33.36.57.3a.56.56 0 0 0 .41-.5zm52.68-10.96l1.4.47c0 .21-.35.26-.61.23a1.42 1.42 0 0 1-.71-.22.34.34 0 0 1 0-.56zm-9.81.35c.1-.3-.35-.58-.69-.48a.63.63 0 0 0-.44.76.51.51 0 0 0 .25.33.64.64 0 0 0 .66-.13 1.2 1.2 0 0 0 .32-.54zm-36.71 3.68a.69.69 0 0 0-.37-.75.92.92 0 0 0-.38.52.56.56 0 0 0 .39.67c.31.08.68-.25.49-.47zM507 532a.39.39 0 0 1-.07.53l-.71-.23c0-.3.39-.55.73-.46z"/><path d="M512 537.05h.31a1.65 1.65 0 0 1-.46.45.63.63 0 0 1-.65 0 .27.27 0 0 1 .09-.48 1.5 1.5 0 0 1 .7 0zm-16.46 7.59a.37.37 0 0 1-.09.46.56.56 0 0 1-.53.11c-.13 0-.25-.15-.18-.25a.25.25 0 0 1 .13-.09l.64-.31.05.11zm-4.65-.01c-.08.19.11.38.29.52s.4.29.37.5a.17.17 0 0 1-.1.13c-.15.07-.29-.1-.43-.19a3.37 3.37 0 0 0-.38-.13.7.7 0 0 1-.47-.66.49.49 0 0 1 .45-.18.43.43 0 0 1 .37.28zm-2.35.54l-.26.09a.29.29 0 0 0 .25.29.28.28 0 0 0 .33-.19.23.23 0 0 0-.3-.21zm-.54 5.5l-.26.09a.29.29 0 0 0 .25.29c.15 0 .32-.06.33-.19s-.15-.25-.3-.21zm8.62-11.97c.08.14.35.1.46 0s.15-.28.25-.41a.72.72 0 0 1 .47-.24.35.35 0 0 1 .3.08.27.27 0 0 1 0 .18 1.35 1.35 0 0 1-.17.88 1 1 0 0 1-.88.44.73.73 0 0 1-.57-.37.54.54 0 0 1 .1-.6zm-8.04-19.85c.08.14.34.1.46 0s.15-.28.25-.41a.66.66 0 0 1 .47-.25.35.35 0 0 1 .3.09.26.26 0 0 1 .05.17 1.45 1.45 0 0 1-.17.89 1 1 0 0 1-.88.44.74.74 0 0 1-.57-.37.52.52 0 0 1 .1-.6zm7.09 15.83a.47.47 0 0 0-.53-.28.59.59 0 0 0-.45.4c0 .08 0 .19.07.22a.35.35 0 0 0 .2 0l.78-.28zM580.69 556a1.75 1.75 0 0 0 .57-1.36.35.35 0 0 0-.1-.24c-.18-.12-.41.07-.61.17s-.77.09-1.1.26a1.15 1.15 0 0 0-.49.66c-.14.36-.21.87.21 1a1 1 0 0 0 .67-.09 5 5 0 0 0 1.2-.73zm-69.61-33.71c.32-.12.19-.53 0-.79a.73.73 0 0 0-.48-.36c-.3 0-.5.25-.62.48l-.3.61a.29.29 0 0 0 0 .28.44.44 0 0 0 .26.14 4.41 4.41 0 0 0 1.54.09zm2.84 9.46c3-.86 1.5-3.72-1.22-3.52s-1.42 4.27 1.22 3.52zM570.19 511c3-.86 1.5-3.72-1.21-3.52s-1.42 4.26 1.21 3.52zm-67.51 32.49c0 .39-.51.72-.95.59a1.36 1.36 0 0 1 .3-.86.72.72 0 0 1 .94-.09v.53zm29.83-59.16c0-.2-.18-.19-.34 0a2.16 2.16 0 0 0-.37.61l-.68 1.47a1.31 1.31 0 0 0-.19.79c.07.15.27.09.44-.08a3.46 3.46 0 0 0 .45-.64c.43-.76.87-1.74.68-2.27l-.35.31zm-40.97 62.98a.18.18 0 0 1 .18.19.37.37 0 0 1-.16.22.72.72 0 0 1-.21.12.41.41 0 0 1-.43-.17.33.33 0 0 1 .05-.4.32.32 0 0 1 .2-.12.18.18 0 0 1 .19.11zm1.51-7.48l-.25-.13a.52.52 0 0 0-.18.34.23.23 0 0 0 .33.15.27.27 0 0 0 .07-.13c0-.14.09-.29.14-.44zM481.43 529a1.58 1.58 0 0 0-.5-.42.71.71 0 0 0-.68 0 .41.41 0 0 0-.17.26.6.6 0 0 0 .56.66.68.68 0 0 0 .76-.51zm18.14-7.42a.39.39 0 0 1 .19.68 1.82 1.82 0 0 1-.57-.07.69.69 0 0 1 .28-.47zm8 25.69l-.46-.14a.67.67 0 0 0-.13.3.54.54 0 0 0 .64 0zm6.66-64.08a13 13 0 0 0 5 0 2.13 2.13 0 0 0 .77-.19 1.19 1.19 0 0 0 .49-1.19 2.93 2.93 0 0 0-2.41-2.27 4.58 4.58 0 0 0-3.59.79 2.23 2.23 0 0 0-1 1.52 1.33 1.33 0 0 0 1.12 1.33.25.25 0 0 0-.11-.45zm-4.17-5.19a3.21 3.21 0 0 0 2.61-.8 2.86 2.86 0 0 0-2-1.64c-.94-.19-2.08.3-2.22 1.1s1.06 1.57 1.86 1.11zm5.52 10.26a3.59 3.59 0 0 0 .88-.35s.07 0 .08-.08 0-.07 0-.1c-.17-.24-.7-.26-.73-.55a.25.25 0 0 0 0-.15c-.07-.06-.2 0-.27 0a.68.68 0 0 0 .2 1.14h-.15zm6.26 7.32a6.88 6.88 0 0 0 1.66-.67.32.32 0 0 0 .15-.13.24.24 0 0 0 0-.2c-.33-.46-1.33-.5-1.37-1 0-.1 0-.21-.05-.28s-.36 0-.5.06a1.28 1.28 0 0 0 .38 2.15h-.28zm2.42-18.74a1.66 1.66 0 0 0 1.23-.35 1.35 1.35 0 0 0-.45-.33.6.6 0 0 0-.57 0c-.2.16-.15.43-.08.65l-.2-.09zM544 490.86a.57.57 0 0 0 .32-.16.4.4 0 0 0 .06-.3 3.83 3.83 0 0 1 .08-.83l-1.27.9a.2.2 0 0 1-.11.06c-.14 0-.27-.09-.42-.13a.53.53 0 0 0-.51.29c-.72 1.2 1.21.31 1.85.17zm-5.12 9.52c-.46 0-.79-.5-.57-.83a.79.79 0 0 1 1.14 0c.25.33-.06.83-.51.86zm-13.33-11.77c-.21.24-.57.51-.89.37s-.25-.52-.15-.8c0-.12.11-.26.26-.29.35-.07.43.55.8.54.06.07-.1.17-.17.11zm-6.74-11.41a.61.61 0 0 1-.35.17c0-.29.26-.53.53-.72a.59.59 0 0 1 .53-.13c.12.06.16.18.25.27s.55.25.53.48-.17.22-.33.23a1.13 1.13 0 0 1-.44-.1l-.92-.34zm-3.81-3.07c.28 0 .31-.4.08-.53a1.21 1.21 0 0 0-.82 0 .88.88 0 0 0 .72.7zm1.68-16.95a.21.21 0 0 1-.2-.24.42.42 0 0 1 .23-.26.4.4 0 0 1 .21-.07.31.31 0 0 1 .34.28.34.34 0 0 1-.36.27.35.35 0 0 1-.35-.29zm4.8 17a.43.43 0 0 0 .65.15.55.55 0 0 0-.2-.32.4.4 0 0 0-.41 0 .18.18 0 0 0 0 .31zm15.2 9.76c.05.24.47.33.66.15a.62.62 0 0 0-.21-.32.36.36 0 0 0-.4 0 .17.17 0 0 0 0 .3z"/><path d="M523.36 479.25a1.28 1.28 0 0 0 1 0l-.43-.59a.63.63 0 0 0-.26-.25.47.47 0 0 0-.6.25.5.5 0 0 0 .28.55zm3.7 8.06a1 1 0 0 0 1 .15.81.81 0 0 0-.32-.55.77.77 0 0 0-.88-.08.34.34 0 0 0 .21.6zm-3.4-.73a.52.52 0 0 1-.5-.34l.62-.37a.45.45 0 0 1 .07.76zm-7.74.86l-.21.19a1.2 1.2 0 0 1-.21-.56.48.48 0 0 1 .35-.47c.23-.05.51.14.43.32a1 1 0 0 1-.39.5zm1.08-15.68a.5.5 0 0 1-.42-.31.4.4 0 0 1 .17-.44c.11-.07.29-.09.36 0a.32.32 0 0 1 0 .14v.62h-.13zm2.52-3.28c-.15-.17-.45-.14-.68-.08s-.52.13-.7 0a.2.2 0 0 1-.09-.15c0-.14.26-.15.42-.2a1.45 1.45 0 0 0 .34-.2 1 1 0 0 1 .92 0 .34.34 0 0 1-.06.41.52.52 0 0 1-.48.12zm.71-1.96v-.23a.38.38 0 0 0-.43 0 .21.21 0 0 0 0 .34.27.27 0 0 0 .37-.1zm-5.23-3.34v-.23a.38.38 0 0 0-.42 0 .21.21 0 0 0 0 .34c.12.08.34 0 .37-.1zm7.44 12.52a.24.24 0 0 0-.23.33 3.6 3.6 0 0 0 .28.4.47.47 0 0 1 0 .46.35.35 0 0 1-.24.17.47.47 0 0 1-.25-.06 1.9 1.9 0 0 1-.81-.59.68.68 0 0 1 0-.86.85.85 0 0 1 .68-.21.73.73 0 0 1 .55.4zm24.33 4.91a.24.24 0 0 0-.23.33 3.6 3.6 0 0 0 .28.4.47.47 0 0 1 0 .46.33.33 0 0 1-.24.17.47.47 0 0 1-.21-.06 1.9 1.9 0 0 1-.81-.59.68.68 0 0 1 0-.86.85.85 0 0 1 .68-.21.73.73 0 0 1 .55.4zM527 477.17a.47.47 0 0 0 .55-.23.48.48 0 0 0-.15-.53.27.27 0 0 0-.27-.07.25.25 0 0 0-.08.16c0 .23-.09.46-.13.7zm-20.28 27.29a.43.43 0 0 0 .4-.75.22.22 0 0 0-.26-.07c-.06 0-.07.09-.09.15 0 .23-.08.47-.13.7zm24.55-9.76c0 .3.44.42.8.43a.81.81 0 0 0 .62-.15c.18-.2 0-.48-.16-.69l-.45-.54a.42.42 0 0 0-.27-.18.46.46 0 0 0-.27.11 3.2 3.2 0 0 0-.91 1zm-11.06-3.04c-.74 2.6 3 3 4.2 1s-3.55-3.27-4.2-1zM560.35 533c-.75 2.6 2.95 3 4.2 1s-3.55-3.26-4.2-1zm-45.98-55.57a.57.57 0 0 1-.09-1 1.77 1.77 0 0 1 .71.67.54.54 0 0 1-.41.72l-.54-.28zm2.09-9.93a.22.22 0 0 1-.28 0 .4.4 0 0 1-.14-.24.3.3 0 0 1 0-.21.36.36 0 0 1 .39-.21.46.46 0 0 1 .38.25.23.23 0 0 1 0 .2.18.18 0 0 1-.2.08zm6.75 5.07l.26-.12a.61.61 0 0 0-.25-.3c-.14-.06-.35 0-.32.15a.31.31 0 0 0 .09.12l.37.33zm17.12-2.45a2 2 0 0 0 .7-.13c.22-.09.39-.28.35-.48a.43.43 0 0 0-.16-.26.79.79 0 0 0-1 0 .52.52 0 0 0 .11.81zm-2.19 16.81c-.24.2-.74.06-.78-.23a1.27 1.27 0 0 1 .37-.36.73.73 0 0 1 .32.44zm-30.21-8.06l.39-.25a.74.74 0 0 0-.22-.25.38.38 0 0 0-.29.48zm-22.41-19.28a12.62 12.62 0 0 0 4.77-1.3 1.78 1.78 0 0 0 .62-.44 1.13 1.13 0 0 0 0-1.26 3.42 3.42 0 0 0-3.15-1.52 4.11 4.11 0 0 0-3.1 1.71 2 2 0 0 0-.37 1.71 1.53 1.53 0 0 0 1.57 1c.12-.16-.06-.41-.28-.4zm-5.94-3.86a2.86 2.86 0 0 0 2.18-1.45 3.27 3.27 0 0 0-2.5-1c-1 .07-1.85.83-1.69 1.63a1.41 1.41 0 0 0 2.19.56zm9.14 8.27a3.28 3.28 0 0 0 .7-.58.13.13 0 0 0 .05-.09s0-.06-.06-.09c-.26-.18-.77-.06-.9-.32 0 0 0-.11-.08-.14s-.19 0-.24.11a.73.73 0 0 0 .62 1l-.13.07zm8.7 5.32a5.82 5.82 0 0 0 1.32-1.08.32.32 0 0 0 .09-.17c0-.07-.05-.12-.12-.17-.48-.35-1.44-.12-1.69-.62 0-.09-.06-.2-.15-.25s-.36.05-.45.2a1.38 1.38 0 0 0 1.17 1.93l-.24.12zm-4.8-18.42a1.48 1.48 0 0 0 1-.66 1.82 1.82 0 0 0-.55-.2.6.6 0 0 0-.53.18c-.14.21 0 .45.17.65h-.22zm24.05 8.1a.61.61 0 0 0 .24-.24.47.47 0 0 0-.06-.3 3.78 3.78 0 0 1-.24-.81l-.86 1.2a.2.2 0 0 1-.08.08c-.13.08-.3 0-.45 0s-.34.23-.38.41c-.24 1.27 1.28-.05 1.83-.34zm-1.27 10.34c-.44.11-.94-.26-.85-.64a.75.75 0 0 1 1.07-.32.54.54 0 0 1-.17.94zm-17.1-7.63c-.11.29-.34.64-.7.59s-.43-.42-.44-.71a.33.33 0 0 1 .13-.35c.31-.16.62.41 1 .3.08.06 0 .19-.12.15zm-10.71-9.02a.57.57 0 0 1-.26.25c-.13-.27 0-.57.23-.82a.5.5 0 0 1 .45-.26c.13 0 .22.12.34.18s.62.1.68.32-.08.25-.22.3a1.17 1.17 0 0 1-.46 0l-1-.08zm-4.81-1.89c.27-.08.15-.46-.12-.52a1.17 1.17 0 0 0-.79.19 1 1 0 0 0 .95.47zm-23.93 13.98a1 1 0 0 0 .31-.23.26.26 0 0 0 0-.32c-.14-.15-.43-.09-.64-.17s-.32-.31-.55-.33a.34.34 0 0 0-.35.39.83.83 0 0 0 .38.45 1.2 1.2 0 0 0 .52.25.47.47 0 0 0 .49-.22z"/><path d="M478 434.27a.27.27 0 0 1-.29-.18.38.38 0 0 1 .12-.31.44.44 0 0 1 .18-.12.35.35 0 0 1 .43.18.3.3 0 0 1-.24.35.41.41 0 0 1-.45-.18zm11 14.84a.44.44 0 0 0 .68 0 .67.67 0 0 0-.32-.25.39.39 0 0 0-.39.08.18.18 0 0 0 .14.29zm18.09 5.22a.44.44 0 0 0 .68 0 .62.62 0 0 0-.31-.24.38.38 0 0 0-.4.08.18.18 0 0 0 .14.28zm-14.41-.9a1.25 1.25 0 0 0 .93-.26l-.63-.46a.82.82 0 0 0-.34-.16.42.42 0 0 0-.48.39.58.58 0 0 0 .48.45zm6.56 6.66a1 1 0 0 0 1-.12 1 1 0 0 0-.51-.43.78.78 0 0 0-.87.15c-.17.24.12.62.43.52zm-3.5.2a.57.57 0 0 1-.6-.18l.45-.52a.47.47 0 0 1 .35.7zm-7.02 2.87l-.12.24a1.51 1.51 0 0 1-.41-.47.42.42 0 0 1 .15-.54c.2-.11.53 0 .53.19a.86.86 0 0 1-.18.57zM483.83 448a.56.56 0 0 1-.51-.18.36.36 0 0 1 0-.46.27.27 0 0 1 .34-.09.21.21 0 0 1 .07.13l.2.6h-.1zm1.17-3.77a.69.69 0 0 0-.67.11.87.87 0 0 1-.67.17c-.06 0-.12-.06-.13-.11s.18-.21.32-.3a2.09 2.09 0 0 0 .24-.28 1 1 0 0 1 .88-.23.34.34 0 0 1 .1.41.45.45 0 0 1-.41.24zm-.1-2.05v-.23a.36.36 0 0 0-.39.13.22.22 0 0 0 .14.32c.15 0 .33-.07.31-.2zm-6.25-1.77v-.23a.37.37 0 0 0-.4.13.22.22 0 0 0 .15.32c.14 0 .32-.07.31-.19zm11.81 9.89c-.18 0-.19.25-.08.38s.29.19.41.3a.47.47 0 0 1 .17.44.25.25 0 0 1-.16.22.54.54 0 0 1-.22 0 2.07 2.07 0 0 1-1-.35.69.69 0 0 1-.29-.82.71.71 0 0 1 .56-.38.81.81 0 0 1 .67.23zm24.94-1.81c-.18 0-.2.26-.09.38a3.19 3.19 0 0 0 .42.3.54.54 0 0 1 .17.44.31.31 0 0 1-.17.23.54.54 0 0 1-.22 0 2.35 2.35 0 0 1-1-.35.72.72 0 0 1-.29-.82.7.7 0 0 1 .56-.38.8.8 0 0 1 .67.23zm-20.04 1.99a.43.43 0 0 0 .44-.36.55.55 0 0 0-.35-.46.28.28 0 0 0-.28 0 .2.2 0 0 0 0 .17l.14.7zM506 466c.06.3.57.29.91.2s.46-.13.53-.31-.17-.46-.41-.61l-.63-.39a.49.49 0 0 0-.32-.1.36.36 0 0 0-.22.18 2.7 2.7 0 0 0-.47 1.23zm-11.61 0c.28 2.66 4 2.11 4.38-.15s-4.62-2.14-4.38.15zm-10.92-11.91a.61.61 0 0 1-.46-.92 2 2 0 0 1 .92.45.49.49 0 0 1-.11.79l-.62-.13zm61.45 38.38c.23.06.27-.11.13-.27a2.92 2.92 0 0 0-.63-.45l-1.54-.9a1.93 1.93 0 0 0-.87-.34c-.19 0-.16.2 0 .38a3.77 3.77 0 0 0 .63.51 5.32 5.32 0 0 0 2.47 1.09l-.27-.36zm-63.23-48.36c0 .09-.15.13-.25.1a.44.44 0 0 1-.22-.18.4.4 0 0 1-.09-.2.34.34 0 0 1 .3-.31.53.53 0 0 1 .45.14.28.28 0 0 1 .09.19.17.17 0 0 1-.17.12zm8.31 3.02l.2-.18a.55.55 0 0 0-.35-.22c-.15 0-.32.11-.25.22a.3.3 0 0 0 .13.09l.48.22zm15.33-6.87a2 2 0 0 0 .61-.31.45.45 0 0 0 .15-.56.54.54 0 0 0-.26-.2.77.77 0 0 0-.9.3.57.57 0 0 0 .41.74zm4.28 16.52a.54.54 0 0 1-.83 0 1.06 1.06 0 0 1 .21-.44.89.89 0 0 1 .48.33zm-11.69 21.62a.14.14 0 0 1 .05.23.46.46 0 0 1-.26.13.76.76 0 0 1-.26 0 .34.34 0 0 1-.28-.31.39.39 0 0 1 .27-.34.33.33 0 0 1 .24 0 .14.14 0 0 1 .11.16zm18.22 9.41a.22.22 0 0 1-.2-.25.38.38 0 0 1 .22-.26.81.81 0 0 1 .22-.07.32.32 0 0 1 .34.29.35.35 0 0 1-.37.27.37.37 0 0 1-.35-.3z"/><path d="M514.44 493.81v-.24a.4.4 0 0 0-.42 0 .22.22 0 0 0 0 .35c.12.08.34 0 .37-.1zm1.68-4.24c.1-.06.21-.13.24-.23a.4.4 0 0 0-.05-.3 4.73 4.73 0 0 1-.25-.81l-.85 1.19a.34.34 0 0 1-.08.09c-.13.07-.3 0-.45 0s-.34.23-.38.42c-.24 1.3 1.27-.01 1.82-.36zm-18.36 2.77c-.11.29-.35.64-.7.59s-.44-.43-.45-.72a.35.35 0 0 1 .14-.34c.3-.16.61.4 1 .3.08.05 0 .19-.12.15zm8.79-7.34a.44.44 0 0 0 .68 0 .61.61 0 0 0-.32-.25.39.39 0 0 0-.39.08.18.18 0 0 0 .14.29zm-7.85 5.71a1 1 0 0 0 .95-.11 1 1 0 0 0-.5-.44.77.77 0 0 0-.87.16c-.17.23.12.61.42.51zm16.15-11.59c-.18 0-.19.25-.08.38s.29.19.41.3a.47.47 0 0 1 .17.44.25.25 0 0 1-.16.22.54.54 0 0 1-.22 0 2.07 2.07 0 0 1-1-.35.69.69 0 0 1-.29-.82.73.73 0 0 1 .56-.38.81.81 0 0 1 .67.23zm-9.36 17.48c.07.29.58.28.92.2s.46-.13.53-.31-.17-.46-.41-.61l-.63-.4a.48.48 0 0 0-.32-.09.38.38 0 0 0-.22.17 2.74 2.74 0 0 0-.47 1.23zm-11.64.05c.28 2.67 4 2.11 4.37-.15s-4.61-2.17-4.37.15zm15.22-9.25a.54.54 0 0 1-.83 0 1 1 0 0 1 .21-.44.77.77 0 0 1 .47.33zm81.4 27.13a.15.15 0 0 1 .06.23.49.49 0 0 1-.27.13.71.71 0 0 1-.25 0 .34.34 0 0 1-.29-.31.41.41 0 0 1 .27-.34.34.34 0 0 1 .24 0c.08 0 .14.1.11.16zm18.22 9.41a.22.22 0 0 1-.2-.25.42.42 0 0 1 .23-.26.71.71 0 0 1 .22-.07.31.31 0 0 1 .33.29.34.34 0 0 1-.36.27.36.36 0 0 1-.35-.29zm-1.69 6v-.23a.39.39 0 0 0-.43 0 .22.22 0 0 0 0 .35c.13.08.34 0 .37-.1z"/><path d="M608.68 525.7c.1-.06.21-.13.24-.23a.45.45 0 0 0 0-.3 3.44 3.44 0 0 1-.25-.81l-.86 1.19a.23.23 0 0 1-.08.09c-.12.07-.29 0-.45 0s-.34.23-.37.42c-.3 1.3 1.22-.01 1.77-.36zm-18.36 2.77c-.12.29-.35.64-.71.59s-.43-.43-.44-.72a.33.33 0 0 1 .13-.34c.31-.16.62.4 1 .3.09.05 0 .19-.11.15zm8.79-7.38a.43.43 0 0 0 .67 0 .6.6 0 0 0-.31-.25.4.4 0 0 0-.4.08.19.19 0 0 0 .14.29zm-7.86 5.75a1 1 0 0 0 1-.11 1 1 0 0 0-.51-.44.78.78 0 0 0-.87.16c-.17.23.12.61.43.51zm16.16-11.59c-.18 0-.2.25-.09.38a4.5 4.5 0 0 0 .42.3.5.5 0 0 1 .17.44.26.26 0 0 1-.17.22.54.54 0 0 1-.22 0 2.07 2.07 0 0 1-1-.35.7.7 0 0 1-.3-.82.75.75 0 0 1 .56-.38.8.8 0 0 1 .67.23zm-9.36 17.48c.06.29.57.28.91.2s.46-.13.54-.31-.18-.46-.42-.61l-.63-.4a.46.46 0 0 0-.32-.09.41.41 0 0 0-.22.17 2.74 2.74 0 0 0-.47 1.23zm-11.64.05c.27 2.67 4 2.11 4.37-.15s-4.61-2.17-4.37.15zm15.21-9.25a.54.54 0 0 1-.83 0 1.06 1.06 0 0 1 .21-.44.79.79 0 0 1 .48.33zm-123.71-66.37l.27-.34a.83.83 0 0 0-.3-.18.35.35 0 0 0-.1.54zm91.14 52.68a1.7 1.7 0 0 1 1.34.81.21.21 0 0 1 0 .17c0 .09-.14.14-.24.17-.59.21-1.35.39-1.79 0a.66.66 0 0 1 .42-1.09l.41.29z"/></g></g></g></svg>