<svg xmlns="http://www.w3.org/2000/svg" viewBox="0 0 512 512"><style>.A{isolation:isolate}.C{mix-blend-mode:multiply}.D{mix-blend-mode:screen}.F{mix-blend-mode:soft-light}</style><defs><radialGradient id="A" cx="208.89" cy="116.07" r="297.17" gradientTransform="matrix(-1, 0, 0, 1, 408.38, 0)" gradientUnits="userSpaceOnUse"><stop offset=".28" stop-color="#e95059"/><stop offset=".41" stop-color="#e44d59"/><stop offset=".56" stop-color="#d6465a"/><stop offset=".73" stop-color="#bf395c"/><stop offset=".89" stop-color="#9f275e"/><stop offset="1" stop-color="#861960"/></radialGradient></defs><g class="A"><g><g><path d="M0 256c0 6 .22 11.93.65 17.79A254.1 254.1 0 0 0 13.07 337h0a3.44 3.44 0 0 0 .27.71 251.39 251.39 0 0 0 10.57 26.35A256.53 256.53 0 0 0 152 490a250.78 250.78 0 0 0 58.4 17.94A257.62 257.62 0 0 0 256 512a254.91 254.91 0 0 0 151.71-49.83 257.77 257.77 0 0 0 76.1-89.17q4.88-9.51 8.94-19.52A254.5 254.5 0 0 0 512 256c0-2.27-.05-4.5-.11-6.77 0-1.79-.11-3.64-.16-5.43l-.16-2.82c-.22-3.95-.55-7.86-1-11.76l-.76-6.73c-.27-2.23-.59-4.28-.92-6.34l-1.14-6.51c-.6-3.57-1.35-7-2.17-10.57-.49-2.22-1-4.39-1.57-6.61-1.95-7.59-4.23-15.08-6.83-22.4l-1.14-3.14c-.49-1.36-1-2.71-1.57-4.07-.76-2-1.57-4-2.39-5.91l-2.49-5.74a253.05 253.05 0 0 0-17.9-33c-.75-1.2-1.51-2.39-2.33-3.53a111.65 111.65 0 0 0-3.14-4.66 247.71 247.71 0 0 0-17.13-22c0-.06-.06-.06-.06-.11A256.51 256.51 0 0 0 372.55 28a252.16 252.16 0 0 0-72.12-24.15A256.81 256.81 0 0 0 145 25.27c-5 2.38-10 4.93-14.8 7.7l-1.52.81c-.16.11-.38.22-.54.32a256.54 256.54 0 0 0-78.79 70.76 253.4 253.4 0 0 0-17.94 28.2 247.54 247.54 0 0 0-17.52 39.47c-.27.81-.54 1.63-.86 2.44l-.82 2.49a257.53 257.53 0 0 0-10.64 49.88C1.08 232 .65 236.72.43 241.5S0 251.09 0 256z" fill="url(#A)"/><g fill="#470024"><path class="C" d="M0 256c0 6 .22 11.93.65 17.79a16.75 16.75 0 0 0 4.12 7.64c3.2 3.31 8.73 5.26 13.18 6.24 7.05 1.57 14.37 2.27 21.52 3.3a135.17 135.17 0 0 1 25.65 5.91A382.65 382.65 0 0 1 111.37 316a374 374 0 0 0 48.74 20.28c8.95 2.93 18.22 4.77 27.22 7.59 4.23 1.3 8.51 2.28 12.8 3.31 5.91 1.41 11.6 3.31 17.46 4.66 7.59 1.74 14.91 4.29 22.5 5.86 8.56 1.79 17 4.93 25.59 6.24a93.4 93.4 0 0 0 20.6 1.13c3-.21 6-.65 9-.81 4-.27 8.08-.22 12.09-.49a84.68 84.68 0 0 1 17.35.87 74.15 74.15 0 0 0 19.63.43c6.29-.76 12.68-2.82 18.76-4.55a75.63 75.63 0 0 1 19.95-3c2.6 0 5.21.49 7.75.7 2.72.27 5.43.38 8.14.65a65.42 65.42 0 0 0 12.2.06c6.34-.44 12.47-2.71 18.32-5.1a96.35 96.35 0 0 1 20.06-6c6.19-1 12.26-3.25 18.6-1.9a28.15 28.15 0 0 0 3.09.28c1.36.16 2.66.7 4 .86 1.79.27 3.15.22 4.72 1.14a20.43 20.43 0 0 1 2.06 1.68 15.89 15.89 0 0 0 2.06 1.68 27.37 27.37 0 0 0 3.58 1.3 10.35 10.35 0 0 0 5.15.6A254.5 254.5 0 0 0 512 256c0-2.27-.05-4.5-.11-6.77 0-1.79-.11-3.64-.16-5.43l-.16-2.82c-.22-3.95-.55-7.86-1-11.76l-.76-6.73c-.27-2.23-.59-4.28-.92-6.34l-1.14-6.51c-.6-3.57-1.35-7-2.17-10.57-.49-2.22-1-4.39-1.57-6.61-1.95-7.59-4.23-15.08-6.83-22.4l-1.14-3.14c-.49-1.36-1-2.71-1.57-4.07-.76-2-1.57-4-2.39-5.91l-2.49-5.74a253.05 253.05 0 0 0-17.9-33c-.75-1.2-1.51-2.39-2.33-3.53a111.65 111.65 0 0 0-3.14-4.66 247.71 247.71 0 0 0-17.13-22c2.22 5.15 5 10.68 3.68 16.37a21.4 21.4 0 0 1-1.52 4.67 4.06 4.06 0 0 0-.27.65c-2.11-3.15-4.17-6.35-6.45-9.44-2.87-4-5.58-8.18-8.67-12-2.55-3.25-5.64-6.18-8.41-9.22-1-1-3.41-4.23-5-4.06-.54 1.73 1.08 4.12 1.79 5.58 1 2.22 2.71 4.12 3.58 6.45.27.82.7 2.33-.49 2.28a10.27 10.27 0 0 1-1.41-.92c-1.41-1-2.66-2.12-4-3.15-2-1.51-4.12-2.76-6.13-4.28-2.66-2.06-5.42-4-8.13-6-7.43-5.31-15-10.84-22.83-15.5a272.52 272.52 0 0 0-25.54-13.29c-4.61-2.11-9.11-4.39-13.82-6.34a74.15 74.15 0 0 0-11-3.31c-3.09-.76-6.34-.76-9.54-1.08a76.21 76.21 0 0 0-8-.55c-2.33.06-4.61-.43-6.94-.43a16.47 16.47 0 0 0-4 .65c-.38.05-1.79.22-2.06.65-1.25 2 4.34 1.57 5.15 2 3.31 1.57 5.75 5 8.46 7.32 2.38 2.12 4.88 4 7.15 6.24s5 4.23 6.13 7.15c.38 1.09 1 2.66.38 3.75-.81 1.3-2.44 1-3.63.75A99.25 99.25 0 0 1 317.19 60c-4.34-1.35-8.73-2.6-13-4.23a50.36 50.36 0 0 0-11.38-3.09c-3.9-.49-7.81-1.3-11.71-1.79a48.54 48.54 0 0 0-6.89-.59c-1.95 0-3.74-.6-5.69-.55-3.53.06-.92 3.85.81 4.88C275 58 280.64 61.7 287.26 63c7.32 1.47 14.91 2.66 22 5.1 5 1.79 10.25 3.31 15.24 5.26 2.71 1.08 5.37 2.22 8 3.36 3.8 1.63 7.38 3.69 11.17 5.37 5.91 2.6 11.06 6.45 16.43 10.08 5 3.37 9.65 7.11 14.42 10.74a99.18 99.18 0 0 1 11.88 10.57 39.34 39.34 0 0 1 8.35 11.66c2 4.55 4.39 9.92 4.5 14.91.05 3.85-2.12 8.51-5.37 10.68-3.74 2.5-8.4 4.94-13 4.88a52.39 52.39 0 0 1-9.7-.65c-4.67-.87-9.06-2.71-13.89-3-5.15-.27-10.19-.81-15.39-.27a54.23 54.23 0 0 0-17 4.39c-5.26 2.38-10 6.29-14.81 9.49-6.83 4.5-12.74 10.19-18.59 15.78-3.26 3.09-6.13 6.5-9.6 9.32a101.91 101.91 0 0 1-8.41 6.4 67.66 67.66 0 0 1-21.74 9.27c-6 1.52-13.06 2.6-19.08.81-4.56-1.3-8.68-3.68-13.23-4.87a18.85 18.85 0 0 0-8.52-.17 59.16 59.16 0 0 1-13.12 1.25c-2.22 0-4.39-.33-6.67-.49a19.89 19.89 0 0 0-6.66.87c-1.58.38-3.85 1.3-1.85 3 2.22 1.84 6.78 1.25 9.49 1.25 4.83 0 9.65-.16 14.42.59 1.68.28 6.67 1 7 3.26.38 2.93-6.78 2.82-8.19 2.6-4.39-.6-8.78-1-13.18-1.3-5.42-.38-10.84 1-16.15 1.52s-10.58 2.17-16 2.49a24.45 24.45 0 0 1-6.83-.92c-3.74-.81-7.21-1.84-10.84-3-6-1.85-11.77-4-17.9-5.32a39.1 39.1 0 0 0-16.05.06c-2.6.49-5.31.87-8 1.25s-5.31.27-7.91.59c-7.43.87-15.35-1.84-22-4.61-8.07-3.41-15.66-8.08-24.07-10.68a75.51 75.51 0 0 0-16.32-3c-1.3-.17-2.71-.71-4-.38-.71.16-1.25.65-1.9.81-1.73.54-2.06-.65-2.66-2a24.11 24.11 0 0 1-1.89-3.68c-.38-1.31-.71-2.66-1.14-4-.49-1.57-.44-3.09-1-4.61-.38-.81-2.71-5-3.69-5.15h-.16c-.59.22-.65 1.52-.7 2.44 0 .27-.06.49-.06.65a3.87 3.87 0 0 1-.76 1.84 257.53 257.53 0 0 0-10.56 49.9c2-.65 3.91-1.3 5.86-1.78 2.87-.76 5.85-1.09 8.78-1.63 2.71-.49 5.37-1.19 8.08-1.52 5.69-.65 11.71.87 16.92 2.87a57.49 57.49 0 0 1 7.79 3.31c2.39 1.25 4.72 2.5 7.16 3.58s5.09 2.11 7.75 3c4 1.35 7.7 3.41 11.71 4.82 6.18 2.17 12.2 5.37 18.55 6.89 5.91 1.46 11.65 2.82 17.73 3.14 5.2.33 10.46-1.08 15.72-.38 2.06.27 4 1 6.07 1.36 1.74.27 3.42 1.08 5.21 1.14 2.82.16 5.53.27 8.35.54 4.61.49 9.16.92 13.77 1a83.29 83.29 0 0 1 10.36.81c3.19.43 6.39.6 9.59 1.08a32.24 32.24 0 0 1 9.17 2.61c.81.38 2.87 1.3 2.71 2.44-.11.86-1.25 1.3-1.9 1.57-2.22.92-4.66.76-7 .76a54.12 54.12 0 0 1-6-.44c-2.77-.27-5.53.11-8.24-.21-8.95-1-17.46.27-26.19 2.17a45.37 45.37 0 0 1-16.22.75c-7.48-1.08-14.64-3.41-22.06-4.6-13.07-2.12-26.08-4.56-39-7.16-6.23-1.19-12.2-3.31-18.43-4.39l-8.35-1.58c-3.8-.75-7.7-.92-11.55-1.46-5.75-.81-11.22-2.82-17-3.52-3.53-.44-7-.87-10.47-1C.16 246.27 0 251.09 0 256zm51.83 154.45a255.64 255.64 0 0 0 158.6 97.48 1.48 1.48 0 0 1 .27-.32c3.47-3.63 7.26-6.83 11-10.25a145.25 145.25 0 0 1 12.9-10.95c8.08-5.8 16.86-10.74 25.54-15.56 9.27-5.21 18.49-10.52 28.63-13.77a146.07 146.07 0 0 1 16.75-4.88c7-1.36 14.26-1.69 21.36-2.5 22.18-2.55 45.77-.92 66.91 6.67a101.06 101.06 0 0 1 13 5.31c.33.17.6.33.93.49A257.77 257.77 0 0 0 483.81 373a24.37 24.37 0 0 0-7-1.68c-1.9 0-3.79-.11-5.69 0-3.31.11-6.62 1.68-9.76 2.76-8.68 3-17.13 5.75-26.52 4.67a46.89 46.89 0 0 1-6.83-1.2c-2.11-.54-4.06-1.62-6.23-2-2.82-.49-6.24-.22-9.16-.16a45.55 45.55 0 0 0-7.22 1.3c-2.22.38-4.44.54-6.67 1a42.8 42.8 0 0 1-7 1.3 61.17 61.17 0 0 1-7.75-.54 69.58 69.58 0 0 1-14.75-3.69c-3.74-1.3-7.27-1.41-11.22-1.84-9.87-1.08-19.14 2.39-28.42 5.32-5.31 1.68-10.62 1.78-16.1 2.22s-11.11.65-16.75.54a254 254 0 0 1-25.7-2.06c-3.42-.38-6.84-.87-10.2-1.57-6.29-1.25-12.68-2.17-19-3.36a425.39 425.39 0 0 1-46.09-11.55c-6.62-2.12-13.07-4.77-19.74-6.89a74.54 74.54 0 0 0-8.4-2.06c-2.77-.54-5.69-1.25-8.41 0-1.68.81-2.65 2.22-1.78 4.12s3.68 3.25 5.25 4.23c2.44 1.46 4.94 1.95 7.6 2.82 4.82 1.63 9.59 3.58 14.42 5.21 2.93 1 6 1.46 8.94 2.16a82.75 82.75 0 0 1 10.14 3.42c2.93 1.14 5.43 3 8.46 4.12 4 1.52 8.24 2.66 12.31 4.23 10.41 4.07 20.17 10.08 31.23 12.42a90 90 0 0 1 10.52 3.09c1.57.48 4.07 1.41 4.07 3.58 0 3.3-4.78 4.39-7.11 4.93-3.63.87-7.1 2.22-10.73 3.09a29.4 29.4 0 0 0-6.89 2.93 46 46 0 0 1-10.25 3.9c-8 1.9-16.15 3.25-24.34 3-11.33-.43-22.56-2.71-33.94-2.06a71.42 71.42 0 0 0-14.32 2.71c-4.61 1.2-9.16 2-13.88 2.72-12.14 2.06-24.61 1.41-36.87.7a198.75 198.75 0 0 1-25.86-3.58c-5.86-1.14-12.09-1.62-17.57-4-2.6-1.09-5.31-1.63-7.91-2.87a75.45 75.45 0 0 0-4.61-2.06 39.43 39.43 0 0 0-4.25-1.87zM13.07 337a260.49 260.49 0 0 0 10.84 27.06l.6.32a35.72 35.72 0 0 1 8.35 6 28.31 28.31 0 0 0 6.56 4.45c1.57.76 3 1.79 4.55 2.55 1.74.81 3.36 1.89 5 2.82a54.57 54.57 0 0 1 7.43 5.8l2.49 2.38c.71.55 1.47 1 2.12 1.63l4.12 3.69a53.76 53.76 0 0 0 9.87 6 46 46 0 0 0 7 2.49l7.92 2.17c2.66.65 5.21 1.58 7.81 2.39a51.87 51.87 0 0 0 8.73 1.84c4.61.65 9.22.49 13.82 1.52 2.39.49 4.72 1.25 7.16 1.79s4.61 1.3 7 1.63a42.28 42.28 0 0 0 12.25-.11 37.46 37.46 0 0 1 4.23-.22c.92 0 1.84-.27 2.76-.27.6 0 1.09 0 1.63-.05 3.8-.6 7.86-.11 11.66.21l11.76.82a29 29 0 0 0 5.75-.17 39.72 39.72 0 0 1 6.72.17 74.06 74.06 0 0 0 14.64-.71c-.16-3-1.3-3.79-2-4.88-.38-.59-.44-1-1.09-1.41a12.52 12.52 0 0 0-2.38-1 9.08 9.08 0 0 0-1.74-.71 36.79 36.79 0 0 0-4.12-.76 41.41 41.41 0 0 0-4.5-.76c-1.73-.11-3.52.17-5.26.22-1.46.05-3 .16-4.44.27a44 44 0 0 0-8.41 1.3c-2.65.76-5.31 1.63-8.08 2.28-8.46 2-17 5.26-25.75 3.36-1.09-.22-2.12-.32-3.15-.6-1.95-.43-3.68-1.3-5.64-1.73-4.93-1.08-10-1.9-14.85-3.52a57 57 0 0 1-6.56-2.61c-2-1-3.8-2.38-5.86-3.3s-4-2-6.12-2.93l-6-2.61a136.09 136.09 0 0 1-13.88-6.94 128.92 128.92 0 0 1-12.14-8.24c-4.67-3.41-9-7.32-13.78-10.57a115.38 115.38 0 0 0-10.68-6.29c-2.17-1.19-5.09-2.17-6.72-4.12-1.95-2.33-3.25-5.26-4.88-7.81a24.62 24.62 0 0 0-6.56-6.78c-1.25-.92-2.6-1.68-3.85-2.65-1.35-1.1-2.87-2.24-4.33-3.41zM96.35 48l-.33 1.25c.49.31.65.09.33-1.25z" opacity=".2"/><path class="C" d="M31.45 133.06a60.19 60.19 0 0 0 18.6 12.25c9.59 4 20.16 2.93 30.2 4.07 1.89.21 3.36 1.19 5.15 1.46s3.68-.32 5.47-.11c4.56.49 8.35 1.47 13.07 1.41 6.13 0 11.6 1.41 17.73 1.41 5.64 0 14.48 1.63 19.79-.27-.54-2.66-8.4-3.9-10.79-4.88a41.48 41.48 0 0 0-15.51-3c-3.14-.1-5.8-1.19-8.89-1.46-2.76-.27-5.42.33-8.19-.22-2.92-.59-11-2.22-10.08-6.61.16-.82 2.6-3.63 3.2-4.18a12 12 0 0 1 5.15-2.33c3.41-.76 5.69-.49 2.38-4.06-2.11-2.34-4.55-6.24.33-7.32 3.9-.87 7.43.92 11 1.57 1.84.32 3.58-.27 5.47.22s3.64 1.68 5.43 2.11c2.33.6 4.6 0 6.94.65a30.83 30.83 0 0 0 7.15 1c9.22.27 18.82 6 28.09 3.85l11.22-2.5c5.59-1.19 12.09.76 17.52 1.47l21 2.71c4 .65 9.16 2.65 13.17 1.08-1.57-1.63-5.47-1.84-7.64-2.44-5.86-1.52-12-2.66-17.89-3.79-6.35-1.25-13-2-19.41-2.77-4.23-.54-8.57.27-12.69-.43-11.44-1.9-23.53-4-34.49-8.46-10.52-4.34-18.54-13.5-26.62-21.53-4.12-4.17-9.16-8.29-11.55-13.82a87.72 87.72 0 0 1-3.2-9.55c-.86-3-.32-6.56.65-10.14a255.8 255.8 0 0 0-61.76 74.61zm448.45 17.39c-2.61-5.49-4.71-12.83-8.55-17.67-.9-1.13-2.44-1.87-3.51-2.82-1.78-1.6-4.23-6.17-7-6.23-3.59-.08.87 5.5-3.49 5.22-4.64-.3-8.07-5.15-11.58-7.37-1.4-.89-4.86-2.46-6.51-2-1.93.5-1.27 1.15-1.61 3.06-1.8-.15-2.82-1.08-4.08-2.31-3.06-3-5.54-5.86-9.4-7.93-1.87-1-9.44-6.1-11.91-3.88s4.61 10.24 5.51 11.35a47 47 0 0 1 8.58 18.34c2.31 9.94-5.45 21.63-13.95 25.86a66.91 66.91 0 0 0-6.11 3.87c-3 1.91-5.91 2.51-9.31 3.32-7.44 1.76-14.63 5-22.3 5.88a78.85 78.85 0 0 1-24-1.26c-4.16-.85-10-1.79-14 .24-3.05 1.53-5 4.68-7 7.26-2.09 2.74-6.15 4.73-9 6.66-3.85 2.6-8.25 4.38-12.33 6.68-2.6 1.46-4.83 3.43-7.42 4.9s-4.8 2.2-7 4.3c-3.24 3.1-6.39 6.66-6.17 11.41.13 2.9 2.33 3.14 3.78 5.32-3.44 2.66-7.94 3-11.4 5.4-1 .71-4 2-3.58 3.62.74 2.62 8.31 2.07 9.64 2.06l44.6-.08a85.32 85.32 0 0 1 15.51 1.85c1.78.37 3.86.84 4.82 2.56-2.51 2.14-5.8 2.55-8.95 2.94-7.59.95-15.07 2.87-22.66 4-7.31 1-13.64 4.28-20.73 6-2.86.68-5.62 1.69-8.49 2.32-3.79.84-7.46.75-11.29 1.1-15.42 1.4-31-2.22-46.49-2.16a140.55 140.55 0 0 1-17.29-.91 66.79 66.79 0 0 1-14.92-3.84c-3-1-6-1.48-9-2.39s-6-2.21-9.07-2.93a73.59 73.59 0 0 0-16.67-2.25c-5 0-9.71 1.34-14.66.95C143 240.16 136 237 128.32 236a171.92 171.92 0 0 1-41-11.06c-5-2-10.82-2.85-16.11-3.52-1.52-.19-2.86-.92-4.37-1.11s-2.64.18-4-.15c-2.94-.71-5.45-2.35-7.92-3.87-3.5-2.15-7.11-5.42-10.88-7-4.08-1.73-8.63-2.66-12.83-4.06-1.66-.54-3.29-1.31-4.92-1.83-1.14-.36-2.83-.23-3.71-1.07 2.67 2.58 7.14 3.24 10.42 4.65s7.42 3.2 10.06 5.47c2 1.76 3.18 3.41 5.56 4.81 4.9 2.87 8.55 6.51 14.22 8 8.56 2.31 16.72 5.95 25.36 8.2s17.63 3.63 26.34 5.52a489.79 489.79 0 0 0 56.22 9.12 154.42 154.42 0 0 1 22.4 3.83c2.88.71 5.13 2.43 8.05 3.13 3.6.87 7 2.13 10.5 3.32 7.16 2.4 14.29 4.46 21.33 7.21 3.67 1.43 10.1 1.45 11.48 5.88-2.66 1.86-6 1.29-9.09 1.28-2.26 0-4.92.41-7.11-.05a47.76 47.76 0 0 1-8.37-3c-2.6-1.14-5-2.12-7.7-3.08-2.86-1-3.77-2.14-6.64-2.09a17.61 17.61 0 0 1-4.93-.22c-1.42-.41-2.24-1.28-4-.63.7 1.48 3.87 2.7 5.31 3.45 2.05 1.08 3.88 1.05 5.68 2.77s2.82 2.77 0 4.19c-3.09 1.57-7.83.87-11.24.77-11.1-.32-21.73-4.94-32.94-2.67-6.32 1.28-12.37 2.87-18.78 3.92a86.49 86.49 0 0 1-23.12.6c-7.63-.9-15-3.24-22.72-4-4.11-.38-8.39-1.54-12.46-2.31l-16-2.82c-6.64-1.23-13.36-2.83-20-3.91-5.12-.83-10.33-1.15-15.46-2a20.18 20.18 0 0 0-4.85-.26c-1.83.13-1.21.51-2.46.83a31.35 31.35 0 0 0-4.89 1.5c-1.58.65-4.72.41-5.06 2.58 11.41 8 27.42 8.85 40.45 12.53 8.82 2.48 17.47 5.51 26.2 8.27l31.13 9.47c9.75 3.13 19.33 6.86 29.07 10.07 8 2.64 15.71 5.86 23.81 8.17 4.13 1.17 7.87 3.16 11.94 4.43s8 2.37 12 3.84a100.51 100.51 0 0 0 10.21 3c4.54 1.16 8.56 3.07 13 4.56s9.14 2.13 13.54 3.91a90.28 90.28 0 0 0 10.58 4c5.81 1.54 11.6 2.93 17.45 4.29 4.14 1 8.09 2.85 12.24 3.62a94 94 0 0 0 14.19 1.24c4.5.16 8.76 1.06 13.35 1.05 3.82 0 7.73-.31 11.52.22 6.26.9 12.41.8 18.78.8h7.16c2.41 0 5.68.62 8-.22-.36-.88-4.54-1.32-5.95-1.6-2.65-.53-5.53-.23-8.22-.23a59.79 59.79 0 0 1-8.68-.23c-3.27-.48-6.74-.37-10-1-4.61-.9-9.71-1.4-14.2-2.77-2.76-.84-4.82-2.56-7.45-3.54-2.21-.83-4.48-.88-6.76-1.44-3.63-.89-7.13-1.53-10.86-2.07-2.05-.3-4.17-.16-6.21-.43-3.39-.44-6.33-1.83-9.5-2.91-5.49-1.88-10.52-3.88-15.82-6.21-2.72-1.19-5.6-2.56-7.39-5.08-3.72-5.23 5.1-4.21 7.86-3.52 7.64 1.92 15.14 5 23 5.54 3.47.25 6.76.8 10.25 1 4.36.25 8.41 1.12 12.85 1.07 4.13 0 8 .9 12.07 1.07 5.73.24 11.47.71 17.2 1.23 6.42.58 12.75 1.89 19.14 2.65 4.78.57 9.52.68 14.31 1.36 7 1 13.78 2.85 20.75 4.23 3.86.77 7.71 1.9 11.55 2.63 4.16.78 8.31 0 12.39-.7 7-1.19 13.9-1.68 20.8-3.41A60.89 60.89 0 0 0 438.9 321a47 47 0 0 1 24.56-12.12c7.5-1.26 14.55.41 21.54 2.65a44.51 44.51 0 0 0 16.49 2.3c6.7-.37 3.15-6.07 3-10.53-.3-11.59-.11-23.13-1.21-34.67-.37-3.89-4-38.75-9.87-35.9a67.46 67.46 0 0 0-1.17 8.41c-.23 2.35-2.12 3.6-2.34 5.78-1.69-.12-3.29-6.87-3.65-8.37-1.29-5.37-2.74-10.72-3.82-16.18a72.1 72.1 0 0 1-1.43-20.79c.21-2.37.48-5.52 1.94-7.54 1.27-1.75 2.1-1.41 4.14-1.44 3.57-.07 5.13-4 5.16-7.17a39.54 39.54 0 0 0-3.33-15.43c-1.88-4.66-4.29-9.1-5.82-13.91-.52-1.68-2.35-6.4-3.19-5.64zM71.62 433.6A256.45 256.45 0 0 0 152 490c4.72-1.25 9.76-3.42 14.53-3.64 3-.1 9.06-.21 11.39-2.76s-4-3-6-3.42c-2.28-.38-6.78 0-7.54-3-1.74-6.51 20.87-8.62 24.67-9.6 6.51-1.68 13.88-1.46 20.55-1.68a45 45 0 0 0 12.09-2.11c3.8-1.25 7.54-1.95 11.33-3.09a132.58 132.58 0 0 1 22.98-4.93c1.24-.1 9.87-.7 10.14-2a82 82 0 0 0-12.85-3.26c-1.74-.27-2.39.38-3.75.71-1.78.43-3.57.49-5.42 1-17.89 4.66-36.27 4.77-54.65 4.44-2.44-.05-4.5-1-6.89-1.08-1.89-.17-3.85 0-5.74 0a65.42 65.42 0 0 1-18-2.44c-5.2-1.41-10.84-2.17-15.94-3.69-1.57-.49-6.88-1-7.1-2.93 2.6-.92 6.45-.16 9.22-.16a96.88 96.88 0 0 0 13.72-.54c5.36-.71 10.73-.6 16.1-1.3 3.47-.44 7-.27 10-2.5-1.52-2.06-5.81-2.44-8.08-2.87-4.88-.87-9.87-1.36-14.75-2.06-12.36-1.68-24.72-2.33-37.14-2.93-6.72-.33-13.5-1.52-20.23-1.25-5.2.22-10.24 1.2-15.45 1.14-4 0-8-.22-11.93 0a33.14 33.14 0 0 1-5.64-.45z" opacity=".2"/></g><g class="D" opacity=".5" fill="#b83138"><path d="M381.27 185.89c.75 4 2.7 8.94.55 12.89-1.19 2.18-2.81 2.79-4.88 3.85-5.58 2.84-11.82 4.89-18.13 4-4.72-.69-10.36-1.69-14.59-4-3.15-1.7-4.86-5.69-5.72-9s-.76-7.29 2.58-9.12a22.11 22.11 0 0 1 2.64-1.57 23.63 23.63 0 0 1 4.63-.74 77.44 77.44 0 0 1 10.33-.37c2.37 0 4.76-.1 7.12 0A29 29 0 0 1 372 183c3.41.82 7.36.64 9.27 2.89zm-45.2 13.87a28.46 28.46 0 0 0-5.44-4.42c-1.21.94-3.14 1.12-3.76 2.68s-.73 2.45.44 3.8a4.35 4.35 0 0 0 4.12 1.42c1.6-.36 3.86-1.08 4.13-3zM353 210c-2.91-1.43-4.73-2.5-7.49-3.22-1.32-.35-2.45-1.09-3.78-1.37a18.61 18.61 0 0 0-3.92-.55c-1.74 0-2.57-.28-3.83 1a22.28 22.28 0 0 0-2.44 3.11c-.89 1.32-1.4 2.34-1 4a11.71 11.71 0 0 0 3.05 5.26c2.06 2.29 5.4 3.91 8.22 5s7.57 3.09 10.68 2.66a48.08 48.08 0 0 0 5.15-1.53c2.64-.67 5.36-.66 8-1.13s6.33-2.11 5.25-5.53-6.21-6.13-9.54-6.81l-4.65-.79a20.61 20.61 0 0 0-3.7-.1zm-30.8-5.61a12.07 12.07 0 0 1 2.82 5.89c-.66-.1-1 .31-1.64.32a3.83 3.83 0 0 1-1.3-.43c-1.2-.41-2.07-.58-2.41-1.93a3.47 3.47 0 0 1 .24-2.53 6.75 6.75 0 0 1 2.81-1.32zM294 259.35c8.85-.84 17.64-2.76 26.57-2.62A44.72 44.72 0 0 1 348 266.94c3.16 2.7 6.74 5.36 6.69 9.9 0 3.26-2 5.48-4.5 7.32-4.2 3-8.9 4.26-13.8 5.62a84.49 84.49 0 0 1-14.42 3 57.83 57.83 0 0 1-13.6.15 84.89 84.89 0 0 1-13.83-3.49c-3.42-1.06-7.74-2.61-9.75-5.82a12.74 12.74 0 0 1-2.12-6.8c-.08-5-.42-9.76 3.32-13.58 2.25-2.37 4.56-3.98 8.01-3.89zm-22.65.51a19.25 19.25 0 0 1-3.2 6.08c-1.12-1.06-4-.44-5.43-.43a20.52 20.52 0 0 1-3.84-.53c-2.14-.34-5-.6-5-3.32 0-3.38 3.79-3.87 6.42-3.86 3.58 0 7.35-.73 10 2.06zm78.08 35.96c-3.43.48-6.78.85-10.19 1.13a52.45 52.45 0 0 0-10.07 1.43c-2.09.58-3.55.91-4.69 2.83-.6 1-1 1.67-.49 2.81.79 1.74 2.73 2.46 4.39 3.1a51.75 51.75 0 0 0 7.91 2.83c5.66 1.21 11.39 3.08 17.27 2.87 2.78-.1 6.29-1.43 7.7-4a8.34 8.34 0 0 0 .52-7.88 8.67 8.67 0 0 0-8-5.12 11.1 11.1 0 0 0-3.62.52c-.79.26-2.24.34-.73-.52zM494.28 284a98.44 98.44 0 0 1 1.06 15.4c0 2-.87 4.41-2.64 5.45-2 1.19-5.76 1-7.88.41-3.12-.91-6.2-3.14-9-4.82-2.14-1.3-3.1-3.07-4.66-4.94-2.44-2.91-3.45-6.79-4.2-10.49a48.62 48.62 0 0 1-.38-13c.32-4.07 2.13-8.14 3.73-11.85s4.1-5.89 8.28-5.44c3.09.34 6.34 2.25 9.05 3.7 2 1.07 3.26 3 4.45 4.87 1.08 1.71 1.41 3.89 2 5.81a42.73 42.73 0 0 1 1 5.13c.79 3.47.29 7.91-.81 9.77zm-14.38-40.06c.5-2.38 1.93-5.8.84-8-.2-.42-.6-1-.85-1.43a3.25 3.25 0 0 0-2.15-1.75c-2.47-.4-4.67 2.14-5.1 4.22s-.71 4.88.55 6.78c.82 1.23 4 2.68 5.17 1.25zm-5.65-20.55c.51-6.64 2.9-14.62-1.52-20.53-1.49-2-3.91-5.1-6.81-4.72-1.72.22-3.42 2.22-4.53 3.44a18.38 18.38 0 0 0-3.6 6.79c-.68 2.08-1.59 4.33-1.58 6.55a22.8 22.8 0 0 0 1.34 7.67c1.24 3.13 3.83 6.13 7.06 7.1a7.78 7.78 0 0 0 6.58-1.28c1.44-.93 3.17-3.21 3.06-5.02zm4.62-32.39a16.15 16.15 0 0 1-2.69 6.07c-.64-.54-1.56-.47-2.33-.78a5.23 5.23 0 0 1-2.4-2 4.84 4.84 0 0 1-.7-3.85c.41-1.25 2.49-2.72 3.52-3.48 2.19-1.63 3.5.32 5.11 1.95zM243.1 292.74c-2.53-1.21-5.73-3.17-8.64-3.85-1.81-.43-3.55-1.18-5.33-1.7a68.3 68.3 0 0 0-13.65-2l-7.55-.61-5.53-.91c-5.55-.74-11-2.36-16.52-3.12-2.64-.36-5.4-1-8-1.14-1.7-.11-3.36-.51-5.07-.5-3.19 0-6.37-.51-9.58-.54-12.2-.12-23.13 4.54-34.62 7.86-2.61.75-5.27 1.35-7.94 1.85-3.43.63-7.74 1.88-11.19 1-3.8-1-2.54-4.76-.05-6.53 2.84-2 6.46-2.64 9.87-2.62a36.16 36.16 0 0 1 6 0c3 .52 7.82 1.54 8.46 5.13a16.19 16.19 0 0 1-.19 3.74 11.34 11.34 0 0 0 .06 2.47c.41 2.75 3.63 5.62 5.89 7 1.29.8 2.6 1.23 3.85 2.14a33.35 33.35 0 0 0 4.64 2.59c2.44 1.27 4.94 2.3 7.36 3.61a46.37 46.37 0 0 0 5.07 2c4.76 1.93 9.38 4 14.32 5.29 3.88 1 7.57 2.68 11.49 3.59 2.31.53 4.32 1.68 6.54 2.46a21.86 21.86 0 0 0 3.16.9c1.76.35 3.23 1.13 5 1.55 6.24 1.49 12.11 4.2 18.54 4.22 2.73 0 4.35-.09 5.86-2.54a41.75 41.75 0 0 0 3.61-7.35c1.06-2.78 2.4-5.55 5.1-7.05 3-1.66 6.3-2.05 9.17-4 2.64-1.8 3.58-4.55 3.58-7.71a5 5 0 0 0-.63-3.22 8.29 8.29 0 0 0-3.08-2.01zm-133.56-14.9a30.13 30.13 0 0 1-6.35-1.73l-1-.38a18.92 18.92 0 0 0-2.81.06c-1.07 0-3-.32-3.88.49-1.57 1.39-.2 2.94 1.19 4a8.37 8.37 0 0 0 2.85 1.1c.43.09.86-.05 1.28 0s1 .57 1.53.59a10.8 10.8 0 0 0 1.94-.57 6.07 6.07 0 0 0 2-.61c1.09-.76.89-2.31 1.77-3zm200.3 124.21c6.85 1 13.35.78 19 4.8a30.25 30.25 0 0 1 5.93 5.49c3.91 4.91-5 5.61-8.32 6a69.19 69.19 0 0 0-19.34 5.17c-5.45 2.39-11.35 3.9-17.17 1.94-3.84-1.29-7.05-2.09-8.72-6.09-1.54-3.65.13-7.45 3.11-9.78 3.8-2.95 7.56-6 12-7.8 5.05-2.08 9.17-2.1 14.44-.74zm10.73-9.11c-.25-.17 3.44 2 3.74 2.7A1 1 0 0 1 324 397c-1.37 1.18-3.84 1.36-5.54 1.45-1.29.06-2.49-.28-3.77-.32a12.29 12.29 0 0 1-2.26-.23 10.06 10.06 0 0 1-3.85-1.72c-.9-.63-.81-1.82-.71-2.84a3.12 3.12 0 0 1 1.95-2.78c3.61-1.57 7.9.22 11.08 2.05zm32.2 27.32c-1-.07-4-.57-5.52-.28-1 .19-1.91.55-2.88.77l-8.2 1.63a6.41 6.41 0 0 0-4.31 2.45c-.83 1-1.39 1.61-1.17 3 .89 5.58 7.32 6.95 12 7.51a43.58 43.58 0 0 0 11.12-.3c4-.56 8.11-.95 12.07-1.8 2.87-.61 5.74-1.18 8.57-2 1.87-.51 3.69-.92 4.81-2.68 1.85-2.91.61-6.11-2.25-7.7-4.23-2.34-9.8-2.3-14.5-1.91-1.78.15-3.49.52-5.27.57-1.5.12-2.97.85-4.47.74z"/></g><g fill="#470024"><path class="C" d="M234.88 132.47c2.78 1.16 5.61 2.91 8.69 2.61l4.76-.67 7.21-1.43a35.18 35.18 0 0 1 7.54-.52c4.52 0 9 .52 13.53.53a78.81 78.81 0 0 0 11.89-.77c3.65-.54 7.13-1.62 10.71-2.44 1.45-.33 2.83-.9 4.29-1.18 1.76-.35 3.56-.23 5.34-.49 3.48-.52 6.85-.51 10.28-1.59a5.39 5.39 0 0 0 3-1.87c.29-.43.84-1.84.52-2.34-.76-1.17-3.63-.65-4.57-.33a44.07 44.07 0 0 0-8.73 3.83c-4.91 2.91-11.38 1-16.83 1.93-2.29.38-4.65-.21-6.94.09-1.58.2-2.73 1.33-4.2 1.84a13.77 13.77 0 0 1-5.36.2 41.65 41.65 0 0 1-12.16-3.54c-4.41-2-9-4.09-13.91-4.15a40.07 40.07 0 0 0-12 1.15c-2.38.69-4.33 2.09-5 4.53-.61 2.14 1.15 2.92 1.94 4.61zm16.05-79.61a30.61 30.61 0 0 0-5.42.49 44.27 44.27 0 0 1 4.39.65 13.36 13.36 0 0 0 3 .38c.87 0 5.32.44 3.64-1-1.16-.95-4.31-.52-5.61-.52zM128 33.83c.06.11.11.17.17.27 2.71 4.12 4.71 7.7 8.18 11.17a39.43 39.43 0 0 0 10.14 7.49 63.19 63.19 0 0 0 14.51 5.8c5.05 1.14 10.52 2.44 15.73 2.55a98.84 98.84 0 0 0 11.87-.93 314.56 314.56 0 0 0 14.8-1.79l11.55-1.51c3.85-.51 7.59-1.58 11.44-1.9 2.77-.27 5.59-.49 8.35-.54 1.68-.06 3.2-.55 4.88-.55 1.14 0 2.23.06 3.36-.1.82-.17 1.63-.27 2.5-.44-1.14-.11-2.28-.21-3.42-.38-3.09-.43-6.23-.21-9.32-.54s-5.91-.16-8.89-.54a131.23 131.23 0 0 0-15.35-1.09c-4.72 0-9.54.33-14.26 0-1.19 0-3.09-.43-3.79-1.57s-1-2.55.21-3.47c1.41-1 7.65-2.65 6.73-5.26-.28-.76-1.9-.87-2.72-1-2.87-.43-5.85-.59-8.78-1.08-1.79-.33-3.36-1-5.15-1.47-1.46-.43-3-.59-4.45-1a33.94 33.94 0 0 0-6.56-1c-4.77-.27-10 1.74-14.64.06a10.88 10.88 0 0 1-5.47-4c-.65-.82-1.47-1.47-2.12-2.28a38.43 38.43 0 0 0-2.5-3.46c-5 2.38-10 4.93-14.8 7.7.59.27.92.75-1.52.81a3.17 3.17 0 0 1-.68.05zm2.6 13.38c3.79 3.79 7.2 7.2 11.64 10.15 3.78 2.51 8.29 4.11 12.42 5.92a43.45 43.45 0 0 0 9.87 2.93 29 29 0 0 1 4.86 1.3 7.5 7.5 0 0 1 2.39.87c1.07 1 .4 2.1-.69 2.46-2.92 1-6.06.21-9.05-.13C156.16 70 150 69.48 144.22 68a36.16 36.16 0 0 1-10.63-4.35c-3.9-2.47-8.85-5.2-10.93-9.55-1.36-2.85-2.13-5.76.76-7.83a6.44 6.44 0 0 1 4.09-1.67c.87 0 4.38.12 3.09 2.61z" opacity=".2"/></g><g fill="#f9aea4"><path class="F" d="M49.39 104.86a62.6 62.6 0 0 0 16-4.34c1.47-.65 9.33-5.58 3.64-5.74.1-1.3 3.2-4 4-5a47.85 47.85 0 0 1 3.69-4.45c1.79-1.84 3.36-2 5.53-2.87 2.71-1.19 4.93-3.36 7.7-4.56 6.12-2.65 11.6-5.69 18.48-4.44 4.67.87 9.33 4.77 13.4 7.16 5.42 3.25 12 4.71 17.94 6.34a304.47 304.47 0 0 0 32.86 7.26c6.51 1 13.12 1.31 19.63 2.5a50.48 50.48 0 0 0 8.08 1.35c3.79.22 7.53-.32 11.28.22 7.31 1.09 14.63.81 22 .76 2.06 0 11.17 1.41 11.93-1.79-3.09-1.79-7.81-1.73-11.23-2.17-5.36-.65-10.62-.92-16-1.25-14.8-.86-29.49-5.63-44-8.62-6.94-1.46-13.83-3.36-20.71-5.15a78.18 78.18 0 0 1-9.93-2.76c-3.41-1.36-6.56-3.2-10-4.45-5.2-1.9-8.84-3.63-12.9-7.16-1.19-1-2.39-1.57-3-3.09-1.9-4.28 4.5-6.61 7.48-8.24C127.85 53 130.78 51 133.6 50c4.55-1.52 9.16-2.71 13.66-4.55 5.48-2.33 11.12-3.26 16.81-4.94l12.8-3.9c3-.81 6.18-1.63 9.27-2.28 1.3-.22 3.74-.11 4-1.79-1-.38-1.9-.05-2.93-.43.49-2 12.47-2.93 14.53-2.88 4.39.11 8.57-1.08 13-1 4.61 0 9 .93 13.55 1.09 8.51.32 17.08-.06 25.59-.06 3.37 0 6.84.22 10.2 0 1.9-.1 3.3-.92 5.2-1.24-.21-2.17-8.18-3.58-10.14-4.12 1.3-3.2 12.37-2.88 15-2.88a149.22 149.22 0 0 1 15.51.82c4.88.54 9.81 0 14.69.32 3.64.22 7.59 1.68 11.17.76.38-.11 3.91-.81 4.07-1 1.41-1.73-2.17-4.33-3-5.09-4.56-4.29-12-6-17.46-8.14a22.4 22.4 0 0 0 1.35-4.82A256.81 256.81 0 0 0 145 25.27c-5 2.38-10 4.93-14.8 7.7l-1.52.81c-.16.11-.38.22-.54.32a256.54 256.54 0 0 0-78.79 70.76z"/><path d="M167.59 196a61.5 61.5 0 0 1-10.05.59c.23-1.12-1.66-1.19-1.54-2.51 1.71-1 2.69-1.65 4.74-1.52 1.23.07 4.52.65 4.79 2.07zm70.98-117.8a60.42 60.42 0 0 1-10 .6c.23-1.12-1.66-1.19-1.54-2.52 1.71-1 2.69-1.64 4.74-1.52 1.23.08 4.52.66 4.79 2.07zm39.51 357.62a62.64 62.64 0 0 1-10.05.6c.23-1.12-1.66-1.2-1.54-2.52 1.71-1 2.69-1.65 4.74-1.52 1.23.07 4.51.65 4.79 2.07zm176.13-194.06a60.42 60.42 0 0 1-10 .6c.24-1.12-1.66-1.19-1.54-2.52 1.72-1 2.7-1.64 4.74-1.52 1.24.08 4.52.66 4.8 2.07z"/></g><path d="M103.89,344.62A26.53,26.53,0,0,0,98.07,338c-.46,1.64-2.44,1.86-3.28,3.18-1,1.55-.62,4.42,0,6.05,2.25,5.88,8.83,8.68,14.51,9.84,1.91.39,3.9,1.29,5.57-.22a3.4,3.4,0,0,0,.72-4.67c-1-1.34-3.47-2.79-4.86-3.6-1-.57-3.19-1.5-3.41-2.55Z" fill="#f97f7c"/><g fill="#f9aea4"><path d="M78.55 342.56l6.87 6.46c-.83 1.44-3.8-1.11-4.8-1.51s-1.88-.26-2.61-1-1.55-2.52-.14-2.6zm43.95-90.01l6.87 6.46c-.83 1.44-3.8-1.11-4.8-1.51s-1.88-.26-2.61-1-1.55-2.52-.14-2.6zM333.06 21.82l6.87 6.46c-.83 1.43-3.8-1.12-4.8-1.51s-1.88-.26-2.62-1-1.54-2.52-.13-2.6z"/></g><g fill="#f97f7c"><path d="M438.8 274.07a18.51 18.51 0 0 1-.4 8.83c.15 1-.18 1.48-1 1.55-.7.67-2 1.34-2.9 2s-3.28 2.2-4.63 1.92a8.25 8.25 0 0 1-3.29-3 8 8 0 0 1-.49-5.15c.82-2.77 2-6.72 4.83-7.9a14 14 0 0 1 3.42-1c1.78-.23 2.07.06 3.08 1.39zM333 118a3.9 3.9 0 0 1 1.23 1.48c.17.13.19.26.07.39s-.13.52-.17.75-.21.84-.46 1a1.78 1.78 0 0 1-1 0 1.71 1.71 0 0 1-.84-.75c-.27-.57-.67-1.37-.38-2a2.64 2.64 0 0 1 .4-.67c.25-.3.34-.3.7-.23zm-.29 11.37a18.48 18.48 0 0 1-.41 8.82c.15 1-.17 1.49-1 1.55-.7.67-2 1.35-2.91 2s-3.28 2.2-4.62 1.91a8.25 8.25 0 0 1-3.29-3 8 8 0 0 1-.49-5.15c.82-2.77 2-6.72 4.82-7.9a15 15 0 0 1 3.43-1c1.77-.22 2.06.06 3.08 1.4z"/></g><path d="M418.94,95.32c-3,.42-7.41,2-10.42.7-1.18-.49-2.84-2.08-4-2.84-1.71-1.16-4.17-2.31-5.34-4-1.44-2.1-.94-4.36,1.36-5.31,4.62-1.89,17.14-.34,17,6.67Z" fill="#f9aea4"/><path d="M166.26,174.71c-3,.42-7.41,2-10.42.7-1.18-.5-2.84-2.08-4-2.85-1.71-1.15-4.17-2.3-5.34-4-1.43-2.1-.94-4.37,1.36-5.31,4.62-1.89,17.14-.34,17,6.67Z" fill="#f97f7c"/><g fill="#cf6854"><path d="M434.18 259.61c-.35.73-2.13 5.87-4.06 3.83-1.14-1.21-1.11-3.72-.27-5.07.47-.75 1.69-2.5 2.79-2.06.57.22.64.72.77 1.22a3.61 3.61 0 0 1-.26 2.85zm-6.93 10.53a6.9 6.9 0 0 0-.79-3c-.34.31-.83.18-1.21.44a4.15 4.15 0 0 0-.83 1.06 2.86 2.86 0 0 0-.76 2.44 2 2 0 0 0 1.53 1c.62.13 1.81-.35 1.8-1.16z"/></g><g fill="#f9aea4"><path d="M415.17 417.56c-2 2.78-3.52 5.8-6.09 8-1.8 1.55-3.19 3.45-4.94 5.05-2.5 2.29-5.34 4.77-8.51 6.09-1.65.69-1.77-.12-1.15-1.66 1.08-2.71 3.27-3.43 5.6-5.06 2.87-2 6.27-4 8.44-6.78 1.63-2.1 3.04-5.71 6.65-5.64zm-1.54-4.63c-.46 1.3 2.51-5.93 2.12-6.8a2.36 2.36 0 0 0-.68-.79 1.38 1.38 0 0 0-2 .89c-.5 1.69 0 4.41 0 6.19zM91.59 329.92a13.77 13.77 0 0 0-2.73-2.21c-.25.25-.57.08-.87.19a2.42 2.42 0 0 0-1 1.25c-.45 1 .22 1.9 1.06 2.52 1.07.79 4.4.84 4.09-1.24zm320.5-129.26a13.1 13.1 0 0 0-2.72-2.21c-.25.24-.57.08-.87.19a2.34 2.34 0 0 0-1 1.25c-.45 1 .22 1.9 1.05 2.51 1.08.8 4.41.84 4.1-1.23z"/></g><path d="M408.9,279.78a26.8,26.8,0,0,0-5.44-4.42c-.51.49-1.15.16-1.75.39a4.73,4.73,0,0,0-2.08,2.49c-.91,2.06.45,3.8,2.11,5,2.15,1.59,8.81,1.68,8.19-2.47Z" fill="#cf6854"/><path d="M347.39,121.54a27.14,27.14,0,0,0-5.44-4.42c-.5.49-1.14.16-1.75.39a4.73,4.73,0,0,0-2.08,2.49c-.9,2.06.45,3.81,2.11,5,2.15,1.59,8.81,1.69,8.19-2.46Z" fill="#d57a68"/><path d="M148.07,472.52c-1.29-1.35-3.6-4.25-5.46-5.61a34,34,0,0,0-3.77-2,3.48,3.48,0,0,0-3-.47c-1.57.8-1.37,3-.63,4.27,1.18,2.08,4,3.87,6.17,4.75,1,.4,5.27,1.26,5.15-.9Z" fill="#f9aea4"/></g></g></g></svg>