<svg xmlns="http://www.w3.org/2000/svg" xmlns:xlink="http://www.w3.org/1999/xlink" viewBox="0 0 293.75 50"><style><![CDATA[.A{isolation:isolate}.C,.D{mix-blend-mode:multiply}.E,.G,.I{mix-blend-mode:soft-light}.N{opacity:.2}.O{fill:#43dff6}.P{fill:#190024}.Q{fill:#5a4862}.R{fill:#438bf6}.S{fill:#78e3f9}]]></style><defs><radialGradient id="A" cx="179.3" cy="68.16" r="170.49" gradientUnits="userSpaceOnUse"><stop offset=".39" stop-color="#465bef"/><stop offset=".5" stop-color="#4458ea"/><stop offset=".63" stop-color="#3d4edc"/><stop offset=".76" stop-color="#313ec5"/><stop offset=".9" stop-color="#2227a5"/><stop offset="1" stop-color="#141489"/></radialGradient><radialGradient id="B" cx="233.12" cy="34.97" r="96.72" gradientUnits="userSpaceOnUse"><stop offset="0" stop-color="#46ccef"/><stop offset=".2" stop-color="#41beec"/><stop offset=".57" stop-color="#3399e5"/><stop offset="1" stop-color="#2066db"/></radialGradient><radialGradient id="C" cx="231.75" xlink:href="#B"/></defs><g class="A"><g><g><path d="M293.75 148.44A147 147 0 1 1 132.46 2.27q7.11-.7 14.41-.7a146.63 146.63 0 0 1 48.53 8.21 142.43 142.43 0 0 1 13.6 5.53 146.86 146.86 0 0 1 84.75 133.13z" fill="url(#A)"/><g class="P"><path class="C N" d="M209 15.31l-1.41 1.08a11.28 11.28 0 0 0-1.59 1.25 15.28 15.28 0 0 0-1.39 2.16 17.69 17.69 0 0 0-2.77 7.2c-.29 2.08-.44 5.31.53 7.25 1.57 3.13 5 4.11 8.07 5l4.22 1.24c1.69.38 3.42.48 5.12.77 2.57.44 5.09.7 7.42 1.84 1 .5 2.1.59 3.14 1a17.57 17.57 0 0 0 2.6.94c4 .84 8.57.51 12.37 2.3 2.66 1.26 5.56 2.11 8.16 3.47.68.35 1.14 1 1.79 1.38s1.24.77 1.84 1.22a35.66 35.66 0 0 1 3.48 2.59 10.71 10.71 0 0 1 1.95 3c.48.9 1.12 1.71 1.6 2.62a22 22 0 0 1 2.17 6.19c.23 1.24.35 2.9-.32 3.9a5.11 5.11 0 0 1-2.53 1.73c-1.47.64-3.06 1.45-4.72 1.34-1-.06-2-.38-3-.43a17 17 0 0 1-2.84-.39 11.4 11.4 0 0 1-6.17-3.57 30.55 30.55 0 0 0-5.49-4.5 16.82 16.82 0 0 0-8.98-2.89c-1.71 0-2.48.87-3.84 1.67-1.2.71-3.42.08-4.71-.41-1.83-.7-3.78-1.35-5.67-.37s-2.82 2.72-5 2.8a32.12 32.12 0 0 0-8.23 1 9.7 9.7 0 0 0-3.62 1.56 20.55 20.55 0 0 0-2.1 2 18.4 18.4 0 0 1-2.21 2.37c-1.07.83-2.16 1.49-3.19 2.39a46.43 46.43 0 0 1-6.4 4.68 28.26 28.26 0 0 1-5.25 2.2c-2.66.94-5.55 1.23-8.1 2.49s-4.76 3.41-6.87 5.39c-1.77 1.65-3.86 2.93-5.57 4.64-1.29 1.29-1.65 2.82-2.31 4.45-1.83 4.55 0 9.59-1.63 14.12-.39 1.1-1 2.09-1.39 3.21a19.49 19.49 0 0 1-2 4.24 12.14 12.14 0 0 1-5.34 5.13c-1.29.57-2.71.74-4 1.27-.65.27-1.22.55-1.84.87a15.79 15.79 0 0 1-1.72.53c-2.4.85-3 3-3.77 5.16-.61 1.75-1.64 3.51-1.08 5.45.88 3 5.29 4.17 7.62 5.57 1.46.87 1.7 1.35 1.28 2.92-.24.92-.33 2.17-1.14 2.84s-2.44-.07-2.94.74c-.33.53.14 1.25.26 1.76.17.77.27 1.55.44 2.33a7.85 7.85 0 0 1 .11 4c-.47 2-1.34 4-1.62 6-.31 2.28 1.64 4.14 3.41 5.18a42.24 42.24 0 0 0 4.32 2.25 18.06 18.06 0 0 0 4.05 1.43 26.72 26.72 0 0 1 3.72.69c1.63.55 3 1.48 4.54 2.16 1.15.49 2.41.75 3.55 1.29a44.52 44.52 0 0 0 5.45 2.12 8.54 8.54 0 0 1 3 1.51c.63.5 1.12 1.28 1.78 1.73 2 1.36 2.75-2.48 1.22-3.51s-3.67-1.17-5.24-2.34a18.08 18.08 0 0 1-3.66-4.41 28.64 28.64 0 0 1-3.41-5.16c-.77-1.73-.59-3.43-.6-5.29s.07-3.54-.79-5.26c-.71-1.44-1.77-2.66-2.44-4.13a9.55 9.55 0 0 1-.81-3.64 6.8 6.8 0 0 0-.6-3.51 3.46 3.46 0 0 1-.11-3.57 13.93 13.93 0 0 1 4-4.94 46.94 46.94 0 0 1 7.62-5.26c3-1.77 6.36-2.63 9.68-3.6 7.61-2.24 15.62-4.56 23.47-2.06a114.85 114.85 0 0 0 15.76 4 7.25 7.25 0 0 0 4.59-.78c1.57-.77 2.91-1.44 4.68-1 2 .48 4.24 1.47 6.31 1.46s3.81-.72 5.81-.35a21.52 21.52 0 0 1 4.36 1.64c1.57.64 2 1.78 3 3.1.67.91 1.13 1.92 1.78 2.83.48.69 1.13 1.26 1.66 1.93a13.24 13.24 0 0 1 2.29 4.56c.61 1.86.37 4.54.2 6.5-.24 2.81-.41 5.65-.88 8.45-.4 2.42-1.31 4.52-1.93 6.87a20 20 0 0 0-.31 7.23c.34 2.68.92 5 .45 7.67a24.57 24.57 0 0 1-1.94 6.73c-1.1 2.23-1.93 4.53-3.12 6.73-1.32 2.42-3.1 4.47-4.56 6.77a18.12 18.12 0 0 1-4.82 5.48 5 5 0 0 0-2.33 2.67 18.32 18.32 0 0 0-1.14 3.07 18.37 18.37 0 0 1-.44 1.92 20.38 20.38 0 0 1-1.17 2.67c-.53 1.15-.54 2.14-1.5 3.11a14.15 14.15 0 0 1-1.62 1.27 27.87 27.87 0 0 0-3.52 2.61l-3.07 3.25c-1.07 1.09-2.55 2-3.72 3.12-2.12 2-4.36 4.35-7 5.74a36.68 36.68 0 0 1-6.65 3.06 48.3 48.3 0 0 0-7.28 2.73 25.24 25.24 0 0 1-6.5 1.65c-2.15.4-4 1.59-6 2.57-1.82.9-3.35 2.06-5.33 2.44a31.89 31.89 0 0 0-5.43 1.5c-3.49 1.27-6.85 3-10.57 3.25-1.38.08-2.71.38-4.09.42a36.85 36.85 0 0 0-6 .2c-2.19.41-4.33.79-6.54 1.09s-3.89.8-6.05.54a14.22 14.22 0 0 1-4.06-.81 23.27 23.27 0 0 1-2.4-1.54c-1.81-1.23-3-2.88-5.12-3.57-2.3-.72-4.73-.24-7.1-.36a25.17 25.17 0 0 1-7.66-2 18.88 18.88 0 0 0-3.57-1.17 15.74 15.74 0 0 0-4 .3c-3.25.3-6.48 1-9.74 1.46-2.64.38-5.21 1.46-7.9 1.45a27.8 27.8 0 0 1-6.2-1c-2.17-.52-4.07-1.72-6.24-2.13-2.66-.53-5.29-1.12-7.91-1.82-2-.53-4-.73-6.05-1.21a18 18 0 0 1-5.34-1.98c-1.44-.87-2.84-1.83-4.31-2.64a6.45 6.45 0 0 0-4.29-1c-.76.13-1.44.61-2.19.71a7.06 7.06 0 0 1-2.36-.33c-2.08-.45-3.11-1.77-4.35-3.41a2.9 2.9 0 0 1-.68-3c.86-3.05 1.56-6.2-.69-8.79a10.36 10.36 0 0 0-4.79-3.3c-1.76-.43-3.64.07-5.37.31a14 14 0 0 1-4.65-.42 16.74 16.74 0 0 1-3.31-1.58 17.33 17.33 0 0 1-2.74-1.55A146.9 146.9 0 1 0 209 15.31zm7.28 236.31c-.37 2.66-2.69 5.25-4.53 7.06a46.06 46.06 0 0 1-7.27 6.25c-1.35.88-2.65 1.83-4.05 2.65a16.58 16.58 0 0 1-4.27 1.62 60 60 0 0 1-7.29 1 67.47 67.47 0 0 1-7.5.6 8.87 8.87 0 0 1-5.19-1.95c-1.48-1-1.81-2.1-2.14-3.77a12 12 0 0 1-.2-4.47 19 19 0 0 0 .47-2.47 40.64 40.64 0 0 1 11-8.58c1.06-.47 2.21-.69 3.3-1.1 2.59-1 5.08-2.15 7.75-2.93 1.37-.39 2.79-.46 4.16-.84a29.42 29.42 0 0 1 4.56-.9 26.11 26.11 0 0 1 3.18-.2 11.88 11.88 0 0 1 2.91.48c1.62.37 3.44 1 4.38 2.48a7.4 7.4 0 0 1 .71 5.07zM198.5 140.9a27.81 27.81 0 0 0 1.57-2.73c.31-.84.05-1.11-.68-1.43-1.39-.61-3.09.19-4.47.53-1.7.41-3.45.54-5.18.82a34.65 34.65 0 0 1-5.39.07 18.65 18.65 0 0 0-4.19.65c-2.82.71-6.32 2.14-8 4.61a21 21 0 0 0-3.27 6.88 16 16 0 0 0-.71 4.85 16.57 16.57 0 0 0 1.13 3.71 31.13 31.13 0 0 0 3.34 6.71 18.19 18.19 0 0 0 2.74 3.22c.59.6.91 1.35 1.52 1.9a12 12 0 0 0 4.61 2.54c.87.2 1.31.11 1.93.87a18.91 18.91 0 0 1 1.22 1.61 9.65 9.65 0 0 1 1.2 8.13c-.74 2.81-3.11 4.88-5.45 6.43a11.1 11.1 0 0 1-7.78 1.94 40.79 40.79 0 0 1-5.18-.83 9.19 9.19 0 0 0-4-.2 27 27 0 0 1-9.7 0 20.24 20.24 0 0 1-10.12-5.67 15.06 15.06 0 0 0-3.71-3.36c-1-.54-2.1-.87-3.08-1.42a31.49 31.49 0 0 1-3.46-2.59c-1.57-1.23-3-1.86-4.2-3.54a13.5 13.5 0 0 1-2.18-8c0-3.21.14-6.65-.89-9.75a6.76 6.76 0 0 1-.75-2.57c0-1.38.89-2.41 1.56-3.56 1-1.71 1.36-3.58 2.21-5.33a9.58 9.58 0 0 0 1.09-2.64 5.3 5.3 0 0 0-.69-2.62c-.23-.51-.53-1-.81-1.52s-.67-.89-.84-1.28a3.86 3.86 0 0 1 .13-2.28 22.7 22.7 0 0 1 2.71-6.73 10.32 10.32 0 0 1 4-3.85c1.24-.74 2.66-.89 4-1.48 2.33-1.09 5-2 6.77-3.88l3.32-3.7c.63-.79 1.29-1.33 1.94-2a11.47 11.47 0 0 0 1-1.83 9.58 9.58 0 0 0 1.61-3.59 29.72 29.72 0 0 0 .73-4.5 36.65 36.65 0 0 1 .81-5.54l.09.17c.92-.31 1.7-1.61 2.31-2.38l3.41-4.44a116.6 116.6 0 0 0 7.9-14.53l4.06-8.43a19.94 19.94 0 0 0 2.6-6.35c.63-3.34-.15-6.68-1.1-9.88-.66-2.22-1.88-3.3-3.54-4.85a15.41 15.41 0 0 1-3.12-4 8.62 8.62 0 0 1-.72-1.82c-.17-.7-.11-1.41-.28-2.13l-1.32-6.75a11.77 11.77 0 0 0-1.41-3.1 22.64 22.64 0 0 0-2.51-4.28c-1.7-1.87-3.88-2.81-6-4.11-1.85-1.15-3.48-2.71-5.44-3.65-2.48-1.2-5.59-1.16-8.3-1.23l-9.47-.49c-3.46-.28-6.86-.3-10.33-.31a36.91 36.91 0 0 0-7.35.38 51.49 51.49 0 0 0-8.88 2.46c-2.87 1.12-6 1.84-8.91 2.81-1.64.54-3.1 1.35-4.71 1.95-1.45.53-3 .78-4.43 1.29-2.28.82-4.55 1.43-6.8 2.33-4.57 1.86-9.6 2.4-14.17 4.33-3.45 1.46-7.29 3.07-10.19 5.48a44.19 44.19 0 0 0-3.21 3.21c-1.51 1.51-3.22 2.75-4.44 4.51a28.06 28.06 0 0 0-2 3.53c-.87 1.77-.9 3.76-1.4 5.65-1 3.82-.93 7.82-1 11.74s-.36 7.86-.69 11.72A64.24 64.24 0 0 1 42 86.41a29.54 29.54 0 0 1-3 6.9c-3.15 6-6.1 12.28-6.4 19.19-.23 5.67 1.33 11 5.28 15.1 2.19 2.29 4.82 3.56 6.42 6.41 1.3 2.33 1.51 4.76 1.77 7.38a17.59 17.59 0 0 0 1.89 6.5 15.39 15.39 0 0 0 5.18 5.25c2.63 1.83 5.25 3.47 7.7 5.54 2 1.66 3.84 3.45 5.8 5.13a13.77 13.77 0 0 0 5.89 3.06A35.4 35.4 0 0 1 79 169a45.63 45.63 0 0 1 5.64 3.6c1.49 1 3 1.93 4.54 2.86s3.65 2.17 4.4 4c.68 1.67.91 3.54 1.57 5.26a32.79 32.79 0 0 0 3 6.29 27.81 27.81 0 0 0 3.52 4.44c1.64 1.66 3.68 2.66 5.47 4.1 2.07 1.65 3.52 3.88 5.43 5.68 4.8 4.51 9.58 8.54 15.86 10.84 6 2.19 13 2.27 19.27 2.1a123.43 123.43 0 0 0 21.65-2.83 54.8 54.8 0 0 0 16.7-6.5c4-2.36 9-7.42 8.89-12.53-.05-1.72-.46-3.35-.46-5.11 0-1.59.09-3.19 0-4.77a16.2 16.2 0 0 0-3.26-9.16 11.06 11.06 0 0 1-1.45-3.16 7.37 7.37 0 0 0-2.19-2.83 14.35 14.35 0 0 0-6-3.41 6.11 6.11 0 0 1-4.2-3.72 21.51 21.51 0 0 1-1.5-7.4c0-1.89-.43-4.51 1.69-5.36 2.31-.94 5.83-.35 7.92.82 1.46.82 1.29 2.29 1.67 3.74 1 3.87 8.81 2 10.25-.72.6-1.16.69-3 1-4.44a8 8 0 0 0-.83-4.85c-.38-.71-.27-1 0-1.78a22.06 22.06 0 0 1 .92-3.26zm-83.49 15a4.88 4.88 0 0 1 2.32-.74 3.69 3.69 0 0 1 2.54 1.23 10.42 10.42 0 0 1 1.91 2.84 26.41 26.41 0 0 1 1.21 2.37 5.36 5.36 0 0 1 .87 3.91c-.19.84-.28 1.41-1.1 1.78a18 18 0 0 1-2.41 1.29 4.89 4.89 0 0 1-2 .11 10.91 10.91 0 0 1-2.07-1 1.61 1.61 0 0 1-1.11-1.83 9.57 9.57 0 0 1-2.8-2.76 5.33 5.33 0 0 1-.45-2.47 6.08 6.08 0 0 1 3.08-4.77zm29.44 48.77c-1 3.56-2.87 8-7.12 8.27a14.77 14.77 0 0 1-2.3.19 13.67 13.67 0 0 1-1.54-.24 26.61 26.61 0 0 1-3.17-.55 27.18 27.18 0 0 1-7.75-3.43c-1.28-.88-2.39-2-3.62-3l-3.48-2.77c-1.88-1.52-3.48-3.34-5.62-4.5a17.72 17.72 0 0 1-3-2.45c-.73-.63-1.51-1.21-2.22-1.84a8.83 8.83 0 0 1-1.82-1.62c-.27-.39-.67-.6-.92-1-.17-.25-.26-.52-.44-.77a7.23 7.23 0 0 1-1.43-2.41l-.5-1.87c-.2-.81-.27-1.64-.55-2.43-.18-.5-.19-1-.34-1.51-.19-.7-1-2.41-1.08-2.73.41.09.53-.76.85-1.61.2-.5.54-.94.73-1.41 0-.19.06-.37.08-.56l.32-.52c.07-.11.13-.27.2-.4a8.31 8.31 0 0 1 3.48-3 13.69 13.69 0 0 1 3.62-1 12.31 12.31 0 0 1 5.23-.22 21.89 21.89 0 0 1 4.69 1.49 38.58 38.58 0 0 1 4.34 1.75 65.35 65.35 0 0 1 6.45 4.51 51.47 51.47 0 0 0 4.35 3.18 19.84 19.84 0 0 1 3 2.06 22.9 22.9 0 0 1 4.67 5.78 28.31 28.31 0 0 1 2 4.68 37.81 37.81 0 0 0 1.31 3.75c.86 1.88 2.2 3.96 1.58 6.14z"/></g><g class="Q"><path class="D N" d="M52.31 46.49l-1.89 6.15c-.2.87-.09 1.79-.23 2.68a23.33 23.33 0 0 0-.31 4.09v4.11c0 1.87-.45 3.64-.42 5.51a36 36 0 0 1-.4 4.63 35.65 35.65 0 0 1-.59 4.27 31.21 31.21 0 0 0-1 3.68c-.05.4.06.85 0 1.24s-.47.71-.37 1.15c2 1 2.47-6.84 4.74-6.38a16.84 16.84 0 0 1 .06 3.69c0 1.6-.74 3-.82 4.54a61.58 61.58 0 0 0 .42 6.68c.13 2.87.66 5.82 1 8.69l1.31 9.51c.28 1.5.34 3.75 1.62 4.85.67.59.52.41 1.11-.23s.38-.42 1.17-.64c.57-.15.74-.42 1.45-.37a2.94 2.94 0 0 1 1.74.67c.41-.39.24-.79.27-1.29l.42-4.54c.21-3.14.73-6.27 1.1-9.39.22-1.92.42-5.37 1.72-7 .61-.76 1.26-.77 1.73.1a3.67 3.67 0 0 1 .28 1.73c.08.8.33 1.56.42 2.36a20.88 20.88 0 0 0 1.52 4.73c.24.66.43 2.82 1.4 2.88.61 0 1.77-1.81 2-2.34.86-.18 3.77 3.29 4.27 4 .35.48.54 1.06.88 1.55s1 1.07 1.39 1.72c.9 1.49 1.13 3.63 2.56 4.79 2.63 2.14 4.48-1.27 5.76-3.18l2.83-4.77 1.93-3c.26-.37.83-1.51 1.32-1.54.83 0 2.35 2.55 2.8 3.12s1.32 2.07 2 2.47c1.06.59 2.92-.33 3.81-.73a26.53 26.53 0 0 0 11-9.72c2.93-4.4 5.94-8.84 10.49-11.74a11.73 11.73 0 0 0 3.4-2.77A59.47 59.47 0 0 0 131 76c1.76-2.93 3-6.13 4.74-9.1 2.06-3.59 4.25-7.1 6.36-10.66 3.2-5.36 6.94-9.8 7.61-16.25.58-5.52 1.17-11.84-2.32-16.61-1.67-2.28-4.74-3-7.38-3.51a14.76 14.76 0 0 0-6.09.72 51.42 51.42 0 0 0-6.43 2.23c-3.47 1.53-6.48 3.67-10.52 3-1.74-.29-2.92-1.62-4.44-2.38a7 7 0 0 0-4.63-.72c-4.87.82-8.39 3.66-12.34 6.38a54.41 54.41 0 0 0-6.76 5.35l-2.11 2c-1.33 1.24-2.29 2.74-3.5 4.08-1 1.1-11 11.14-11.09 5.18 0-2.05 1-3.57 1.89-5.33a3.85 3.85 0 0 0 .51-2.72c-.57 0-1.11-.35-1.64-.4a6.19 6.19 0 0 0-2.65.84 5.26 5.26 0 0 0-3 3.4 16.49 16.49 0 0 1-4 6 23.27 23.27 0 0 1-2.43 2.23c-.5.36-.84.61-1.32.11-.81-.84-.57-2.84-1.1-3.84a2.41 2.41 0 0 0-1.51-1.28c-1-.27-1.64.44-2.51 1a7.76 7.76 0 0 1-2.03.77zm6.46 75.13a34.56 34.56 0 0 0 2.11 8.88 28 28 0 0 0 2.53 5.22c.75 1.08 1.38 2.31 2.22 3.29a22.26 22.26 0 0 1 1.81 2.18c.74 1.12 1.67 2 2.47 3.08a6.43 6.43 0 0 0 2.18 2.1c.81.4 1 .48 1.24-.33a8.57 8.57 0 0 0-.64-4.43 41.92 41.92 0 0 1-2.11-4.61 23.85 23.85 0 0 0-1.58-4 44.84 44.84 0 0 0-2.94-5.57 20.52 20.52 0 0 0-4.06-4.6c-.72-.6-2.82-2.26-3.23-1.21zm17.37 26.25l4.24 6.43a3.64 3.64 0 0 0 1.72 1.6l.19-.71c.48.09.93.84 1.3 1.15 1 .82 1.62 1.84 2.55 2.75l2.86 2.84c.64.64 1.45 1.64 2.45 1.65.32-.8-.74-1.75-1.14-2.45l-2.22-3.6a75 75 0 0 0-5.6-7.53c-1.27-1.58-2.42-3.68-4.33-4.65a1.64 1.64 0 0 0-2.36.93c-.34.72.27 2.19.34 1.59zm87.65-31.51a75.41 75.41 0 0 0 4.43-11.09c1.14-3.63 2.63-6.52 5.74-8.82 5.49-4.06 12-6.1 18.25-8.74 3.43-1.47 6.57-3.44 10.11-4.68 4-1.41 7.93-3.07 12-4.45 1.32-.45 7.47-2.7 8.49-.77.84 1.59-1.85 2.2-1.6 3.35a14.48 14.48 0 0 0 4.87 0 45.41 45.41 0 0 1 5.21-.76h4.75c2.73.08 5.52 1 8.18 1.54a40 40 0 0 1 5.55 2c1 .37 3 .77 3.77 1.61.57.64.53 1.32-.45 1.63-.61.19-2.08-.28-2.39.46s1.18 2.13 1.64 2.45c3.49 2.41 8 2 11.68 4a16.19 16.19 0 0 0 4.31 2c1.48.33 3 .14 4.46.46 3.1.7 5.76 3.94 7.37 6.5 1.38 2.2 2.37 4.54 3.72 6.74 1.61 2.61 2 5.69 3.13 8.49 2.06 5.3 2.62 11 3.35 16.58.7 5.44 1.27 11.26.18 16.68-.93 4.57-1.16 9.31-2 13.92-.91 4.9-1.53 9.83-2.23 14.74-.28 1.93-.3 3.94-.5 5.88a65.23 65.23 0 0 1-1.3 6.94 45.53 45.53 0 0 1-2.34 7c-.55 1.4-.84 2.92-1.51 4.26-.77 1.54-2.58 4.29-4.45 4.63-.64.12-1.81-.9-2.43-1.24a22.83 22.83 0 0 1-2.6-1.71 5.1 5.1 0 0 1-2.25-3.74c-.13-.69-.05-1.35-.17-2a6.17 6.17 0 0 1-.23-2.71 30 30 0 0 0 .3-4.44c0-.83.38-1.57.44-2.4.1-1.4-.14-2.77.07-4.16a23.31 23.31 0 0 0-.4-8.24c-.17-.92-.16-2.19-1.19-2.54a7.73 7.73 0 0 0-.93 1.65 10.64 10.64 0 0 0-.41 2.75 29.91 29.91 0 0 1-.34 5.28c-.26 1.25-.33 2.52-.69 3.76-.42 1.49-1 3-1.58 4.46l-3 7.79c-2.11 5.41-5.82 9.77-9.79 13.86-1.73 1.78-3.7 3.37-5.46 5.14a39.55 39.55 0 0 1-6.43 5.11 136.49 136.49 0 0 0-14.78 10.74c-2.76 2.43-5.77 5-9.14 6.51-1.88.84-2.12-.87-.86-2 2-1.74 4.76-2.33 6.88-4 3.5-2.79 6.84-5.76 10.1-8.82 4.58-4.3 9.27-8.5 13.62-13a34.36 34.36 0 0 0 3.73-5.16 42.75 42.75 0 0 0 3.36-5 36.92 36.92 0 0 0 3-9.13c.43-2.45 1.35-4.82 1.68-7.3a30.24 30.24 0 0 0 0-3.81 3.48 3.48 0 0 0-.51-2.36c-.71.08-.85 1.8-1 2.37a24.76 24.76 0 0 1-1.41 4.78c-.19.38-1.08 2.2-1.53 2.16-.78-.06-.43-2.67-.32-3.18.33-1.51.75-3 1-4.53.37-2 .44-4.05.91-6a25 25 0 0 0 .81-5.69 22.89 22.89 0 0 1 1-5.29c.48-2.12.81-4.28 1.26-6.41.6-2.92 1.41-5.73 2-8.64s1.22-5.79 1.59-8.73c.42-3.36.06-6.74 1-10.06.26-1 1.1-3.84 2.64-3.1s1.79 3.79 2.72 5.06c1.13 1.58 1.69 3.33 2.75 5 .9 1.4 1.21 2.64 3.13 2.33 2.55-.4 3.91-3.92 4.14-6.17a12.32 12.32 0 0 0-.33-3.84c-.13-.63 0-1.21-.07-1.83s-.4-1.22-.43-1.9a53.94 53.94 0 0 0-1.61-8.94 22.11 22.11 0 0 0-1.85-5.4 23.77 23.77 0 0 0-5.37-6.63c-3.93-3.75-9.08-5.79-14.41-6.73a11 11 0 0 0-5 0c-1.12.38-3 1.16-2.85 2.6s1.5 3 2.48 4.06a25.51 25.51 0 0 0 5.71 4.52c2.19 1.32 5.06 2.79 6.73 4.76a9.38 9.38 0 0 1 2.09 5.35c.1.86.27 2.82-.4 3.45-.84.81-2.92.64-3.85.27a15.11 15.11 0 0 1-4.84-3.62 24 24 0 0 0-5.27-3.8 29.85 29.85 0 0 0-6.54-2.78 39.35 39.35 0 0 0-7.35-1.31c-1.73-.06-16-1.41-15.77.74 1.89.63 3.81.4 5.76.47a11.93 11.93 0 0 1 5.87 1.65c.94.56 1.3 1.14 0 1.2a40.19 40.19 0 0 0-4.65.31c-1.11.18-2.21 0-3.32.18a30.73 30.73 0 0 1-4.07.32 82.15 82.15 0 0 1-8.59-.51l-8.4-1c-2.41-.28-4.82-.71-7.25-.9s-4.62-.69-6.93-.84a23.56 23.56 0 0 0-8.41 1.2c-5.89 2-11.23 5.22-16.67 8.13-2.5 1.34-5 2.26-7.26 4-1.75 1.37-3.79 2.31-5.53 3.67a29.19 29.19 0 0 0-4.65 4.37 10.15 10.15 0 0 0-1.42 2 5.12 5.12 0 0 1-.75 1.54c-.66-1.6.3-4.27 1-5.64a11.61 11.61 0 0 1 5.36-4.93 116.94 116.94 0 0 0 13.28-7.42 6.27 6.27 0 0 0 3-3.82 2.51 2.51 0 0 0-.54-2.69z"/></g><g class="E O" opacity=".5"><path d="M185.6 30.46a5.33 5.33 0 0 1 1.14-1.46c.16.16.27 0 .47 0a2.24 2.24 0 0 1 .67.11l1.08.12a10.26 10.26 0 0 1 1.36.12c.58.18 1 .88 1.48 1.26.3.26.66.43.94.69a4.23 4.23 0 0 1 .93 1.46 11.69 11.69 0 0 1 .58 2.54 3.19 3.19 0 0 1-.19 2.15 3.93 3.93 0 0 1-2.1 1.89 4.82 4.82 0 0 1-2.55.26c-1-.15-3.26-.26-2.53-1.86.47-1 1.76-.42 2.55-.74.4-.16.78-.4 1.18-.56a4.16 4.16 0 0 0 .51-.28c.3-.18.3-.22.41-.54a1 1 0 0 0-.2-1 2.73 2.73 0 0 0-1.32-.84 4.84 4.84 0 0 1-.73-.25 1.46 1.46 0 0 0-.85-.18 1.73 1.73 0 0 1-1.35-.57 4 4 0 0 1-.43-.79c-.13-.24-.33-.33-.49-.53s-.37-.7-.56-1zm-2.16-3.23a11 11 0 0 1 0-3.8l.85-2.67a7.3 7.3 0 0 0 .23-4.7c-.28-.68-.63-2.41.4-2.56a1.8 1.8 0 0 1 1.22.4 8.13 8.13 0 0 1 .88.62 3.94 3.94 0 0 1 .76 1.3 6.65 6.65 0 0 1 .42 1c.1.4.09.81.19 1.22a7.54 7.54 0 0 1 .14 2.8c-.13.8-.34 1.56-.53 2.34a5.08 5.08 0 0 1-2.3 3.24 13.42 13.42 0 0 1-2.26.81z"/><path d="M128.84 0l.6.2c-.09.46-.44.87-.6-.2zm66.56 9.78a40.8 40.8 0 0 1-2.85 4.63 18.17 18.17 0 0 1-4.11 4.1c-.76.6-1.62 1.06-2.37 1.67a10.1 10.1 0 0 1-2.7 1.71c-5.37 2.11-10.81 3.49-16.44 1.68a30.75 30.75 0 0 1-8.86-4.57c-1.22-.9-2.28-2-3.41-3a29.58 29.58 0 0 0-4.06-3.09c-2.5-1.6-5.52-1.92-8.3-2.87a34 34 0 0 1-3.21-1.42 9.72 9.72 0 0 1-2.75-1.65 28.52 28.52 0 0 1-2.07-2.19c-.53-.65-.93-1.38-1.47-2-.12-.14-.22-.29-.34-.44q7.11-.7 14.41-.7a146.63 146.63 0 0 1 48.53 8.14zM228.55 46a10.24 10.24 0 0 0 1.84 1c.12 0 .3 0 .44.06.77.21 1.54.26 2.32.41l5.68 1.28 2.65.31a11.52 11.52 0 0 1 2.72.61l2.53.9a11.34 11.34 0 0 1 2.62 1.27c1.17.9 1.68 2.37 2.8 3.3a31.66 31.66 0 0 1 4 3.67 13.78 13.78 0 0 1 1.48 2.19l1.22 2a6.71 6.71 0 0 1 1.07 3c0 .38.14.88-.4.77l-2.24-.41a10.33 10.33 0 0 0-2.88-.36 15.61 15.61 0 0 1-4.92-.09 12.41 12.41 0 0 1-2.34-.62c-.66-.31-1.27-.72-1.91-1.07a4.51 4.51 0 0 1-2.12-3.2c-.17-1.08.51-2.13.17-3.2s-1.73-2-2.77-2.62a42.46 42.46 0 0 0-5.39-2.2l-1.32-.55a9.17 9.17 0 0 1-1.83-.76 17.5 17.5 0 0 1-1.82-1.39c-.56-.51-1.05-1.11-1.61-1.63-.34-.32-.66-.44-.67-.94a4.16 4.16 0 0 1 .68-1.73zm.13 6.28c-.61 0-1.23.07-1.84.14l-.38.51a2 2 0 0 0-.48 1.36 2.37 2.37 0 0 0 1.18 2c1.09.67 3 1.6 4.09.42.48-.55.23-1.27 0-1.87l-.4-.87a5.09 5.09 0 0 0-.48-.64 1.92 1.92 0 0 0-.94-.77 3.18 3.18 0 0 0-.74-.17c-.22 0-.42-.16-.64-.13zm-26.39 93.84a48 48 0 0 1-2.36 8.44 11.74 11.74 0 0 0-.86 4.8c0 2.19-1 4-1.31 6.1-.35 2.39.69 4.67 1.82 6.72a16.71 16.71 0 0 0 5.45 5.94c2.76 1.71 6.11 2.42 9.13 3.48a14.21 14.21 0 0 0 6.9.7c3.08-.38 6.22-2.62 8.38-4.74a53.56 53.56 0 0 0 5.65-6.2c1.48-2 2.32-4.29 3.5-6.45 2-3.64 2.72-9.5-1-12.28a4.52 4.52 0 0 0-2.28-.83 24.17 24.17 0 0 0-2.81-.32c-1.24 0-2.45.42-3.69.31a7.5 7.5 0 0 1-2.19-.55 4.54 4.54 0 0 0-2.21-.54 5.46 5.46 0 0 0-2.46.86 12.12 12.12 0 0 0-1.95 1.64c-.38.4-.87.94-1.47 1a5.35 5.35 0 0 1-2.14-.81 18 18 0 0 1-3.73-2.75c-2-1.85-3.64-4-6.28-5.06-.87-.33-2.23-.52-2.93.11s-.83 1.18-1.16.43zm15.35-1.62c1.11.46 5.22 2.69 6.41.49a2.4 2.4 0 0 0-1.76-3.39 5.61 5.61 0 0 0-2.44.22 2.22 2.22 0 0 0-1.21.45c-.72.72-.46 2.1-.46 3zm9.16 48.74l1.78-3.37c.35 0 .6-.18 1-.09a1.79 1.79 0 0 1 1.1 1 11.63 11.63 0 0 1 .46 4.4 11.06 11.06 0 0 1-.21 2.37c-.08.42-.05 1-.39 1.28a4.93 4.93 0 0 1-.72.39 6.13 6.13 0 0 1-1.91.22c-.78.12-1 .35-1.73-.15-.32-.24-.8-.45-1-.8a3 3 0 0 1 0-2.17 9.43 9.43 0 0 1 1-1.89c.3-.51 1-1.09 1-1.69h.22zm-13.73 16.97c-3 3.5-6.4 7.06-10.89 8.62-1.14.39-2.26.85-3.44 1.13-.49.12-3.37 1-3.16 1.79a5.44 5.44 0 0 1 2.46 1.11 11.76 11.76 0 0 0 1.73 1 8.81 8.81 0 0 1 1.45 1.2c1 .85 1.93.45 3 0a26.78 26.78 0 0 0 5.44-2.56c.64-.48 1.4-1 2-1.48a10.31 10.31 0 0 0 1.54-2 8.63 8.63 0 0 0 1.16-1.8 18.57 18.57 0 0 0 .34-2.09 3.38 3.38 0 0 0 0-2.11 10.68 10.68 0 0 0-.47-1.27c-.29-.75-1.11-1.09-1.16-1.54zM20.26 113.54a22.44 22.44 0 0 0 2.19 6.24 34.35 34.35 0 0 0 4.35 5.91c.83 1 1.87 1.74 2.64 2.76a15.28 15.28 0 0 1 1.33 2.32 30.61 30.61 0 0 1 3.11 7.14 21.82 21.82 0 0 1 .67 5.51c-.06 1.68-.31 3.39-.49 5.06-.39 3.6-.6 7.21-.92 10.82a27.64 27.64 0 0 1-.49 2.84c-.29 1.42-.41 2.82-.6 4.26a26.45 26.45 0 0 1-1.33 6.11 33.63 33.63 0 0 1-2.72 5.23c-1.29 2.09-2.46 4.63-4.52 6.07a11.38 11.38 0 0 1-2.09 1.26 10.89 10.89 0 0 1-1.89.37 10.43 10.43 0 0 1-3.43.25 5.49 5.49 0 0 1-2.62-1.12c-1-.81-2.16-1.14-3.17-1.87a10.75 10.75 0 0 1-2.35-2.7 18.82 18.82 0 0 1-1.68-3.71c-.49-1.43-.86-2.89-1.34-4.32a36.93 36.93 0 0 1-1.55-4.85c-.57-3.1-1.58-6.09-2-9.22a47.55 47.55 0 0 1-.47-5.32c-.07-2.11.26-4.16.29-6.25 0-1.69.15-3.36.33-5s.13-3.34.19-5a96.94 96.94 0 0 1 1.14-11.4A101.07 101.07 0 0 1 5.44 114a36.19 36.19 0 0 1 1.9-5.35 13.9 13.9 0 0 1 2.48-4.24 3.35 3.35 0 0 1 4.79.22 23.15 23.15 0 0 1 3 4.37c.76 1.27 1.49 2.66 2.15 4a4.08 4.08 0 0 1 .21.56c.07.3.21.63.27.86.07.41.38 1.11.02-.88zm-4.04-12.39a6.24 6.24 0 0 1 3.48.69c.45 0 .69.23.72.62.09.12.19.3.27.43a18.37 18.37 0 0 1 1.14 1.77c.21.46.34.91.06 1.28a1.7 1.7 0 0 1-1.5.61 5.43 5.43 0 0 1-2.76-1.42c-.51-.51-1.55-2.16-1.41-2.9zM49.07 179a22 22 0 0 0 .43 4.21l.63 1.92a19.25 19.25 0 0 0 2.39 4.05c.54.87 1 2.29 1.92 2.79a4 4 0 0 0 3 0l2.71-.83c.57-.13.87-.17 1.14-.79a6.5 6.5 0 0 0 .26-1.16c0-.23.24-.49.23-.73a5.53 5.53 0 0 0-1-2l-1.36-2.28a10.42 10.42 0 0 0-1.65-1.74 37.19 37.19 0 0 0-2.93-2.69c-.72-.57-1.73-1.43-2.69-1.21-.43.09-.92.46-1.35.5s-.98-.71-1.73-.04zM55 209.67a13 13 0 0 0 2.57 2.33c.15-.58 1.45-.82 1.16-1.55-.12-.31-1.1-.83-1.37-1-1.06-.67-3.44-1.22-3.44.74zm62.47 58.43l1.75-3.37a9.14 9.14 0 0 0 2.48-.48 5.29 5.29 0 0 1 3 .1 7 7 0 0 1 3.83 4.25 15.52 15.52 0 0 1 .58 2.67 1.16 1.16 0 0 1 .2.79l-.71 1.1a5.78 5.78 0 0 1-1.44 1.35 3.37 3.37 0 0 1-3.25.72 13.77 13.77 0 0 1-2.12-.93 6.06 6.06 0 0 1-1.87-1c-.85-.83-.9-1.94-1.3-3a21.48 21.48 0 0 0-1.15-2.2zm15.62-.27a24.48 24.48 0 0 1 3.72-.25c.28.77 1.25 1 1.35 1.88.06.6-.25.86-.89.81s-.94-.56-1.49-.89a4.53 4.53 0 0 1-1.34-1.28zm50.32 15.32a28.28 28.28 0 0 0 4.2 0 9.86 9.86 0 0 0 1.42-.62 32.58 32.58 0 0 0 4.84-2.5 59.4 59.4 0 0 0 8.19-7.42c2.59-2.63 5-5.44 7.69-8a13.23 13.23 0 0 1 4.57-3.08c.69-.26.5-.15 1 .07a5.18 5.18 0 0 0 1.19.56 3.84 3.84 0 0 0 1.07 0c.62-.12 1.24-.2 1.86-.33 2.58-.52 4.42-2.85 6.22-4.54 1-.91 1.94-1.85 3-2.69.46-.39.92-.85 1.41-1.22.68-.52 1.47-.86 2.13-1.41a21.53 21.53 0 0 0 3.53-4.08c.56-.78.94-1.66 1.48-2.45.37-.56.86-1.65 1.68-1.64 1.26 0 2.44 2.33 2.64 3.32a15.51 15.51 0 0 1 .14 5.8 12.33 12.33 0 0 1-1.68 3.67 25.9 25.9 0 0 1-3.65 5.1 61 61 0 0 1-11.11 9.15c-1.87 1.24-3.87 2.25-5.7 3.54s-3.68 2.73-5.69 3.93c-1.69 1-3.33 2.09-5.05 3a21.71 21.71 0 0 1-5.74 2.09c-2.65.6-5.39.8-8.07 1.25-1.08.18-2.16.47-3.24.67a11 11 0 0 0-2.15.68 3.37 3.37 0 0 1-3.37-.36 14.78 14.78 0 0 1-2.81-2.49z"/></g><g class="G"><g class="O"><path d="M161 230a25.62 25.62 0 0 1 4.37.56c-.32.16-.16.54-.22.82a1.57 1.57 0 0 1-.41.76c-.08.05-.18 0-.26 0a5 5 0 0 1-.67.13 7.32 7.32 0 0 1-1.93-.06c-.72-.1-2 0-2.2-.87a1.3 1.3 0 0 1 .24-.91c.11-.18.32-.59.54-.57zM36.25 151.71a25.74 25.74 0 0 1 4.37.56c-.32.16-.16.54-.23.83a1.49 1.49 0 0 1-.4.75c-.08.05-.18 0-.26 0a5.28 5.28 0 0 1-.67.13 7.87 7.87 0 0 1-1.94-.05c-.71-.11-2 0-2.19-.88a1.26 1.26 0 0 1 .24-.91c.11-.18.32-.58.54-.57zm127.54 74.79a5.76 5.76 0 0 0 2.35.54 4 4 0 0 0 1.79-.81 6.62 6.62 0 0 0 2.38-2.68 2.61 2.61 0 0 0-1.31-3.05 16.14 16.14 0 0 0-2.91-1.22 4.31 4.31 0 0 0-3.87.75 3.94 3.94 0 0 0-1.3 1.67 3.15 3.15 0 0 0 .29 2 4.05 4.05 0 0 0 1.57 2.38 6.64 6.64 0 0 0 1.17.5c.16.01.71.28-.16-.08zm-10.64-19.93a6 6 0 0 1 1.46-.92c.26.52 1 .66 1.11 1.33.07.49-.11.87-.61.94s-1.2.31-1.63 0a1.71 1.71 0 0 1-.46-1.47zm69.94-174.19a6 6 0 0 1 1.46-.93c.26.52 1 .66 1.11 1.33.06.49-.11.88-.61.95s-1.21.3-1.63 0-.46-1-.47-1.48zm-58.98 247.98a6 6 0 0 1 1.46-.93c.26.52 1 .66 1.11 1.33.06.49-.11.88-.61.95s-1.21.3-1.63 0-.46-1-.47-1.48zm38.04-140.81a5.83 5.83 0 0 1 1.45-.92c.27.52 1 .65 1.11 1.32.07.49-.1.88-.6 1s-1.21.3-1.63 0-.46-1-.47-1.48zM146 56.72l-3.13 7.75a8.26 8.26 0 0 0-.69 2.55c.28 1.32 1.37.88 2.21.6l3-.92c1.58-.64 2.24-1.89 3.24-3.18 1.91-2.49 2.66-5.6 1-8.43-1.6-2.64-4.29-1.58-6.07.55zM175.64 46c.24 1.54.19 9.87 4.3 9.18 2.1-.36 2.16-2.32 2.16-4.07s0-3.75-1.07-5.34c-.9-1.33-2.59-2.42-4.23-1.83l-.09.44zm2.55 12.2l-1.75 4a25.45 25.45 0 0 0-1.44 3.49 16.39 16.39 0 0 0-.41 2.2 12 12 0 0 1-.69 2.2c-.09.25-.4 1.22 0 1.43s.88-.35 1.08-.52a8.17 8.17 0 0 0 2.23-3.18 22.6 22.6 0 0 0 1.46-3.21 11.36 11.36 0 0 0 .49-3.37c0-.39-.15-.74-.14-1.14a4.56 4.56 0 0 0-.14-.9 1.29 1.29 0 0 0-.19-.67c-.13-.17-.44-.53-.5-.33z"/></g><path d="M179.94 58.07l.31 1.69c.43-.2.71-.21 1-.62a.92.92 0 0 0 .15-.81.83.83 0 0 0-.52-.77c-.51-.25-.66-.2-1.08.24z" class="S"/><g class="O"><path d="M200.68 67.09l1.83-2c.36-.35.76-.85 1.27-.94a9.19 9.19 0 0 1 2.28.11 13.47 13.47 0 0 0 2.84-.17c.9-.11 2.35-.59 3.07.16a1.3 1.3 0 0 1-.29 1.94c-.77.56-2 .39-2.93.39a14.78 14.78 0 0 0-4.35.4c-.86.23-2.91 1.53-3.72.11zm-52.11 219.35l1.83-2c.36-.35.76-.85 1.27-.94a9.19 9.19 0 0 1 2.28.11 14.22 14.22 0 0 0 2.84-.17c.9-.12 2.35-.6 3.07.16a1.3 1.3 0 0 1-.29 1.94c-.77.56-2 .39-2.94.39a14.41 14.41 0 0 0-4.34.4c-.86.24-2.91 1.54-3.72.11zm63.96-224.07c.76-.31 2.29-1.24 3-.34a1.33 1.33 0 0 1-.21 1.7 1.49 1.49 0 0 1-1.37.54c-.61 0-1.88-.38-1.72-1.22zM31.3 101.42a27.53 27.53 0 0 1 1.61-5.8A15.39 15.39 0 0 0 34 93.35a35 35 0 0 1 2.33-4.45 33.78 33.78 0 0 0 2.96-8.9 13.3 13.3 0 0 0-.92-7.42c-1.1-2.62-3.95-2.77-5.87-.88a17.57 17.57 0 0 0-2.81 4.52 31.23 31.23 0 0 0-2.77 5.92 31.43 31.43 0 0 0-.86 6.68c-.07 1.84-.65 3.44-.32 5.33a45.43 45.43 0 0 0 .91 4.62 6.82 6.82 0 0 0 .6 1.44 11.53 11.53 0 0 0 .91 1.66 5.19 5.19 0 0 0 1.91 1.2c.5.1 2.13-.44 1.23-1.65zm6.46-43.22a50.42 50.42 0 0 0 .49 5.49c.75-.19 1.41.65 2.24.54a4.88 4.88 0 0 0 2.72-2.14c.78-1.37 1.07-4 .23-5.43A6.58 6.58 0 0 0 42.23 55c-.4-.24-1.19-.06-1.64-.06-1.71 0-1.41.93-2.42 2zM39 134.54c1.81 2.55 3.41 4.36 4.16 7.29.28 1.12.65 1.93-.3 2.66-1.79 1.37-3.35.31-4.67-1.05-2.22-2.3-5.09-8.19-.08-8.86a2.8 2.8 0 0 1 .48 1.17zm37.94 40.8a11.78 11.78 0 0 1 5.28-1.34c-.17 1.24 1.71 1.64 1.92 2.68s-.9 1.08-1.74 1.11c-1 0-1.85.7-2.85.22-.84-.42-1.43-1.6-2.2-1.84z"/></g></g><g class="P"><path class="C N" d="M132.08 179.58a24.63 24.63 0 0 0 2.07 2.09c.36.25.79.4 1.16.68a12.65 12.65 0 0 1 1.9 1.75 13.46 13.46 0 0 1 1.13 1.48l1.62 2.47a12.12 12.12 0 0 1 .59 1.13c.26.45.68.81 1 1.25a24.42 24.42 0 0 1 1.56 2.47l1.26 2.59a27.38 27.38 0 0 1 1.36 2.84 11.39 11.39 0 0 1 .85 2.61c.17.85.53 1.61.67 2.48a9.71 9.71 0 0 1 0 4 16.09 16.09 0 0 1-1.73 4.25 7.18 7.18 0 0 1-.9 1.41c-.35.38-.69.54-.91 1a2.13 2.13 0 0 0-.26 1.23 1.67 1.67 0 0 0 .65.75c1.46 1.1 3.79.6 5.38.25l1.3-.24c.68-.12 1.31-.42 2-.53a26.66 26.66 0 0 1 3.22-.22c1 0 2-.22 3-.21a24.4 24.4 0 0 0 4.23-.56l3.29-.66c.61-.17 1.22-.19 1.82-.4l1.45-.46c.82-.19 1.54-.47 2.33-.7a15 15 0 0 0 2.81-1.47c1.76-1 3.65-1.71 5.44-2.62.44-.23.78-.58 1.24-.77a3.6 3.6 0 0 0 .82-.39 7 7 0 0 0 1.82-1.47c.81-1.12-1-.33-1.42-.2l-5.52 1.77c-.71.18-1.44.27-2.16.4a7.65 7.65 0 0 1-2.28.26 4.35 4.35 0 0 1-3-1.42 4.56 4.56 0 0 0-.84-1l-1.13-1c-.79-.81-2-1.33-2.49-2.41a2.17 2.17 0 0 1-.13-1.33c.14-.35.61-.55.93-.7 1-.48 2.11-.77 3.11-1.26 1.19-.59 2.44-.94 3.63-1.53.92-.44 1.88-.69 2.82-1.06a19.09 19.09 0 0 1 2-.45c.9-.24 1.86-.32 2.78-.5a10.12 10.12 0 0 0 2.68-1.06 13.79 13.79 0 0 0 4.09-3.19c.79-.85 1.75-2.26 1.21-3.48-.15-.34-.2-.91-.67-.82-.27.06-.46.41-.6.62a12.09 12.09 0 0 1-2.37 2.48 6.61 6.61 0 0 1-2.06 1.14c-.88.37-1.67 1-2.53 1.39a56.66 56.66 0 0 1-7.39 2.68c-1.69.53-3.31-.06-5-.23-1-.1-2 0-3.09-.14a12.35 12.35 0 0 0-2.42-.25c-.9 0-1.78-.21-2.7-.2a21.77 21.77 0 0 1-3.11-.35l-3.42-.5a19.68 19.68 0 0 1-2.09-.58 6.82 6.82 0 0 1-2.22-.63c-2.17-1.48-4-3.44-6.15-4.9-.57-.38-1-.9-1.57-1.28a9.85 9.85 0 0 1-1.37-1.06c-.68-.66-1.51-1.18-2.22-1.81-.39-.35-.68-.82-1-1.17a5.06 5.06 0 0 0-1.37-.7l-1.26-.51a4.17 4.17 0 0 1-1.84-1.05zM185 203c-.16.13 1.85-1.49 2.21-1.89.16-.19.23-.4.46-.55.53-.36 1.09-.52 1.54 0 .72.84.37 1.56-.11 2.43a2.07 2.07 0 0 1-2.07 1.21 2.72 2.72 0 0 1-1.22-.3c-.29-.17-.89-.83-.4-1.12z"/><path class="C N" d="M107.64 164.23l3.21 2.93a6.41 6.41 0 0 0 2 1.42c1.29.57 2.76.76 4.09 1.23a18 18 0 0 0 3.65.7 14.15 14.15 0 0 1 4.09 1 4.52 4.52 0 0 1 1.5 1.6c.12.17.11.41.24.58s.38.32.53.51c.27.36.42.78.69 1.14a12.54 12.54 0 0 0 1.93 2.06c.22.18 1.06.74 1.08.89a8.47 8.47 0 0 1-2.09-.9c-.41-.24-.72-.59-1.12-.84-.18-.12-.45-.15-.61-.28a5.49 5.49 0 0 1-.49-.67 6.28 6.28 0 0 0-2.73-1.56l-1.58-.61c-.22-.09-.42-.23-.64-.31a1.86 1.86 0 0 1-.61-.32 9.58 9.58 0 0 0-2-1.09 32.11 32.11 0 0 0-4.17-.86c-1.16-.27-2.31-.68-3.45-1a14.13 14.13 0 0 0-2.54-.72 33.86 33.86 0 0 1-4.37-.65 9.09 9.09 0 0 1-2.2-.81c-.38-.21-.8-.36-1.17-.6s-.58-.51-.91-.72c-1-.65-1.79-1.46-2.78-2.12a14.52 14.52 0 0 1-2.83-2.16 1.86 1.86 0 0 1-.6-1.27c0-.67.19-.64.81-.6 1.07.06 2.12 1 3 1.62l1.63 1a4.18 4.18 0 0 0 2.21.39 7.4 7.4 0 0 1 3.29.56c.22.1.57.33.81.22a1.6 1.6 0 0 0 .35-.42c.14-.23.25-.51.4-.75a5.57 5.57 0 0 1 .45-.83l.61-.75a10.7 10.7 0 0 1 2-1.88c.32-.28.83-.77 1.21-.41a1.2 1.2 0 0 1 0 1.43 7.46 7.46 0 0 1-1.22 1.42 10.19 10.19 0 0 0-1 1.36c-.09.15-.14 0-.21.24s0 .55 0 .82c-.25.58-.31.93-.46.01zm38.58 28.48l2.63 5.2a11.87 11.87 0 0 1 .81 1.87 10 10 0 0 1 .45 2.36c.27 2.44-.8 5.1 1.2 7.09a3.47 3.47 0 0 0 2.86.85 14.88 14.88 0 0 0 3.77-.41 5.77 5.77 0 0 0 2-.59 4.21 4.21 0 0 0 1.47-2.54 11.34 11.34 0 0 0-.25-6.94c-1.08-2.39-4.46-2.19-6.52-3a13.49 13.49 0 0 1-3-1.77 10.08 10.08 0 0 0-2.69-1.85c-.63-.26-2.59-.64-2.73-.27z"/></g><g class="Q"><path class="D N" d="M105.35 29.79l-5.49 2.85A52.5 52.5 0 0 0 93.63 36l-2.51 1.85a5 5 0 0 0-1.4 1.11c-.32.42-.49.92-.8 1.36l-2.13 3.18c-1.31 1.61-3.18 2.71-4.66 4.14l-3.17 2.9-3.19 3.13-3.54 3.19a23.23 23.23 0 0 0-1.62 1.81 23.71 23.71 0 0 0-1.89 3.56 18.38 18.38 0 0 0-1.54 5.89 20 20 0 0 0-.27 5.56l.67 6.21a14.5 14.5 0 0 0 2.76 6.55c1.22 1.56 2.38 3.16 4.18 4.07l1.82 1a22.9 22.9 0 0 0 2.09 1.32 7.3 7.3 0 0 0 3 .82c1.56.05 3.08.6 4.67.56a37.92 37.92 0 0 0 5.06-.76c1.68-.27 3.09.49 4.77-.05a38.92 38.92 0 0 1 5-1.22 7.48 7.48 0 0 0 2.62-.73l2.25-1.19c1.93-1.06 3.69-2.42 5.63-3.47a15.56 15.56 0 0 0 2.69-2l3.46-3a54.21 54.21 0 0 0 5.84-6.79c1.32-1.85 2.26-4 3.4-6l3.11-5.13a25.92 25.92 0 0 0 1.56-2.87l1.07-2.94a8 8 0 0 0 .8-3.52c0-1.93.39-3.85.14-5.75-.11-.78-.06-1.58-.2-2.35a4.55 4.55 0 0 0-1-2.12 7.14 7.14 0 0 1-.72-2.16 14.21 14.21 0 0 0-1-2.11 9 9 0 0 0-5.92-4.18c-.88-.21-1.77-.2-2.65-.38-.65-.13-1.27-.34-1.91-.49l-1.73-.33a7.9 7.9 0 0 1-1.66-.61 4.41 4.41 0 0 0-1.61-.25c-.8 0-1.53-.29-2.36-.29a4.62 4.62 0 0 0-3.66 1.35c-.07.08 0 .29-.07.38a2 2 0 0 1-.37.33 4.82 4.82 0 0 0-.69.64 16.73 16.73 0 0 1-1.34 1.89A10.35 10.35 0 0 1 104.4 40a30.14 30.14 0 0 0-3.64 2c-1.51 1.09-2.83 2.4-4.28 3.55A7.66 7.66 0 0 0 94 48.37c-.57 1.29.52 2.54 1.63 1.35.21-.23.42-.45.29-.76s-.58.17-.49-.42c0-.23.36-.36.52-.49.42-.35.78-.81 1.22-1.14a5.22 5.22 0 0 1 2-.75c.34-.09.52-.42.8-.07.15.2 0 1 0 1.2s-.33.64-.45 1-.38.78-.33 1c.17.67 1.73.08 2.13-.09a19.12 19.12 0 0 1 2.61-.77 6.81 6.81 0 0 0 2.4-1.05 15.52 15.52 0 0 1 1.78-1.14 20.79 20.79 0 0 1 2.56-1c1.48-.52 3.32-2.13 4.24 0a10.75 10.75 0 0 1 .74 4 4.62 4.62 0 0 1-.22 1.07c-.11.5.14.78.38 1.23.94 1.75 2.25 3.26 1.45 5.34a5.28 5.28 0 0 1-.52 1.1 5.46 5.46 0 0 1-1.11 1 7.8 7.8 0 0 0-1.26 1.84 3.39 3.39 0 0 1-1.12 1.14c-.85.44-2 .26-1.59-.88.23-.7 1.12-1.45.74-2.27-.13-.29-1.17-1.29-1.44-1.24s-.89 1.55-1 1.88a18.61 18.61 0 0 0-1 3.05 5.68 5.68 0 0 1-1.13 2.36 18 18 0 0 1-2.14 1.87 19.09 19.09 0 0 1-3.39 1.75 3.47 3.47 0 0 1-3 .17 3.14 3.14 0 0 0-2.55 0 6.34 6.34 0 0 1-3.71.84c-.76-.13-1.13-1.1-1.67-1.63a10.37 10.37 0 0 1-1.95-2.42 6.25 6.25 0 0 1-.2-5.56 23.94 23.94 0 0 0 1-2.59c.14-.56.73-1.94 0-2.31-.49-.25-1.44.5-1.88.75a7.55 7.55 0 0 1-1.63.82 2.74 2.74 0 0 1-1.26.24c0-.36.51-1.24.68-1.62l.9-2a52.62 52.62 0 0 1 2.58-5.48 13.77 13.77 0 0 1 2.72-3.86l1.5-1.52 1.88-1.54a17.13 17.13 0 0 1 2.37-1.79 15.28 15.28 0 0 0 2.23-1.78 17.16 17.16 0 0 0 1.69-1.76c.44-.52 1-.86 1.48-1.34a8 8 0 0 0 1.88-2.29c.24-.54.64-1.81-.01-2.02z"/><path class="D N" d="M85.7 47.83c-.63 2.52-1.45 4.78-2.23 7.23a11.26 11.26 0 0 0-.47 1.39 2 2 0 0 0 .46 1.62c.33.55.81 1.11 1.08 1.67a5.14 5.14 0 0 1 .33 2.43c0 2.61 1.53 4.62 3 6.66a39.26 39.26 0 0 0 2.85 3.43 11.19 11.19 0 0 1 1 1.57 9.48 9.48 0 0 0 1.5 1.47c.9.87 2.28.61 3.44.34a16.14 16.14 0 0 0 4.08-1.4l3.19-1.69a22.81 22.81 0 0 0 3.3-2.24l2.4-1.61 1-.8c.37-.25.64-.27.93-.46 1.21-.75 2-2.15 3-3.19a17 17 0 0 1 2.2-2.13 40.47 40.47 0 0 1 3.67-2.72c.63-.39 1.8-1 1.21.28a17.06 17.06 0 0 1-2 2.76l-.95 1.28a4 4 0 0 1-.54.69c-.14.14-.56.29-.63.45-.38.81 1.09.36 1.45.46.78.22.37 1.1.06 1.62a4.91 4.91 0 0 1-1.81 1.63 40.31 40.31 0 0 0-3.57 2.16 23.87 23.87 0 0 1-2.76 1.71 26.28 26.28 0 0 1-2.88 1 40.13 40.13 0 0 0-5.19 2.3 34.17 34.17 0 0 0-5 3.17 7.43 7.43 0 0 1-3.22 1.58c-.58.14-.87.39-1.46.08a4.94 4.94 0 0 1-1.22-.9l-2.29-2.55c-.44-.5-1-.77-1.34-1.34a7.44 7.44 0 0 0-1.15-1.51c-.91-.88-1.84-1.61-2.8-2.42l-1.84-1.66a24.05 24.05 0 0 0-2.86-1.79c-1.41-.93-2.9-1.62-3.91-3-.54-.76-.07-1.49.83-1.62.37-.06.59.09.89-.18s.3-.62.46-.89a5 5 0 0 0 .81-2.15v-1.27c0-.75.22-1.46.27-2.21a10.57 10.57 0 0 1 1.51-4.6c.39-.73 3.28-5.81 5.2-4.65z"/></g><g class="O"><path class="I" d="M101.38 80.62a12.55 12.55 0 0 0-1.94 2.47 12.4 12.4 0 0 0-.44 1.68 2.33 2.33 0 0 0 .44 2.48c.76.76 1.91.67 2.88.65a14.89 14.89 0 0 0 4.3-.65 29.84 29.84 0 0 0 8.75-5.16c2.17-1.83 5.58-4.87 3.75-8-1.58-2.74-5.22-2.08-7.69-1.1a32.92 32.92 0 0 0-4.92 2 29.88 29.88 0 0 0-2.84 1.9 12.15 12.15 0 0 0-1.74 1.62 3.32 3.32 0 0 0-.7 1.42c-.35.82-.59 1.53.15.69zm17.37-9.49c.13-.37 1.1-4.42 2.35-3.23.32.3.31.8.42 1.2a4.48 4.48 0 0 1 .27 1.44c0 .93-.39 1.79-1.42 1.6a2.8 2.8 0 0 1-1.62-1.22zM230 89.59c.07-.2.6-2.4 1.28-1.75.17.16.16.43.22.65a2.3 2.3 0 0 1 .15.78c0 .5-.21 1-.77.87a1.54 1.54 0 0 1-.88-.66zM94.63 87.37c.36.15 4.3 1.49 3 2.63-.33.28-.82.23-1.23.31a4.51 4.51 0 0 1-1.46.14c-.92-.12-1.74-.55-1.47-1.57a2.85 2.85 0 0 1 1.36-1.5zm31.57-27.02a7.51 7.51 0 0 1-.58-2.52 11.7 11.7 0 0 0-.17-2c-.17-1.33-.58-2.61-.74-3.94a7.65 7.65 0 0 1 .54-3.75 3.56 3.56 0 0 1 1.53-2 2 2 0 0 1 .89-.13 7.57 7.57 0 0 1 1.26 0c.87.2 1.44 1.13 1.8 1.87a21.13 21.13 0 0 1 1.05 2.51 9.73 9.73 0 0 1 .42 1.18c.1.43.1.87.16 1.3a14.37 14.37 0 0 1 0 3.82 4.92 4.92 0 0 1-2.06 3.56 3.52 3.52 0 0 1-2.46.67 9 9 0 0 1-1-.41c-.33-.07-.66-.27-.64-.16zm-7.65-18.17c.64 1 1.38 3.27 2.9 3.24a2.43 2.43 0 0 0 1.79-.68 1.88 1.88 0 0 0-.1-2.85c-1.29-1.29-4.73-2.67-5.13 0z" opacity=".5"/></g><g class="Q"><path class="D N" d="M67.92 56.45l-1.14 3.94a7.28 7.28 0 0 1-.32 1.17c-.34.89-.78 1.73-1 2.64a14.17 14.17 0 0 0-.73 3.86c0 .75.24 1.39.29 2.12s0 1.33 0 2a9.59 9.59 0 0 1-.46 3.12c-1.17 3.38-3 6.55-3.31 10.18a15.48 15.48 0 0 1-.94 3.82c-.44 1.21-.54 2.5-1 3.71v-2.07a17.73 17.73 0 0 1 .41-3.24c.2-1.11.16-2.21.34-3.31a14.47 14.47 0 0 0 .06-2.55c0-.94.21-1.78.29-2.7s0-1.8 0-2.69c0-1.84 1-3.6 1.09-5.42a12.81 12.81 0 0 0-.88-5.08 9 9 0 0 0-.74-1.7c-.28-.36-.62-.13-1.08.08a38.17 38.17 0 0 1-3.44 1.9 16.21 16.21 0 0 1-2 .4c-.45.1-1.21.21-1.31-.41a36.75 36.75 0 0 0 4.28-3.84 5.13 5.13 0 0 1 1.9-1.07 4.65 4.65 0 0 0 2.14-1.81A18.19 18.19 0 0 0 62 55.63a13.21 13.21 0 0 1 1.9-3.16c.38-.5 1-.87 1.29-1.4a6.34 6.34 0 0 1 .81-1.36c.42-.43 1.46-2.26 2.11-2.13a5.18 5.18 0 0 1-.23 2.34c-.2.91-.31 1.88-.53 2.77-.1.44-.67 1.4 0 1.63.36.13.76-.24 1.09-.31s.59.06.87 0a10.94 10.94 0 0 0 1.54-.48A6.37 6.37 0 0 0 72.5 53a24 24 0 0 0 2.5-1.93 28.86 28.86 0 0 0 2.37-1.89 55 55 0 0 0 5.42-5.48 10 10 0 0 1 1.53-1.52 6.13 6.13 0 0 0 .72-.81c.47-.57 1.1-1 1.62-1.48a14.86 14.86 0 0 1 1.75-1.62c.78-.56 1.38-1.31 2.15-1.88l2-1.49a11 11 0 0 0 1.62-1.23 10.42 10.42 0 0 0 1.21-2.11 5 5 0 0 1 1.23-1.51c.28-.21.59-.32.86-.53s.35-.48.78-.5a5.65 5.65 0 0 1-1.05 1.5c-.55.74-1 1.55-1.55 2.3a21.12 21.12 0 0 1-3.76 3.43c-.85.7-1.91.94-2.72 1.61-.57.48-1.11 1-1.67 1.55a24 24 0 0 0-2.62 3.44A22.93 22.93 0 0 1 80 47.43a41.08 41.08 0 0 0-3.78 3.06 26.89 26.89 0 0 0-2.52 2.6A12.4 12.4 0 0 1 70.24 56c-.29.16-.61.35-.91.49a4.91 4.91 0 0 1-.71.22c-.37.16-1.15.66-.7-.26zm198.42 40.97a13.84 13.84 0 0 0-3.65-1.31 11.38 11.38 0 0 0-2.61-.15 21.79 21.79 0 0 0-3.39.56c-3.35.54-6.7.64-10.06 1-.73.08-1.43 0-2.14 0s-1.13.19-1.72.22a34.37 34.37 0 0 0-4.83.65c-.75.12-4.64 1.85-5.09.56-.19-.51.41-1.16.72-1.49a7.83 7.83 0 0 1 3.57-1.75 39.14 39.14 0 0 0 4.31-1.48 13 13 0 0 0 3.33-2.3c1.17-1 2.65-3.23 1.67-4.69-1.36-2-4.36-1.71-6.52-1.63-1.45 0-2.87.23-4.33.22a21.89 21.89 0 0 1-5.42-1 25.84 25.84 0 0 0-2.87-.53c-.92-.15-1.81-.41-2.74-.57a20.91 20.91 0 0 0-6.83-.28 21.35 21.35 0 0 0-3.66 1.25 41.73 41.73 0 0 0-4 1.8 16.79 16.79 0 0 0-3.22 2 6.23 6.23 0 0 0-1.79 2c-.64 1.57 2.55 1.61 3.28 1.61h3.68c.86 0 2.16.06 2.55 1a1.52 1.52 0 0 1-.57 1.72c-1.11.9-3.05.92-4.39 1.17a53.6 53.6 0 0 1-9.45 1h-3.72a7.25 7.25 0 0 1-3.92-.81c-.85-.63-.2-1.72.32-2.39.21-.27.77-.74.84-1.07s0-.35-.37-.39c-.53-.07-1 .21-1.52.2a10.61 10.61 0 0 0-1.32 0 15.29 15.29 0 0 0-3.3.6 14.35 14.35 0 0 0-1.67.82 25.59 25.59 0 0 0-4.33 2.57c-.63.5-1.17 1.07-1.76 1.64s-1.12.81-1.63 1.29c-.34.33-1.44 1.27-1.13 1.77s1.06.51 1.37.89a1.17 1.17 0 0 1 .06 1.54 9.25 9.25 0 0 1-1.84 1.91c-.46.45-1.22.75-1.3 1.48a1.19 1.19 0 0 0 .83-.07 18.12 18.12 0 0 0 2.35-1c1.8-.81 3.57-1.75 5.45-2.38a28.79 28.79 0 0 1 4.68-1c1.89-.3 3.89-.84 5.83-.52.84.13 2.42.67 2.63 1.62a3.46 3.46 0 0 1 0 1.36c-.06.36-.38.68-.4 1 0 .64 1.07.61 1.56.61a46 46 0 0 0 4.7-.1c7.51-.94 14.79-3.78 22.41-3.75a26.74 26.74 0 0 0 5.29-.27 43.86 43.86 0 0 0 5-1.34 15.32 15.32 0 0 1 5.06-.42c.71 0 1.4.19 2.11.23a13 13 0 0 0 2.63-.27c1.81-.26 3.48-.92 5.26-1.28a79.18 79.18 0 0 1 7-1.15 23.37 23.37 0 0 1 6.47-.1c1.05.16 2.2.31 3.24.57.38.08.8.31 1.18.16a4.85 4.85 0 0 0-1.89-1.53zm-59.74 6a3.5 3.5 0 0 1-1.83 1.7 9.14 9.14 0 0 1-2.57.74 2.19 2.19 0 0 1-1.46-.57 1.58 1.58 0 0 1-.85-1.11 3.33 3.33 0 0 1 .05-1.77h.2c1.21-.84 1.85-1.45 3.21-1.63a7.64 7.64 0 0 1 1.64-.19c.64.08 1.92.32 2.19 1.06s-.31 1.23-.58 1.79zm27.88-15.5a5.51 5.51 0 0 1 3-.87 10.51 10.51 0 0 1 4.25.41c.75.31 1 .77.42 1.42a5.21 5.21 0 0 1-2.64 1.46 18.76 18.76 0 0 0-2.84 1.15 10.8 10.8 0 0 1-1.26.67 2.11 2.11 0 0 0-.91.51 5.86 5.86 0 0 1-1.06-2.17c-1.13-.12.12-1.89 1.04-2.56zm-8.37.86c.85.28 1.7.58 2.54.9-.17.25-.05.45-.11.72s-.23.31-.25.57c-.7.09-1.43.9-2.2.6-.14 0-.24-.26-.39-.33s-.27 0-.4-.07a2.91 2.91 0 0 1-.82-.65c-.33-.42-.13-.83.2-1.22a1.72 1.72 0 0 1 1.43-.5zm-12.24.9c-.38 0-2.6.32-2.65-.39 0-.4.83-.82 1.06-1 .94-.85 1.87-1 3.21-1.4-.57-.09.29-.81 1.45-1.06a11.43 11.43 0 0 1 4.43-.31c.88.16 2.72.59 3.14 1.52a1.57 1.57 0 0 1-.75 2 8.31 8.31 0 0 1-4.63 1.11c-1.78-.04-3.5-.39-5.26-.45zm14.56 10.78c-1.64.47-3.39.73-5.06 1.12a17.48 17.48 0 0 1-5.77.43c-1.34-.14-3.12-.29-4-1.45a3.23 3.23 0 0 1-.34-2.46 8.23 8.23 0 0 1 2.33-4.61 2.39 2.39 0 0 1 1.57-.85 10.84 10.84 0 0 0 1.42-.31 25.8 25.8 0 0 1 3.82-.69c-1.55.5-.76.51.3.5a5.82 5.82 0 0 1 2.22.4c1 .33 2 .42 2.94.82 1.74.78 4.45 1.72 5.1 3.72s-3.21 3.02-4.53 3.4zM77.75 114.34c.88 3 .88 5.08 3.25 6.78.88.62 1.36.39 2.41.1s1.8-1.11 2.82-1.43a8.08 8.08 0 0 1 2.43-.19 2.35 2.35 0 0 0 2.2-.8 8.49 8.49 0 0 1 3-2.06 2.19 2.19 0 0 1 2.12.82c.5.54 1.6 1.66 1.58 2.38.82.33 1.75-.28 2.42-.7 2.14-1.34 4-3.34 6-4.93l3.84-3c1.25-1 2.07-2.11 3.26-3l7.16-4.7 6.13-3.86a68.51 68.51 0 0 1 6.65-3.3c2.6-1.2 4.78-3.31 6.95-5.13 2.91-2.44 5.4-5.28 8.37-7.68s6.12-4.94 7.2-8.61c1.13-3.85 1.16-7.93 2.53-11.73.64-1.77 1.05-3.72 1.51-5.55a14.18 14.18 0 0 0 .52-2.21c.07-.87-.09-1.74 0-2.61a17.31 17.31 0 0 0 0-5.92 42.29 42.29 0 0 0-1.52-6.33 44.89 44.89 0 0 1-1.51-5.17 11.37 11.37 0 0 0-2-4.82c-1.36-1.79-3.77-4.65-3-7.13.85.19 1.67 1.58 2.06 2.29a29.09 29.09 0 0 1 1.61 4.35 32.58 32.58 0 0 0 1.82 4c.72 1.34 1.83 2.44 2.52 3.81a41.24 41.24 0 0 1 2.73 6.78A3.56 3.56 0 0 0 164.5 47c1 .57 1.78.29 2.42 1.49a3.44 3.44 0 0 1 .41 2.74c-.17.58-.46.53-.23 1.31a2.75 2.75 0 0 0 1 1.32c1.43 1.18 4.23.35 3.76 3.12a8.16 8.16 0 0 1-2 3.32c-1.29 1.51-2.67 2.92-4.06 4.34-1.06 1.08-1.89 2.39-2.83 3.56-.44.55-1 1-1.43 1.54a12 12 0 0 0-1.08 2.5 12.09 12.09 0 0 1-1 1.48c-.43.6-.68 1.27-1.06 1.86-.75 1.16-2 1.94-2.65 3.19s-1.08 2.48-1.71 3.65a15.79 15.79 0 0 1-2.42 3.22c-.52.58-.84 1.29-1.4 1.85s-1.3 1.11-1.91 1.69a31.44 31.44 0 0 1-6.59 4.4c-2.39 1.31-4.62 2.91-7 4.3a24.19 24.19 0 0 0-5.18 3.73c-1.45 1.52-.88 4.68-2.79 5.67-2.44 1.27-4.76-.11-7.28.17-3.23.37-5.24 3.21-6.5 5.88a17 17 0 0 1-2.79 4 11.66 11.66 0 0 1-4 2.65c-1.54.67-3.1 1.52-4.68 2a22.39 22.39 0 0 1-3.5 1.28c-1.21.15-2.41-1.16-3.43-1.65a4.43 4.43 0 0 0-3.5-.11c-4.14 1.36-9.24 5.63-13.2 1.74a9 9 0 0 1-2-4.36c-.32-1.44-.87-2.47 1.88-4.54z"/></g><path class="I O" d="M6.66 191.9l3.57 4.6a6.37 6.37 0 0 0 1.18 1.14 16.24 16.24 0 0 0 1.75 1.77l4.5 3.38c1.55 1.08 3 2.52 4.72 3.48a25.36 25.36 0 0 0 4.56 1.9 22.56 22.56 0 0 1 2.57.67 21.66 21.66 0 0 0 2.76 1.4c1.19.36 2.43.47 3.63.83l4.29 1.43 8.86 3.44c2.97 1.16 5.65 3 8.49 4.54C62.35 223 68.41 224 73.8 224.2c2 .06 4 .41 6 .42h4.4a20 20 0 0 0 4.85-1c1.83-.45 3.65-.67 5.46-1.21s3.76-1.29 5.61-2c1.14-.45 2.18-1.08 3.29-1.58a19.86 19.86 0 0 0 3.45-2.1c.53-.37 1.13-.61 1.68-1 .8-.5 1.09-1.17 1.73-1.78.9-.85 2.1-1.58 3-2.39a14.82 14.82 0 0 1 3.51-2.67 3.49 3.49 0 0 1 .85 1.46 4 4 0 0 1-1.39.9 9.26 9.26 0 0 0-1.56 1.05l-3.86 3.25a25.33 25.33 0 0 1-3.63 2.58 15.49 15.49 0 0 0-2 1.22 9.44 9.44 0 0 1-2.84 1.28 29.15 29.15 0 0 0-3.61 1.84c-.78.41-1.69.54-2.45 1-.93.56-1.87 1.09-2.83 1.63-1.12.63-3.61 1.59-2.44 3.14a3.67 3.67 0 0 0 2 1.1c1.2.33 2.37.62 3.56 1a42.11 42.11 0 0 1 5.45 2.64l4 1.92c.56.26 1.18.41 1.72.68a8.89 8.89 0 0 1 1.48 1.13c1 .74 1.21 3 2.34 3.43 1.34.52 5.4 2.32 6.77 2.1 1.74-.28 1.62-4.27 3.35-4.64a16.23 16.23 0 0 1 2.91-.49c2-.06 4 .65 6 .9 4.18.54 8.28.15 12.45-.07 2.17-.12 4.36-.74 6.57-.44 1.31.18 2.57 1 3.9 1.32a23.54 23.54 0 0 0 4.56.72 33.76 33.76 0 0 1 6.18.5 86.75 86.75 0 0 0 10.79 1.9 17.24 17.24 0 0 1 6.78 1.93 13.12 13.12 0 0 1 2.13 1.52c.5.43.63 1 1 1.43-.91-.13-2 .9-3 .31s-1.22-1.54-2.41-1.94a29.18 29.18 0 0 0-4.12-1.13A18.25 18.25 0 0 0 173 244c-1.08 0-2.06-.37-3.12-.43a50.09 50.09 0 0 1-6.26-.29l-5.76-1c-1.55-.31-3.07-.15-4.62-.4a14.75 14.75 0 0 0-2.66-.31 10.59 10.59 0 0 1-2.11-.09c-1.31-.25-2.71-.59-4.05-.74-1.17-.13-2.44.07-3.62 0-.86 0-1.6-.34-2.44-.43a20 20 0 0 0-2.32 0 24.8 24.8 0 0 0-4.22.49 28.86 28.86 0 0 0-4.46 1.22c-1 .33-2.4.74-3 1.6-1.17 1.61.26 4.37 1.07 5.82-.53-.1-1-.51-1.56-.65s-.83 0-1.13-.49-.21-1.39-.49-2a4.2 4.2 0 0 0-1.11-1.3c-2.07-1.9-5.27-2.57-8-3.17-4.64-1-9.26-2.32-13.08-5.32-1.35-1.06-2.87-1.75-4.23-2.82a41.28 41.28 0 0 0-3.47-2.34 23.78 23.78 0 0 0-6.73-2.72c-2.15-.52-4.3-.84-6.47-1.21-2.83-.49-5.75.19-8.59-.4-1.33-.28-2.7 0-4-.17s-3-.48-4.44-.76a22.62 22.62 0 0 1-3.68-1.09c-1.16-.46-2.31-1.15-3.5-1.53a59.35 59.35 0 0 1-8.28-2.91c-1.74-.86-3.46-1.37-5.16-2.34s-3.82-1.37-5.67-2.2c-4.84-2.16-9.33-5.22-14.33-7.02-1.94-.72-4-1.2-6-1.8a9 9 0 0 0-2-.3c-.91-.09-.87-.25-1.25-1s-.71-1.76-1.06-2.64a13.85 13.85 0 0 0-1.74-2.51 9.48 9.48 0 0 1-.46-1.29c-.3-.59-.74-1-1-1.6-.59-1.02-.47-2.11-1.34-5.96z" opacity=".5"/><g class="P"><path class="C N" d="M69.27 216.94a10.14 10.14 0 0 0 3.06 2.71 19.17 19.17 0 0 0 2.31.81 36.06 36.06 0 0 0 5 .94c2.42.3 4.88-.22 7.29-.41a12.64 12.64 0 0 0 7.83-3.55 5.71 5.71 0 0 0 1.69-3.78c-.07-1.94-1.46-3.57-2.83-4.79-3.3-2.92-8.88-3.41-13.11-3.26-2.79.09-5.82.78-7.39 3.29-.41.66-.57 1.37-.91 2a21.1 21.1 0 0 0-1.1 2.3 7 7 0 0 0-.55 2.08c.01.63-.16 1.78-1.29 1.66zm-2.96.81c-.36-.68-.91-2.56-1.68-2.95a2.3 2.3 0 0 0-1 0 2.75 2.75 0 0 0-1.49 1.2 2.6 2.6 0 0 0 1.36 3.23c.92.34 2.39.24 2.89-.69s-.06-2.39-1.16-2.43z"/></g><path d="M223 44.26a42.32 42.32 0 0 0 4.85 4.24 18.73 18.73 0 0 1 1.94 1.73c.58.54 1.22 1 1.84 1.51a6.06 6.06 0 0 0 6.63 1 2.77 2.77 0 0 0 1.5-1.56 2.89 2.89 0 0 0 0-2.27c-.49-1-1.6-1.6-2.29-2.44a7.15 7.15 0 0 0-1.17-.95c-.38-.3-.7-.67-1.08-1a11.34 11.34 0 0 0-1.74-1.26 8.7 8.7 0 0 0-2.22-.65 10.12 10.12 0 0 0-3.76-.19 4.9 4.9 0 0 1-.94.19 2.75 2.75 0 0 0-.76 0 6.78 6.78 0 0 0-1.42.72 2.71 2.71 0 0 0-.85.8c-.26.58-.02 1-.53.13z" fill="url(#B)"/><path d="M241.64,52.55c1.87-.11,3.22-.39,4.56,1a6.67,6.67,0,0,1,1.43,2c.28.63.5,1.12-.12,1.62a2.37,2.37,0,0,1-1.92.36,5.44,5.44,0,0,1-2.34-1.39c-.25-.22-.57-.36-.81-.59s-.28-.48-.44-.77a4.16,4.16,0,0,1-.57-1.25c-.11-.58.23-.71.62-1Z" fill="url(#C)"/><g fill="#3261d6"><path d="M220.66 247a6.07 6.07 0 0 0 1.8 2.32c.28-.53 1-.49 1.34-.9a6.62 6.62 0 0 0 .54-.93 1.69 1.69 0 0 0 0-1.81c-.36-.61-.7-1.09-1.44-1.14-1.05-.07-1.78 1.07-2 2zm8.58-4.45l3.62-4.57a5.66 5.66 0 0 1 2-1.39c.41-.17.85-.27 1 .3s-.42 1.11-.75 1.48a13.12 13.12 0 0 1-2.69 2.52c-.33.21-.66.38-1 .55s-1 .34-1.23.62z"/></g><path d="M259.16,160.64a17.18,17.18,0,0,0,1,3.23c.89-.26,1.45-2,1.49-2.84a10.69,10.69,0,0,0-.2-2.89c-.15-.62-.1-2.76-.85-3.09-.58-.26-.66.49-.74.86a28.47,28.47,0,0,0-.43,4.24Z" class="R"/><path d="M194.67,23.32c-2-.27-5-1.25-6.88-.58a4.14,4.14,0,0,1-.93.18c0,1.22,2.93,1.86,3.87,2.24a11.76,11.76,0,0,0,4.67,1.11c.84,0,2.31-.05,2.86-.85.85-1.26-2.33-2-3.1-2.1Z" class="O"/><g class="R"><path d="M108.84 19.4c2.71-1.69 6.94-5.18 10.65-4.34a6.65 6.65 0 0 1-2.38 2c-1.18.7-2.2 1.5-3.3 2.29-.82.59-1.7.93-2.51 1.52a64.92 64.92 0 0 1-10.83 6c-2.6 1.22-5.45 1-8.25 1.78-4.6 1.26-8.87 3.21-13.65 3.9-.74.11-4.4.49-4.51-.31a24.44 24.44 0 0 0 3-.84 18.84 18.84 0 0 1 4.86-.79 51.59 51.59 0 0 0 5.38-.92 21.48 21.48 0 0 0 3.44-1.22 11 11 0 0 1 2-.74c.88-.21 1.76-.51 2.65-.75.68-.18 1.34-.55 2-.69.84-.18 1.72.05 2.58-.15 1.44-.33 2.87-.73 4.29-1.11a7.62 7.62 0 0 0 3.06-1.85 5.54 5.54 0 0 0 1.52-3.78zM77.08 35.71c-1.08 2.29-2.7 4.58-2.57 7.18 0 .45 0 1.28.44 1.59s.85-.13 1.23-.31a9.85 9.85 0 0 0 2-1.12c.59-.43 1.27-.6 1.85-1.08l2.21-1.65a17.88 17.88 0 0 0 1.82-2c.69-.7 2-1.87 1.31-2.94s-1.83-.55-2.77-.71c-1.38-.23-2-.58-3.3 0a7.1 7.1 0 0 0-1.51.63 20 20 0 0 0-1.45 1.57zM69 193.5c-.21-.25 2.66 3.88 3.67 4s.41 0 .73-.67c.49-1 .38-1-.27-1.91-.23-.3-.27-.61-.54-.93a9.47 9.47 0 0 1-.74-.81c-.38-.58-.24-.77-1-.76-.52 0-1 .05-.73.75z"/></g><g fill="#3261d6"><path d="M81.13 264.86a40.15 40.15 0 0 0 4 3 1.85 1.85 0 0 0 .58.25c.5.11 1 .13.92-.47s-1.2-1.82-1.56-2.36c-1.18-1.8-3.44-3.14-5.24-4.27-.79-.5-2.2-1.67-3.13-1.72-1.43-.08-.3 1.16.22 1.63s1 .7 1.46 1.12a7.07 7.07 0 0 1 1 1.25c.2.26.52.45.74.71.41.48.58 1.1 1 1.57zm-6.25-10.67a25.69 25.69 0 0 1-2.4-4.32c.86-.41 2 1.08 2.41 1.67.59.86.89 1.24.36 2.29z"/></g><g class="R"><path d="M161.87 170.88a14.37 14.37 0 0 0 1.25 2.2 1.85 1.85 0 0 0 .37.31c.68-.31-.25-1.88-.47-2.32s-.49-1.75-1.12-1.82a2.26 2.26 0 0 0 .15 1.45zm-5.98-33.01a3.47 3.47 0 0 0-1.35 1l-.51.78c-.28.53-.59 1-.82 1.57s-.6 1.06-.79 1.63a18 18 0 0 0-.46 1.75 12.37 12.37 0 0 0-.4 2v1.19a5.79 5.79 0 0 0 .29 1.36c.2.79.47 1.54.73 2.31a1.73 1.73 0 0 0 .87 1.1c.6.23 1.05-.31 1.41-.74a2.41 2.41 0 0 0 .48-1l.35-1.22a12.1 12.1 0 0 0 .13-1.21c.05-.49.18-1 .24-1.46.1-.84.07-1.66.1-2.5 0-.41.07-.84.12-1.24l.16-1.25a10.56 10.56 0 0 0 .37-2 3.62 3.62 0 0 0-.2-1.5c-.14-.24-.46-.62-.72-.57zm1.84-.64a8 8 0 0 0 1.07.5 1.64 1.64 0 0 1 .68-.32 1.4 1.4 0 0 0 .74-.53c.09-.13.27-.35.26-.53s-.31-.37-.47-.44a1.73 1.73 0 0 0-1.45.21c-.32.19-.89.6-.83 1z"/></g><path d="M154.79 130.51a5.1 5.1 0 0 0-.77 1.22l-.2.57a4.38 4.38 0 0 0-.14 1.53c0 .61.28 1.43 1 1.38a3.36 3.36 0 0 0 1.16-.33l1.56-.78a14 14 0 0 0 1.38-.74 5.18 5.18 0 0 0 1.06-1 3 3 0 0 0 .55-2.83 1.72 1.72 0 0 0-.89-1.11 5.21 5.21 0 0 0-2-.19 3.83 3.83 0 0 0-1.38.47 3.21 3.21 0 0 0-.73.65c-.28.29-.73.78-.6 1.16z" class="S"/><g class="R"><path d="M161.41 129.87c.08-.42.19-.83.31-1.25.13 0 .21-.19.35-.23a1.3 1.3 0 0 1 .48 0c.41.11.61.65.68 1a1.8 1.8 0 0 1-.21 1.18 2.17 2.17 0 0 1-.79 1 .56.56 0 0 1-.64 0 1.17 1.17 0 0 1-.46-.65 1.4 1.4 0 0 1 .09-.73c.06-.16.33-.49.28-.65zm27.59 12.7c.58-.79.81-.33 1.39.25a5.21 5.21 0 0 1 1.31 2.1c.07.51-.48 1.51-1.07 1.43s-1-1.19-1.23-1.6a9.81 9.81 0 0 0-.91-1.21 5.16 5.16 0 0 0-2.16-1.36 16.48 16.48 0 0 0-1.67-.45l-1.9-.38a8.1 8.1 0 0 0-5.39.65c-.64.32-2.23 1.22-1.76 1.33a11.88 11.88 0 0 0-1.32 3.22c.54.2.9.62 1.49.77a25.14 25.14 0 0 1 2.59.65 10.12 10.12 0 0 0 3.56.91c1.12 0 2.22.4 3.33.53a2.75 2.75 0 0 0 3-2.5 5.38 5.38 0 0 0-1.07-3.58z"/></g><path d="M170.6 104.42a28.75 28.75 0 0 1 1.84-3.08 1 1 0 0 1 .68-.21c.67 0 .85.22 1.07.76.58 1.38-.22 3.41-1.06 4.56-.6.83-2.15 1.48-3 .7-.42-.4-.55-.52-.58-1.08a6.57 6.57 0 0 1 .31-1.6h.2z" class="S"/><g class="Q"><path class="D N" d="M75.34 107.71l.32 4.29a7.77 7.77 0 0 1 0 2.1 18.49 18.49 0 0 0-.14 3.08 10.84 10.84 0 0 1 0 1.14 6.64 6.64 0 0 1-.42 1.21 15.16 15.16 0 0 0-.41 2.07 1.29 1.29 0 0 0 .5 1.46 5.78 5.78 0 0 0 .67.32 5.06 5.06 0 0 0 1.1 0 3.87 3.87 0 0 1 1.64.83c.62.39 1.27.17 1.82.87a7.64 7.64 0 0 1 .72 1.52l.82 1.57a38.24 38.24 0 0 1 1.92 4.37c.53 1.5.71 3.24 1.25 4.74a14.39 14.39 0 0 0 1.46 3.28 10.24 10.24 0 0 0 2 2.34 3.65 3.65 0 0 1 .9.73 21.6 21.6 0 0 1 1.23 2.11l5.18 9a34.17 34.17 0 0 0 2.68 3.54 12.93 12.93 0 0 0 .91 1 6.28 6.28 0 0 0 1.59.94l1.69 1 1.27.67c.44.25.61.13.9.49s.38.93.69.94a2.89 2.89 0 0 0-1-2.48 9.14 9.14 0 0 0-2.29-1.29 5.25 5.25 0 0 1-1.5-.86 10.36 10.36 0 0 1-1.37-1c-.39-.39-.71-.87-1.09-1.26a16.31 16.31 0 0 1-1.38-1.61 10.15 10.15 0 0 1-1.67-2.9l-.64-1.83a11 11 0 0 1-.33-2.22 8.85 8.85 0 0 1-.18-2 13 13 0 0 1 .35-1.9 12.24 12.24 0 0 0 .57-3.35c0-.91.19-2.69-.54-3.23-.34-.25-.73.15-1 .49a2.91 2.91 0 0 0-.46 1.47c-.08.75 0 1.59 0 2.35s-.14 1.14-.74 1.13a2.38 2.38 0 0 1-2.06-.91 15.63 15.63 0 0 0-1.57-2.43 7.14 7.14 0 0 1-1.63-2.85 44.75 44.75 0 0 0-2.21-4.64 25.68 25.68 0 0 1-1.51-5.49c-.41-1.79-1.53-4.27-2.72-5.19a9.19 9.19 0 0 1-1.55-1.13c-.22-.26-.38-.32-.49-.71a10.27 10.27 0 0 1-.2-1.37 48.49 48.49 0 0 0-1.09-7.11c-.2-.87-.56-3-1.41-3.1-.01-.06-.03-.12-.58-.19zm15.17 26.02l-.42-2.56c-.3-.4-.33-.72-.1-1a2.93 2.93 0 0 1 .39-.48c.32-.38.4-.57.88-.48.88.15 1.5 1.56 1.53 2.33a5.11 5.11 0 0 1-.12 2.18c-.32.58-1.48.77-1.65 0zm114.19-25.52l14.49-2.71a17.62 17.62 0 0 1 3.32-.32 4.63 4.63 0 0 1 1.19.2c.49.11 1 0 1.46.1.84.21 1.61.68 2.42 1l1.5.62a13.89 13.89 0 0 0 2.16.52 26.65 26.65 0 0 1 2.77 1 19.82 19.82 0 0 1 2.42.84 15.74 15.74 0 0 1 2.12 1.1c.48.35 1 .58 1.51.89s.66.64 1.05.9c1 .67 2.61.46 3.72 1 .72.39 1.15 1.12 1.91 1.47a3.66 3.66 0 0 0 1.54.24 9.72 9.72 0 0 1 1.84.32c1 .22 2.06.57 3.09.88.79.25 1.63.33 2.4.6a12.67 12.67 0 0 1 1.89.92 7.17 7.17 0 0 1 2.28 1.92c.11.16.44.4.21.63s-.48-.19-.62-.34a8 8 0 0 0-3.76-2 44.11 44.11 0 0 0-5.56-1.11c-.46-.06-.91 0-1.37 0s-.89-.33-1.35-.43a13.15 13.15 0 0 1-2.22-.49c-.64-.25-1.13-.72-1.74-1a11.92 11.92 0 0 1-2-1.07 29.73 29.73 0 0 0-2.79-1.66 17.41 17.41 0 0 0-4-1.83c-2.2-.51-4-1.83-6.15-2.59a12.08 12.08 0 0 0-4-.24H221h-2.17a10.92 10.92 0 0 0-2.78.57 9 9 0 0 0-2.09.7c-.67.33-1.42.39-2.1.75a3.4 3.4 0 0 0-1.23.78 5.32 5.32 0 0 0-.53 1.13 2.61 2.61 0 0 0 1.65 3.2l2.28 1a5.4 5.4 0 0 1 1.93 1.48 7.39 7.39 0 0 1-1.87-.59 6 6 0 0 0-2.28-.44 9.5 9.5 0 0 1-4.61-1.72 7.56 7.56 0 0 1-1.45-1.32c-.48-.55-1.12-1-1.59-1.52a2.89 2.89 0 0 1-.75-1.31c-.13-.92.32-1.15 1.29-2.07zm51.66 69.35a55 55 0 0 1 2.15-5.07 12.29 12.29 0 0 1 1-1.89c.16-.23.41-.72.73-.74a2.69 2.69 0 0 1 0 .8 7.94 7.94 0 0 1-.26 1.69 11 11 0 0 0-.51 3l-.13 4.31c0 1.79.37 3.56.39 5.35a29.12 29.12 0 0 1 0 3.1c0 .49-.16 1-.2 1.46l-.06 1.39-.24 2.17a13.63 13.63 0 0 1-.65 2.15c-.24.72-.41 1.44-.59 2.18s-.49 1.47-.68 2.21a13.3 13.3 0 0 0-.33 1.76 2.59 2.59 0 0 0 0 1c.32-.05.55-.82.67-1.05.29-.51.67-.94.92-1.48a19.45 19.45 0 0 0 .92-2.16 28.84 28.84 0 0 0 .84-3.16l.25-1.37c.12-.76.37-1.46.52-2.21l.71-3.13c.11-.61.1-1.25.17-1.87a10.68 10.68 0 0 0-.07-2.4 32.86 32.86 0 0 1 0-4.21A14 14 0 0 1 263 175c1.19-3.41 1.58-7.1 3.18-10.37.11-.21 1.23-2.55 1.63-2.13.06.07 0 .19 0 .26s.1.4.12.61a10.75 10.75 0 0 1 0 1.39c0 .69-.21 1.92.29 2.51.3.35.73-.16 1-.39s.87-.56 1.28-.85c.23-.17.49-.28.73-.44s.49-.41.76-.58a6.93 6.93 0 0 1 .76-.41 4 4 0 0 1 .86-.46 1.27 1.27 0 0 1 .88.1 2.7 2.7 0 0 1 .59.91 3 3 0 0 1 .07 1.12c-.05 1.1-.94 2-1.51 2.85a14.12 14.12 0 0 0-1.91 3.44 9.54 9.54 0 0 0-.44 1.73 14.8 14.8 0 0 0-.06 2.21c0 2.28.13 4.55.12 6.83a25.49 25.49 0 0 0 .16 3.27 8.84 8.84 0 0 0 .22 1.25 4.55 4.55 0 0 0 .35 1c.37.5.41-.52.41-.74a17.15 17.15 0 0 1 .35-3.28c.05-.29.57-1.76 1-1.65.08 0 .22.3.27.36a3.57 3.57 0 0 1 .5.72 8 8 0 0 1 .92 2.18c.13.63.33 1.19.42 1.84s.25 1.42.37 2.14.3 1.51 1 1.75c1 .32 1.58-1 1.9-1.69a15.27 15.27 0 0 0 .8-2c.21-.79.33-1.61.5-2.41A18.08 18.08 0 0 0 281 183c0-1 .15-2.09.14-3.12a36.47 36.47 0 0 1 .48-5c.09-.8.28-1.58.38-2.37.12-.95.2-1.93.4-2.87.34-1.65.58-3.31.89-5 .17-.92.22-1.88.32-2.81.12-1.1 0-2.21.07-3.32.09-1.88.23-3.75.24-5.63s-.17-3.64-.34-5.44l-.26-2.76c-.08-.92-.27-1.84-.38-2.77a58.9 58.9 0 0 1-.67-6.88c0-1.85.39-3.68.39-5.53 0-1-.07-2-.15-3a17 17 0 0 0-1-4.21c-.72-2.12-1.77-4.09-2.53-6.19-.7-1.92-1.1-3.94-1.76-5.87a12.32 12.32 0 0 0-2-3.39 7.2 7.2 0 0 0-1-1.17 10.36 10.36 0 0 1-1.23-1.41c-.69-.86-1.27-1.82-2-2.63-.11-.11-1.16-1.42-1.39-.94-.07.14.22.48.28.59.17.31.38.56.57.85a24.28 24.28 0 0 1 1.64 3.77c.48 1.09 1.24 2 1.76 3.07.23.48.44 1 .67 1.44s.54 1.24.84 1.84a13.31 13.31 0 0 1 .68 1.54c.2.53.33 1.08.51 1.62.37 1.17.91 2.26 1.26 3.43a65.43 65.43 0 0 1 1.33 7.63c.61 3.45.22 7 0 10.53a22 22 0 0 0 .4 5.55 12.29 12.29 0 0 1 .14 4.19c-.14.8-.44 1.55-.54 2.36s-.25 1.33-.38 2a10.24 10.24 0 0 1-.4 1.44 8.4 8.4 0 0 1-.66 1.75c-.34.53-1.13 1.36-1.81 1.09-.36-.15-.43-.35-.71-.57a9 9 0 0 1-1.1-.76 7.48 7.48 0 0 1-1.29-1.52c-.37-.68-.56-1.47-.87-2.17a17.1 17.1 0 0 0-1.11-2.12c-.47-.76-1-1.48-1.43-2.27a29 29 0 0 1-1.69-3.67 7.65 7.65 0 0 0-1.79-3.3c-.49-.44-1.24-.92-1.84-.37s-.25 1.92-.15 2.69c.18 1.43.5 2.83.66 4.26a46.71 46.71 0 0 1 .13 5.42 33.49 33.49 0 0 1-.09 4.37 13.81 13.81 0 0 1-.28 1.93 14.41 14.41 0 0 0-.61 1.93c-.13.85 0 1.73-.09 2.58a3.71 3.71 0 0 1-.78 2.43 28 28 0 0 1-2.22 1.86c-.44.34-.83.73-1.26 1.08a6.86 6.86 0 0 0-1.53 1.56 6.17 6.17 0 0 0-.66 1.1 12.16 12.16 0 0 0-.37 1.47 15.2 15.2 0 0 0-.83 3.87 7.37 7.37 0 0 0 .1 1.7 8.51 8.51 0 0 0 .16.54c.06.18.15.42.12.14z"/></g><g class="P"><path class="C N" d="M197.56 240.72c3.76-1.83 7.7-3.29 11.1-5.78a19.67 19.67 0 0 0 2.19-2 6.14 6.14 0 0 0 1.41-1.79 1.59 1.59 0 0 0-.57-2.15c-.93-.7-2.49-.43-3.52-.23-1.34.27-2.65.64-4 .92-2.25.46-4.59.31-6.86.65a9.88 9.88 0 0 0-3 .7 5.17 5.17 0 0 0-2.23 2.43 11.56 11.56 0 0 0-1.13 3.05 3.23 3.23 0 0 0-.1 1.87 2.72 2.72 0 0 0 1 1.77 3.64 3.64 0 0 0 3 .42c.62-.12 2.69-.76 2.71.14zm16.11-14.4a3.93 3.93 0 0 1 2 .39 3 3 0 0 1-2.43.94 1.25 1.25 0 0 1-.8-.72c-.09-.28.08-1.24.62-1.18z"/></g><g class="O"><path d="M257.6 73.47a6.16 6.16 0 0 0-1-2.61 1.08 1.08 0 0 0-.31-.33.88.88 0 0 0-.83 0 1.83 1.83 0 0 0-.92 1.8 2.22 2.22 0 0 0 1.23 1.67 1.46 1.46 0 0 0 1.13.15.84.84 0 0 0 .6-.9.19.19 0 0 0-.26.17zm-12.09 7.35a.38.38 0 0 0-.09-.18.33.33 0 0 0-.19-.06 2.54 2.54 0 0 1-.55-.1l.52.76a.25.25 0 0 1 0 .07c0 .08-.08.14-.11.22s.05.24.16.31c.75.48.34-.64.26-1.02zm19.22 5.02l-.07-.26a.42.42 0 0 0-.31.39c0 .18.24.33.38.21s.2-.21.26-.12zm6.19 77.46c0 .09.06.2.16.21s.2 0 .31 0a.38.38 0 0 1 .28.12.17.17 0 0 1 .05.16s-.05.07-.08.1a1.06 1.06 0 0 1-.53.26.51.51 0 0 1-.52-.23.39.39 0 0 1 .37-.58zM235 69.26c0 .09.06.2.16.21s.2 0 .3 0a.36.36 0 0 1 .28.12.15.15 0 0 1 .06.16.39.39 0 0 1-.08.1 1.15 1.15 0 0 1-.53.26.5.5 0 0 1-.52-.23.39.39 0 0 1 .36-.58zm16.45.08a6.17 6.17 0 0 0 1.08-2.57 1.36 1.36 0 0 0 0-.45.88.88 0 0 0-.63-.55 1.78 1.78 0 0 0-1.9.67 2.21 2.21 0 0 0-.27 2 1.48 1.48 0 0 0 .73.89.84.84 0 0 0 1.05-.24.18.18 0 0 0-.3-.06zm32.13 84.27a6.21 6.21 0 0 0 1.07-2.57 1 1 0 0 0 0-.45.91.91 0 0 0-.65-.59 1.82 1.82 0 0 0-1.9.67 2.26 2.26 0 0 0-.27 2.05 1.54 1.54 0 0 0 .73.89.86.86 0 0 0 1.05-.25.18.18 0 0 0-.3 0zm-56.15-99.07a1.57 1.57 0 0 0 .06-1.54 1.69 1.69 0 0 0-1.42.6 1 1 0 0 0 .21 1.42c.46.27 1.19-.16 1.07-.68zm2.3-7.54a.83.83 0 0 0 0-.72.77.77 0 0 0-.3.15.29.29 0 0 0-.1.3c0 .14.23.18.39.2l-.1.08zm-1.3-1.29a.3.3 0 0 0 0-.21.32.32 0 0 0-.17-.1 2.82 2.82 0 0 1-.49-.25l.23.85v.07c0 .07-.12.11-.17.18s0 .24.07.34c.62.7.51-.5.53-.88zm.37 4.14a.35.35 0 0 1 0 .22.58.58 0 0 1-.33-.45c0-.1-.06-.24 0-.3s.14 0 .21-.06.28-.22.41-.16a.19.19 0 0 1 .07.23.59.59 0 0 1-.15.2l-.4.39zm-2.68 1.21c0-.15-.18-.26-.31-.17a.57.57 0 0 0-.19.41.56.56 0 0 0 .58-.19zm-1.64 16.11a.54.54 0 0 0 0-.22.19.19 0 0 0-.16-.15c-.13 0-.2.14-.32.19s-.27 0-.36.09a.21.21 0 0 0 .07.32.49.49 0 0 0 .36 0 .56.56 0 0 0 .31-.12.23.23 0 0 0 .07-.29zm2.04-19.43a.16.16 0 0 1-.2 0 .3.3 0 0 1-.11-.19.24.24 0 0 1 0-.12.2.2 0 0 1 .25-.11.21.21 0 0 1 .09.26.22.22 0 0 1-.25.11zm-10.44-1.81a.16.16 0 0 1-.2 0 .3.3 0 0 1-.11-.19.28.28 0 0 1 0-.13.2.2 0 0 1 .25-.1.21.21 0 0 1 .09.26.21.21 0 0 1-.25.1zm11.43 1.79a.22.22 0 0 0 .23-.3.39.39 0 0 0-.24 0 .19.19 0 0 0-.1.2.12.12 0 0 0 .19.06z"/><path d="M231 48a.62.62 0 0 0 .2-.51l-.45.08a.38.38 0 0 0-.21.07.24.24 0 0 0 0 .37.36.36 0 0 0 .4 0zm-5.91 1.41a.3.3 0 0 1-.28.14.31.31 0 0 1-.23-.2c0-.07 0-.17.08-.18s.06 0 .09 0l.37.18v.06zm-1.49-2.11c-.13 0-.17.2-.19.33s0 .3-.15.36a.11.11 0 0 1-.11 0c-.08 0 0-.17 0-.27a1 1 0 0 0-.05-.22.46.46 0 0 1 .2-.47.26.26 0 0 1 .24.14.24.24 0 0 1 0 .27zm-1.05-.85l-.13-.09a.2.2 0 0 0-.08.23.16.16 0 0 0 .21.08.14.14 0 0 0 0-.22zm-3.15 1.86l-.13-.08a.19.19 0 0 0-.08.22.16.16 0 0 0 .21.08.14.14 0 0 0 0-.22zm9.24-.7c0 .09.06.19.16.2s.2 0 .3 0a.39.39 0 0 1 .29.11.18.18 0 0 1 .05.17.24.24 0 0 1-.08.09 1.12 1.12 0 0 1-.53.27.53.53 0 0 1-.52-.23.41.41 0 0 1 0-.4.44.44 0 0 1 .36-.19zm1.86-1.98a.24.24 0 0 0 0-.34.36.36 0 0 0-.36-.06c-.05 0-.1.07-.09.12s0 .06.07.08l.41.25zm-2.5 6.56a.41.41 0 0 1-.62-.2 1.06 1.06 0 0 1 .56-.2c.2 0 .4.2.35.39l-.28.21z"/><path d="M222.36 48.63a.1.1 0 0 1 0 .15.2.2 0 0 1-.17 0 .24.24 0 0 1-.14 0 .2.2 0 0 1 0-.25.25.25 0 0 1 .23-.14.21.21 0 0 1 .13 0 .09.09 0 0 1 0 .12zm4.52-2.2v-.16a.39.39 0 0 0-.24 0c-.06.06-.06.19 0 .2a.17.17 0 0 0 .1 0l.28-.11zm30.87 18.64a1.59 1.59 0 0 0 .07-1.54 1.7 1.7 0 0 0-1.43.61 1 1 0 0 0 .21 1.41c.46.28 1.19-.15 1.07-.68zm-16.97-7.76a.28.28 0 0 0 0-.2.34.34 0 0 0-.17-.11 2.78 2.78 0 0 1-.49-.24l.29.87v.08c0 .08-.12.11-.17.18s0 .24.07.34c.56.67.45-.54.47-.92zm-2.31 5.36c.05-.15-.18-.26-.31-.17a.31.31 0 1 0 .39.22zm.4-3.33a.16.16 0 0 1-.2 0 .27.27 0 0 1-.11-.19.28.28 0 0 1 0-.13.2.2 0 0 1 .25-.1.21.21 0 0 1 .09.26.2.2 0 0 1-.25.1zm-10.44-1.8a.14.14 0 0 1-.2 0 .28.28 0 0 1-.11-.18.29.29 0 0 1 0-.13.2.2 0 0 1 .25-.1.21.21 0 0 1 .09.26.21.21 0 0 1-.25.1zm11.43 1.79a.22.22 0 0 0 .23-.3.39.39 0 0 0-.24 0 .18.18 0 0 0-.1.2.12.12 0 0 0 .19.06zM237.44 61a.28.28 0 0 1-.51-.06c0-.08 0-.17.08-.18s.06 0 .09 0l.37.18V61zM236 58.91c-.13 0-.18.2-.19.33s0 .3-.15.36a.14.14 0 0 1-.11 0c-.08 0 0-.17 0-.27a1.74 1.74 0 0 0-.05-.22.46.46 0 0 1 .2-.47.24.24 0 0 1 .24.14.23.23 0 0 1 0 .27zm-1.1-.86l-.13-.08a.18.18 0 0 0-.08.23.16.16 0 0 0 .21.08.14.14 0 0 0 0-.22zm-3.15 1.87l-.13-.08a.18.18 0 0 0-.08.22.16.16 0 0 0 .21.08.14.14 0 0 0 0-.22zm9.25-.7c-.05.09.06.19.16.2a1.57 1.57 0 0 0 .3-.05.36.36 0 0 1 .28.12.17.17 0 0 1 .06.17.24.24 0 0 1-.08.09 1.12 1.12 0 0 1-.53.27.53.53 0 0 1-.52-.23.41.41 0 0 1 0-.4.42.42 0 0 1 .36-.19zm-6.29 1.02a.1.1 0 0 1 0 .15.25.25 0 0 1-.17 0 .34.34 0 0 1-.14 0 .2.2 0 0 1 0-.25.25.25 0 0 1 .23-.14.17.17 0 0 1 .12 0 .08.08 0 0 1 0 .12zm4.52-2.24v-.16a.37.37 0 0 0-.24 0c-.07.06-.06.18 0 .2a.17.17 0 0 0 .1 0l.28-.11zm23.47 94.29a1.59 1.59 0 0 0 .06-1.54 1.68 1.68 0 0 0-1.42.61 1 1 0 0 0 .21 1.41c.46.28 1.19-.15 1.07-.68zm6.06 13.01a1.61 1.61 0 0 0 .06-1.55 1.67 1.67 0 0 0-1.42.61 1 1 0 0 0 .2 1.41c.46.28 1.19-.15 1.08-.67zm-5.06-21.84a.28.28 0 0 0 0-.2.39.39 0 0 0-.17-.11 2.82 2.82 0 0 1-.49-.25l.29.88v.07c0 .02-.12.12-.17.19s0 .24.07.33c.56.68.45-.53.47-.91zm6.64 31.94c.05-.15-.18-.26-.31-.17s-.16.26-.19.41a.56.56 0 0 0 .58-.19zm-8.55-29.91a.14.14 0 0 1-.2 0 .25.25 0 0 1-.11-.18.29.29 0 0 1 0-.13.19.19 0 1 1 .34.15.21.21 0 0 1-.26.11zm2.01-43.77a.13.13 0 0 1-.19 0 .27.27 0 0 1-.11-.18.29.29 0 0 1 0-.13.19.19 0 1 1 .34.15.23.23 0 0 1-.26.11zm-1.02 43.76a.22.22 0 0 0 .23-.3.39.39 0 0 0-.24 0 .2.2 0 0 0-.1.21.12.12 0 0 0 .19.06zm-2.42 1.68a.29.29 0 0 1-.28.14.28.28 0 0 1-.23-.2c0-.07 0-.17.08-.18h.09l.37.17v.06zm10.97-44.07c-.14 0-.18.2-.19.33s0 .3-.15.36a.14.14 0 0 1-.11 0c-.08-.05 0-.17 0-.27a.78.78 0 0 0 0-.22.44.44 0 0 1 .2-.47.26.26 0 0 1 .24.13.28.28 0 0 1 0 .28zm-1.06-.86l-.13-.08a.2.2 0 0 0-.08.22.16.16 0 0 0 .22.08.13.13 0 0 0 0-.21zm-3.14 1.87l-.13-.1a.19.19 0 0 0-.07.23.16.16 0 0 0 .21.08.14.14 0 0 0 0-.22zm-1.79 72.49c0 .09.06.19.16.2s.2 0 .31 0a.37.37 0 0 1 .28.11.18.18 0 0 1 .05.17.18.18 0 0 1-.08.09 1.08 1.08 0 0 1-.53.27.54.54 0 0 1-.52-.23.41.41 0 0 1 0-.4.44.44 0 0 1 .36-.19zm4.75-72.17v.15a.25.25 0 0 1-.17 0 .35.35 0 0 1-.13 0 .23.23 0 0 1-.05-.26.28.28 0 0 1 .24-.13.15.15 0 0 1 .12 0 .09.09 0 0 1 0 .12zM273.5 93a.1.1 0 0 1 0 .15.25.25 0 0 1-.17 0 .31.31 0 0 1-.13-.06.2.2 0 0 1-.05-.25.26.26 0 0 1 .23-.13.18.18 0 0 1 .13 0 .11.11 0 0 1 0 .13zm-11.35 51.19V144a.32.32 0 0 0-.24.06c-.07 0-.06.18 0 .2h.09l.29-.1zM232.7 45.44a1.09 1.09 0 0 0 .07-.4.35.35 0 0 0-.22-.3.44.44 0 0 0-.2 0 .39.39 0 0 0-.17.51.38.38 0 0 0 .51.15zm-5.15 10.42l-.07-.26a.46.46 0 0 0-.2 0 .25.25 0 0 0 .23.27zm-2.34 23.92a6.21 6.21 0 0 0 1.07-2.57 1 1 0 0 0 0-.45.89.89 0 0 0-.63-.56 1.8 1.8 0 0 0-1.9.67 2.26 2.26 0 0 0-.27 2 1.54 1.54 0 0 0 .73.89.86.86 0 0 0 1.05-.25.18.18 0 0 0-.3 0zm28.36 1.33a1.59 1.59 0 0 0 .06-1.54 1.71 1.71 0 0 0-1.42.6 1 1 0 0 0 .21 1.42c.46.28 1.19-.15 1.07-.68zm15.3 111a1.57 1.57 0 0 0 .06-1.54 1.7 1.7 0 0 0-1.42.61 1 1 0 0 0 .21 1.41c.46.28 1.19-.15 1.07-.68zM255.86 73.54a.8.8 0 0 0 0-.72.76.76 0 0 0-.3.14.28.28 0 0 0-.1.3c.05.15.23.19.38.21l-.1.07zm-1.29-1.26a.27.27 0 0 0 0-.2.32.32 0 0 0-.17-.11 3.33 3.33 0 0 1-.5-.25l.29.88a.19.19 0 0 1 0 .07c0 .09-.12.12-.17.18s0 .25.07.34c.57.68.45-.53.48-.91zm4.29-4.15l-.07-.26a.42.42 0 0 0-.31.39c0 .18.24.33.38.21s.19-.21.26-.12zm-3.92 8.3a.32.32 0 0 1 0 .22.67.67 0 0 1-.33-.46v-.3c0-.07.15 0 .22-.06s.27-.22.41-.15a.19.19 0 0 1 .07.22.62.62 0 0 1-.15.21l-.41.38zm-2.69 1.21c.06-.15-.18-.27-.31-.18a.56.56 0 0 0-.18.42.54.54 0 0 0 .58-.2zm.4-3.33a.13.13 0 0 1-.19 0 .27.27 0 0 1-.11-.18.29.29 0 0 1 0-.13.19.19 0 1 1 .34.15.23.23 0 0 1-.26.11zm1-.01a.22.22 0 0 0 .23-.3.33.33 0 0 0-.24 0c-.07 0-.13.13-.1.2a.12.12 0 0 0 .19.07zm9.18-5.37a.22.22 0 0 0 .23-.3.48.48 0 0 0-.24 0 .18.18 0 0 0-.1.21.12.12 0 0 0 .19.06zm-5.68 5.67a.59.59 0 0 0 .21-.5l-.46.07a.37.37 0 0 0-.2.07.25.25 0 0 0 0 .37.35.35 0 0 0 .4 0zm-5.92 1.4a.29.29 0 0 1-.28.14.27.27 0 0 1-.23-.2c0-.07 0-.17.08-.18a.16.16 0 0 1 .09 0l.37.17v.06zm-2.14-.17c-.1-.09-.26 0-.38 0a.42.42 0 0 1-.38.08.13.13 0 0 1-.07-.09c0-.09.12-.12.2-.17a.85.85 0 0 0 .16-.17.45.45 0 0 1 .5-.09.24.24 0 0 1 0 .27.23.23 0 0 1-.24.13zm.12-1.35v-.16a.19.19 0 0 0-.23.06.15.15 0 0 0 .05.22.13.13 0 0 0 .19-.11zm-3.3-1.58v-.16a.19.19 0 0 0-.22.06.16.16 0 0 0 0 .23.14.14 0 0 0 .19-.11zm8.87 1.28c-.05.09.06.2.16.21s.2 0 .3 0a.36.36 0 0 1 .28.12.17.17 0 0 1 0 .16.23.23 0 0 1-.07.1 1.13 1.13 0 0 1-.45.23.51.51 0 0 1-.52-.23.41.41 0 0 1 0-.4.38.38 0 0 1 .35-.18zm1.86-1.98a.25.25 0 0 0 0-.34.36.36 0 0 0-.36 0c-.05 0-.11.06-.1.12s0 .06.08.08l.4.24zm-2.49 6.57a.41.41 0 0 1-.62-.21 1 1 0 0 1 .56-.19c.2 0 .4.19.35.39l-.29.2zm-6.86-3.23s-.09.07-.14 0a.2.2 0 0 1-.11-.13.32.32 0 0 1 0-.14.21.21 0 0 1 .18-.18.25.25 0 0 1 .24.12.16.16 0 0 1 0 .13.1.1 0 0 1-.1.07zM253 73v-.17a.32.32 0 0 0-.24.06c-.07 0-.06.18 0 .2h.09l.29-.11zm5.84-1a1.07 1.07 0 0 0 .07-.39.35.35 0 0 0-.23-.3.25.25 0 0 0-.19 0 .39.39 0 0 0-.18.51.38.38 0 0 0 .52.14zm-5.15 10.43l-.08-.26a.46.46 0 0 0-.2 0 .26.26 0 0 0 .24.27zm-8.97-5.61a1.59 1.59 0 0 0 .06-1.55 1.7 1.7 0 0 0-1.42.61 1 1 0 0 0 .21 1.41c.46.28 1.19-.15 1.07-.67zm20.61 17.5a.45.45 0 0 1 0 .23.64.64 0 0 1-.33-.46v-.3c0-.07.14 0 .22-.06s.27-.22.4-.15a.17.17 0 0 1 .07.22.43.43 0 0 1-.15.2l-.4.39zM271.92 84a.28.28 0 0 0 0-.2.39.39 0 0 0-.17-.11 3.71 3.71 0 0 1-.49-.24l.29.87v.07c0 .07-.12.12-.17.19s0 .24.07.33c.55.67.45-.54.47-.91zM270 86a.13.13 0 0 1-.19 0 .25.25 0 0 1-.11-.18.29.29 0 0 1 0-.13.2.2 0 0 1 .25-.1.2.2 0 0 1 .09.26.22.22 0 0 1-.26.1zm-10.43-1.78a.14.14 0 0 1-.2 0 .27.27 0 0 1-.11-.18.29.29 0 0 1 0-.13.19.19 0 1 1 .34.15.22.22 0 0 1-.26.11zM271 86a.22.22 0 0 0 .23-.3.48.48 0 0 0-.24 0 .19.19 0 0 0-.1.21.12.12 0 0 0 .19.06zm-3.91-.41c-.13 0-.18.19-.19.33s0 .29-.15.36a.14.14 0 0 1-.11 0c-.08 0 0-.17 0-.26a1.42 1.42 0 0 0-.05-.22.45.45 0 0 1 .2-.47.25.25 0 0 1 .24.13.26.26 0 0 1 0 .28zm-1.09-.86l-.14-.08a.18.18 0 0 0-.07.22.15.15 0 0 0 .21.13.13.13 0 0 0 0-.21zm-3.11 1.87l-.13-.09a.2.2 0 0 0-.08.23.16.16 0 0 0 .21.08.14.14 0 0 0 0-.22z"/><path d="M265.85 86.92a.12.12 0 0 1 0 .15.28.28 0 0 1-.18 0 .35.35 0 0 1-.13 0 .23.23 0 0 1-.05-.26.28.28 0 0 1 .24-.13.15.15 0 0 1 .12 0 .09.09 0 0 1 0 .12zm4.52-2.2v-.16a.28.28 0 0 0-.24 0c-.07 0-.06.18 0 .2s.06 0 .09 0l.29-.1zm-16.99-23.41c.05-.15-.18-.27-.31-.18a.57.57 0 0 0-.19.42.54.54 0 0 0 .58-.2zM243.81 70a.16.16 0 0 1-.2 0 .33.33 0 0 1-.11-.19.28.28 0 0 1 0-.13.2.2 0 0 1 .25-.1.21.21 0 0 1 .09.26.21.21 0 0 1-.25.1zm-1.43 1.69a.28.28 0 0 1-.28.13.28.28 0 0 1-.23-.19c0-.08 0-.18.08-.18h.09l.37.17v.06zm8.87 26.44a.33.33 0 0 0-.38 0 .46.46 0 0 1-.39.07.11.11 0 0 1-.06-.09c0-.09.12-.12.2-.17a1.33 1.33 0 0 0 .16-.17.44.44 0 0 1 .5-.09.24.24 0 0 1 0 .27.23.23 0 0 1-.24.13zm-10.88-27.95V70a.2.2 0 0 0-.23.06.16.16 0 0 0 .05.22.13.13 0 0 0 .19-.1zm-3.31-1.58v-.15a.19.19 0 0 0-.23.06.16.16 0 0 0 0 .22.13.13 0 0 0 .19-.11zm8.24 5.87a.41.41 0 0 1-.62-.21 1 1 0 0 1 .56-.19c.2 0 .4.2.35.39l-.28.21zm-6.85-3.23a.11.11 0 0 1-.15.05.26.26 0 0 1-.11-.14.32.32 0 0 1 0-.14.21.21 0 0 1 .19-.18.26.26 0 0 1 .24.12.21.21 0 0 1 0 .13.11.11 0 0 1-.1.08zm6.39 6.9l-.07-.27a.65.65 0 0 0-.2 0 .26.26 0 0 0 .23.28zm-1.95-12.08l-.08-.26a.49.49 0 0 0-.2 0 .25.25 0 0 0 .24.27z"/></g></g></g></g></svg>