<svg xmlns="http://www.w3.org/2000/svg" xmlns:xlink="http://www.w3.org/1999/xlink" viewBox="0 0 2600 710.23"><style><![CDATA[.A{isolation:isolate}.U,.X,.t{mix-blend-mode:multiply}.y,.z,.AA,.AB{mix-blend-mode:color-dodge}.AE{fill:#060d3f}.AF{fill:#084c8d}.AG{fill:#060a35}.AH{fill:#060d4a}.AI{fill:#083175}.AJ{fill:#083165}.AK{fill:#001d66}.AL{fill:#005695}.AM{fill:#085495}.AN{fill:#0072a4}.AO{fill:#085498}.AP{fill:#ff8337}.AQ{fill:#062c70}.AR{fill:#610051}.AS{fill:#083982}.AT{fill:#002456}.AU{fill:#000e40}]]></style><defs><linearGradient id="A" x1="417.33" y1="665.85" x2="417.33" y2="579.12" xlink:href="#b"><stop offset=".02" stop-color="#0e1747"/><stop offset="1" stop-color="#001060"/></linearGradient><linearGradient id="B" x1="265.99" y1="642.42" x2="265.99" y2="571.83" xlink:href="#b"><stop offset="0" stop-color="#003b86"/><stop offset="1" stop-color="#1459a5"/></linearGradient><linearGradient id="C" x1="82.59" y1="642.38" x2="82.59" y2="623.35" xlink:href="#b"><stop offset="0" stop-color="#0e1747"/><stop offset="1" stop-color="#001060"/></linearGradient><linearGradient id="D" x1="246.16" y1="630.05" x2="310.34" y2="630.05" xlink:href="#C"/><linearGradient id="E" x1="78.81" y1="607.4" x2="78.81" y2="287.26" xlink:href="#b"><stop offset="0" stop-color="#002974"/><stop offset="1" stop-color="#001047"/></linearGradient><linearGradient id="F" x1="169.74" y1="613.42" x2="169.74" y2="477.79" xlink:href="#b"><stop offset="0" stop-color="#002974"/><stop offset="1" stop-color="#001566"/></linearGradient><linearGradient id="G" x1="1229.5" y1="669.21" x2="1229.5" y2="619.11" xlink:href="#A"/><linearGradient id="H" x1="1237.36" y1="645.72" x2="1237.36" y2="612.73" xlink:href="#B"/><linearGradient id="I" x1="1430.84" y1="645.68" x2="1430.84" y2="626.65" xlink:href="#C"/><linearGradient id="J" x1="1258.27" y1="633.35" x2="1190.57" y2="633.35" xlink:href="#C"/><linearGradient id="K" x1="2283.46" y1="667.87" x2="2283.46" y2="586.58" xlink:href="#A"/><linearGradient id="L" x1="2302.16" y1="640.6" x2="2302.16" y2="581.69" xlink:href="#B"/><linearGradient id="M" x1="2504.99" y1="640.55" x2="2504.99" y2="618.02" xlink:href="#C"/><linearGradient id="N" x1="2317.2" y1="625.95" x2="2243.53" y2="625.95" xlink:href="#C"/><linearGradient id="O" x1="1715.84" y1="675.85" x2="1715.84" y2="625.76" xlink:href="#A"/><linearGradient id="P" x1="1709.21" y1="652.41" x2="1709.21" y2="619.41" xlink:href="#B"/><linearGradient id="Q" x1="1545.91" y1="652.37" x2="1545.91" y2="633.33" xlink:href="#C"/><linearGradient id="R" x1="1691.56" y1="640.03" x2="1748.7" y2="640.03" xlink:href="#C"/><linearGradient id="S" x1="584.87" y1="652.54" x2="584.87" y2="573.41" xlink:href="#b"><stop offset="0" stop-color="#1550ff"/><stop offset="1" stop-color="#00c8f6"/></linearGradient><linearGradient id="T" x1="604.6" y1="655.92" x2="604.6" y2="553.74" xlink:href="#b"><stop offset="0" stop-color="#1572ff"/><stop offset="1" stop-color="#00e5f6"/></linearGradient><linearGradient id="U" x1="628.02" y1="658.16" x2="628.02" y2="596.56" xlink:href="#T"/><linearGradient id="V" x1="614.59" y1="657.69" x2="614.59" y2="616.89" xlink:href="#T"/><radialGradient id="W" cx="434.78" cy="597.7" r="17.24" gradientTransform="translate(264.41) scale(0.76 1)" xlink:href="#b"><stop offset="0" stop-color="#005eff"/><stop offset=".12" stop-color="#004dd1"/><stop offset=".3" stop-color="#003692"/><stop offset=".48" stop-color="#00235e"/><stop offset=".64" stop-color="#001435"/><stop offset=".78" stop-color="#000918"/><stop offset=".91" stop-color="#000206"/><stop offset="1"/></radialGradient><radialGradient id="X" cx="482.34" cy="627.69" r="15.24" gradientTransform="translate(387.56) scale(0.5 1)" xlink:href="#W"/><radialGradient id="Y" cx="1276.24" cy="908.29" r="15.24" gradientTransform="matrix(0, 1.15, -1, 0, 1523.59, -838.21)" xlink:href="#W"/><radialGradient id="Z" cx="1296.86" cy="616.45" r="21.59" gradientTransform="matrix(0.26, 1.12, -2.13, 0.5, 1606.33, -1109.64)" xlink:href="#W"/><linearGradient id="a" x1="1394.82" y1="628" x2="1394.82" y2="437.27" xlink:href="#E"/><linearGradient id="b" gradientUnits="userSpaceOnUse"/></defs><g class="A"><g><path d="M185.94 574.32l26.1 10.82 4.94 7.52 8.28 10.83-84.62-11.59-8.58-11.69-.96-10.53 15.58 4.64h39.26z" class="AQ"/><path d="M34.07,572.66l2.43,18.48,72.23,11.08s41.73,1.39,40.26.35-3.83-23.45-3.83-23.45H103l-6.67,2.57Z" fill="#062569"/><path d="M-.78,579.12l223.14,22.76s225.16,35.63,272.58,38,340.49,26,340.49,26H.45Z" fill="url(#A)"/><path d="M-.78 632.93l113.69 7.67 27.18 1.82 40.71-4.58 12-2.3 62.5.35 43.14.51 11.86-4h45l96.75 8.16 80.62 1.73s-152.57-13.9-224.55-27.57S177.9 594.9 177.9 594.9l-65-9-2.37 4.61-78.17-8.65-8.6-5.51-23.31-4.52z" fill="url(#B)"/><path d="M369.89 653.98l-71.41-17.59-4.68-5.21-46.85-10.21 63.39 11.47 6.38 5.03 53.17 16.51z" class="AG"/><path d="M484.93 646.8s-35.82 3.77-39.36 3.41-52.45-2.9-55.22-2.79-60.71 1.1-60.71 1.1l-44.29 3.18-101.42 4.7 74.72 4.14s41-5.34 46.72-4.87 60 .73 60 .73l28.43-3.64 26.38 3.64 46.14-2.4 21.75-4.87 48.58-1.81z" class="AI"/><path d="M56 636.76l-12.56 5.62-27.24-1.53 5.8-7.98 20.75-9.36 41.93 1.33 18.3-1.49 19.21 2 26.8 1-41.63 1.81-35.65 3.11L56 636.76z" fill="url(#C)"/><path d="M112.91 585.86l14.48 4.09 7.14 3.94 29.85 5.57-32.25-2.79-21.59-6.19 2.37-4.62z" class="AQ"/><path d="M148.99 626.35l32.17-5.38h9.02 14.92 34.22l-37.34 5.38-12.14-.8-40.85.8z" class="AK"/><path d="M355.38 632.44l10.34 15.44 35.71-.04 15.9.46-2.24-10.83-45.2-4.02-14.51-1.01z" class="AH"/><g class="AE"><path d="M192.84 635.54v11.87l1.31 1.7-5.36 7.29h-4.86v9.45l-4.15-10.18-40.24.73.55-13.98 43.84-4.95 8.91-1.93zM56 636.76l-2.79 11.36 2.79.99-2.79 16.74H16.2l5.8-32.98 20.75-9.36 28.96 7.76L56 636.76z"/></g><path d="M110.54 656.4h29l40.24-.73-27.41 4.87-17.84 2.31-23.99-6.45z" class="AJ"/><path d="M466.32 653.98l8.28 11.48h33.94l-20.47-16.35-21.75 4.87z" class="AH"/><g fill="#085aa1"><path d="M34.08 572.66l62.23 9.02 6.67-2.56h16.17 26.01l-55.55-11.33-19.24-.83-11.32 1.16-2.43 3.06-22.54 1.48zm97.02-2.98l15.58 4.64h15.95l12.62 1.92 36.79 8.9-42.96-17.8-37.98 2.34z"/><path d="M212.04 585.14l-15.44 2.67-21.35 1.54-14.52-2.1 16.23 3.85 22.52-.75 17.5 2.31-4.94-7.52z"/></g><g class="AE"><path d="M78.66 638.29l8.53 3.06 9.5 1.03h13.85l14.77 2.3 14.52 4.43.26-6.69-46.7-2.74-14.73-1.39zm146.6-2.75l28.93 2.75 10.4-1.38 11.1 1.38h25.5l9.93 1.22-12.64-3.12-73.22-.85zm33.39 25l9.54 2.31 26.76-2.31 8.24-4.87 9.97.73 32.52 2.86 19.69-2.86-64.05-1.55-42.67 5.69z"/></g><path d="M128.17 641.1l15.48-1.59 19-3.97 4.2-2.67 20.9.58 5.09 2.09-8.91 1.93-43.84 4.95-11.92-1.32z" class="AF"/><path d="M42.75 623.51l21.33-4.66 38.9-4.94 20.77-2.06 36.76 2.06 15.8 1.27 63.01 5.79h-58.16l-32.17 5.38-3.83-.14-42.18-2.86-18.3 1.49-41.93-1.33z" class="AL"/><path d="M390.35 647.41v5.79l29.83 3.2 25.39-1.55 20.75-.87-20.75-3.77-24.44-2.8h-30.78z" class="AF"/><g class="AM"><path d="M304.56 631.39l9.99-2.21 14.05 1.11 22.2 2.15h-28.97 0l-5.11 5.03-4.71-3.71-1.67-1.32-5.78-1.05zm-51.76 1.05h5.85l2.99.89-8.84-.89zm-14.51.44l-6.63.57 2.08.53 5.58-.53h1.9l-2.93-.57zm5.34-2.9l6.31-2.13-.91 1.06-5.4 1.07zm-85.19-22.85v-4.17l8.41.53-4.21 1.55-4.2 2.09z"/></g><g class="AN"><path d="M184.54 604.2a4.92 4.92 0 0 0-1.77-1.16 2.47 2.47 0 0 0-.46-.16 3.1 3.1 0 0 0-1.05 0c-.74.11-1 .42-.79.73a3.66 3.66 0 0 0 1.86.77 5.71 5.71 0 0 0 1.47.11c.44 0 .74-.19.57-.36s-.33 0-.29.06zm-2.33 1.36a3.22 3.22 0 0 0-1.52-.54c-.43.14-.69.35-.49.59a2.52 2.52 0 0 0 1.6.42c.63 0 .76-.37.14-.51zm5.55-2.07l-.58-.17h-.08-.07c-.11.06.06.18-.14.21h-.1c-.02 0 .05 0 .12.05.37.07.78 0 .76-.13h.08zm3.1-2a8.61 8.61 0 0 0-1.08-.34h-.16a.21.21 0 0 0-.12 0c-.22.11.11.34-.27.39h-.18c-.03 0 .09.08.23.11.68.11 1.46 0 1.43-.26l.13.06zm-14.56.89a1.46 1.46 0 0 0-.69-.26c-.05 0-.1.08-.09.13s.1.1.23.13a1.39 1.39 0 0 0 .51 0h0zm3.16-5.64a1.09 1.09 0 0 0-.23-.06 1 1 0 0 0-.24 0h-.63l1.11.22h.09c.08 0 0 .07.05.11a.84.84 0 0 0 .4.09c1.13.16-.18-.22-.55-.36zm8.8.45c.15.1-.08.22-.41.19s-.57-.18-.42-.26a1.24 1.24 0 0 1 .8 0zm-3.83 3.98c.26 0 .58.09.59.18s-.28.09-.52.09a1 1 0 0 1-.31 0c-.18-.08.25-.15.11-.23h.14zm-5.91 2.44a.92.92 0 0 1 .25.06 2.6 2.6 0 0 1-.72-.06c-.13 0-.28-.07-.28-.11s.07-.06.11-.08 0-.15.16-.16a.49.49 0 0 1 .28.06.16.16 0 0 1 .09.1l.08.24zm-.86 1.12c-.11-.06-.41 0-.42 0a.8.8 0 0 0 .28.19c.14.05.33-.12.25-.22zm15.07 5.91l-.23-.07a.63.63 0 0 0-.27 0c-.11 0 0 .1 0 .15s-.21.07-.19.13.22.09.37.09a.72.72 0 0 0 .32-.09c.07 0 .14-.07.13-.12s-.11-.1-.25-.12zm-28.07-4.99s0 .06-.11.06a.83.83 0 0 1-.27 0h-.13c-.07 0 0-.09.09-.1a.65.65 0 0 1 .33.06c.06 0 0 .09-.09.1zm10.69-2.43c.16 0 .08-.13-.12-.16a.3.3 0 0 0-.16.07s0 .08.13.1.22 0 .21 0zM177 599c.15 0 .07-.14-.13-.17s-.14 0-.16.08 0 .07.13.09.23 0 .21 0zm1.39 3.4c0-.08-.15-.17-.35-.23l-.28.15s-.09 0-.09.08.22.12.39.12.3 0 .3-.11zm37.61.6l1 .23c0 .06-.26 0-.44 0a2.88 2.88 0 0 1-.5-.11c-.13 0-.16-.14 0-.16z"/><path d="M209.08 602.42c.07-.08-.23-.18-.48-.18s-.38.09-.33.18a.26.26 0 0 0 .17.11 1.07 1.07 0 0 0 .47 0 .54.54 0 0 0 .24-.13zm-26.08-1.5c.06-.07 0-.16-.24-.23a.46.46 0 0 0-.28.12c-.05.07 0 .17.26.21s.48 0 .36-.1zm.63.84c.09.06.06.12-.07.14l-.49-.11c0-.08.29-.12.53-.08zm3.37 1.72h.22a1 1 0 0 1-.34.09 1 1 0 0 1-.46 0c-.12 0-.09-.13.08-.12a2.12 2.12 0 0 1 .5 0zm-11.82.96c.06 0 0 .1-.07.12a1 1 0 0 1-.38 0c-.09 0-.17 0-.12-.08h.09.47 0zm-3.29-.32c-.07 0 .07.11.19.16s.28.11.25.16 0 0-.08 0a.57.57 0 0 1-.29-.08l-.27-.06c-.21-.05-.34-.14-.32-.21a.69.69 0 0 1 .33 0 .45.45 0 0 1 .25.1zm-1.68-.01H170s.06.08.17.1.23 0 .24 0-.1-.08-.2-.08zm-.56 1.46h-.18a.29.29 0 0 0 .16.1.34.34 0 0 0 .25 0s-.1-.08-.21-.08z"/><path d="M176.12 602.89a.51.51 0 0 0 .33 0 1.63 1.63 0 0 0 .19-.09 1 1 0 0 1 .33 0 .54.54 0 0 1 .21.05.05.05 0 0 1 0 0 .22.22 0 0 1-.15.23 1.32 1.32 0 0 1-.63.06.87.87 0 0 1-.4-.14c-.06-.06 0-.12.09-.16zM171 596.9a.56.56 0 0 0 .32 0 1.65 1.65 0 0 0 .19-.1.88.88 0 0 1 .34 0 .41.41 0 0 1 .21 0 .09.09 0 0 1 0 0 .22.22 0 0 1-.15.23 1.23 1.23 0 0 1-.64.06.76.76 0 0 1-.39-.14c-.06-.06 0-.12.09-.15zm4.56 4.82c0-.05-.2-.11-.36-.11a.54.54 0 0 0-.34.08v.06h.14.56zm11.27-2.34c.24 0 .16-.13 0-.22a.68.68 0 0 0-.33-.13.64.64 0 0 0-.44.09l-.24.15s-.07 0 0 .07a.47.47 0 0 0 .17.06 9.83 9.83 0 0 0 1.09.13zm1.75 2.78c2.16 0 1.17-.91-.77-1s-1.12 1.03.77 1zm-8.3 2.45c0 .11-.39.16-.69.1a.32.32 0 0 1 .24-.22 1.18 1.18 0 0 1 .67 0v.15zm-8 .29c.07 0 .12 0 .11.06a.19.19 0 0 1-.11 0h-.16a.57.57 0 0 1-.3-.08s0-.08.05-.1h.15.13zm1.28-1.9l-.18-.05c-.06 0-.14.05-.13.08s.14.08.22.06a.06.06 0 0 0 .06 0l.11-.11z"/><path d="M165.63 599.2a1.55 1.55 0 0 0-.34-.16 1.34 1.34 0 0 0-.48 0 .18.18 0 0 0-.13.06c-.06.08.13.18.38.22s.52 0 .55-.09zm13.07-.8c.23 0 .31.17.11.2a2.44 2.44 0 0 1-.39-.06s.09-.09.2-.11zm4.94 7.6l-.32-.07a.26.26 0 0 0-.11.07.81.81 0 0 0 .46 0zm-44.52 15.36a5 5 0 0 0-1.77-1.16 2.15 2.15 0 0 0-.45-.15 3.12 3.12 0 0 0-1.05 0c-.74.12-1 .43-.8.74a3.76 3.76 0 0 0 1.87.76 5.71 5.71 0 0 0 1.47.11c.44 0 .74-.19.56-.36s-.33 0-.29.06zm-12.58 14.72a5 5 0 0 0-1.77-1.16 2.15 2.15 0 0 0-.45-.15 3.12 3.12 0 0 0-1 0c-.74.11-1 .43-.8.74a3.76 3.76 0 0 0 1.87.76 5.71 5.71 0 0 0 1.47.11c.44 0 .74-.19.56-.36s-.33 0-.29.06zm10.25-13.35a3.07 3.07 0 0 0-1.51-.54c-.43.13-.69.35-.49.58a2.56 2.56 0 0 0 1.59.43c.64 0 .77-.37.15-.52zm5.55-2.07a3.83 3.83 0 0 0-.57-.18h-.15c-.12.06.06.18-.14.21h-.1s.05 0 .12.06c.37.06.78 0 .76-.14h.07zm45.02-5.05a11 11 0 0 0-1.09-.33h-.15-.13c-.21.11.11.35-.26.4a.75.75 0 0 0-.19 0 .5.5 0 0 0 .23.11c.69.12 1.47 0 1.44-.25l.13.06z"/><path d="M130.89 619.54a1.64 1.64 0 0 0-.7-.25s-.09.08-.08.13.09.1.23.12a1.16 1.16 0 0 0 .5 0h0zm3.16-5.64a1.28 1.28 0 0 0-.23-.06.92.92 0 0 0-.24 0 6.39 6.39 0 0 1-.64 0l1.12.22h.08c.08 0 0 .07.06.11a.79.79 0 0 0 .39.09c1.14.16-.17-.26-.54-.36zm8.79.45c.16.11-.08.22-.4.2s-.57-.18-.43-.26a1.15 1.15 0 0 1 .81.05zm-3.84 3.98c.26 0 .58.09.59.18s-.29.1-.53.1a1.28 1.28 0 0 1-.3 0c-.18-.08.24-.14.11-.23h.14zm-5.89 2.44a.76.76 0 0 1 .24.07 2.55 2.55 0 0 1-.71-.07c-.13 0-.28-.07-.28-.11s.07 0 .1-.08 0-.15.16-.16a.52.52 0 0 1 .29.06.14.14 0 0 1 .08.11l.09.24zm-.87 1.12c-.1-.06-.4 0-.41 0s.14.13.28.19.32-.13.25-.22zm15.08 5.92l-.24-.08a.83.83 0 0 0-.27 0c-.1 0 0 .11-.05.15s-.21.08-.19.13.23.1.38.09a.78.78 0 0 0 .32-.08c.07 0 .13-.08.12-.12s-.1-.11-.25-.12zm-28.07-5s0 .06-.11.07a1.17 1.17 0 0 1-.27 0 .4.4 0 0 1-.13 0c-.07 0 0-.09.09-.1a.59.59 0 0 1 .32.06c.06 0 0 .09-.08.11zm10.69-2.42c.15 0 .07-.14-.12-.16a.27.27 0 0 0-.17.07s0 .07.13.09.23 0 .22 0zm1.68-4.26c.16 0 .08-.13-.12-.16a.24.24 0 0 0-.16.07s0 .07.13.09.22 0 .21 0zm-87.3-2.23c0-.08-.15-.17-.35-.23l-.29.14s-.09.05-.08.08.22.12.39.12.29 0 .3-.11zm126.31 6.26l1 .22c0 .06-.26 0-.44 0a1.76 1.76 0 0 1-.5-.11c-.13 0-.16-.13 0-.15zm-6.97-.58c.08-.07-.23-.18-.48-.18s-.38.1-.33.18a.29.29 0 0 0 .17.11 1.07 1.07 0 0 0 .47 0 .53.53 0 0 0 .25-.13zm-26.12-1.49c.06-.07 0-.17-.24-.23a.5.5 0 0 0-.29.11c0 .07 0 .17.26.21s.49 0 .36-.09zM109.58 632c.06-.07 0-.17-.24-.23a.5.5 0 0 0-.29.11c0 .07 0 .17.26.21s.49 0 .36-.09zm28.64-13.07c.08.05.05.11-.07.14l-.5-.12c0-.08.3-.12.53-.07z"/><path d="M141.62 620.64h.21a1.7 1.7 0 0 1-.33.09 1.22 1.22 0 0 1-.47 0c-.12 0-.08-.12.08-.12a2.73 2.73 0 0 1 .5 0zm-11.85.96s0 .1-.07.12a.85.85 0 0 1-.39 0c-.09 0-.17-.06-.12-.08h.1.46 0zm-3.29-.32c-.07.05.06.12.19.16s.27.11.24.17h-.07a1 1 0 0 1-.3-.08c-.07 0-.17 0-.26-.07s-.34-.14-.32-.21a.79.79 0 0 1 .32 0 .46.46 0 0 1 .26.1zm-1.69-.01h-.18a.25.25 0 0 0 .16.09c.1.01.23 0 .25 0s-.1-.08-.21-.07zm-.55 1.47h-.19a.31.31 0 0 0 .17.09c.11.02.23 0 .24 0s-.1-.08-.2-.08zm6.47-2.69a.56.56 0 0 0 .32 0 1.65 1.65 0 0 0 .19-.1.88.88 0 0 1 .34 0 .41.41 0 0 1 .21 0 .2.2 0 0 1-.14.23 1.23 1.23 0 0 1-.64.06.76.76 0 0 1-.39-.14c-.07-.06 0-.12.09-.15zm-5.14-5.99a.46.46 0 0 0 .33 0c.09 0 .12-.07.19-.09a.83.83 0 0 1 .34 0 .6.6 0 0 1 .21 0 .06.06 0 0 1 0 .06.22.22 0 0 1-.14.23 1.36 1.36 0 0 1-.64.06.91.91 0 0 1-.4-.14c-.06-.06 0-.13.09-.16zm4.57 4.82s-.2-.1-.36-.11a.51.51 0 0 0-.33.08v.07h.15.55z"/><path d="M141.42 616.54c.23 0 .15-.13 0-.21a.67.67 0 0 0-.78 0l-.23.14s-.07.05 0 .08a.49.49 0 0 0 .17 0 7.73 7.73 0 0 0 1.09.13zM172.74 633c2.17 0 1.17-.92-.76-1.05s-1.13 1.05.76 1.05zm-37.87-11.23c0 .11-.39.17-.7.1a.31.31 0 0 1 .24-.21 1.18 1.18 0 0 1 .67 0v.14zm-8.01.29c.08 0 .13 0 .12.06s-.06 0-.12.06h-.15a.58.58 0 0 1-.3-.07V622h.14.13zm1.29-1.94l-.18-.06c-.07 0-.14.05-.13.09s.14.07.22.06h.05l.12-.11zm-7.93-3.76a1.27 1.27 0 0 0-.35-.15 1.31 1.31 0 0 0-.48-.05c-.06 0-.11 0-.12.06s.12.19.37.22.53 0 .56-.08zm13.06-.8c.24 0 .31.17.12.2a2.57 2.57 0 0 1-.4-.06.36.36 0 0 1 .21-.11zm4.95 7.59l-.33-.07c-.05 0-.09 0-.1.07a.87.87 0 0 0 .45 0z"/></g><g class="AO"><path d="M369.89 633.45l-103.9-18.19 5.02-1.42 2.47-1.99 11.78.88-35.32-3.88-32.92-3.16-39.12-10.79 99.87 12.23 76.71 15.06 172.48 19.6-49.3-1.42-25.53.23-82.24-7.15zm-109.81-18.9l-25.49-2.7-13.19 2.51 16.13-.2 22.55.39z"/></g><path d="M309.61 639.13l.73-6.69-64.18-11.47 49.18 9.88 2.37 4.69 11.9 3.59z" fill="url(#D)"/><path d="M-.78 632.93l2.25 3.43 17.51-.82 1.92 3.59-1.76 9.98 6.96-9.98 13.18-5.15 15.33 8.44 1.39-5.66 14.37-5.85-27.62-7.4L22 632.87l-22.78.06z" class="AG"/><path d="M-2.76 594.28l58.08 16.27-4.16.38 12.92 7.92-21.33 4.66L22 632.87l-22.78.06-1.98-38.65z" fill="#083b82"/><path d="M737,658s37.54,7.4,41.08,7,52.45-2.9,55.23-2.8,60.71,1.1,60.71,1.1l44.39,1.79,101.79-.44L965,675.37s-41-5.34-46.72-4.87-60,.73-60,.73l-29.08,6.24-25.73-6.24-47.82,3.51-20.06-10.8-58.31-10.27Z" class="AI"/><path class="U AR" d="M201.32 613.42l-67.58-3.04-49.6 3.37-85.09 8.7v-45.32h36.82l165.45 36.29z" opacity=".68"/><path d="M28.6 584.97l23.74 17.36 21.15 3.26 15.96-.73 22.82.73 26.72 1.81 5.25-.76-1.82-64.82-3.43-7.31-6.47-22.46-8.12-2.34-12.13-4.36-7.99 4.92-6.05 5.43.63-42.13-10.36-9.06-1.35-34.34 6.87-65.78 3.42-27.48 3.99-26.89-8.55-12.21-19.39-10.55-9.7 67.11h-4.56l-9.13 54.32-36.72 175.22 15.22 1.06z" fill="url(#E)"/><path d="M198.74 613.42l-20.78-6.86-1.96-23.69-.99-26.31.99-14.04-6.63-24.48v-40.25l-4.86 9.74-5.91 44.11-17.87 35.56.61 21.79-.17 17.71 11.52 2.42 46.05 4.3z" fill="url(#F)"/><path class="X AR" d="M198.74 613.42l-20.78-6.86-9.29-6.34-4.02-12.5-2.5 2.24-7.18 1.47 4.65-9.56 4.57-5.98 5.55-12.51-5.09 5.64-6.39-.42 1.36-20.64 2.53-9.94 4.33-20.83h-1.5l-.47-29.66-5.91 44.11-15.81 30.81-4.23 5.13-4.82 10.44-3.89 11.37-2.86-1.67-4.83 3.71-16.5 1.55 5.52-40.03 3.83-4.22 5.19 4.56v-29.84l-5.19 14.57h-5.86l-3.49-17.85 6.61-14.82-7.99 4.92-6.05 5.43-3.67 34.77-9.84 10.88-13.18 6.62-5.23-23.23 10.51-33.65-5.28 7.51 5.28-48.28 1.74-6.65-7.02-25.09v22.92l-9.89 26.42-8.24 7.6 12.12-99.3 12.16-73.65 11.49-20.5-9.1 6.84-6.59-21.65-9.7 67.11h-4.56L34.19 490.24l9.63 13.28 5.63 24.19-4.08 17.03-3.49-23.98-13.24-9.67-15.26 72.82 15.22 1.06 23.74 17.36 21.15 3.26 15.96-.73 54.79 1.78 54.5 6.78z" opacity=".5"/><g class="AS"><path d="M111.18 552.95l-2.96 21.44-2.56 18.59 12.5-3.59 4.37-18.2-2.33-17.9-5.19-4.56-3.83 4.22zm1.09-47.6l-6.61 14.82 6.61 2.43 6.75 4.18 1.18-3.33 11.3 2.53 5.87 2.9-4.85-16.83-20.25-6.7zm52.24-17.82l4.69 25.97.54-33.89-5.23 7.92zm4.16 32.51l-5.57 13.42-3.57 15.94 14.56-2.43 1.91-4.45-7.33-22.48zm-4.02 67.68l7.78 7.75 4.91 3.58.62 7.51-9.29-6.34-4.02-12.5zM78.56 463.67l10.23 8.45 10.07 1.45-10.36-9.06-6.49-8.93-10.47-17 7.02 25.09zm-1.74 47.42l1.99 20.22 3.97 6.81 2.42 10.61-.48 12.62-13.18 6.62-5.23-23.23 10.51-33.65zm12.36-209.02l12.25 7.95-8.55-12.21-19.39-10.55 15.69 14.81z"/></g><path d="M87.41 427.67L85.2 398.6l-1.6-19.84-5.91 8.37 9.72-25.2 6.32-20.74 4.29-8.21-4.29 28.45-6.32 66.24z" fill="#082672"/><g class="AP"><path d="M86.35 470.1l2.83 6.56 1.16 23.15v17.31l6.25 14.19-5.62-14.72.5-15.89-1-4.62 1-1.17-.93-9.6-.51-8.65-3.68-6.56z"/><path d="M79.59 530.25l3.34-8.71 2.27-10.45v-6.98l4.72-12.73.52 3.15-1.79 1.65-2.3 7.03-.96.84.68 7.04-.87 1.84-2.03 8.81-3.58 8.51zm6.76-60.15l-3.81-6.62-.87-4.69 3.53 6.91 1.15 4.4zm-32.94 98.92l2.53 9.89 4.17 11.51 6.2 2.56-5.33-3.47-2.33-7.61-2.13-3.88-3.11-9zm37.03 3.29l8.39-4.34-3.04 3.93-5.35.41zM63.79 354.37l4.94 9.73 4.76 20.82v8.05l1.35-7.56-1.89-11.16-2.7-6.61-.36-3.12-1.09-2.08-4.31-12.88-.7 4.81z"/></g><g fill="#0e1747"><path d="M790 655.8l-23.86 10.82-4.51 7.52-7.57 10.83 77.32-11.59 7.84-11.69.87-10.53-14.23 4.64H790z"/><path d="M928.74,654.14l-2.22,18.48-66,11.08s-38.13,1.39-36.79.35,3.5-23.45,3.5-23.45h38.54l6.09,2.57Z"/></g><g fill="#085aa1"><path d="M928.74 654.14l-56.86 9.03-6.09-2.57h-14.78-23.76L878 649.28l17.58-.84 10.34 1.16 2.22 3.06 20.6 1.48zm-88.65-2.98l-14.23 4.64h-14.57l-11.53 1.92-33.62 8.9 39.25-17.8 34.7 2.34z"/><path d="M766.14 666.62l14.11 2.67 19.51 1.54 13.26-2.1-14.82 3.85-20.57-.75-16 2.31 4.51-7.52z"/></g><path d="M917.31 669.14h600.19l24.11-4.22-28.31-32.72-233-13.17-284.51 24.09c-22.85 1.07-49.36 3.09-49.36 3.09L923.75 657" fill="url(#G)"/><path d="M1472.88 626.81l25.25-4.44 20.66 13.86-119.94 7.67-28.67 1.82-43-4.58-12.7-2.3-65.94.35-45.51.51-12.51-4H1143l-102 8.2-85.06 1.73s161.05-13.94 237-27.61 132.69 3.48 132.69 3.48l64.63-1.51" fill="url(#H)"/><path d="M1127.74 657.28l75.34-17.58 4.93-5.21 49.43-10.22-66.87 11.47-6.73 5.03-56.1 16.51z" class="AG"/><path d="M1006.38 650.1s37.78 3.77 41.52 3.41 55.33-2.9 58.26-2.79 64 1.1 64 1.1l46.73 3.18 107 4.71-78.83 4.14s-43.22-5.35-49.29-4.88-63.3.74-63.3.74l-30-3.65-27.82 3.65-48.65-2.43-22.94-4.87-51.26-1.81z" class="AI"/><path d="M1458.9 640.06l13.25 5.62 28.74-1.53-6.12-7.98-21.89-9.36-44.24 1.33-19.31-1.49-20.26 2-28.27 1 43.91 1.82 37.61 3.1 16.58 5.49z" fill="url(#I)"/><path d="M1360.8 629.65l-33.95-5.38h-9.52-15.73-36.11l39.4 5.38 12.81-.79 43.1.79z" class="AK"/><path d="M1143.05 635.74l-10.91 15.44-37.67-.04-16.78.46 2.37-10.83 47.68-4.02 15.31-1.01z" class="AH"/><g class="AE"><path d="M1314.53 638.84v11.88l-1.39 1.69 5.66 7.3h5.13v9.44l4.38-10.18 42.45.74-.58-13.99-46.25-4.95-9.4-1.93zm144.37 1.22l2.94 11.36-2.94.99 2.94 16.74h39.05l-6.12-32.98-21.89-9.36-30.56 7.76 16.58 5.49z"/></g><path d="M1401.36 659.71h-30.6l-42.45-.74 28.92 4.88 18.82 2.3 25.31-6.44z" class="AJ"/><path d="M1026.01 657.28l-8.74 11.48h-35.81l21.61-16.35 22.94 4.87z" class="AH"/><g class="AE"><path d="M1434.99 641.59l-9 3.06-10.02 1.03h-14.61l-15.59 2.3-15.31 4.43-.28-6.69 49.26-2.73 15.55-1.4zm-154.67-2.75l-30.51 2.75-10.98-1.38-11.71 1.38h-26.9l-10.47 1.22 13.33-3.11 77.24-.86zm-35.22 25.01l-10.07 2.3-28.22-2.3-8.7-4.88-10.52.74-34.31 2.85-20.77-2.85 67.57-1.56 45.02 5.7z"/></g><path d="M1382.75 644.4l-16.33-1.59-20.04-3.97-4.43-2.67-22.05.58-5.37 2.09 9.4 1.93 46.25 4.95 12.57-1.32z" class="AF"/><path d="M1472.88 626.81l-22.51-4.66-41.04-4.94-21.91-2.06-38.78 2.06-16.67 1.28-66.48 5.78h61.36l33.95 5.38 4.04-.14 44.49-2.86 19.31 1.49 44.24-1.33z" class="AL"/><path d="M1106.16 650.72v5.78l-31.47 3.21-26.79-1.56-21.89-.87 21.89-3.77 25.78-2.79h32.48z" class="AF"/><g class="AM"><path d="M1196.67 634.69l-10.54-2.2-14.82 1.1-23.43 2.15h30.56 0l5.4 5.03 4.97-3.71 1.76-1.32 6.1-1.05zm54.6 1.05h-6.17l-3.16.89 9.33-.89zm15.31.44l7 .57-2.2.53-5.89-.53h-2l3.09-.57zm-5.63-2.9l-6.66-2.13.96 1.07 5.7 1.06z"/></g><g class="AN"><path d="M1314.64 613.94l.25-.07a.72.72 0 0 1 .29 0c.11 0 0 .1 0 .15s.22.07.2.13-.24.09-.39.09a.82.82 0 0 1-.34-.09c-.08 0-.14-.07-.14-.12s.12-.1.27-.12zm56.56 10.72a5.38 5.38 0 0 1 1.87-1.16 2.48 2.48 0 0 1 .48-.15 3.48 3.48 0 0 1 1.11 0c.78.12 1.1.43.83.74a4 4 0 0 1-2 .76 6.25 6.25 0 0 1-1.54.11c-.47 0-.78-.19-.6-.36s.35 0 .31.06zm13.27 14.72a5.48 5.48 0 0 1 1.87-1.16 2.48 2.48 0 0 1 .48-.15 3.48 3.48 0 0 1 1.11 0c.78.12 1.1.43.84.74a4 4 0 0 1-2 .76 6.37 6.37 0 0 1-1.55.11c-.47 0-.78-.19-.6-.36s.35 0 .31.06zM1373.66 626a3.35 3.35 0 0 1 1.6-.54c.45.13.73.35.52.58a2.84 2.84 0 0 1-1.69.43c-.67 0-.81-.37-.15-.52zm-5.86-2a4.87 4.87 0 0 1 .61-.18h.16c.12.06-.06.19.15.21h.1l-.13.06c-.38.06-.82 0-.8-.14h-.07zm-47.49-5.09a11.54 11.54 0 0 1 1.15-.33h.16.13c.23.11-.11.35.28.4a.85.85 0 0 1 .2 0s-.1.09-.24.11c-.73.12-1.55 0-1.52-.25l-.14.06zm59.58 3.93a1.69 1.69 0 0 1 .73-.25c.05 0 .1.08.09.13s-.1.1-.24.12a1.14 1.14 0 0 1-.53 0v.05zm-3.34-5.63a.82.82 0 0 1 .25-.07h.25c.21 0 .44 0 .67.05l-1.18.22h-.08c-.09 0 0 .07-.06.11a1 1 0 0 1-.42.1c-1.2.1.19-.28.57-.41z"/><path d="M1367.28 617.65c-.17.11.08.22.42.2s.61-.18.45-.26a1.32 1.32 0 0 0-.85 0zm4.03 3.98c-.27 0-.61.1-.62.18s.3.1.55.1a1 1 0 0 0 .32 0c.19-.08-.25-.14-.11-.23h-.15zm6.24 2.44a.89.89 0 0 0-.26.07 2.84 2.84 0 0 0 .75-.07c.14 0 .3-.07.3-.11s-.08-.05-.11-.08 0-.15-.17-.16a.54.54 0 0 0-.3.06.16.16 0 0 0-.09.11l-.09.24zm.91 1.12c.11-.06.42 0 .44 0s-.15.13-.3.19-.34-.13-.26-.22zm-15.9 5.92l.24-.08a1 1 0 0 1 .29 0c.11 0 0 .11.05.15s.22.08.2.13-.24.1-.39.09a.71.71 0 0 1-.34-.08c-.08 0-.14-.08-.14-.12s.12-.11.27-.12zm29.61-5s0 .06.11.07a.92.92 0 0 0 .29 0h.14c.07 0 0-.09-.1-.1a.67.67 0 0 0-.34.06c-.06.05 0 .09.09.11zm-11.28-2.42c-.16 0-.08-.13.13-.16a.27.27 0 0 1 .17.07s0 .07-.13.09-.24 0-.23 0zm-1.78-4.26c-.16 0-.08-.13.13-.16a.34.34 0 0 1 .17.07s0 .07-.13.1-.24 0-.23 0z"/><path d="M1471.22 617.2c0-.08.16-.17.37-.23l.3.15s.09 0 .09.07-.23.12-.41.12-.31 0-.32-.11zM1338 623.46l-1 .22c0 .06.28.05.46 0a1.9 1.9 0 0 0 .53-.11c.14-.05.17-.13 0-.15zm7.31-.58c-.08-.07.24-.18.51-.18s.4.1.35.18a.33.33 0 0 1-.18.11 1.21 1.21 0 0 1-.5 0 .53.53 0 0 1-.25-.13zm27.57-1.49c-.07-.07 0-.17.24-.23a.58.58 0 0 1 .31.11c0 .07 0 .17-.28.21s-.51 0-.38-.09zm29.49 13.88c-.06-.07 0-.17.25-.23a.5.5 0 0 1 .3.11c.06.07 0 .17-.27.21s-.51 0-.38-.09zm-30.21-13.04c-.09 0-.06.11.07.14l.52-.12c0-.08-.31-.12-.56-.07zm-3.59 1.71h-.23a2 2 0 0 0 .35.09 1.38 1.38 0 0 0 .5-.05c.12 0 .08-.12-.09-.12a3 3 0 0 0-.52.05zm12.5.96c-.06.05 0 .1.08.12a.9.9 0 0 0 .4 0c.09 0 .18-.06.13-.08h-.1-.49 0z"/><path d="M1384.54 624.58c.07 0-.07.12-.2.17s-.29.1-.26.16a.12.12 0 0 0 .08 0 .79.79 0 0 0 .31-.08l.28-.07c.22 0 .36-.14.34-.21a.9.9 0 0 0-.34 0 .5.5 0 0 0-.27.1zm1.78-.01h.2s-.07.08-.18.09-.24 0-.26 0 .11-.07.22-.07zm.58 1.43h.2s-.06.07-.18.09-.24 0-.25 0 .1-.08.21-.07zm-6.82-2.65a.62.62 0 0 1-.34 0 1.23 1.23 0 0 1-.2-.1 1 1 0 0 0-.36 0 .62.62 0 0 0-.22 0v.05a.22.22 0 0 0 .16.23 1.23 1.23 0 0 0 .67.06.81.81 0 0 0 .41-.14c.07-.06 0-.12-.09-.15zm5.42-5.98a.58.58 0 0 1-.35 0c-.09 0-.12-.07-.2-.09a.91.91 0 0 0-.36 0 1.09 1.09 0 0 0-.22 0 .06.06 0 0 0 0 .06.22.22 0 0 0 .15.23 1.48 1.48 0 0 0 .67.06 1 1 0 0 0 .42-.14c.06-.06 0-.12-.1-.16zm-4.83 4.81a.69.69 0 0 1 .39-.11.58.58 0 0 1 .35.08s0 .05-.05.07h-.15-.59zm-11.89-2.34c-.25 0-.16-.13 0-.21a.82.82 0 0 1 .36-.13.69.69 0 0 1 .47.09l.24.14s.08 0 0 .08a.56.56 0 0 1-.19.05 8.61 8.61 0 0 1-1.15.13zm-33.04 16.43c-2.29 0-1.24-.92.8-1s1.19 1.02-.8 1z"/><path d="M1375.69 625.08c0 .1.41.16.73.09a.31.31 0 0 0-.25-.21 1.32 1.32 0 0 0-.71 0v.14zm8.45.28c-.08 0-.14 0-.13.07s.07 0 .13.05h.16a.62.62 0 0 0 .31-.07c.06 0 0-.08 0-.11h-.15c-.06 0-.13 0-.14.05zm-1.36-1.94h.19c.07 0 .15 0 .14.08s-.15.07-.24.06h0l-.12-.11zm8.36-3.76a1.89 1.89 0 0 1 .37-.15 1.23 1.23 0 0 1 .5 0 .24.24 0 0 1 .14 0c.06.08-.13.19-.4.22s-.55 0-.58-.08zm-13.78-.8c-.25 0-.32.17-.12.2a2.83 2.83 0 0 0 .42-.06s-.1-.08-.22-.1zm-5.21 7.59l.34-.07a.23.23 0 0 1 .11.07 1 1 0 0 1-.48 0z"/></g><g class="AO"><path d="M1225.09 611.56L1144 625.49l-181.97 19.6 52.01-1.42 26.94.23 86.76-7.15 109.62-18.19-5.3-1.42-2.61-1.99-12.42.88 37.26-2.75m-10.7 4.57l26.9-2.7 13.9 2.51-17.01-.2-23.79.39z"/></g><path d="M1191.34 642.44l-.77-6.7 67.7-11.47-51.88 9.88-2.5 4.69-12.55 3.6z" fill="url(#J)"/><path d="M1518.79 636.23l-2.36 3.43-18.48-.82-2.02 3.6 1.85 9.97-7.34-9.97-13.9-5.16-16.17 8.44-1.47-5.66-15.16-5.85 29.14-7.4 21.89 9.36 24.02.06z" class="AG"/><path d="M435.3 652.6c-2.76 1.18-8.79 1.93-11 1.91a43.2 43.2 0 0 1-11-2.1h-.11c-2-.78-2.85-1.7-1-2.66 3-1.57 21.1-1.38 24.05.9.93.69.38 1.35-.94 1.95z" class="AT"/><path d="M435.3 652.6a46.56 46.56 0 0 0-6.45-1 72.11 72.11 0 0 0-15.53.8h-.11c-2-.78-2.85-1.7-1-2.66 3-1.57 21.1-1.38 24.05.9.91.7.36 1.36-.96 1.96z" class="AU"/><path d="M1438.71 639c-2.76 1.18-8.79 1.93-11 1.91a43.2 43.2 0 0 1-11-2.1h-.11c-2-.79-2.85-1.71-1-2.67 3-1.57 21.09-1.38 24.05.9.93.71.35 1.39-.94 1.96z" class="AT"/><path d="M1438.71 639a46.8 46.8 0 0 0-6.45-1 72.11 72.11 0 0 0-15.53.8h-.11c-2-.79-2.85-1.71-1-2.67 3-1.57 21.09-1.38 24.05.9.91.72.33 1.4-.96 1.97z" class="AU"/><path d="M1965,667.87l634.8-1.34,2.15-79.95-256.89,4.22s-258.5,42.18-312.94,45c-10.8.56-11.84.55-40,2.67" fill="url(#K)"/><path d="M2600.7 629.35l-130.52 9.08-31.18 2.17-46.73-5.43-13.83-2.73-71.75.42-49.52.6-13.61-4.69h-51.72l-111.07 9.66-77.62 1.72s160.3-16.15 242.93-32.35 149.49-23.46 149.49-23.46l79.06-.47 3.31 5.3 62.19-7.48 23 5.13 38.05-5.13z" fill="url(#L)"/><path d="M2175.17 654.28l81.98-20.82 5.36-6.17 53.79-12.1-72.77 13.58-7.32 5.97-61.04 19.54z" class="AG"/><path d="M2043.1 645.77s41.12 4.47 45.18 4.05 60.22-3.44 63.4-3.31 69.7 1.3 69.7 1.3l50.85 3.77 116.42 5.57-85.78 4.9s-47-6.33-53.63-5.77-68.88.87-68.88.87l-32.65-4.32-30.28 4.32-53-2.87-25-5.77-37.43-2.32z" class="AI"/><path d="M2535.52 633.89l14.42 6.66 31.27-1.81-6.66-9.46-23.82-11.07-48.14 1.57-21-1.76-22.06 2.37-30.76 1.18 47.79 2.15 40.92 3.67 18.04 6.5z" fill="url(#M)"/><path d="M2475.47 583.87l-16.63 4.83-8.19 4.68-34.27 6.59 37.02-3.3 24.79-7.34-2.72-5.46z" class="AQ"/><path d="M2428.77 621.57l-36.94-6.38h-10.35-17.13-39.28l42.86 6.38 13.94-.94 46.9.94z" class="AK"/><path d="M2191.82 628.77l-11.86 18.29-41-.05-18.25.54 2.57-12.81 51.89-4.77 16.65-1.2z" class="AH"/><g class="AE"><path d="M2378.42 632.44v14.07l-1.5 2 6.15 8.64h5.59v11.18l4.76-12.05 46.2.87-.64-16.55-50.32-5.86-10.24-2.3zm157.1 1.45l3.2 13.45-3.2 1.17 3.2 19.82h42.49l-6.66-39.05-23.82-11.07-33.25 9.18 18.04 6.5z"/></g><path d="M2472.91 657.15h-33.29l-46.2-.87 31.47 5.77 20.48 2.73 27.54-7.63z" class="AJ"/><path d="M2064.47 654.28l-9.51 13.59h-38.97l23.51-19.36 24.97 5.77z" class="AH"/><g class="AE"><path d="M2509.51 635.7l-9.8 3.63-10.91 1.22h-15.89l-16.96 2.72-16.66 5.24-.31-7.91 53.61-3.24 16.92-1.66zm-168.31-3.26l-33.2 3.26-11.95-1.63-12.74 1.63h-29.28l-11.39 1.44 14.51-3.68 84.05-1.02zm-38.33 29.61l-10.95 2.73-30.72-2.73-9.46-5.77-11.44.87-37.34 3.38-22.6-3.38 73.53-1.84 48.98 6.74z"/></g><path d="M2452.66 639.03l-17.77-1.89-21.8-4.7-4.82-3.16-24.01.69-5.84 2.47 10.24 2.3 50.32 5.86 13.68-1.57z" class="AF"/><path d="M2550.73 618.21l-24.49-5.52-44.65-5.84-23.85-2.45-42.2 2.45-18.13 1.5-72.34 6.84h66.76l36.94 6.38 4.4-.17 48.42-3.38 21 1.76 48.14-1.57z" class="AL"/><path d="M2151.68 646.51v6.85l-34.25 3.79-29.15-1.84-23.81-1.03 23.81-4.46 28.06-3.31h35.34z" class="AF"/><g class="AM"><path d="M2250.17 627.53l-11.47-2.61-16.13 1.31-25.48 2.54h33.25 0l5.87 5.97 5.41-4.4 1.91-1.57 6.64-1.24zm59.42 1.24h-6.72l-3.43 1.06 10.15-1.06zm16.65.53l7.62.67-2.39.63-6.4-.63h-2.19l3.36-.67zm-6.12-3.44l-7.24-2.51 1.04 1.25 6.2 1.26zm97.8-27.05v-4.94l-9.65.63 4.82 1.84 4.83 2.47z"/></g><g class="AN"><path d="M2388 595.34a5.57 5.57 0 0 1 2-1.37 2.1 2.1 0 0 1 .52-.18 3.54 3.54 0 0 1 1.21 0c.85.13 1.19.5.91.87a4.14 4.14 0 0 1-2.15.9 6 6 0 0 1-1.68.13c-.51 0-.85-.23-.65-.42s.38 0 .33.07zm2.63 1.66a3.61 3.61 0 0 1 1.74-.64c.5.16.79.42.56.69a2.78 2.78 0 0 1-1.83.5c-.73 0-.88-.43-.16-.6zm-6.37-2.49a5.13 5.13 0 0 1 .66-.21h.1a.08.08 0 0 1 .07 0c.13.07-.06.22.16.25h.12s-.06.06-.14.07c-.42.07-.89 0-.88-.16h-.08zm-3.57-2.38a9.68 9.68 0 0 1 1.25-.39h.18a.42.42 0 0 1 .14 0c.25.13-.12.41.31.47a.6.6 0 0 1 .21 0c.06 0-.11.1-.26.13-.79.14-1.69 0-1.65-.3l-.15.07zm16.72 1.06a1.69 1.69 0 0 1 .8-.3c.05 0 .1.09.09.15s-.1.12-.26.15a1.36 1.36 0 0 1-.58 0v.06zm-3.63-6.67a1 1 0 0 1 .27-.08 1.17 1.17 0 0 1 .27 0c.23 0 .48 0 .73.06l-1.28.26h-.09c-.1 0 0 .08-.07.12s-.27.1-.45.12c-1.3.13.2-.32.62-.48zm-10.09.48c-.18.13.09.26.46.23s.66-.21.49-.3a1.37 1.37 0 0 0-.93.06zm4.39 4.76c-.3 0-.67.11-.68.21s.33.11.6.11a1.2 1.2 0 0 0 .35 0c.21-.09-.28-.17-.12-.27h-.16zm6.79 2.88a1.48 1.48 0 0 0-.29.08 2.65 2.65 0 0 0 .82-.08c.15 0 .32-.08.32-.13s-.08-.06-.12-.09 0-.18-.18-.19a.65.65 0 0 0-.33.07.2.2 0 0 0-.1.13l-.09.28zm.98 1.36c.12-.07.47-.05.48 0s-.16.16-.32.23-.37-.15-.29-.26zm-17.3 7l.27-.09a.65.65 0 0 1 .31 0c.12 0 0 .12 0 .17s.25.09.23.15-.26.12-.44.11a.74.74 0 0 1-.36-.1c-.08 0-.16-.09-.15-.14s.12-.13.29-.15zm32.22-5.94s0 .07.13.08a1.65 1.65 0 0 0 .31 0l.15-.05c.08 0 0-.11-.1-.12a.72.72 0 0 0-.38.07c-.07 0 0 .11.1.12zm-12.27-2.87c-.18 0-.08-.16.14-.19a.38.38 0 0 1 .19.08s0 .09-.15.12-.26 0-.24 0zm-1.93-5.04c-.18 0-.09-.16.14-.19.08 0 .16 0 .18.08s0 .09-.14.12-.27 0-.25 0zm-1.57 4.06c0-.09.18-.19.41-.26l.32.17c.05 0 .1 0 .1.09s-.25.14-.45.14-.34-.06-.35-.13zm-43.21.7l-1.12.27c0 .07.29.06.5 0a2.67 2.67 0 0 0 .57-.13c.15-.06.19-.16 0-.19z"/><path d="M2359.78 593.24c-.08-.09.27-.22.56-.21s.43.1.37.21a.29.29 0 0 1-.19.12 1.25 1.25 0 0 1-.54 0 .67.67 0 0 1-.28-.16zm30-1.77c-.07-.09 0-.2.27-.28a.6.6 0 0 1 .33.14c.06.08-.05.2-.3.25s-.56 0-.41-.11zm-.78.99c-.1.06-.07.14.07.17l.57-.14c0-.1-.33-.14-.6-.09zm-3.91 2.03h-.25a1.53 1.53 0 0 0 .39.11 1.33 1.33 0 0 0 .53 0c.14-.06.1-.15-.09-.15a2.69 2.69 0 0 0-.57.06zm13.6 1.14c-.06 0 0 .11.09.14a1.08 1.08 0 0 0 .44 0c.1 0 .19-.08.14-.1h-.11-.54 0zm3.78-.38c.08 0-.07.13-.22.19s-.31.13-.28.19a.1.1 0 0 0 .09 0 .79.79 0 0 0 .34-.1l.3-.07c.24-.06.4-.17.37-.25a.73.73 0 0 0-.37 0 .62.62 0 0 0-.3.11zm1.94-.02h.21s-.07.1-.19.12-.27 0-.28 0a.43.43 0 0 1 .24-.09zm.59 1.77h.22s-.07.09-.19.12-.27 0-.29 0 .12-.09.24-.09z"/><path d="M2397.62 593.79a.6.6 0 0 1-.38 0c-.1 0-.13-.08-.21-.11a.92.92 0 0 0-.39 0 .54.54 0 0 0-.24.05v.06a.25.25 0 0 0 .17.27 1.24 1.24 0 0 0 .73.07.83.83 0 0 0 .45-.16c.07-.07 0-.15-.1-.19zm5.89-7.09a.57.57 0 0 1-.37 0 1.14 1.14 0 0 1-.22-.12 1.11 1.11 0 0 0-.39 0 .72.72 0 0 0-.24 0 .07.07 0 0 0 0 .06.27.27 0 0 0 .17.28 1.46 1.46 0 0 0 .73.07.92.92 0 0 0 .45-.17c.07-.07 0-.14-.1-.18zm-5.25 5.71c0-.07.24-.13.42-.13a.52.52 0 0 1 .38.09v.08h-.16-.64zm-12.94-2.77c-.27 0-.18-.16 0-.26a.79.79 0 0 1 .38-.15.74.74 0 0 1 .52.1l.27.18s.08 0 0 .08a.57.57 0 0 1-.2.07 8.54 8.54 0 0 1-1.25.15zm-2 3.29c-2.49 0-1.35-1.08.87-1.24s1.3 1.31-.87 1.24zm9.52 2.9c0 .13.45.2.8.12a.37.37 0 0 0-.28-.26 1.4 1.4 0 0 0-.76 0v.17zm9.16.34c-.08 0-.15.05-.13.08s.07 0 .13.06h.18a.63.63 0 0 0 .34-.09c.06 0 0-.1-.05-.13h-.17a.21.21 0 0 0-.15 0zm-1.44-2.3l.2-.06c.08 0 .16.05.15.09s-.16.1-.25.08a.12.12 0 0 1-.07 0l-.12-.13zm9.1-4.45a2 2 0 0 1 .39-.18 1.35 1.35 0 0 1 .56 0 .2.2 0 0 1 .14.07c.07.09-.14.22-.43.26s-.6 0-.63-.1zm-15-.94c-.27 0-.35.19-.13.23a2.22 2.22 0 0 0 .45-.07s-.1-.1-.23-.12zm-5.66 8.98l.37-.09c.06 0 .1 0 .12.09a1.07 1.07 0 0 1-.53 0zm51.09 18.2a5.71 5.71 0 0 1 2-1.37 2.17 2.17 0 0 1 .51-.18 3.31 3.31 0 0 1 1.21 0c.85.13 1.2.5.91.87a4.14 4.14 0 0 1-2.14.9 6.08 6.08 0 0 1-1.68.13c-.51 0-.85-.23-.65-.43.17 0 .38 0 .33.08zm14.44 17.43a5.85 5.85 0 0 1 2-1.38 3.46 3.46 0 0 1 .52-.18 3.24 3.24 0 0 1 1.2 0c.85.13 1.2.5.92.86a4.13 4.13 0 0 1-2.15.91 6.49 6.49 0 0 1-1.68.13c-.51 0-.85-.23-.65-.43.17 0 .38 0 .33.07zm-11.76-15.81a3.51 3.51 0 0 1 1.74-.64c.49.16.79.42.56.69a2.8 2.8 0 0 1-1.83.5c-.73 0-.88-.43-.17-.61zm-6.37-2.45a4.67 4.67 0 0 1 .66-.21h.09.08c.13.07-.07.22.16.25h.11s-.06.06-.14.07c-.42.07-.89 0-.87-.16h-.08zm-51.68-5.97a9.06 9.06 0 0 1 1.24-.39h.18a.24.24 0 0 1 .14 0c.25.13-.12.4.31.47h.21c.03 0-.11.1-.26.13-.79.14-1.68 0-1.65-.3l-.15.07z"/><path d="M2449.54 613.51a1.73 1.73 0 0 1 .8-.3c.06 0 .11.09.1.15s-.11.12-.26.15a1.35 1.35 0 0 1-.58 0v.06zm-3.62-6.68a1.38 1.38 0 0 1 .26-.07 1.29 1.29 0 0 1 .28 0c.23 0 .47.05.73.06l-1.28.26h-.1c-.09 0 0 .08-.06.12s-.27.1-.46.12c-1.29.13.21-.32.63-.49zm-10.1.53c-.18.13.09.26.46.23s.66-.21.49-.31a1.35 1.35 0 0 0-.92.07zm4.39 4.72c-.29 0-.67.11-.68.21s.33.11.61.11a1.25 1.25 0 0 0 .35 0c.2-.09-.28-.17-.13-.27h-.16zM2447 615a1.71 1.71 0 0 0-.29.08 2.69 2.69 0 0 0 .83-.08c.15 0 .32-.08.32-.13s-.08-.06-.12-.09 0-.18-.19-.19a.63.63 0 0 0-.32.07.17.17 0 0 0-.1.13c0 .09-.06.19-.1.28zm1 1.29c.12-.07.46 0 .48 0s-.16.16-.32.23-.38-.15-.29-.26zm-17.32 7l.27-.09a.88.88 0 0 1 .32 0c.12 0 0 .13.05.18s.24.09.22.15-.26.12-.43.11a.82.82 0 0 1-.37-.1c-.08 0-.15-.09-.14-.14s.12-.13.28-.15zm32.23-5.91s0 .07.12.08a1.75 1.75 0 0 0 .32 0 .45.45 0 0 0 .14-.06c.09 0 0-.1-.1-.11a.59.59 0 0 0-.37.07c-.07 0 0 .11.1.12zm-12.27-2.87c-.18 0-.09-.16.14-.19a.38.38 0 0 1 .18.08s0 .09-.14.12-.27 0-.25 0zm-1.94-5.04c-.18 0-.08-.16.14-.19s.17 0 .19.08 0 .09-.15.11-.26 0-.24 0zm100.23-2.65c0-.09.18-.19.41-.26l.32.17c.05 0 .1 0 .1.09s-.25.14-.45.14-.34-.06-.35-.13zm-145 7.41l-1.13.27c0 .07.3.06.51 0a3.71 3.71 0 0 0 .57-.13c.15-.06.18-.16 0-.19zm7.99-.67c-.09-.09.26-.22.55-.22s.44.11.38.22a.29.29 0 0 1-.19.12 1.29 1.29 0 0 1-.55 0 .57.57 0 0 1-.27-.16zm29.99-1.77c-.07-.09.05-.2.28-.28a.53.53 0 0 1 .32.14c.06.08 0 .2-.29.25s-.56 0-.42-.11zm32.09 16.43c-.07-.09 0-.2.27-.27a.49.49 0 0 1 .33.13c.06.08 0 .2-.29.25s-.57 0-.42-.11zm-32.87-15.44c-.09.06-.06.14.08.17l.57-.14c0-.1-.34-.14-.61-.09z"/><path d="M2437.23 614.81h-.25a1.57 1.57 0 0 0 .38.11 1.36 1.36 0 0 0 .54-.05c.14-.06.1-.15-.09-.15a2.69 2.69 0 0 0-.57.06zm13.6 1.19c-.06 0 0 .11.08.14a.94.94 0 0 0 .44 0c.11 0 .2-.07.14-.09h-.1l-.54-.05h0zm3.78-.43c.08 0-.07.13-.22.19s-.32.13-.28.19a.1.1 0 0 0 .09 0 .83.83 0 0 0 .34-.1 2.21 2.21 0 0 1 .3-.07c.24-.06.39-.17.36-.25a.63.63 0 0 0-.37 0 .54.54 0 0 0-.29.11zm1.93-.02h.22s-.07.1-.19.12-.27 0-.29 0 .12-.09.24-.09zm.64 1.74h.21s-.07.09-.19.12-.26 0-.28 0 .12-.09.24-.09zm-7.42-3.18a.6.6 0 0 1-.38 0c-.1 0-.13-.08-.22-.11a.9.9 0 0 0-.39 0 .54.54 0 0 0-.24 0v.06a.26.26 0 0 0 .17.27 1.26 1.26 0 0 0 .73.07.87.87 0 0 0 .46-.16c.07-.07 0-.15-.11-.19zm5.89-7.11a.54.54 0 0 1-.38 0c-.1 0-.13-.07-.22-.11a1 1 0 0 0-.38 0 .72.72 0 0 0-.24.05v.06a.27.27 0 0 0 .16.28 1.46 1.46 0 0 0 .73.07.92.92 0 0 0 .46-.17c.07-.07 0-.14-.1-.18zm-5.25 5.73c0-.07.23-.13.42-.13a.53.53 0 0 1 .38.09v.08h-.2-.64zm-12.95-2.73c-.26 0-.17-.16 0-.26a.79.79 0 0 1 .38-.15.72.72 0 0 1 .51.1l.27.18s.08 0 0 .08a.66.66 0 0 1-.2.07 8.54 8.54 0 0 1-1.25.15zm-35.95 19.4c-2.49 0-1.34-1.09.87-1.24s1.3 1.27-.87 1.24zm43.5-13.25c0 .13.44.19.8.12a.39.39 0 0 0-.28-.26 1.35 1.35 0 0 0-.77 0v.17zm9.17.34c-.09 0-.15 0-.14.08s.07 0 .14.06h.18a.63.63 0 0 0 .34-.09s0-.1-.06-.13h-.16a.21.21 0 0 0-.15.05zm-1.48-2.3l.21-.06c.07 0 .16 0 .15.09s-.16.1-.26.08a.09.09 0 0 1-.06 0l-.13-.13zm9.1-4.45a2.16 2.16 0 0 1 .4-.18 1.32 1.32 0 0 1 .55 0 .21.21 0 0 1 .15.07c.07.09-.15.22-.44.26s-.59 0-.63-.1zm-14.99-.94c-.27 0-.36.19-.14.23a2.21 2.21 0 0 0 .46-.07c0-.05-.11-.1-.24-.12zm-5.68 8.97l.37-.08c.06 0 .11 0 .13.09a1.07 1.07 0 0 1-.53 0z"/></g><g class="AO"><path d="M2175.17 629.97l119.28-21.53-5.77-1.68-2.84-2.36-13.52 1.04 40.56-4.59 37.78-3.74 44.91-12.77-115.2 7.05-63.78 19.3-201.55 26.23 36.41 1.24 29.3.27 94.42-8.46zm126.06-22.37l29.27-3.2 15.13 2.97-18.52-.23-25.88.46z"/></g><path d="M2244.38 636.7l-.85-7.93 73.68-13.58-56.45 11.71-2.73 5.54-13.65 4.26z" fill="url(#N)"/><path d="M2600.7 629.35l-2.57 4.07-20.12-.98-2.19 4.26 2.01 11.81-7.98-11.81-15.13-6.1-17.6 10-1.6-6.71-16.49-6.93 31.7-8.75 23.82 11.07 26.15.07z" class="AG"/><path d="M2601.94 604.4l-65.64-1.54 4.78.45-14.84 9.38 24.49 5.52 23.82 11.07 26.15.07 1.24-24.95z" fill="#083b82"/><path d="M1256.61 661.05c-2.76 1.18-8.79 1.93-11 1.91a43.2 43.2 0 0 1-11-2.1h-.11c-2-.79-2.85-1.7-1-2.66 3-1.57 21.09-1.39 24 .9.98.69.42 1.37-.89 1.95z" class="AT"/><path d="M1256.61 661.05a48.06 48.06 0 0 0-6.45-1 71.79 71.79 0 0 0-15.53.81h-.11c-2-.79-2.85-1.7-1-2.66 3-1.57 21.09-1.39 24 .9.96.69.4 1.37-.91 1.95z" class="AU"/><path d="M1979.33 675.83h-506.55c-11.15-2.48-20.35-4.21-20.35-4.21l23.9-32.73L1673 625.76l240.12 24.08c19.29 1.07 41.66 3.1 41.66 3.1l19.17 10.71" fill="url(#O)"/><path d="M1510.44,633.49l-21.31-4.44-17.44,13.86,101.22,7.67,24.2,1.83,36.25-4.58,10.72-2.31,55.65.35,38.41.51,10.56-4h40.11l86.14,8.16,71.79,1.73s-135.92-13.94-200-27.61-112,3.48-112,3.48l-54.54-1.51" fill="url(#P)"/><path d="M1801.73 663.96l-63.59-17.58-4.16-5.21-41.71-10.22 56.43 11.47 5.68 5.04 47.35 16.5z" class="AG"/><path d="M1904.16,656.78s-31.89,3.77-35,3.41-46.71-2.89-49.18-2.79-54,1.1-54,1.1l-39.44,3.18-90.3,4.71,66.53,4.14s36.48-5.35,41.6-4.88,53.42.74,53.42.74l25.32-3.65,23.49,3.65,41.08-2.43,19.36-4.87,43.26-1.81Z" class="AI"/><path d="M1522.24 646.74l-11.18 5.63-24.26-1.53 5.16-7.99 18.48-9.36 37.34 1.34 16.29-1.5 17.1 2.01 23.87 1-37.07 1.81-31.74 3.1-13.99 5.49z" fill="url(#Q)"/><path d="M1605.04 636.34l28.64-5.39h8.03H1655h30.47l-33.25 5.39-10.81-.8-36.37.8z" class="AK"/><path d="M1788.81 642.42l9.2 15.45 31.8-.05 14.16.46-2-10.82-40.24-4.03-12.92-1.01z" class="AH"/><g class="AE"><path d="M1644.09 645.52v11.88l1.16 1.69-4.77 7.3h-4.33v9.45l-3.7-10.19-35.83.74.49-13.98 39.04-4.95 7.94-1.94zm-121.85 1.22l-2.48 11.36 2.48.99-2.48 16.75h-32.96l5.16-32.99 18.48-9.36 25.79 7.76-13.99 5.49z"/></g><path d="M1570.8 666.39h25.82l35.83-.74-24.4 4.88-15.89 2.31-21.36-6.45z" class="AJ"/><path d="M1887.59 663.96l7.37 11.49h30.22l-18.23-16.36-19.36 4.87z" class="AH"/><g class="AE"><path d="M1542.41 648.27l7.6 3.07 8.46 1.03h12.33l13.15 2.29 12.93 4.43.23-6.68-41.57-2.74-13.13-1.4zm130.54-2.75l25.75 2.75 9.27-1.38 9.89 1.38h22.7l8.84 1.22-11.26-3.11-65.19-.86zm29.73 25.01l8.49 2.31 23.83-2.31 7.34-4.88 8.87.74 28.96 2.85 17.53-2.85-57.03-1.55-37.99 5.69z"/></g><path d="M1586.5 651.09l13.79-1.6 16.91-3.97 3.74-2.67 18.61.58 4.54 2.09-7.94 1.94-39.04 4.95-10.61-1.32z" class="AF"/><path d="M1510.44 633.49l19-4.65 34.63-4.94 18.49-2.06 32.73 2.06 14.07 1.27 56.11 5.78h-51.79l-28.64 5.39-3.42-.15-37.55-2.86-16.29 1.5-37.34-1.34z" class="AL"/><path d="M1819.94 657.4v5.78l26.57 3.21 22.61-1.55 18.47-.88-18.47-3.77-21.76-2.79h-27.42z" class="AF"/><g class="AM"><path d="M1743.55 641.37l8.9-2.2 12.51 1.1 19.77 2.15h-25.79 0l-4.56 5.04-4.19-3.72-1.49-1.32-5.15-1.05zm-46.08 1.05h5.21l2.67.89-7.88-.89zm-12.92.45l-5.9.56 1.85.53 4.97-.53h1.69l-2.61-.56zm4.75-2.91l5.62-2.12-.81 1.06-4.81 1.06z"/></g><g class="AN"><path d="M1644 620.63a1.31 1.31 0 0 0-.21-.08.72.72 0 0 0-.25 0c-.09 0 0 .11 0 .15s-.18.08-.17.13.2.1.34.09a.62.62 0 0 0 .28-.08c.06 0 .12-.08.11-.12s-.09-.11-.22-.12zm-47.75 10.71a4.45 4.45 0 0 0-1.58-1.16 2 2 0 0 0-1.33-.17c-.66.11-.93.42-.71.73a3 3 0 0 0 1.66.76 4.57 4.57 0 0 0 1.31.12c.39 0 .66-.2.5-.37s-.29 0-.26.07zm-11.2 14.72a4.45 4.45 0 0 0-1.58-1.16 2 2 0 0 0-1.33-.17c-.66.11-.93.42-.71.73a3 3 0 0 0 1.66.76 4.54 4.54 0 0 0 1.3.12c.4 0 .66-.2.51-.37s-.29 0-.26.06zm9.13-13.35a2.68 2.68 0 0 0-1.35-.54c-.39.14-.62.35-.44.58a2.07 2.07 0 0 0 1.42.43c.57 0 .68-.37.13-.51zm4.94-2.07a5 5 0 0 0-.51-.18h-.08-.06c-.1 0 .06.18-.12.21h-.09l.11.06c.32.06.69 0 .68-.13h.06zm40.08-5.04a5.79 5.79 0 0 0-1-.33.31.31 0 0 0-.13 0 .16.16 0 0 0-.11 0c-.2.11.09.34-.24.39h-.17c-.03 0 .09.08.21.11.61.12 1.3 0 1.27-.26l.12.06zm-50.28 3.93a1.24 1.24 0 0 0-.62-.26s-.08.08-.07.13.08.1.2.13a.93.93 0 0 0 .45 0v.06zm2.81-5.64a.59.59 0 0 0-.2-.06.7.7 0 0 0-.21 0 5.1 5.1 0 0 1-.57 0l1 .23h.08c.07 0 0 .07 0 .1s.22.09.36.1c1.04.15-.13-.26-.46-.37zm7.83.44c.14.11-.07.22-.35.2s-.52-.18-.38-.26a1 1 0 0 1 .71.05zm-3.4 3.99c.23 0 .52.09.53.17s-.26.1-.47.1a.7.7 0 0 1-.27 0c-.16-.07.21-.14.09-.22h.13zm-5.27 2.43a1 1 0 0 1 .23.07 1.8 1.8 0 0 1-.64-.07c-.12 0-.25-.06-.25-.11s.06 0 .09-.08 0-.14.15-.16a.66.66 0 0 1 .25.06.2.2 0 0 1 .07.11l.08.24zm-.76 1.13c-.1-.07-.36 0-.37 0s.12.13.25.19.29-.13.22-.22zm13.42 5.91a1 1 0 0 0-.21-.08.64.64 0 0 0-.24 0c-.1 0 0 .1 0 .15s-.19.07-.18.12.21.1.34.09a.56.56 0 0 0 .29-.08c.06 0 .11-.07.11-.12s-.1-.1-.23-.12zm-25-5s0 .07-.09.07a.93.93 0 0 1-.24 0 .33.33 0 0 1-.12-.05c-.06 0 0-.09.08-.1a.43.43 0 0 1 .29.07s0 .08-.08.1zm9.52-2.42c.14 0 .07-.13-.11-.16a.3.3 0 0 0-.14.07s0 .08.11.1.21 0 .19 0zm1.51-4.26c.13 0 .06-.13-.12-.16a.3.3 0 0 0-.14.07s0 .08.12.1.2 0 .19 0z"/><path d="M1511.84 623.88c0-.08-.14-.17-.32-.23l-.25.15s-.08.05-.07.08.19.12.35.12.26 0 .26-.11zm112.46 6.26l.88.22c0 .06-.24 0-.4 0a1.68 1.68 0 0 1-.44-.1c-.12-.06-.14-.14 0-.16zm-6.2-.57c.07-.08-.2-.19-.42-.18s-.34.09-.3.18a.26.26 0 0 0 .15.1.75.75 0 0 0 .42 0 .55.55 0 0 0 .22-.12zm-23.26-1.5c.06-.07 0-.17-.21-.23a.42.42 0 0 0-.26.11c0 .07 0 .17.23.22s.44 0 .33-.1zm-24.9 13.93c.06-.07 0-.17-.21-.23a.35.35 0 0 0-.25.12c0 .07 0 .16.23.21s.43 0 .32-.1zm25.5-13.09c.08.05 0 .12 0 .14l-.45-.11c0-.08.26-.13.48-.08zm3.04 1.72h.19a.82.82 0 0 1-.3.09 1 1 0 0 1-.42 0c-.11-.05-.07-.13.07-.13a2.22 2.22 0 0 1 .45 0zm-10.55.96s0 .09-.07.12a.79.79 0 0 1-.34 0c-.08 0-.15-.06-.11-.08h.08.42 0zm-2.93-.32c-.06 0 .06.11.17.16s.25.11.22.16a.09.09 0 0 1-.07 0 .61.61 0 0 1-.26-.08 2 2 0 0 0-.23-.06c-.19-.05-.31-.14-.29-.22a.67.67 0 0 1 .29 0 .35.35 0 0 1 .23.1zm-1.51-.02h-.16s.05.08.15.1.2 0 .21 0a.29.29 0 0 0-.18-.08zm-.49 1.47h-.17s.06.08.15.1.21 0 .22 0a.29.29 0 0 0-.18-.08zm5.76-2.72a.35.35 0 0 0 .29 0c.08 0 .1-.07.17-.09a.66.66 0 0 1 .3 0 .49.49 0 0 1 .19 0v.06a.25.25 0 0 1-.13.23 1.08 1.08 0 0 1-.57.06.68.68 0 0 1-.35-.14c-.06-.06 0-.13.08-.16zm-4.57-5.95a.4.4 0 0 0 .29 0c.08 0 .1-.06.17-.09a.84.84 0 0 1 .3 0 .48.48 0 0 1 .19 0 .24.24 0 0 1-.13.23 1.08 1.08 0 0 1-.57.06.6.6 0 0 1-.35-.14c-.06-.06 0-.12.08-.16zm4.07 4.82c0-.06-.18-.11-.32-.11a.42.42 0 0 0-.3.07v.07h.12.5zm10.04-2.34c.21 0 .13-.14 0-.22a.65.65 0 0 0-.3-.13.51.51 0 0 0-.4.09l-.21.14s-.06.05 0 .08a.5.5 0 0 0 .16 0 5.15 5.15 0 0 0 1 .13zm27.88 16.47c1.93 0 1-.92-.67-1.05s-1.01 1.05.67 1.05z"/><path d="M1592.46 631.76c0 .11-.34.16-.62.09a.31.31 0 0 1 .22-.21.92.92 0 0 1 .59 0v.15zm-7.12.29c.06 0 .11 0 .1.06s-.06 0-.1 0h-.14a.48.48 0 0 1-.27-.08v-.11a.28.28 0 0 1 .13 0 .15.15 0 0 1 .12 0zm1.14-1.95l-.16-.05c-.06 0-.12 0-.12.08s.13.08.2.06a.06.06 0 0 0 0 0l.1-.11zm-7.06-3.76a1.49 1.49 0 0 0-.31-.15 1 1 0 0 0-.42 0 .17.17 0 0 0-.12.06c0 .07.11.18.34.22s.46 0 .49-.09zm11.63-.79c.21 0 .28.16.1.19h-.35c0-.05.08-.09.19-.11zm4.4 7.58l-.29-.07a.22.22 0 0 0-.09.07.73.73 0 0 0 .41 0z"/></g><g class="AO"><path d="M1719.57 618.24l68.44 13.93 153.57 19.6-43.89-1.42-22.74.23-73.22-7.15-92.52-18.19 4.47-1.42 2.21-1.98 10.48.87-31.45-2.74m9.03 4.56l-22.7-2.69-11.73 2.5 14.36-.2 20.07.39z"/></g><path d="M1748.05 649.12l.65-6.7-57.14-11.47 43.79 9.89 2.11 4.68 10.59 3.6z" fill="url(#R)"/><path d="M1471.69 642.91l1.99 3.44 15.6-.83 1.7 3.6-1.56 9.97 6.19-9.97 11.74-5.16 13.65 8.45 1.24-5.67 12.79-5.85-24.59-7.4-18.48 9.36-20.27.06z" class="AG"/><path d="M583.25 649.72l-4.43-49.78-1.08-18.54 1.91-7.99h2.1l7.88 12.35 2.37 26.4v40.38l-5.91-.71-2.84-2.11z" fill="url(#S)"/><path d="M586.09 651.83l-3.02-46.79 8.02-30.88 3.37-.75 3.01-15.18 4.63-4.49 8.7 27.54 1.08 21.36 7.93 4.74 6.32 45.95-6.04 2.59-34-4.09h0z" fill="url(#T)"/><g fill="#5bebf3"><path d="M591.09 574.16l3.79 6.74 5.37 7.38 1.67 5.66-.05-7.22-1.99-2.67-5.42-10.64-3.37.75zm6.38-15.93l4.4 9.78 1.65 8.63 3.57 2.72 3.71 1.92-8.7-27.54-4.63 4.49zm-17.82 15.18l-1.42 5.95 2.67 3.4 5.98 1.4 1.42-.49-6.55-10.26h-2.1z"/></g><path class="t" d="M583.07 605.04l6.43 7.94 3.97 10.08 4 18.28 4.9 4.06-1.62-28.51 4.75-3.91 2.22 11.62-2.3 30.28-19.33-3.05-3.02-46.79z" fill="#833bc7" opacity=".3"/><path d="M620.09 655.92l-3.15-36.34 9.19-23.02 2.31 1.14 5.33 21.7 5.32 38.76-11.07-.47-7.93-1.77z" fill="url(#U)"/><path d="M605.6 656.8l-2.08-22.85.95-3.56 6.53-11.63.79-1.87 5.15.55 6.38 20.48 2.35 19.77-5.58-1.77-6.84 1.77-7.65-.89z" fill="url(#V)"/><g fill="#5bebf3"><path d="M611 618.76l-6.53 11.63 8.28 6.55 1.85-.8 9.7 2.34-7.36-21.04-5.15-.55-.79 1.87zm15.13-22.2l-2.98 7.46 1.25 7.09.24 1.4 6.24 7.78 2.89-.89-5.33-21.7-2.31-1.14zm-14.25 6.08l-2.82 5.63-4.59 3.89-3.72 4.73 4.75-3.91 8.89-1.97 5.42-3.63-7.93-4.74z"/></g><g fill="#833bc7"><path class="t" d="M594.46 573.41l3.01-15.18 4.4 9.78-3.59 12.89-3.82-7.49zm30.18 39.1l3.8 22.5 2.44-3.62-2.86 26.3-2.48-1.13-1.24-18.08-6.96-19.9 5.81-14.56 1.49 8.49z" opacity=".3"/><path class="t" d="M612.75 636.94v18.46l-3.43-8.58-3.72 9.98-2.08-22.85.95-3.56 8.28 6.55zm-9.23-60.3l-.32 11.64-.36 16.76-.92-11.1-.05-7.22-3.59-5.82 3.59-12.89 1.65 8.63z" opacity=".3"/></g><g fill="#24d2f3"><path d="M594.86 607a9.33 9.33 0 0 1-5.93-2c-2.88-2.27-4.37-4.78-4.3-7.25h0c-.54-.4-4.07-2.42-6.28-3.66l.24-.43 6.53 3.92a1 1 0 0 1 0 .2c-.08 2.92 2.2 5.34 4.11 6.85 4.14 3.26 9.66 1.48 12.58.12a13.91 13.91 0 0 0 2.89-2.7 13.65 13.65 0 0 1 3.33-3c1.69-.75 3.5-1.36 3.52-1.36l.16.47s-1.81.61-3.48 1.34a13.93 13.93 0 0 0-3.17 2.92 13.3 13.3 0 0 1-3 2.81 17.59 17.59 0 0 1-7.2 1.77z"/><path d="M603.65 603.93l-.46-.19c.1-.24 2.46-5.94 4.76-8.42a14.77 14.77 0 0 0 3.06-5.21l.48.13a15 15 0 0 1-3.17 5.42c-2.24 2.42-4.64 8.22-4.67 8.27zm3.92 20.87c-2.14-1.7-5.81-4.37-6.61-4.37h0a15.19 15.19 0 0 0-1.72.33c-2.6.58-6.94 1.55-9.63.7-3.59-1.13-5-1.13-5.46-.93a30.75 30.75 0 0 1-3.2.62l-.07-.5a26.17 26.17 0 0 0 3.09-.59c.87-.33 2.76 0 5.79.93 2.56.8 6.82-.15 9.37-.71a13.34 13.34 0 0 1 1.81-.35h0c1.22 0 6 3.72 6.93 4.47zm29.74 24.2a60.28 60.28 0 0 1-8.23-1.33l-4-1.56h-12.3c-.7 0-7.31-3.31-8.63-4l.23-.45 8.4 3.92h12.42l4 1.57c3.77.79 8 1.5 8.44 1.31l.29.4a1.25 1.25 0 0 1-.62.14zm-2.49-22.15l-3.82-1.44c-1-.29-5.08-4.57-5.54-5.06l.36-.34c1.7 1.79 4.65 4.72 5.32 4.92 1 .3 3.72 1.41 3.84 1.46z"/></g><g fill="#02fffc"><path d="M612.81 577a4.73 4.73 0 0 0-2-.12.94.94 0 0 0-.32.11.67.67 0 0 0-.23.57 1.34 1.34 0 0 0 .93 1.16 1.64 1.64 0 0 0 1.49-.32 1.08 1.08 0 0 0 .44-.72.62.62 0 0 0-.43-.67.13.13 0 0 0 0 .22zm16.86 14a4.44 4.44 0 0 0-2-.12.68.68 0 0 0-.31.11.64.64 0 0 0-.24.57 1.34 1.34 0 0 0 .94 1.16 1.66 1.66 0 0 0 1.48-.32 1 1 0 0 0 .44-.72.61.61 0 0 0-.42-.67.13.13 0 0 0 0 .22zm-15.28-11.38a1.2 1.2 0 0 0-1.09.34 1.25 1.25 0 0 0 .77.84.76.76 0 0 0 .94-.49c.07-.39-.4-.79-.74-.58zm-3.59 1.09a1.31 1.31 0 0 0-.37.15v.05c0 .05.28.14.28.28v.07c0 .07.08 0 .11 0a.37.37 0 0 0-.06-.56h0zm-.8-9.93a2.9 2.9 0 0 0-.7.3l-.06.06a.09.09 0 0 0 0 .1c.12.23.53.27.54.53v.14c0 .04.15 0 .21 0a.69.69 0 0 0-.11-1.06h.12zm-23.7-5.7a2.28 2.28 0 0 0-.7.3.12.12 0 0 0-.06.06.13.13 0 0 0 0 .09c.12.24.53.28.54.54a.32.32 0 0 0 0 .14c0 .06.15 0 .21 0a.69.69 0 0 0-.1-1h.11zm22.26 14.8a.59.59 0 0 0-.51.15.69.69 0 0 0 .17.17.23.23 0 0 0 .24 0 .33.33 0 0 0 0-.32h.08zm-.56 1.21a.21.21 0 0 0-.13.07.25.25 0 0 0 0 .15 2.73 2.73 0 0 1-.05.4l.54-.42h0c.06 0 .11.05.17.07s.17-.05.22-.13c.34-.59-.48-.23-.75-.14zm-7.18-8.44a.23.23 0 0 0-.14.07.22.22 0 0 0 0 .14 1.84 1.84 0 0 1 0 .41l.54-.42h0c.07 0 .11 0 .17.07s.17 0 .22-.13c.29-.59-.52-.22-.79-.14zm3.25 6.47l-.17.12a.33.33 0 0 0 .35.12.19.19 0 0 0 .06-.32c-.07 0-.2-.08-.16-.15zm2.22-2.68a.29.29 0 0 1 .21.42.29.29 0 0 1-.47 0 .3.3 0 0 1 .23-.41zm2.02-2.32c.09-.12.25-.24.37-.17s.09.26 0 .39-.05.13-.11.14-.16-.28-.31-.28 0-.08.07-.05zm39.01 25.06a.66.66 0 0 0-.53.33.35.35 0 0 0 .24.5.22.22 0 0 0 .17 0l.08-.08a.58.58 0 0 0 .16-.4.29.29 0 0 0-.3-.27zm-16.15.14a.27.27 0 0 0 .07.18 1 1 0 0 0 .18.08c.13.07.19.24.3.34a.79.79 0 0 0 .75 0c.06 0 .13 0 .14-.1a.27.27 0 0 0 0-.13c-.11-.3.18-.48.15-.76a.81.81 0 1 0-1.57.37zm-27.82-44.27a.34.34 0 0 0 .08.17c.05 0 .12 0 .18.08s.18.24.3.34a.79.79 0 0 0 .75 0c.06 0 .13 0 .14-.1a.27.27 0 0 0 0-.13c-.11-.3.18-.48.15-.76a.86.86 0 0 0-.47-.58.87.87 0 0 0-1.13.98zm7.45 24.77a.25.25 0 0 1 .14-.08.49.49 0 0 1-.23.34c-.07 0-.15.1-.22 0s-.06-.09-.1-.13-.22-.14-.2-.25a.13.13 0 0 1 .14-.1.61.61 0 0 1 .18.05l.36.19z"/><path d="M612.3 581.39c-.12 0-.14.19 0 .26a.4.4 0 0 0 .34 0 .41.41 0 0 0-.28-.35zm-1.7.31a.49.49 0 0 0-.16 0 .18.18 0 0 0-.06.15c0 .09.15.11.22.17s.06.19.15.23.18 0 .2-.12a.4.4 0 0 0-.06-.26.43.43 0 0 0-.16-.19.18.18 0 0 0-.22 0zm-.71.23c.05 0 .08.07.07.12a.19.19 0 0 1-.1.12.16.16 0 0 1-.09 0 .13.13 0 0 1-.13-.14.15.15 0 0 1 .16-.13.16.16 0 0 1 .13.15zm1.3 7.7s.09.07.08.12a.2.2 0 0 1-.1.12h-.09a.13.13 0 0 1-.13-.14.14.14 0 0 1 .15-.13.17.17 0 0 1 .14.15zm-1.56-8.39a.16.16 0 0 0-.26-.09.29.29 0 0 0 .07.16.14.14 0 0 0 .17 0 .09.09 0 0 0 0-.15zm-5.98-5.07a.16.16 0 0 0-.26-.09.29.29 0 0 0 .07.16.14.14 0 0 0 .17 0 .09.09 0 0 0 0-.15zm5.35 2.55a.53.53 0 0 0-.41 0l.17.3a.26.26 0 0 0 .1.13.19.19 0 0 0 .25-.11.25.25 0 0 0-.11-.27zm1.23-3.11l.51-.34c.09.06 0 .19 0 .27a.49.49 0 0 1-.25.18c-.11 0-.23 0-.23-.15zm2.77-1.56a.22.22 0 0 0-.36.09.31.31 0 0 0 .2.36.21.21 0 0 0 .19 0 .23.23 0 0 0 .11-.25.6.6 0 0 0-.14-.25zm-5.34.67a.34.34 0 0 0-.38-.09.44.44 0 0 0 .11.27.29.29 0 0 0 .37.06c.1-.08.06-.3-.08-.3zm1.34.42a.21.21 0 0 1 .19.18l-.26.17a.24.24 0 0 1 0-.37zm25 20.14l.38.3a.33.33 0 0 0 .13.07h.14c.16-.06.35-.17.35-.34s-.24-.27-.41-.36-.81-1-1.24-.7.39.85.65 1.03z"/><path d="M612.22 574.88l.09-.09a.55.55 0 0 1 .07.28.24.24 0 0 1-.15.22.15.15 0 0 1-.17-.17.48.48 0 0 1 .17-.23zm-.82 7.63a.21.21 0 0 1 .08.37h-.14a.17.17 0 0 1 0-.07v-.3h0zm.41 1.49a.26.26 0 0 0 .12.26c.07.07.16.15.14.25a.07.07 0 0 1 0 .06c-.07 0-.12-.05-.17-.09a.56.56 0 0 0-.16-.07.32.32 0 0 1-.18-.33.18.18 0 0 1 .18-.08.19.19 0 0 1 .15.14zm-.97.28h-.1a.12.12 0 0 0 .09.14.1.1 0 1 0 .02-.19zm-.28 2.72h-.11a.14.14 0 0 0 .1.15.12.12 0 0 0 .14-.09.1.1 0 0 0-.12-.11zm-1.28-6.52c.07 0 .12-.09.1-.16a2 2 0 0 0-.11-.2.31.31 0 0 1 0-.23.14.14 0 0 1 .11-.07.11.11 0 0 1 .08 0 .84.84 0 0 1 .32.3.4.4 0 0 1 0 .42.3.3 0 0 1-.28.09.28.28 0 0 1-.21-.2zm-9.83-2.88c.07 0 .12-.09.1-.16s-.08-.13-.11-.2a.31.31 0 0 1 0-.23.14.14 0 0 1 .11-.07.11.11 0 0 1 .08 0 .77.77 0 0 1 .32.3.4.4 0 0 1 0 .42.3.3 0 0 1-.28.09.28.28 0 0 1-.21-.2zm7.99 2.07a.18.18 0 0 0-.23.1.25.25 0 0 0 0 .26s.07.06.11 0a.2.2 0 0 0 0-.08l.07-.33zm-4.18-1.9a.9.9 0 0 0-.41-.58.14.14 0 0 0-.11 0c-.09 0-.07.16-.08.25s-.15.28-.16.44a.65.65 0 0 0 .15.35c.11.15.3.32.46.22a.33.33 0 0 0 .12-.25 1.79 1.79 0 0 0 0-.61zm2.86-6.77c0-.15-.17-.22-.32-.23a.3.3 0 0 0-.26.06c-.08.1 0 .24.05.34l.18.28a.15.15 0 0 0 .1.09.16.16 0 0 0 .11-.05 1.35 1.35 0 0 0 .4-.49zm-19.69 4.08c.37-1.25-1.13-1.55-1.69-.58s1.37 1.68 1.69.58zm26.19 4.71a.32.32 0 0 1 0 .49.77.77 0 0 1-.27-.35.26.26 0 0 1 .18-.34l.21.15zm18.21 24.55l-.18.12a1.83 1.83 0 0 1 .35.66 1.42 1.42 0 0 0 .11.35.35.35 0 0 0 .29.21c.23 0 .35-.28.34-.51a1 1 0 0 0-.36-.77.69.69 0 0 0-.82 0l.15.24zm-59.91-15.22c-.08-.06-.12 0-.1.1a1.46 1.46 0 0 0 .16.3l.43.64c.14.21.18.26.27.29s.1-.07.07-.18a1.3 1.3 0 0 0-.15-.32 2.06 2.06 0 0 0-.74-.87v.21zm41.13-3.77a.08.08 0 0 1 .07.09.14.14 0 0 1-.07.11.2.2 0 0 1-.09.06.18.18 0 0 1-.17-.09.19.19 0 0 1 0-.19.16.16 0 0 1 .08-.06.09.09 0 0 1 .08.05zm-10.73-21.41a3.08 3.08 0 0 0-.44-.37.2.2 0 0 0-.08.14.52.52 0 0 0 .5.56.15.15 0 0 0 .11 0 .12.12 0 0 0 0-.15c0-.06-.07-.09-.11-.13zm7.57 18.06h-.11a.26.26 0 0 0 .09.15c.06 0 .15 0 .14-.06a.13.13 0 0 0 0-.06l-.14-.17zm-2.12-3.81a.58.58 0 0 0-.29 0 .24.24 0 0 0-.15.23.25.25 0 0 0 .06.13.29.29 0 0 0 .4 0 .28.28 0 0 0 0-.39zm-3.65-3.51a.21.21 0 0 1 .32.13.65.65 0 0 1-.16.17.35.35 0 0 1-.12-.22zm16.78-16.08c-.08 0-.15.1-.08.16a.18.18 0 0 0 .23-.06.2.2 0 0 0-.2-.1zm-4.62 20.62l-.16.11a.35.35 0 0 0 .08.13.19.19 0 0 0 .13-.23zm-.92-17.06l-.17.11a.38.38 0 0 0 .09.13.19.19 0 0 0 .13-.23zm-1.6 8.64a.71.71 0 0 1 .64-.22h.07c.02 0 0 .08 0 .12-.06.26-.17.57-.43.6a.33.33 0 0 1-.33-.44l.21-.06zm24.38 35.2a.7.7 0 0 1 .64-.22.11.11 0 0 1 .08 0 .15.15 0 0 1 0 .13c-.06.26-.16.56-.42.6a.34.34 0 0 1-.34-.44l.21-.06z"/></g><ellipse class="y" cx="594.46" cy="597.7" rx="13.09" ry="17.24" fill="url(#W)"/><ellipse class="z" cx="626.54" cy="627.69" rx="7.55" ry="15.24" fill="url(#X)"/><ellipse class="AA" cx="615.34" cy="631.39" rx="15.24" ry="17.55" transform="matrix(.973738 -.227671 .227671 .973738 -127.57 156.64)" fill="url(#Y)"/><path class="AB" d="M637.88 650.35l43.5 4c-7 9.32-21.27 17.32-37.62 21.14-26.2 6.12-50.42-.2-53.64-14s15.68-30.2 41.88-36.32l2.15-.48z" fill="url(#Z)"/><path d="M575.95 659.88l5.15-7.29 2.35-4.43 2.83 2.12 19.33 3.05 14.67 1.03 19 2.24 3.79 3.28-8.37 2.45-32.14-3.96-10.86 1.51h-15.75z" class="AE"/><path d="M1422.78,619.26l-3.15-25.43-2.09-3.34v-8.32l-2.83-59.36-2-13-2-7.61-3-26.45-3.64-2.71-4.79,3.42-.73,5.79-.31-37.4-2-7.53-4.64,2.37-7.57,6.65-1.4,59.28-4.27,4.19-1.54,9.22v47.67c-4.12,8.24-7.88,14.3-10,25.92V628l22.1-.84,6.6-2h3.75l2.61-1.09,10.65-3.65Z" fill="url(#a)"/><path class="X AR" d="M1404.09 472.99l1.76 2.03 1.11 17.7-1.44-3.28v28.47l1.44-3.58V540l-1.14-1.73-3.91 1.73-3.34-57.8.15-38.81-2.44-6.12-2.45 1.71-1.57 21.52-2.15-6.21.32 45.77-1.35 6.14-1.16 26.44-3.54 9.7-2.35-26.21v39.83l1.4-2.75-.51 25.19-.26 23.64-6.07 18.21-1.03-2.92-8.71 10.67 22.1-.85 6.6-1.98.61-65.66 1.78 2.65 3.66-16.39 2.49 9.45v25.92l-2.81 35.36-1.81 1.82-.17 6.85 13.26-4.74v-23.57l4.98-6.37-2.83-67.68-2-13.05-1.98-8.82-3.14-26.36-3.5-1.59z" opacity=".5"/><path d="M1376.85 566.65l2.72-1.76s1.6 13.51.8 22.32-13.52 9.65-13.52 9.65v-5.4s2.37-15.84 10-24.81z" class="AS"/><path d="M1378.39 568.9s.14 11.1-.31 15.45-5.43 10-6.61 10.64l-1.18.69-1.15 15.49v-15.95s-.71-5.87 2.33-14.94 6.92-11.38 6.92-11.38z" class="AP"/><path d="M1378.39 582.05s-1 .21-4.67 3.39a15.81 15.81 0 0 0-4.65 7.64l.07 2.14v15.95l1.15-15.49s7.79-3.41 8.1-13.63z" fill="#fc0"/><path d="M1369.14 611.17l-.07 9.08.5 4.42 1.36 3.18-8.33.78-13.91 1.9-8.16 1.78-23.08 6.29-1.76 7.07-.69 17.3-.22-17.65 1.16-4.41 1.51-2.31 9.12-3.14 16.11-4.35 6.35-1.65 17.82-2.09 1.5-4.5.79-11.7z" class="AP"/><g class="AS"><path d="M1419.63 593.83l-2.09 2.78-4.98.25 4.98-6.37 2.09 3.34zm-18.03-48.06l2.49 9.45-2.89 9.67-5.12 4 .08-9.38 1.78.99 3.66-14.73zm-18.94-40.2l2 2-4.07 4.93-3.74 6.48 1.23-10.14 4.58-3.27zm21.43-32.58l2.72 2.03-2.72 2.13-2.18 3.01-2.61-3.75 4.79-3.42zm-7.81-35.72l-.2 3.77-4.45 3.04-3.18 5.29-4.07 3.2-.32-6.28 7.57-6.65 4.65-2.37z"/></g><g class="AP"><path d="M1410.73 502.15l-3.92 8.7-1.29 2.08-5.05 3.2-6.22 9.79-2.05 8.41-4.51 4.68-3.03 2.56 2.88-3.14 4.25-4.38 2.61-8.64 5.58-9.28.49-.63 4.71-2.88 1.33-1.7 2.1-7.71h.56l1.56-1.06zm-1.91-16.78l-1.96 5.73-1.85 1.81-5.71 2.88-6.1 8.2-3.09 1.89 2.91-2.2 3.26-5.38.62.2 2.38-3.97 3.67-1.6 1.63-.51 2.28-1.32.16-2.41 1.8-3.32z"/></g><path d="M0 665.08h2600v106H0z" fill="#0e1747"/><path d="M1046.9 663.68l15.8-2.77 24.86 4.13 30.03.09-25.37 7.61-26.21 2-19.11-11.06z" class="AJ"/><path d="M1117.59 665.13l-5.03 5.79 24.12 6.55 28.94-4.9 21.68-1.49-17.99-5.51-27.17-.44h-24.55z" class="AF"/></g></g></svg>